G04 #@! TF.GenerationSoftware,KiCad,Pcbnew,(5.1.5)-3*
G04 #@! TF.CreationDate,2020-04-26T19:13:21-05:00*
G04 #@! TF.ProjectId,LED_Board_s_,4c45445f-426f-4617-9264-5f735f2e6b69,rev?*
G04 #@! TF.SameCoordinates,Original*
G04 #@! TF.FileFunction,Copper,L2,Bot*
G04 #@! TF.FilePolarity,Positive*
%FSLAX46Y46*%
G04 Gerber Fmt 4.6, Leading zero omitted, Abs format (unit mm)*
G04 Created by KiCad (PCBNEW (5.1.5)-3) date 2020-04-26 19:13:21*
%MOMM*%
%LPD*%
G04 APERTURE LIST*
%ADD10O,1.700000X1.700000*%
%ADD11R,1.700000X1.700000*%
%ADD12C,7.000000*%
%ADD13C,0.800000*%
%ADD14C,0.254000*%
G04 APERTURE END LIST*
D10*
X60960000Y-77470000D03*
X60960000Y-80010000D03*
X60960000Y-82550000D03*
D11*
X60960000Y-85090000D03*
D12*
X165180000Y-114380000D03*
X165179999Y-48180001D03*
X60880000Y-48180000D03*
D13*
X63505000Y-48180000D03*
X62736155Y-50036155D03*
X60880000Y-50805000D03*
X59023845Y-50036155D03*
X58255000Y-48180000D03*
X59023845Y-46323845D03*
X60880000Y-45555000D03*
X62736155Y-46323845D03*
D12*
X60880001Y-114379999D03*
D13*
X69380000Y-45095000D03*
X75200000Y-45095000D03*
X81020000Y-45095000D03*
X86840000Y-45095000D03*
X92660000Y-45095000D03*
X98480000Y-45095000D03*
X104300000Y-45095000D03*
X110120000Y-45095000D03*
X115940000Y-45095000D03*
X121760000Y-45095000D03*
X127580000Y-45095000D03*
X133400000Y-45095000D03*
X139220000Y-45095000D03*
X145040000Y-45095000D03*
X150860000Y-45095000D03*
X156680000Y-45095000D03*
X67310000Y-48843000D03*
X84770000Y-48843000D03*
X102230000Y-48843000D03*
X119690000Y-48843000D03*
X137150000Y-48843000D03*
X154610000Y-48843000D03*
X67310000Y-67893000D03*
X84770000Y-67893000D03*
X102230000Y-67893000D03*
X119690000Y-67893000D03*
X137150000Y-67893000D03*
X154610000Y-67893000D03*
X67310000Y-86943000D03*
X84770000Y-86943000D03*
X102230000Y-86943000D03*
X119690000Y-86943000D03*
X137150000Y-86943000D03*
X154610000Y-86943000D03*
X67310000Y-105993000D03*
X84770000Y-105993000D03*
X102230000Y-105993000D03*
X119690000Y-105993000D03*
X137150000Y-105993000D03*
X154610000Y-105993000D03*
X110120000Y-117485000D03*
X145040000Y-117485000D03*
X150860000Y-117485000D03*
X156680000Y-117485000D03*
X75200000Y-117485000D03*
X92660000Y-117485000D03*
X86840000Y-117485000D03*
X98480000Y-117485000D03*
X133400000Y-117485000D03*
X104300000Y-117485000D03*
X81020000Y-117485000D03*
X115940000Y-117485000D03*
X121760000Y-117485000D03*
X127580000Y-117485000D03*
X139220000Y-117485000D03*
X69380000Y-117485000D03*
X72390000Y-56568000D03*
X89850000Y-56568000D03*
X107310000Y-56568000D03*
X124770000Y-56568000D03*
X142230000Y-56568000D03*
X72390000Y-75618000D03*
X89850000Y-75618000D03*
X107310000Y-75618000D03*
X124770000Y-75618000D03*
X142230000Y-75618000D03*
X72390000Y-94668000D03*
X89850000Y-94668000D03*
X107310000Y-94668000D03*
X124770000Y-94668000D03*
X142230000Y-94668000D03*
X72390000Y-113718000D03*
X89850000Y-113718000D03*
X107310000Y-113718000D03*
X124770000Y-113718000D03*
X142230000Y-113718000D03*
X157530000Y-112510000D03*
X157530000Y-93460000D03*
X157530000Y-74410000D03*
X157530000Y-55360000D03*
X110120000Y-64145000D03*
X110120000Y-83195000D03*
X110120000Y-102245000D03*
X145040000Y-64145000D03*
X145040000Y-83195000D03*
X145040000Y-102245000D03*
X150860000Y-64145000D03*
X150860000Y-83195000D03*
X150860000Y-102245000D03*
X156680000Y-64145000D03*
X156680000Y-83195000D03*
X156680000Y-102245000D03*
X75200000Y-64145000D03*
X75200000Y-83195000D03*
X75200000Y-102245000D03*
X92660000Y-64145000D03*
X92660000Y-83195000D03*
X92660000Y-102245000D03*
X86840000Y-64145000D03*
X86840000Y-83195000D03*
X86840000Y-102245000D03*
X98480000Y-64145000D03*
X98480000Y-83195000D03*
X98480000Y-102245000D03*
X133400000Y-64145000D03*
X133400000Y-83195000D03*
X133400000Y-102245000D03*
X104300000Y-64145000D03*
X104300000Y-83195000D03*
X104300000Y-102245000D03*
X81020000Y-64145000D03*
X81020000Y-83195000D03*
X81020000Y-102245000D03*
X115940000Y-64145000D03*
X115940000Y-83195000D03*
X115940000Y-102245000D03*
X121760000Y-64145000D03*
X121760000Y-83195000D03*
X121760000Y-102245000D03*
X127580000Y-64145000D03*
X127580000Y-83195000D03*
X127580000Y-102245000D03*
X139220000Y-64145000D03*
X139220000Y-83195000D03*
X139220000Y-102245000D03*
X69380000Y-64145000D03*
X69380000Y-83195000D03*
X69380000Y-102245000D03*
X127580000Y-98435000D03*
X127580000Y-79385000D03*
X127580000Y-60335000D03*
X139220000Y-98435000D03*
X139220000Y-79385000D03*
X139220000Y-60335000D03*
X69380000Y-98435000D03*
X69380000Y-79385000D03*
X69380000Y-60335000D03*
X104300000Y-98435000D03*
X104300000Y-79385000D03*
X104300000Y-60335000D03*
X81020000Y-98435000D03*
X81020000Y-79385000D03*
X81020000Y-60335000D03*
X121760000Y-98435000D03*
X121760000Y-79385000D03*
X121760000Y-60335000D03*
X133400000Y-98435000D03*
X133400000Y-79385000D03*
X133400000Y-60335000D03*
X115940000Y-98435000D03*
X115940000Y-79385000D03*
X115940000Y-60335000D03*
X145040000Y-98435000D03*
X145040000Y-79385000D03*
X145040000Y-60335000D03*
X150860000Y-98435000D03*
X150860000Y-79385000D03*
X150860000Y-60335000D03*
X156680000Y-98435000D03*
X156680000Y-79385000D03*
X156680000Y-60335000D03*
X75200000Y-98435000D03*
X75200000Y-79385000D03*
X75200000Y-60335000D03*
X92660000Y-98435000D03*
X92660000Y-79385000D03*
X92660000Y-60335000D03*
X86840000Y-98435000D03*
X86840000Y-79385000D03*
X86840000Y-60335000D03*
X98480000Y-98435000D03*
X98480000Y-79385000D03*
X98480000Y-60335000D03*
X110120000Y-98435000D03*
X110120000Y-79385000D03*
X110120000Y-60335000D03*
X162500000Y-60335000D03*
X168320000Y-60335000D03*
X162500000Y-79385000D03*
X168320000Y-79385000D03*
X162500000Y-98435000D03*
X168320000Y-98435000D03*
X162500000Y-102245000D03*
X168320000Y-102245000D03*
X162500000Y-64145000D03*
X168320000Y-64145000D03*
X162500000Y-83195000D03*
X168320000Y-83195000D03*
X162500000Y-87005000D03*
X162500000Y-90815000D03*
X162500000Y-94625000D03*
X168320000Y-87005000D03*
X168320000Y-90815000D03*
X168320000Y-94625000D03*
X162500000Y-67955000D03*
X162500000Y-71765000D03*
X162500000Y-75575000D03*
X168320000Y-67955000D03*
X168320000Y-71765000D03*
X168320000Y-75575000D03*
D14*
G36*
X165147268Y-43915001D02*
G01*
X165934746Y-43985282D01*
X166665642Y-44185232D01*
X167349574Y-44511451D01*
X167964927Y-44953627D01*
X168492258Y-45497790D01*
X168914885Y-46126727D01*
X169219462Y-46820571D01*
X169397714Y-47563040D01*
X169445001Y-48206977D01*
X169445000Y-81316104D01*
X169445001Y-81316114D01*
X169444999Y-114347269D01*
X169374718Y-115134748D01*
X169174768Y-115865643D01*
X168848549Y-116549575D01*
X168406371Y-117164930D01*
X167862212Y-117692256D01*
X167233270Y-118114889D01*
X166539431Y-118419462D01*
X165796961Y-118597714D01*
X165153037Y-118645000D01*
X112993895Y-118645000D01*
X112993885Y-118645001D01*
X60912733Y-118644999D01*
X60125254Y-118574718D01*
X59394356Y-118374767D01*
X58710428Y-118048551D01*
X58095074Y-117606374D01*
X57567743Y-117062211D01*
X57145114Y-116433272D01*
X56840537Y-115739428D01*
X56662286Y-114996961D01*
X56615001Y-114353051D01*
X56615001Y-113972737D01*
X56745001Y-113972737D01*
X56745001Y-114787261D01*
X56903907Y-115586134D01*
X57215612Y-116338656D01*
X57668137Y-117015908D01*
X58244092Y-117591863D01*
X58921344Y-118044388D01*
X59673866Y-118356093D01*
X60472739Y-118514999D01*
X61287263Y-118514999D01*
X62086136Y-118356093D01*
X62838658Y-118044388D01*
X63515910Y-117591863D01*
X64091865Y-117015908D01*
X64544390Y-116338656D01*
X64856095Y-115586134D01*
X65015001Y-114787261D01*
X65015001Y-113972738D01*
X161045000Y-113972738D01*
X161045000Y-114787262D01*
X161203906Y-115586135D01*
X161515611Y-116338657D01*
X161968136Y-117015909D01*
X162544091Y-117591864D01*
X163221343Y-118044389D01*
X163973865Y-118356094D01*
X164772738Y-118515000D01*
X165587262Y-118515000D01*
X166386135Y-118356094D01*
X167138657Y-118044389D01*
X167815909Y-117591864D01*
X168391864Y-117015909D01*
X168844389Y-116338657D01*
X169156094Y-115586135D01*
X169315000Y-114787262D01*
X169315000Y-113972738D01*
X169156094Y-113173865D01*
X168844389Y-112421343D01*
X168391864Y-111744091D01*
X167815909Y-111168136D01*
X167138657Y-110715611D01*
X166386135Y-110403906D01*
X165587262Y-110245000D01*
X164772738Y-110245000D01*
X163973865Y-110403906D01*
X163221343Y-110715611D01*
X162544091Y-111168136D01*
X161968136Y-111744091D01*
X161515611Y-112421343D01*
X161203906Y-113173865D01*
X161045000Y-113972738D01*
X65015001Y-113972738D01*
X65015001Y-113972737D01*
X64856095Y-113173864D01*
X64544390Y-112421342D01*
X64091865Y-111744090D01*
X63515910Y-111168135D01*
X62838658Y-110715610D01*
X62086136Y-110403905D01*
X61287263Y-110244999D01*
X60472739Y-110244999D01*
X59673866Y-110403905D01*
X58921344Y-110715610D01*
X58244092Y-111168135D01*
X57668137Y-111744090D01*
X57215612Y-112421342D01*
X56903907Y-113173864D01*
X56745001Y-113972737D01*
X56615001Y-113972737D01*
X56615000Y-85940000D01*
X59471928Y-85940000D01*
X59484188Y-86064482D01*
X59520498Y-86184180D01*
X59579463Y-86294494D01*
X59658815Y-86391185D01*
X59755506Y-86470537D01*
X59865820Y-86529502D01*
X59985518Y-86565812D01*
X60110000Y-86578072D01*
X60674250Y-86575000D01*
X60833000Y-86416250D01*
X60833000Y-85217000D01*
X61087000Y-85217000D01*
X61087000Y-86416250D01*
X61245750Y-86575000D01*
X61810000Y-86578072D01*
X61934482Y-86565812D01*
X62054180Y-86529502D01*
X62164494Y-86470537D01*
X62261185Y-86391185D01*
X62340537Y-86294494D01*
X62399502Y-86184180D01*
X62435812Y-86064482D01*
X62448072Y-85940000D01*
X62445000Y-85375750D01*
X62286250Y-85217000D01*
X61087000Y-85217000D01*
X60833000Y-85217000D01*
X59633750Y-85217000D01*
X59475000Y-85375750D01*
X59471928Y-85940000D01*
X56615000Y-85940000D01*
X56615000Y-84240000D01*
X59471928Y-84240000D01*
X59475000Y-84804250D01*
X59633750Y-84963000D01*
X60833000Y-84963000D01*
X60833000Y-84943000D01*
X61087000Y-84943000D01*
X61087000Y-84963000D01*
X62286250Y-84963000D01*
X62445000Y-84804250D01*
X62448072Y-84240000D01*
X62435812Y-84115518D01*
X62399502Y-83995820D01*
X62340537Y-83885506D01*
X62261185Y-83788815D01*
X62164494Y-83709463D01*
X62054180Y-83650498D01*
X61981620Y-83628487D01*
X62113475Y-83496632D01*
X62275990Y-83253411D01*
X62387932Y-82983158D01*
X62445000Y-82696260D01*
X62445000Y-82403740D01*
X62387932Y-82116842D01*
X62275990Y-81846589D01*
X62113475Y-81603368D01*
X61906632Y-81396525D01*
X61732240Y-81280000D01*
X61906632Y-81163475D01*
X62113475Y-80956632D01*
X62275990Y-80713411D01*
X62387932Y-80443158D01*
X62445000Y-80156260D01*
X62445000Y-79863740D01*
X62387932Y-79576842D01*
X62275990Y-79306589D01*
X62113475Y-79063368D01*
X61906632Y-78856525D01*
X61732240Y-78740000D01*
X61906632Y-78623475D01*
X62113475Y-78416632D01*
X62275990Y-78173411D01*
X62387932Y-77903158D01*
X62445000Y-77616260D01*
X62445000Y-77323740D01*
X62387932Y-77036842D01*
X62275990Y-76766589D01*
X62113475Y-76523368D01*
X61906632Y-76316525D01*
X61663411Y-76154010D01*
X61393158Y-76042068D01*
X61106260Y-75985000D01*
X60813740Y-75985000D01*
X60526842Y-76042068D01*
X60256589Y-76154010D01*
X60013368Y-76316525D01*
X59806525Y-76523368D01*
X59644010Y-76766589D01*
X59532068Y-77036842D01*
X59475000Y-77323740D01*
X59475000Y-77616260D01*
X59532068Y-77903158D01*
X59644010Y-78173411D01*
X59806525Y-78416632D01*
X60013368Y-78623475D01*
X60187760Y-78740000D01*
X60013368Y-78856525D01*
X59806525Y-79063368D01*
X59644010Y-79306589D01*
X59532068Y-79576842D01*
X59475000Y-79863740D01*
X59475000Y-80156260D01*
X59532068Y-80443158D01*
X59644010Y-80713411D01*
X59806525Y-80956632D01*
X60013368Y-81163475D01*
X60187760Y-81280000D01*
X60013368Y-81396525D01*
X59806525Y-81603368D01*
X59644010Y-81846589D01*
X59532068Y-82116842D01*
X59475000Y-82403740D01*
X59475000Y-82696260D01*
X59532068Y-82983158D01*
X59644010Y-83253411D01*
X59806525Y-83496632D01*
X59938380Y-83628487D01*
X59865820Y-83650498D01*
X59755506Y-83709463D01*
X59658815Y-83788815D01*
X59579463Y-83885506D01*
X59520498Y-83995820D01*
X59484188Y-84115518D01*
X59471928Y-84240000D01*
X56615000Y-84240000D01*
X56614999Y-81316115D01*
X56615000Y-81316105D01*
X56615000Y-51094155D01*
X58145450Y-51094155D01*
X58541634Y-51614550D01*
X59256612Y-52004748D01*
X60033976Y-52247964D01*
X60843853Y-52334851D01*
X61655118Y-52262069D01*
X62436597Y-52032415D01*
X63158256Y-51654715D01*
X63218366Y-51614550D01*
X63614550Y-51094155D01*
X60880000Y-48359605D01*
X58145450Y-51094155D01*
X56615000Y-51094155D01*
X56615000Y-48212731D01*
X56621147Y-48143853D01*
X56725149Y-48143853D01*
X56797931Y-48955118D01*
X57027585Y-49736597D01*
X57405285Y-50458256D01*
X57445450Y-50518366D01*
X57965845Y-50914550D01*
X60700395Y-48180000D01*
X61059605Y-48180000D01*
X63794155Y-50914550D01*
X64314550Y-50518366D01*
X64704748Y-49803388D01*
X64947964Y-49026024D01*
X65034851Y-48216147D01*
X64995072Y-47772739D01*
X161044999Y-47772739D01*
X161044999Y-48587263D01*
X161203905Y-49386136D01*
X161515610Y-50138658D01*
X161968135Y-50815910D01*
X162544090Y-51391865D01*
X163221342Y-51844390D01*
X163973864Y-52156095D01*
X164772737Y-52315001D01*
X165587261Y-52315001D01*
X166386134Y-52156095D01*
X167138656Y-51844390D01*
X167815908Y-51391865D01*
X168391863Y-50815910D01*
X168844388Y-50138658D01*
X169156093Y-49386136D01*
X169314999Y-48587263D01*
X169314999Y-47772739D01*
X169156093Y-46973866D01*
X168844388Y-46221344D01*
X168391863Y-45544092D01*
X167815908Y-44968137D01*
X167138656Y-44515612D01*
X166386134Y-44203907D01*
X165587261Y-44045001D01*
X164772737Y-44045001D01*
X163973864Y-44203907D01*
X163221342Y-44515612D01*
X162544090Y-44968137D01*
X161968135Y-45544092D01*
X161515610Y-46221344D01*
X161203905Y-46973866D01*
X161044999Y-47772739D01*
X64995072Y-47772739D01*
X64962069Y-47404882D01*
X64732415Y-46623403D01*
X64354715Y-45901744D01*
X64314550Y-45841634D01*
X63794155Y-45445450D01*
X61059605Y-48180000D01*
X60700395Y-48180000D01*
X57965845Y-45445450D01*
X57445450Y-45841634D01*
X57055252Y-46556612D01*
X56812036Y-47333976D01*
X56725149Y-48143853D01*
X56621147Y-48143853D01*
X56685281Y-47425253D01*
X56885231Y-46694357D01*
X57211450Y-46010425D01*
X57653626Y-45395072D01*
X57786977Y-45265845D01*
X58145450Y-45265845D01*
X60880000Y-48000395D01*
X63614550Y-45265845D01*
X63218366Y-44745450D01*
X62503388Y-44355252D01*
X61726024Y-44112036D01*
X60916147Y-44025149D01*
X60104882Y-44097931D01*
X59323403Y-44327585D01*
X58601744Y-44705285D01*
X58541634Y-44745450D01*
X58145450Y-45265845D01*
X57786977Y-45265845D01*
X58197789Y-44867741D01*
X58826726Y-44445114D01*
X59520570Y-44140537D01*
X60263039Y-43962285D01*
X60906963Y-43914999D01*
X165147268Y-43915001D01*
G37*
X165147268Y-43915001D02*
X165934746Y-43985282D01*
X166665642Y-44185232D01*
X167349574Y-44511451D01*
X167964927Y-44953627D01*
X168492258Y-45497790D01*
X168914885Y-46126727D01*
X169219462Y-46820571D01*
X169397714Y-47563040D01*
X169445001Y-48206977D01*
X169445000Y-81316104D01*
X169445001Y-81316114D01*
X169444999Y-114347269D01*
X169374718Y-115134748D01*
X169174768Y-115865643D01*
X168848549Y-116549575D01*
X168406371Y-117164930D01*
X167862212Y-117692256D01*
X167233270Y-118114889D01*
X166539431Y-118419462D01*
X165796961Y-118597714D01*
X165153037Y-118645000D01*
X112993895Y-118645000D01*
X112993885Y-118645001D01*
X60912733Y-118644999D01*
X60125254Y-118574718D01*
X59394356Y-118374767D01*
X58710428Y-118048551D01*
X58095074Y-117606374D01*
X57567743Y-117062211D01*
X57145114Y-116433272D01*
X56840537Y-115739428D01*
X56662286Y-114996961D01*
X56615001Y-114353051D01*
X56615001Y-113972737D01*
X56745001Y-113972737D01*
X56745001Y-114787261D01*
X56903907Y-115586134D01*
X57215612Y-116338656D01*
X57668137Y-117015908D01*
X58244092Y-117591863D01*
X58921344Y-118044388D01*
X59673866Y-118356093D01*
X60472739Y-118514999D01*
X61287263Y-118514999D01*
X62086136Y-118356093D01*
X62838658Y-118044388D01*
X63515910Y-117591863D01*
X64091865Y-117015908D01*
X64544390Y-116338656D01*
X64856095Y-115586134D01*
X65015001Y-114787261D01*
X65015001Y-113972738D01*
X161045000Y-113972738D01*
X161045000Y-114787262D01*
X161203906Y-115586135D01*
X161515611Y-116338657D01*
X161968136Y-117015909D01*
X162544091Y-117591864D01*
X163221343Y-118044389D01*
X163973865Y-118356094D01*
X164772738Y-118515000D01*
X165587262Y-118515000D01*
X166386135Y-118356094D01*
X167138657Y-118044389D01*
X167815909Y-117591864D01*
X168391864Y-117015909D01*
X168844389Y-116338657D01*
X169156094Y-115586135D01*
X169315000Y-114787262D01*
X169315000Y-113972738D01*
X169156094Y-113173865D01*
X168844389Y-112421343D01*
X168391864Y-111744091D01*
X167815909Y-111168136D01*
X167138657Y-110715611D01*
X166386135Y-110403906D01*
X165587262Y-110245000D01*
X164772738Y-110245000D01*
X163973865Y-110403906D01*
X163221343Y-110715611D01*
X162544091Y-111168136D01*
X161968136Y-111744091D01*
X161515611Y-112421343D01*
X161203906Y-113173865D01*
X161045000Y-113972738D01*
X65015001Y-113972738D01*
X65015001Y-113972737D01*
X64856095Y-113173864D01*
X64544390Y-112421342D01*
X64091865Y-111744090D01*
X63515910Y-111168135D01*
X62838658Y-110715610D01*
X62086136Y-110403905D01*
X61287263Y-110244999D01*
X60472739Y-110244999D01*
X59673866Y-110403905D01*
X58921344Y-110715610D01*
X58244092Y-111168135D01*
X57668137Y-111744090D01*
X57215612Y-112421342D01*
X56903907Y-113173864D01*
X56745001Y-113972737D01*
X56615001Y-113972737D01*
X56615000Y-85940000D01*
X59471928Y-85940000D01*
X59484188Y-86064482D01*
X59520498Y-86184180D01*
X59579463Y-86294494D01*
X59658815Y-86391185D01*
X59755506Y-86470537D01*
X59865820Y-86529502D01*
X59985518Y-86565812D01*
X60110000Y-86578072D01*
X60674250Y-86575000D01*
X60833000Y-86416250D01*
X60833000Y-85217000D01*
X61087000Y-85217000D01*
X61087000Y-86416250D01*
X61245750Y-86575000D01*
X61810000Y-86578072D01*
X61934482Y-86565812D01*
X62054180Y-86529502D01*
X62164494Y-86470537D01*
X62261185Y-86391185D01*
X62340537Y-86294494D01*
X62399502Y-86184180D01*
X62435812Y-86064482D01*
X62448072Y-85940000D01*
X62445000Y-85375750D01*
X62286250Y-85217000D01*
X61087000Y-85217000D01*
X60833000Y-85217000D01*
X59633750Y-85217000D01*
X59475000Y-85375750D01*
X59471928Y-85940000D01*
X56615000Y-85940000D01*
X56615000Y-84240000D01*
X59471928Y-84240000D01*
X59475000Y-84804250D01*
X59633750Y-84963000D01*
X60833000Y-84963000D01*
X60833000Y-84943000D01*
X61087000Y-84943000D01*
X61087000Y-84963000D01*
X62286250Y-84963000D01*
X62445000Y-84804250D01*
X62448072Y-84240000D01*
X62435812Y-84115518D01*
X62399502Y-83995820D01*
X62340537Y-83885506D01*
X62261185Y-83788815D01*
X62164494Y-83709463D01*
X62054180Y-83650498D01*
X61981620Y-83628487D01*
X62113475Y-83496632D01*
X62275990Y-83253411D01*
X62387932Y-82983158D01*
X62445000Y-82696260D01*
X62445000Y-82403740D01*
X62387932Y-82116842D01*
X62275990Y-81846589D01*
X62113475Y-81603368D01*
X61906632Y-81396525D01*
X61732240Y-81280000D01*
X61906632Y-81163475D01*
X62113475Y-80956632D01*
X62275990Y-80713411D01*
X62387932Y-80443158D01*
X62445000Y-80156260D01*
X62445000Y-79863740D01*
X62387932Y-79576842D01*
X62275990Y-79306589D01*
X62113475Y-79063368D01*
X61906632Y-78856525D01*
X61732240Y-78740000D01*
X61906632Y-78623475D01*
X62113475Y-78416632D01*
X62275990Y-78173411D01*
X62387932Y-77903158D01*
X62445000Y-77616260D01*
X62445000Y-77323740D01*
X62387932Y-77036842D01*
X62275990Y-76766589D01*
X62113475Y-76523368D01*
X61906632Y-76316525D01*
X61663411Y-76154010D01*
X61393158Y-76042068D01*
X61106260Y-75985000D01*
X60813740Y-75985000D01*
X60526842Y-76042068D01*
X60256589Y-76154010D01*
X60013368Y-76316525D01*
X59806525Y-76523368D01*
X59644010Y-76766589D01*
X59532068Y-77036842D01*
X59475000Y-77323740D01*
X59475000Y-77616260D01*
X59532068Y-77903158D01*
X59644010Y-78173411D01*
X59806525Y-78416632D01*
X60013368Y-78623475D01*
X60187760Y-78740000D01*
X60013368Y-78856525D01*
X59806525Y-79063368D01*
X59644010Y-79306589D01*
X59532068Y-79576842D01*
X59475000Y-79863740D01*
X59475000Y-80156260D01*
X59532068Y-80443158D01*
X59644010Y-80713411D01*
X59806525Y-80956632D01*
X60013368Y-81163475D01*
X60187760Y-81280000D01*
X60013368Y-81396525D01*
X59806525Y-81603368D01*
X59644010Y-81846589D01*
X59532068Y-82116842D01*
X59475000Y-82403740D01*
X59475000Y-82696260D01*
X59532068Y-82983158D01*
X59644010Y-83253411D01*
X59806525Y-83496632D01*
X59938380Y-83628487D01*
X59865820Y-83650498D01*
X59755506Y-83709463D01*
X59658815Y-83788815D01*
X59579463Y-83885506D01*
X59520498Y-83995820D01*
X59484188Y-84115518D01*
X59471928Y-84240000D01*
X56615000Y-84240000D01*
X56614999Y-81316115D01*
X56615000Y-81316105D01*
X56615000Y-51094155D01*
X58145450Y-51094155D01*
X58541634Y-51614550D01*
X59256612Y-52004748D01*
X60033976Y-52247964D01*
X60843853Y-52334851D01*
X61655118Y-52262069D01*
X62436597Y-52032415D01*
X63158256Y-51654715D01*
X63218366Y-51614550D01*
X63614550Y-51094155D01*
X60880000Y-48359605D01*
X58145450Y-51094155D01*
X56615000Y-51094155D01*
X56615000Y-48212731D01*
X56621147Y-48143853D01*
X56725149Y-48143853D01*
X56797931Y-48955118D01*
X57027585Y-49736597D01*
X57405285Y-50458256D01*
X57445450Y-50518366D01*
X57965845Y-50914550D01*
X60700395Y-48180000D01*
X61059605Y-48180000D01*
X63794155Y-50914550D01*
X64314550Y-50518366D01*
X64704748Y-49803388D01*
X64947964Y-49026024D01*
X65034851Y-48216147D01*
X64995072Y-47772739D01*
X161044999Y-47772739D01*
X161044999Y-48587263D01*
X161203905Y-49386136D01*
X161515610Y-50138658D01*
X161968135Y-50815910D01*
X162544090Y-51391865D01*
X163221342Y-51844390D01*
X163973864Y-52156095D01*
X164772737Y-52315001D01*
X165587261Y-52315001D01*
X166386134Y-52156095D01*
X167138656Y-51844390D01*
X167815908Y-51391865D01*
X168391863Y-50815910D01*
X168844388Y-50138658D01*
X169156093Y-49386136D01*
X169314999Y-48587263D01*
X169314999Y-47772739D01*
X169156093Y-46973866D01*
X168844388Y-46221344D01*
X168391863Y-45544092D01*
X167815908Y-44968137D01*
X167138656Y-44515612D01*
X166386134Y-44203907D01*
X165587261Y-44045001D01*
X164772737Y-44045001D01*
X163973864Y-44203907D01*
X163221342Y-44515612D01*
X162544090Y-44968137D01*
X161968135Y-45544092D01*
X161515610Y-46221344D01*
X161203905Y-46973866D01*
X161044999Y-47772739D01*
X64995072Y-47772739D01*
X64962069Y-47404882D01*
X64732415Y-46623403D01*
X64354715Y-45901744D01*
X64314550Y-45841634D01*
X63794155Y-45445450D01*
X61059605Y-48180000D01*
X60700395Y-48180000D01*
X57965845Y-45445450D01*
X57445450Y-45841634D01*
X57055252Y-46556612D01*
X56812036Y-47333976D01*
X56725149Y-48143853D01*
X56621147Y-48143853D01*
X56685281Y-47425253D01*
X56885231Y-46694357D01*
X57211450Y-46010425D01*
X57653626Y-45395072D01*
X57786977Y-45265845D01*
X58145450Y-45265845D01*
X60880000Y-48000395D01*
X63614550Y-45265845D01*
X63218366Y-44745450D01*
X62503388Y-44355252D01*
X61726024Y-44112036D01*
X60916147Y-44025149D01*
X60104882Y-44097931D01*
X59323403Y-44327585D01*
X58601744Y-44705285D01*
X58541634Y-44745450D01*
X58145450Y-45265845D01*
X57786977Y-45265845D01*
X58197789Y-44867741D01*
X58826726Y-44445114D01*
X59520570Y-44140537D01*
X60263039Y-43962285D01*
X60906963Y-43914999D01*
X165147268Y-43915001D01*
M02*
