M48
; DRILL file {KiCad (5.1.5)-3} date 4/26/2020 7:13:23 PM
; FORMAT={-:-/ absolute / inch / decimal}
; #@! TF.CreationDate,2020-04-26T19:13:23-05:00
; #@! TF.GenerationSoftware,Kicad,Pcbnew,(5.1.5)-3
; #@! TF.FileFunction,Plated,1,2,PTH
FMAT,2
INCH
T1C0.0157
T2C0.0197
T3C0.0394
T4C0.1378
%
G90
G05
T1
X2.65Y-1.923
X2.65Y-2.673
X2.65Y-3.423
X2.65Y-4.173
X2.7315Y-1.7754
X2.7315Y-2.3754
X2.7315Y-2.5254
X2.7315Y-3.1254
X2.7315Y-3.2754
X2.7315Y-3.8754
X2.7315Y-4.0254
X2.7315Y-4.6254
X2.85Y-2.2271
X2.85Y-2.9771
X2.85Y-3.7271
X2.85Y-4.4771
X2.9606Y-1.7754
X2.9606Y-2.3754
X2.9606Y-2.5254
X2.9606Y-3.1254
X2.9606Y-3.2754
X2.9606Y-3.8754
X2.9606Y-4.0254
X2.9606Y-4.6254
X3.1898Y-1.7754
X3.1898Y-2.3754
X3.1898Y-2.5254
X3.1898Y-3.1254
X3.1898Y-3.2754
X3.1898Y-3.8754
X3.1898Y-4.0254
X3.1898Y-4.6254
X3.3374Y-1.923
X3.3374Y-2.673
X3.3374Y-3.423
X3.3374Y-4.173
X3.4189Y-1.7754
X3.4189Y-2.3754
X3.4189Y-2.5254
X3.4189Y-3.1254
X3.4189Y-3.2754
X3.4189Y-3.8754
X3.4189Y-4.0254
X3.4189Y-4.6254
X3.5374Y-2.2271
X3.5374Y-2.9771
X3.5374Y-3.7271
X3.5374Y-4.4771
X3.648Y-1.7754
X3.648Y-2.3754
X3.648Y-2.5254
X3.648Y-3.1254
X3.648Y-3.2754
X3.648Y-3.8754
X3.648Y-4.0254
X3.648Y-4.6254
X3.8772Y-1.7754
X3.8772Y-2.3754
X3.8772Y-2.5254
X3.8772Y-3.1254
X3.8772Y-3.2754
X3.8772Y-3.8754
X3.8772Y-4.0254
X3.8772Y-4.6254
X4.0248Y-1.923
X4.0248Y-2.673
X4.0248Y-3.423
X4.0248Y-4.173
X4.1063Y-1.7754
X4.1063Y-2.3754
X4.1063Y-2.5254
X4.1063Y-3.1254
X4.1063Y-3.2754
X4.1063Y-3.8754
X4.1063Y-4.0254
X4.1063Y-4.6254
X4.2248Y-2.2271
X4.2248Y-2.9771
X4.2248Y-3.7271
X4.2248Y-4.4771
X4.3354Y-1.7754
X4.3354Y-2.3754
X4.3354Y-2.5254
X4.3354Y-3.1254
X4.3354Y-3.2754
X4.3354Y-3.8754
X4.3354Y-4.0254
X4.3354Y-4.6254
X4.5646Y-1.7754
X4.5646Y-2.3754
X4.5646Y-2.5254
X4.5646Y-3.1254
X4.5646Y-3.2754
X4.5646Y-3.8754
X4.5646Y-4.0254
X4.5646Y-4.6254
X4.7122Y-1.923
X4.7122Y-2.673
X4.7122Y-3.423
X4.7122Y-4.173
X4.7937Y-1.7754
X4.7937Y-2.3754
X4.7937Y-2.5254
X4.7937Y-3.1254
X4.7937Y-3.2754
X4.7937Y-3.8754
X4.7937Y-4.0254
X4.7937Y-4.6254
X4.9122Y-2.2271
X4.9122Y-2.9771
X4.9122Y-3.7271
X4.9122Y-4.4771
X5.0228Y-1.7754
X5.0228Y-2.3754
X5.0228Y-2.5254
X5.0228Y-3.1254
X5.0228Y-3.2754
X5.0228Y-3.8754
X5.0228Y-4.0254
X5.0228Y-4.6254
X5.252Y-1.7754
X5.252Y-2.3754
X5.252Y-2.5254
X5.252Y-3.1254
X5.252Y-3.2754
X5.252Y-3.8754
X5.252Y-4.0254
X5.252Y-4.6254
X5.3996Y-1.923
X5.3996Y-2.673
X5.3996Y-3.423
X5.3996Y-4.173
X5.4811Y-1.7754
X5.4811Y-2.3754
X5.4811Y-2.5254
X5.4811Y-3.1254
X5.4811Y-3.2754
X5.4811Y-3.8754
X5.4811Y-4.0254
X5.4811Y-4.6254
X5.5996Y-2.2271
X5.5996Y-2.9771
X5.5996Y-3.7271
X5.5996Y-4.4771
X5.7102Y-1.7754
X5.7102Y-2.3754
X5.7102Y-2.5254
X5.7102Y-3.1254
X5.7102Y-3.2754
X5.7102Y-3.8754
X5.7102Y-4.0254
X5.7102Y-4.6254
X5.9394Y-1.7754
X5.9394Y-2.3754
X5.9394Y-2.5254
X5.9394Y-3.1254
X5.9394Y-3.2754
X5.9394Y-3.8754
X5.9394Y-4.0254
X5.9394Y-4.6254
X6.087Y-1.923
X6.087Y-2.673
X6.087Y-3.423
X6.087Y-4.173
X6.1685Y-1.7754
X6.1685Y-2.3754
X6.1685Y-2.5254
X6.1685Y-3.1254
X6.1685Y-3.2754
X6.1685Y-3.8754
X6.1685Y-4.0254
X6.1685Y-4.6254
X6.202Y-2.1795
X6.202Y-2.9295
X6.202Y-3.6795
X6.202Y-4.4295
X6.3976Y-2.3754
X6.3976Y-2.5254
X6.3976Y-2.6754
X6.3976Y-2.8254
X6.3976Y-2.9754
X6.3976Y-3.1254
X6.3976Y-3.2754
X6.3976Y-3.4254
X6.3976Y-3.5754
X6.3976Y-3.7254
X6.3976Y-3.8754
X6.3976Y-4.0254
X6.6268Y-2.3754
X6.6268Y-2.5254
X6.6268Y-2.6754
X6.6268Y-2.8254
X6.6268Y-2.9754
X6.6268Y-3.1254
X6.6268Y-3.2754
X6.6268Y-3.4254
X6.6268Y-3.5754
X6.6268Y-3.7254
X6.6268Y-3.8754
X6.6268Y-4.0254
T2
X2.2935Y-1.8969
X2.3238Y-1.8238
X2.3238Y-1.9699
X2.3969Y-1.7935
X2.3969Y-2.0002
X2.4699Y-1.8238
X2.4699Y-1.9699
X2.5002Y-1.8969
T3
X2.4Y-3.05
X2.4Y-3.15
X2.4Y-3.25
X2.4Y-3.35
T4
X6.5031Y-1.8969
X2.3969Y-1.8969
X6.5031Y-4.5031
X2.3969Y-4.5031
T0
M30
