G04 #@! TF.GenerationSoftware,KiCad,Pcbnew,(5.1.5)-3*
G04 #@! TF.CreationDate,2020-04-26T19:13:21-05:00*
G04 #@! TF.ProjectId,LED_Board_s_,4c45445f-426f-4617-9264-5f735f2e6b69,rev?*
G04 #@! TF.SameCoordinates,Original*
G04 #@! TF.FileFunction,Legend,Top*
G04 #@! TF.FilePolarity,Positive*
%FSLAX46Y46*%
G04 Gerber Fmt 4.6, Leading zero omitted, Abs format (unit mm)*
G04 Created by KiCad (PCBNEW (5.1.5)-3) date 2020-04-26 19:13:21*
%MOMM*%
%LPD*%
G04 APERTURE LIST*
%ADD10C,0.150000*%
%ADD11C,0.120000*%
%ADD12C,0.100000*%
G04 APERTURE END LIST*
D10*
X83887142Y-81732380D02*
X83887142Y-80732380D01*
X84268095Y-80732380D01*
X84363333Y-80780000D01*
X84410952Y-80827619D01*
X84458571Y-80922857D01*
X84458571Y-81065714D01*
X84410952Y-81160952D01*
X84363333Y-81208571D01*
X84268095Y-81256190D01*
X83887142Y-81256190D01*
X85315714Y-81732380D02*
X85315714Y-81208571D01*
X85268095Y-81113333D01*
X85172857Y-81065714D01*
X84982380Y-81065714D01*
X84887142Y-81113333D01*
X85315714Y-81684761D02*
X85220476Y-81732380D01*
X84982380Y-81732380D01*
X84887142Y-81684761D01*
X84839523Y-81589523D01*
X84839523Y-81494285D01*
X84887142Y-81399047D01*
X84982380Y-81351428D01*
X85220476Y-81351428D01*
X85315714Y-81303809D01*
X85791904Y-81732380D02*
X85791904Y-81065714D01*
X85791904Y-81256190D02*
X85839523Y-81160952D01*
X85887142Y-81113333D01*
X85982380Y-81065714D01*
X86077619Y-81065714D01*
X86268095Y-81065714D02*
X86649047Y-81065714D01*
X86410952Y-80732380D02*
X86410952Y-81589523D01*
X86458571Y-81684761D01*
X86553809Y-81732380D01*
X86649047Y-81732380D01*
X86982380Y-81732380D02*
X86982380Y-80732380D01*
X87410952Y-81732380D02*
X87410952Y-81208571D01*
X87363333Y-81113333D01*
X87268095Y-81065714D01*
X87125238Y-81065714D01*
X87030000Y-81113333D01*
X86982380Y-81160952D01*
X87887142Y-81732380D02*
X87887142Y-81065714D01*
X87887142Y-80732380D02*
X87839523Y-80780000D01*
X87887142Y-80827619D01*
X87934761Y-80780000D01*
X87887142Y-80732380D01*
X87887142Y-80827619D01*
X88268095Y-81065714D02*
X88506190Y-81732380D01*
X88744285Y-81065714D01*
X89887142Y-81732380D02*
X89887142Y-80732380D01*
X90458571Y-81732380D02*
X90030000Y-81160952D01*
X90458571Y-80732380D02*
X89887142Y-81303809D01*
X90887142Y-81732380D02*
X90887142Y-81065714D01*
X90887142Y-81256190D02*
X90934761Y-81160952D01*
X90982380Y-81113333D01*
X91077619Y-81065714D01*
X91172857Y-81065714D01*
X91506190Y-81732380D02*
X91506190Y-81065714D01*
X91506190Y-80732380D02*
X91458571Y-80780000D01*
X91506190Y-80827619D01*
X91553809Y-80780000D01*
X91506190Y-80732380D01*
X91506190Y-80827619D01*
X91934761Y-81684761D02*
X92030000Y-81732380D01*
X92220476Y-81732380D01*
X92315714Y-81684761D01*
X92363333Y-81589523D01*
X92363333Y-81541904D01*
X92315714Y-81446666D01*
X92220476Y-81399047D01*
X92077619Y-81399047D01*
X91982380Y-81351428D01*
X91934761Y-81256190D01*
X91934761Y-81208571D01*
X91982380Y-81113333D01*
X92077619Y-81065714D01*
X92220476Y-81065714D01*
X92315714Y-81113333D01*
X92791904Y-81732380D02*
X92791904Y-80732380D01*
X93220476Y-81732380D02*
X93220476Y-81208571D01*
X93172857Y-81113333D01*
X93077619Y-81065714D01*
X92934761Y-81065714D01*
X92839523Y-81113333D01*
X92791904Y-81160952D01*
X93696666Y-81065714D02*
X93696666Y-81732380D01*
X93696666Y-81160952D02*
X93744285Y-81113333D01*
X93839523Y-81065714D01*
X93982380Y-81065714D01*
X94077619Y-81113333D01*
X94125238Y-81208571D01*
X94125238Y-81732380D01*
X95030000Y-81732380D02*
X95030000Y-81208571D01*
X94982380Y-81113333D01*
X94887142Y-81065714D01*
X94696666Y-81065714D01*
X94601428Y-81113333D01*
X95030000Y-81684761D02*
X94934761Y-81732380D01*
X94696666Y-81732380D01*
X94601428Y-81684761D01*
X94553809Y-81589523D01*
X94553809Y-81494285D01*
X94601428Y-81399047D01*
X94696666Y-81351428D01*
X94934761Y-81351428D01*
X95030000Y-81303809D01*
X96744285Y-81732380D02*
X96268095Y-81732380D01*
X96268095Y-80732380D01*
X97077619Y-81208571D02*
X97410952Y-81208571D01*
X97553809Y-81732380D02*
X97077619Y-81732380D01*
X97077619Y-80732380D01*
X97553809Y-80732380D01*
X97982380Y-81732380D02*
X97982380Y-80732380D01*
X98220476Y-80732380D01*
X98363333Y-80780000D01*
X98458571Y-80875238D01*
X98506190Y-80970476D01*
X98553809Y-81160952D01*
X98553809Y-81303809D01*
X98506190Y-81494285D01*
X98458571Y-81589523D01*
X98363333Y-81684761D01*
X98220476Y-81732380D01*
X97982380Y-81732380D01*
X98982380Y-81732380D02*
X98982380Y-80732380D01*
X98982380Y-81113333D02*
X99077619Y-81065714D01*
X99268095Y-81065714D01*
X99363333Y-81113333D01*
X99410952Y-81160952D01*
X99458571Y-81256190D01*
X99458571Y-81541904D01*
X99410952Y-81637142D01*
X99363333Y-81684761D01*
X99268095Y-81732380D01*
X99077619Y-81732380D01*
X98982380Y-81684761D01*
X100030000Y-81732380D02*
X99934761Y-81684761D01*
X99887142Y-81637142D01*
X99839523Y-81541904D01*
X99839523Y-81256190D01*
X99887142Y-81160952D01*
X99934761Y-81113333D01*
X100030000Y-81065714D01*
X100172857Y-81065714D01*
X100268095Y-81113333D01*
X100315714Y-81160952D01*
X100363333Y-81256190D01*
X100363333Y-81541904D01*
X100315714Y-81637142D01*
X100268095Y-81684761D01*
X100172857Y-81732380D01*
X100030000Y-81732380D01*
X101220476Y-81732380D02*
X101220476Y-81208571D01*
X101172857Y-81113333D01*
X101077619Y-81065714D01*
X100887142Y-81065714D01*
X100791904Y-81113333D01*
X101220476Y-81684761D02*
X101125238Y-81732380D01*
X100887142Y-81732380D01*
X100791904Y-81684761D01*
X100744285Y-81589523D01*
X100744285Y-81494285D01*
X100791904Y-81399047D01*
X100887142Y-81351428D01*
X101125238Y-81351428D01*
X101220476Y-81303809D01*
X101696666Y-81732380D02*
X101696666Y-81065714D01*
X101696666Y-81256190D02*
X101744285Y-81160952D01*
X101791904Y-81113333D01*
X101887142Y-81065714D01*
X101982380Y-81065714D01*
X102744285Y-81732380D02*
X102744285Y-80732380D01*
X102744285Y-81684761D02*
X102649047Y-81732380D01*
X102458571Y-81732380D01*
X102363333Y-81684761D01*
X102315714Y-81637142D01*
X102268095Y-81541904D01*
X102268095Y-81256190D01*
X102315714Y-81160952D01*
X102363333Y-81113333D01*
X102458571Y-81065714D01*
X102649047Y-81065714D01*
X102744285Y-81113333D01*
X104696666Y-80684761D02*
X103839523Y-81970476D01*
X105744285Y-81684761D02*
X105887142Y-81732380D01*
X106125238Y-81732380D01*
X106220476Y-81684761D01*
X106268095Y-81637142D01*
X106315714Y-81541904D01*
X106315714Y-81446666D01*
X106268095Y-81351428D01*
X106220476Y-81303809D01*
X106125238Y-81256190D01*
X105934761Y-81208571D01*
X105839523Y-81160952D01*
X105791904Y-81113333D01*
X105744285Y-81018095D01*
X105744285Y-80922857D01*
X105791904Y-80827619D01*
X105839523Y-80780000D01*
X105934761Y-80732380D01*
X106172857Y-80732380D01*
X106315714Y-80780000D01*
X106744285Y-81065714D02*
X106744285Y-82065714D01*
X106744285Y-81113333D02*
X106839523Y-81065714D01*
X107030000Y-81065714D01*
X107125238Y-81113333D01*
X107172857Y-81160952D01*
X107220476Y-81256190D01*
X107220476Y-81541904D01*
X107172857Y-81637142D01*
X107125238Y-81684761D01*
X107030000Y-81732380D01*
X106839523Y-81732380D01*
X106744285Y-81684761D01*
X107649047Y-81732380D02*
X107649047Y-81065714D01*
X107649047Y-81256190D02*
X107696666Y-81160952D01*
X107744285Y-81113333D01*
X107839523Y-81065714D01*
X107934761Y-81065714D01*
X108268095Y-81732380D02*
X108268095Y-81065714D01*
X108268095Y-80732380D02*
X108220476Y-80780000D01*
X108268095Y-80827619D01*
X108315714Y-80780000D01*
X108268095Y-80732380D01*
X108268095Y-80827619D01*
X108744285Y-81065714D02*
X108744285Y-81732380D01*
X108744285Y-81160952D02*
X108791904Y-81113333D01*
X108887142Y-81065714D01*
X109030000Y-81065714D01*
X109125238Y-81113333D01*
X109172857Y-81208571D01*
X109172857Y-81732380D01*
X110077619Y-81065714D02*
X110077619Y-81875238D01*
X110030000Y-81970476D01*
X109982380Y-82018095D01*
X109887142Y-82065714D01*
X109744285Y-82065714D01*
X109649047Y-82018095D01*
X110077619Y-81684761D02*
X109982380Y-81732380D01*
X109791904Y-81732380D01*
X109696666Y-81684761D01*
X109649047Y-81637142D01*
X109601428Y-81541904D01*
X109601428Y-81256190D01*
X109649047Y-81160952D01*
X109696666Y-81113333D01*
X109791904Y-81065714D01*
X109982380Y-81065714D01*
X110077619Y-81113333D01*
X111268095Y-80827619D02*
X111315714Y-80780000D01*
X111410952Y-80732380D01*
X111649047Y-80732380D01*
X111744285Y-80780000D01*
X111791904Y-80827619D01*
X111839523Y-80922857D01*
X111839523Y-81018095D01*
X111791904Y-81160952D01*
X111220476Y-81732380D01*
X111839523Y-81732380D01*
X112458571Y-80732380D02*
X112553809Y-80732380D01*
X112649047Y-80780000D01*
X112696666Y-80827619D01*
X112744285Y-80922857D01*
X112791904Y-81113333D01*
X112791904Y-81351428D01*
X112744285Y-81541904D01*
X112696666Y-81637142D01*
X112649047Y-81684761D01*
X112553809Y-81732380D01*
X112458571Y-81732380D01*
X112363333Y-81684761D01*
X112315714Y-81637142D01*
X112268095Y-81541904D01*
X112220476Y-81351428D01*
X112220476Y-81113333D01*
X112268095Y-80922857D01*
X112315714Y-80827619D01*
X112363333Y-80780000D01*
X112458571Y-80732380D01*
X113172857Y-80827619D02*
X113220476Y-80780000D01*
X113315714Y-80732380D01*
X113553809Y-80732380D01*
X113649047Y-80780000D01*
X113696666Y-80827619D01*
X113744285Y-80922857D01*
X113744285Y-81018095D01*
X113696666Y-81160952D01*
X113125238Y-81732380D01*
X113744285Y-81732380D01*
X114363333Y-80732380D02*
X114458571Y-80732380D01*
X114553809Y-80780000D01*
X114601428Y-80827619D01*
X114649047Y-80922857D01*
X114696666Y-81113333D01*
X114696666Y-81351428D01*
X114649047Y-81541904D01*
X114601428Y-81637142D01*
X114553809Y-81684761D01*
X114458571Y-81732380D01*
X114363333Y-81732380D01*
X114268095Y-81684761D01*
X114220476Y-81637142D01*
X114172857Y-81541904D01*
X114125238Y-81351428D01*
X114125238Y-81113333D01*
X114172857Y-80922857D01*
X114220476Y-80827619D01*
X114268095Y-80780000D01*
X114363333Y-80732380D01*
X116601428Y-80684761D02*
X115744285Y-81970476D01*
X117839523Y-81732380D02*
X117744285Y-81684761D01*
X117696666Y-81589523D01*
X117696666Y-80732380D01*
X118649047Y-81732380D02*
X118649047Y-81208571D01*
X118601428Y-81113333D01*
X118506190Y-81065714D01*
X118315714Y-81065714D01*
X118220476Y-81113333D01*
X118649047Y-81684761D02*
X118553809Y-81732380D01*
X118315714Y-81732380D01*
X118220476Y-81684761D01*
X118172857Y-81589523D01*
X118172857Y-81494285D01*
X118220476Y-81399047D01*
X118315714Y-81351428D01*
X118553809Y-81351428D01*
X118649047Y-81303809D01*
X119125238Y-81732380D02*
X119125238Y-80732380D01*
X119125238Y-81113333D02*
X119220476Y-81065714D01*
X119410952Y-81065714D01*
X119506190Y-81113333D01*
X119553809Y-81160952D01*
X119601428Y-81256190D01*
X119601428Y-81541904D01*
X119553809Y-81637142D01*
X119506190Y-81684761D01*
X119410952Y-81732380D01*
X119220476Y-81732380D01*
X119125238Y-81684761D01*
X120458571Y-80732380D02*
X120268095Y-80732380D01*
X120172857Y-80780000D01*
X120125238Y-80827619D01*
X120030000Y-80970476D01*
X119982380Y-81160952D01*
X119982380Y-81541904D01*
X120030000Y-81637142D01*
X120077619Y-81684761D01*
X120172857Y-81732380D01*
X120363333Y-81732380D01*
X120458571Y-81684761D01*
X120506190Y-81637142D01*
X120553809Y-81541904D01*
X120553809Y-81303809D01*
X120506190Y-81208571D01*
X120458571Y-81160952D01*
X120363333Y-81113333D01*
X120172857Y-81113333D01*
X120077619Y-81160952D01*
X120030000Y-81208571D01*
X119982380Y-81303809D01*
X121410952Y-81065714D02*
X121410952Y-81732380D01*
X121172857Y-80684761D02*
X120934761Y-81399047D01*
X121553809Y-81399047D01*
X122696666Y-81732380D02*
X122696666Y-81065714D01*
X122696666Y-80732380D02*
X122649047Y-80780000D01*
X122696666Y-80827619D01*
X122744285Y-80780000D01*
X122696666Y-80732380D01*
X122696666Y-80827619D01*
X123172857Y-81065714D02*
X123172857Y-81732380D01*
X123172857Y-81160952D02*
X123220476Y-81113333D01*
X123315714Y-81065714D01*
X123458571Y-81065714D01*
X123553809Y-81113333D01*
X123601428Y-81208571D01*
X123601428Y-81732380D01*
X123934761Y-81065714D02*
X124315714Y-81065714D01*
X124077619Y-80732380D02*
X124077619Y-81589523D01*
X124125238Y-81684761D01*
X124220476Y-81732380D01*
X124315714Y-81732380D01*
X124649047Y-81732380D02*
X124649047Y-81065714D01*
X124649047Y-81256190D02*
X124696666Y-81160952D01*
X124744285Y-81113333D01*
X124839523Y-81065714D01*
X124934761Y-81065714D01*
X125410952Y-81732380D02*
X125315714Y-81684761D01*
X125268095Y-81637142D01*
X125220476Y-81541904D01*
X125220476Y-81256190D01*
X125268095Y-81160952D01*
X125315714Y-81113333D01*
X125410952Y-81065714D01*
X125553809Y-81065714D01*
X125649047Y-81113333D01*
X125696666Y-81160952D01*
X125744285Y-81256190D01*
X125744285Y-81541904D01*
X125696666Y-81637142D01*
X125649047Y-81684761D01*
X125553809Y-81732380D01*
X125410952Y-81732380D01*
X126125238Y-80827619D02*
X126172857Y-80780000D01*
X126268095Y-80732380D01*
X126506190Y-80732380D01*
X126601428Y-80780000D01*
X126649047Y-80827619D01*
X126696666Y-80922857D01*
X126696666Y-81018095D01*
X126649047Y-81160952D01*
X126077619Y-81732380D01*
X126696666Y-81732380D01*
X127125238Y-81732380D02*
X127125238Y-80732380D01*
X127506190Y-80732380D01*
X127601428Y-80780000D01*
X127649047Y-80827619D01*
X127696666Y-80922857D01*
X127696666Y-81065714D01*
X127649047Y-81160952D01*
X127601428Y-81208571D01*
X127506190Y-81256190D01*
X127125238Y-81256190D01*
X128696666Y-81637142D02*
X128649047Y-81684761D01*
X128506190Y-81732380D01*
X128410952Y-81732380D01*
X128268095Y-81684761D01*
X128172857Y-81589523D01*
X128125238Y-81494285D01*
X128077619Y-81303809D01*
X128077619Y-81160952D01*
X128125238Y-80970476D01*
X128172857Y-80875238D01*
X128268095Y-80780000D01*
X128410952Y-80732380D01*
X128506190Y-80732380D01*
X128649047Y-80780000D01*
X128696666Y-80827619D01*
X129458571Y-81208571D02*
X129601428Y-81256190D01*
X129649047Y-81303809D01*
X129696666Y-81399047D01*
X129696666Y-81541904D01*
X129649047Y-81637142D01*
X129601428Y-81684761D01*
X129506190Y-81732380D01*
X129125238Y-81732380D01*
X129125238Y-80732380D01*
X129458571Y-80732380D01*
X129553809Y-80780000D01*
X129601428Y-80827619D01*
X129649047Y-80922857D01*
X129649047Y-81018095D01*
X129601428Y-81113333D01*
X129553809Y-81160952D01*
X129458571Y-81208571D01*
X129125238Y-81208571D01*
X130553809Y-81732380D02*
X130553809Y-80732380D01*
X130553809Y-81684761D02*
X130458571Y-81732380D01*
X130268095Y-81732380D01*
X130172857Y-81684761D01*
X130125238Y-81637142D01*
X130077619Y-81541904D01*
X130077619Y-81256190D01*
X130125238Y-81160952D01*
X130172857Y-81113333D01*
X130268095Y-81065714D01*
X130458571Y-81065714D01*
X130553809Y-81113333D01*
X131410952Y-81684761D02*
X131315714Y-81732380D01*
X131125238Y-81732380D01*
X131030000Y-81684761D01*
X130982380Y-81589523D01*
X130982380Y-81208571D01*
X131030000Y-81113333D01*
X131125238Y-81065714D01*
X131315714Y-81065714D01*
X131410952Y-81113333D01*
X131458571Y-81208571D01*
X131458571Y-81303809D01*
X130982380Y-81399047D01*
X131839523Y-81684761D02*
X131934761Y-81732380D01*
X132125238Y-81732380D01*
X132220476Y-81684761D01*
X132268095Y-81589523D01*
X132268095Y-81541904D01*
X132220476Y-81446666D01*
X132125238Y-81399047D01*
X131982380Y-81399047D01*
X131887142Y-81351428D01*
X131839523Y-81256190D01*
X131839523Y-81208571D01*
X131887142Y-81113333D01*
X131982380Y-81065714D01*
X132125238Y-81065714D01*
X132220476Y-81113333D01*
X132696666Y-81732380D02*
X132696666Y-81065714D01*
X132696666Y-80732380D02*
X132649047Y-80780000D01*
X132696666Y-80827619D01*
X132744285Y-80780000D01*
X132696666Y-80732380D01*
X132696666Y-80827619D01*
X133601428Y-81065714D02*
X133601428Y-81875238D01*
X133553809Y-81970476D01*
X133506190Y-82018095D01*
X133410952Y-82065714D01*
X133268095Y-82065714D01*
X133172857Y-82018095D01*
X133601428Y-81684761D02*
X133506190Y-81732380D01*
X133315714Y-81732380D01*
X133220476Y-81684761D01*
X133172857Y-81637142D01*
X133125238Y-81541904D01*
X133125238Y-81256190D01*
X133172857Y-81160952D01*
X133220476Y-81113333D01*
X133315714Y-81065714D01*
X133506190Y-81065714D01*
X133601428Y-81113333D01*
X134077619Y-81065714D02*
X134077619Y-81732380D01*
X134077619Y-81160952D02*
X134125238Y-81113333D01*
X134220476Y-81065714D01*
X134363333Y-81065714D01*
X134458571Y-81113333D01*
X134506190Y-81208571D01*
X134506190Y-81732380D01*
X135649047Y-81065714D02*
X135839523Y-81732380D01*
X136030000Y-81256190D01*
X136220476Y-81732380D01*
X136410952Y-81065714D01*
X136934761Y-81732380D02*
X136839523Y-81684761D01*
X136791904Y-81637142D01*
X136744285Y-81541904D01*
X136744285Y-81256190D01*
X136791904Y-81160952D01*
X136839523Y-81113333D01*
X136934761Y-81065714D01*
X137077619Y-81065714D01*
X137172857Y-81113333D01*
X137220476Y-81160952D01*
X137268095Y-81256190D01*
X137268095Y-81541904D01*
X137220476Y-81637142D01*
X137172857Y-81684761D01*
X137077619Y-81732380D01*
X136934761Y-81732380D01*
X137696666Y-81732380D02*
X137696666Y-81065714D01*
X137696666Y-81256190D02*
X137744285Y-81160952D01*
X137791904Y-81113333D01*
X137887142Y-81065714D01*
X137982380Y-81065714D01*
X138315714Y-81732380D02*
X138315714Y-80732380D01*
X138410952Y-81351428D02*
X138696666Y-81732380D01*
X138696666Y-81065714D02*
X138315714Y-81446666D01*
X139077619Y-81684761D02*
X139172857Y-81732380D01*
X139363333Y-81732380D01*
X139458571Y-81684761D01*
X139506190Y-81589523D01*
X139506190Y-81541904D01*
X139458571Y-81446666D01*
X139363333Y-81399047D01*
X139220476Y-81399047D01*
X139125238Y-81351428D01*
X139077619Y-81256190D01*
X139077619Y-81208571D01*
X139125238Y-81113333D01*
X139220476Y-81065714D01*
X139363333Y-81065714D01*
X139458571Y-81113333D01*
X139934761Y-81732380D02*
X139934761Y-80732380D01*
X140363333Y-81732380D02*
X140363333Y-81208571D01*
X140315714Y-81113333D01*
X140220476Y-81065714D01*
X140077619Y-81065714D01*
X139982380Y-81113333D01*
X139934761Y-81160952D01*
X140982380Y-81732380D02*
X140887142Y-81684761D01*
X140839523Y-81637142D01*
X140791904Y-81541904D01*
X140791904Y-81256190D01*
X140839523Y-81160952D01*
X140887142Y-81113333D01*
X140982380Y-81065714D01*
X141125238Y-81065714D01*
X141220476Y-81113333D01*
X141268095Y-81160952D01*
X141315714Y-81256190D01*
X141315714Y-81541904D01*
X141268095Y-81637142D01*
X141220476Y-81684761D01*
X141125238Y-81732380D01*
X140982380Y-81732380D01*
X141744285Y-81065714D02*
X141744285Y-82065714D01*
X141744285Y-81113333D02*
X141839523Y-81065714D01*
X142029999Y-81065714D01*
X142125238Y-81113333D01*
X142172857Y-81160952D01*
X142220476Y-81256190D01*
X142220476Y-81541904D01*
X142172857Y-81637142D01*
X142125238Y-81684761D01*
X142029999Y-81732380D01*
X141839523Y-81732380D01*
X141744285Y-81684761D01*
D11*
X68180000Y-116017500D02*
X68880000Y-116017500D01*
X85640000Y-116017500D02*
X86340000Y-116017500D01*
X103100000Y-116017500D02*
X103800000Y-116017500D01*
X120560000Y-116017500D02*
X121260000Y-116017500D01*
X138020000Y-116017500D02*
X138720000Y-116017500D01*
X155480000Y-116017500D02*
X156180000Y-116017500D01*
X157880000Y-103692500D02*
X157180000Y-103692500D01*
X140420000Y-103692500D02*
X139720000Y-103692500D01*
X122960000Y-103692500D02*
X122260000Y-103692500D01*
X105500000Y-103692500D02*
X104800000Y-103692500D01*
X88040000Y-103692500D02*
X87340000Y-103692500D01*
X70580000Y-103692500D02*
X69880000Y-103692500D01*
X68180000Y-96967500D02*
X68880000Y-96967500D01*
X85640000Y-96967500D02*
X86340000Y-96967500D01*
X103100000Y-96967500D02*
X103800000Y-96967500D01*
X120560000Y-96967500D02*
X121260000Y-96967500D01*
X138020000Y-96967500D02*
X138720000Y-96967500D01*
X155480000Y-96967500D02*
X156180000Y-96967500D01*
X157880000Y-84642500D02*
X157180000Y-84642500D01*
X140420000Y-84642500D02*
X139720000Y-84642500D01*
X122960000Y-84642500D02*
X122260000Y-84642500D01*
X105500000Y-84642500D02*
X104800000Y-84642500D01*
X88040000Y-84642500D02*
X87340000Y-84642500D01*
X70580000Y-84642500D02*
X69880000Y-84642500D01*
X68180000Y-77917500D02*
X68880000Y-77917500D01*
X85640000Y-77917500D02*
X86340000Y-77917500D01*
X103100000Y-77917500D02*
X103800000Y-77917500D01*
X120560000Y-77917500D02*
X121260000Y-77917500D01*
X138020000Y-77917500D02*
X138720000Y-77917500D01*
X155480000Y-77917500D02*
X156180000Y-77917500D01*
X157880000Y-65592500D02*
X157180000Y-65592500D01*
X140420000Y-65592500D02*
X139720000Y-65592500D01*
X122960000Y-65592500D02*
X122260000Y-65592500D01*
X105500000Y-65592500D02*
X104800000Y-65592500D01*
X88040000Y-65592500D02*
X87340000Y-65592500D01*
X70580000Y-65592500D02*
X69880000Y-65592500D01*
X68180000Y-58867500D02*
X68880000Y-58867500D01*
X85640000Y-58867500D02*
X86340000Y-58867500D01*
X103100000Y-58867500D02*
X103800000Y-58867500D01*
X120560000Y-58867500D02*
X121260000Y-58867500D01*
X138020000Y-58867500D02*
X138720000Y-58867500D01*
X155480000Y-58867500D02*
X156180000Y-58867500D01*
X157880000Y-46542500D02*
X157180000Y-46542500D01*
X140420000Y-46542500D02*
X139720000Y-46542500D01*
X122960000Y-46542500D02*
X122260000Y-46542500D01*
X105500000Y-46542500D02*
X104800000Y-46542500D01*
X88040000Y-46542500D02*
X87340000Y-46542500D01*
X70580000Y-46542500D02*
X69880000Y-46542500D01*
D10*
X166568571Y-107648571D02*
X166235238Y-107648571D01*
X166235238Y-108172380D02*
X166235238Y-107172380D01*
X166711428Y-107172380D01*
X167092380Y-108172380D02*
X167092380Y-107172380D01*
X167568571Y-108172380D02*
X167568571Y-107172380D01*
X167806666Y-107172380D01*
X167949523Y-107220000D01*
X168044761Y-107315238D01*
X168092380Y-107410476D01*
X168140000Y-107600952D01*
X168140000Y-107743809D01*
X168092380Y-107934285D01*
X168044761Y-108029523D01*
X167949523Y-108124761D01*
X167806666Y-108172380D01*
X167568571Y-108172380D01*
X168520952Y-107267619D02*
X168568571Y-107220000D01*
X168663809Y-107172380D01*
X168901904Y-107172380D01*
X168997142Y-107220000D01*
X169044761Y-107267619D01*
X169092380Y-107362857D01*
X169092380Y-107458095D01*
X169044761Y-107600952D01*
X168473333Y-108172380D01*
X169092380Y-108172380D01*
X57348571Y-55808571D02*
X57015238Y-55808571D01*
X57015238Y-56332380D02*
X57015238Y-55332380D01*
X57491428Y-55332380D01*
X57872380Y-56332380D02*
X57872380Y-55332380D01*
X58348571Y-56332380D02*
X58348571Y-55332380D01*
X58586666Y-55332380D01*
X58729523Y-55380000D01*
X58824761Y-55475238D01*
X58872380Y-55570476D01*
X58920000Y-55760952D01*
X58920000Y-55903809D01*
X58872380Y-56094285D01*
X58824761Y-56189523D01*
X58729523Y-56284761D01*
X58586666Y-56332380D01*
X58348571Y-56332380D01*
X59872380Y-56332380D02*
X59300952Y-56332380D01*
X59586666Y-56332380D02*
X59586666Y-55332380D01*
X59491428Y-55475238D01*
X59396190Y-55570476D01*
X59300952Y-55618095D01*
X168228095Y-111022380D02*
X168228095Y-110022380D01*
X168228095Y-110498571D02*
X168799523Y-110498571D01*
X168799523Y-111022380D02*
X168799523Y-110022380D01*
X169704285Y-110355714D02*
X169704285Y-111022380D01*
X169466190Y-109974761D02*
X169228095Y-110689047D01*
X169847142Y-110689047D01*
X168228094Y-52442381D02*
X168228094Y-51442381D01*
X168228094Y-51918572D02*
X168799522Y-51918572D01*
X168799522Y-52442381D02*
X168799522Y-51442381D01*
X169180475Y-51442381D02*
X169799522Y-51442381D01*
X169466189Y-51823334D01*
X169609046Y-51823334D01*
X169704284Y-51870953D01*
X169751903Y-51918572D01*
X169799522Y-52013810D01*
X169799522Y-52251905D01*
X169751903Y-52347143D01*
X169704284Y-52394762D01*
X169609046Y-52442381D01*
X169323332Y-52442381D01*
X169228094Y-52394762D01*
X169180475Y-52347143D01*
X56308095Y-52442380D02*
X56308095Y-51442380D01*
X56308095Y-51918571D02*
X56879523Y-51918571D01*
X56879523Y-52442380D02*
X56879523Y-51442380D01*
X57308095Y-51537619D02*
X57355714Y-51490000D01*
X57450952Y-51442380D01*
X57689047Y-51442380D01*
X57784285Y-51490000D01*
X57831904Y-51537619D01*
X57879523Y-51632857D01*
X57879523Y-51728095D01*
X57831904Y-51870952D01*
X57260476Y-52442380D01*
X57879523Y-52442380D01*
X56308096Y-111022379D02*
X56308096Y-110022379D01*
X56308096Y-110498570D02*
X56879524Y-110498570D01*
X56879524Y-111022379D02*
X56879524Y-110022379D01*
X57879524Y-111022379D02*
X57308096Y-111022379D01*
X57593810Y-111022379D02*
X57593810Y-110022379D01*
X57498572Y-110165237D01*
X57403334Y-110260475D01*
X57308096Y-110308094D01*
X68165714Y-117292380D02*
X68165714Y-116292380D01*
X68403809Y-116292380D01*
X68546666Y-116340000D01*
X68641904Y-116435238D01*
X68689523Y-116530476D01*
X68737142Y-116720952D01*
X68737142Y-116863809D01*
X68689523Y-117054285D01*
X68641904Y-117149523D01*
X68546666Y-117244761D01*
X68403809Y-117292380D01*
X68165714Y-117292380D01*
X69594285Y-116625714D02*
X69594285Y-117292380D01*
X69356190Y-116244761D02*
X69118095Y-116959047D01*
X69737142Y-116959047D01*
X70260952Y-116720952D02*
X70165714Y-116673333D01*
X70118095Y-116625714D01*
X70070476Y-116530476D01*
X70070476Y-116482857D01*
X70118095Y-116387619D01*
X70165714Y-116340000D01*
X70260952Y-116292380D01*
X70451428Y-116292380D01*
X70546666Y-116340000D01*
X70594285Y-116387619D01*
X70641904Y-116482857D01*
X70641904Y-116530476D01*
X70594285Y-116625714D01*
X70546666Y-116673333D01*
X70451428Y-116720952D01*
X70260952Y-116720952D01*
X70165714Y-116768571D01*
X70118095Y-116816190D01*
X70070476Y-116911428D01*
X70070476Y-117101904D01*
X70118095Y-117197142D01*
X70165714Y-117244761D01*
X70260952Y-117292380D01*
X70451428Y-117292380D01*
X70546666Y-117244761D01*
X70594285Y-117197142D01*
X70641904Y-117101904D01*
X70641904Y-116911428D01*
X70594285Y-116816190D01*
X70546666Y-116768571D01*
X70451428Y-116720952D01*
D12*
X67851428Y-113988928D02*
X67508571Y-113988928D01*
X67680000Y-113988928D02*
X67680000Y-113388928D01*
X67622857Y-113474642D01*
X67565714Y-113531785D01*
X67508571Y-113560357D01*
D10*
X85625714Y-117292380D02*
X85625714Y-116292380D01*
X85863809Y-116292380D01*
X86006666Y-116340000D01*
X86101904Y-116435238D01*
X86149523Y-116530476D01*
X86197142Y-116720952D01*
X86197142Y-116863809D01*
X86149523Y-117054285D01*
X86101904Y-117149523D01*
X86006666Y-117244761D01*
X85863809Y-117292380D01*
X85625714Y-117292380D01*
X87054285Y-116625714D02*
X87054285Y-117292380D01*
X86816190Y-116244761D02*
X86578095Y-116959047D01*
X87197142Y-116959047D01*
X87482857Y-116292380D02*
X88149523Y-116292380D01*
X87720952Y-117292380D01*
D12*
X85311428Y-113988928D02*
X84968571Y-113988928D01*
X85140000Y-113988928D02*
X85140000Y-113388928D01*
X85082857Y-113474642D01*
X85025714Y-113531785D01*
X84968571Y-113560357D01*
D10*
X103085714Y-117292380D02*
X103085714Y-116292380D01*
X103323809Y-116292380D01*
X103466666Y-116340000D01*
X103561904Y-116435238D01*
X103609523Y-116530476D01*
X103657142Y-116720952D01*
X103657142Y-116863809D01*
X103609523Y-117054285D01*
X103561904Y-117149523D01*
X103466666Y-117244761D01*
X103323809Y-117292380D01*
X103085714Y-117292380D01*
X104514285Y-116625714D02*
X104514285Y-117292380D01*
X104276190Y-116244761D02*
X104038095Y-116959047D01*
X104657142Y-116959047D01*
X105466666Y-116292380D02*
X105276190Y-116292380D01*
X105180952Y-116340000D01*
X105133333Y-116387619D01*
X105038095Y-116530476D01*
X104990476Y-116720952D01*
X104990476Y-117101904D01*
X105038095Y-117197142D01*
X105085714Y-117244761D01*
X105180952Y-117292380D01*
X105371428Y-117292380D01*
X105466666Y-117244761D01*
X105514285Y-117197142D01*
X105561904Y-117101904D01*
X105561904Y-116863809D01*
X105514285Y-116768571D01*
X105466666Y-116720952D01*
X105371428Y-116673333D01*
X105180952Y-116673333D01*
X105085714Y-116720952D01*
X105038095Y-116768571D01*
X104990476Y-116863809D01*
D12*
X102771428Y-113988928D02*
X102428571Y-113988928D01*
X102600000Y-113988928D02*
X102600000Y-113388928D01*
X102542857Y-113474642D01*
X102485714Y-113531785D01*
X102428571Y-113560357D01*
D10*
X120545714Y-117292380D02*
X120545714Y-116292380D01*
X120783809Y-116292380D01*
X120926666Y-116340000D01*
X121021904Y-116435238D01*
X121069523Y-116530476D01*
X121117142Y-116720952D01*
X121117142Y-116863809D01*
X121069523Y-117054285D01*
X121021904Y-117149523D01*
X120926666Y-117244761D01*
X120783809Y-117292380D01*
X120545714Y-117292380D01*
X121974285Y-116625714D02*
X121974285Y-117292380D01*
X121736190Y-116244761D02*
X121498095Y-116959047D01*
X122117142Y-116959047D01*
X122974285Y-116292380D02*
X122498095Y-116292380D01*
X122450476Y-116768571D01*
X122498095Y-116720952D01*
X122593333Y-116673333D01*
X122831428Y-116673333D01*
X122926666Y-116720952D01*
X122974285Y-116768571D01*
X123021904Y-116863809D01*
X123021904Y-117101904D01*
X122974285Y-117197142D01*
X122926666Y-117244761D01*
X122831428Y-117292380D01*
X122593333Y-117292380D01*
X122498095Y-117244761D01*
X122450476Y-117197142D01*
D12*
X120231428Y-113988928D02*
X119888571Y-113988928D01*
X120060000Y-113988928D02*
X120060000Y-113388928D01*
X120002857Y-113474642D01*
X119945714Y-113531785D01*
X119888571Y-113560357D01*
D10*
X138005714Y-117292380D02*
X138005714Y-116292380D01*
X138243809Y-116292380D01*
X138386666Y-116340000D01*
X138481904Y-116435238D01*
X138529523Y-116530476D01*
X138577142Y-116720952D01*
X138577142Y-116863809D01*
X138529523Y-117054285D01*
X138481904Y-117149523D01*
X138386666Y-117244761D01*
X138243809Y-117292380D01*
X138005714Y-117292380D01*
X139434285Y-116625714D02*
X139434285Y-117292380D01*
X139196190Y-116244761D02*
X138958095Y-116959047D01*
X139577142Y-116959047D01*
X140386666Y-116625714D02*
X140386666Y-117292380D01*
X140148571Y-116244761D02*
X139910476Y-116959047D01*
X140529523Y-116959047D01*
D12*
X137691428Y-113988928D02*
X137348571Y-113988928D01*
X137520000Y-113988928D02*
X137520000Y-113388928D01*
X137462857Y-113474642D01*
X137405714Y-113531785D01*
X137348571Y-113560357D01*
D10*
X155465714Y-117292380D02*
X155465714Y-116292380D01*
X155703809Y-116292380D01*
X155846666Y-116340000D01*
X155941904Y-116435238D01*
X155989523Y-116530476D01*
X156037142Y-116720952D01*
X156037142Y-116863809D01*
X155989523Y-117054285D01*
X155941904Y-117149523D01*
X155846666Y-117244761D01*
X155703809Y-117292380D01*
X155465714Y-117292380D01*
X156894285Y-116625714D02*
X156894285Y-117292380D01*
X156656190Y-116244761D02*
X156418095Y-116959047D01*
X157037142Y-116959047D01*
X157322857Y-116292380D02*
X157941904Y-116292380D01*
X157608571Y-116673333D01*
X157751428Y-116673333D01*
X157846666Y-116720952D01*
X157894285Y-116768571D01*
X157941904Y-116863809D01*
X157941904Y-117101904D01*
X157894285Y-117197142D01*
X157846666Y-117244761D01*
X157751428Y-117292380D01*
X157465714Y-117292380D01*
X157370476Y-117244761D01*
X157322857Y-117197142D01*
D12*
X155151428Y-113988928D02*
X154808571Y-113988928D01*
X154980000Y-113988928D02*
X154980000Y-113388928D01*
X154922857Y-113474642D01*
X154865714Y-113531785D01*
X154808571Y-113560357D01*
D10*
X155465714Y-103322380D02*
X155465714Y-102322380D01*
X155703809Y-102322380D01*
X155846666Y-102370000D01*
X155941904Y-102465238D01*
X155989523Y-102560476D01*
X156037142Y-102750952D01*
X156037142Y-102893809D01*
X155989523Y-103084285D01*
X155941904Y-103179523D01*
X155846666Y-103274761D01*
X155703809Y-103322380D01*
X155465714Y-103322380D01*
X156894285Y-102655714D02*
X156894285Y-103322380D01*
X156656190Y-102274761D02*
X156418095Y-102989047D01*
X157037142Y-102989047D01*
X157370476Y-102417619D02*
X157418095Y-102370000D01*
X157513333Y-102322380D01*
X157751428Y-102322380D01*
X157846666Y-102370000D01*
X157894285Y-102417619D01*
X157941904Y-102512857D01*
X157941904Y-102608095D01*
X157894285Y-102750952D01*
X157322857Y-103322380D01*
X157941904Y-103322380D01*
D12*
X158551428Y-106263928D02*
X158208571Y-106263928D01*
X158380000Y-106263928D02*
X158380000Y-105663928D01*
X158322857Y-105749642D01*
X158265714Y-105806785D01*
X158208571Y-105835357D01*
D10*
X138005714Y-103322380D02*
X138005714Y-102322380D01*
X138243809Y-102322380D01*
X138386666Y-102370000D01*
X138481904Y-102465238D01*
X138529523Y-102560476D01*
X138577142Y-102750952D01*
X138577142Y-102893809D01*
X138529523Y-103084285D01*
X138481904Y-103179523D01*
X138386666Y-103274761D01*
X138243809Y-103322380D01*
X138005714Y-103322380D01*
X139434285Y-102655714D02*
X139434285Y-103322380D01*
X139196190Y-102274761D02*
X138958095Y-102989047D01*
X139577142Y-102989047D01*
X140481904Y-103322380D02*
X139910476Y-103322380D01*
X140196190Y-103322380D02*
X140196190Y-102322380D01*
X140100952Y-102465238D01*
X140005714Y-102560476D01*
X139910476Y-102608095D01*
D12*
X141091428Y-106263928D02*
X140748571Y-106263928D01*
X140920000Y-106263928D02*
X140920000Y-105663928D01*
X140862857Y-105749642D01*
X140805714Y-105806785D01*
X140748571Y-105835357D01*
D10*
X120545714Y-103322380D02*
X120545714Y-102322380D01*
X120783809Y-102322380D01*
X120926666Y-102370000D01*
X121021904Y-102465238D01*
X121069523Y-102560476D01*
X121117142Y-102750952D01*
X121117142Y-102893809D01*
X121069523Y-103084285D01*
X121021904Y-103179523D01*
X120926666Y-103274761D01*
X120783809Y-103322380D01*
X120545714Y-103322380D01*
X121974285Y-102655714D02*
X121974285Y-103322380D01*
X121736190Y-102274761D02*
X121498095Y-102989047D01*
X122117142Y-102989047D01*
X122688571Y-102322380D02*
X122783809Y-102322380D01*
X122879047Y-102370000D01*
X122926666Y-102417619D01*
X122974285Y-102512857D01*
X123021904Y-102703333D01*
X123021904Y-102941428D01*
X122974285Y-103131904D01*
X122926666Y-103227142D01*
X122879047Y-103274761D01*
X122783809Y-103322380D01*
X122688571Y-103322380D01*
X122593333Y-103274761D01*
X122545714Y-103227142D01*
X122498095Y-103131904D01*
X122450476Y-102941428D01*
X122450476Y-102703333D01*
X122498095Y-102512857D01*
X122545714Y-102417619D01*
X122593333Y-102370000D01*
X122688571Y-102322380D01*
D12*
X123631428Y-106263928D02*
X123288571Y-106263928D01*
X123460000Y-106263928D02*
X123460000Y-105663928D01*
X123402857Y-105749642D01*
X123345714Y-105806785D01*
X123288571Y-105835357D01*
D10*
X103085714Y-103322380D02*
X103085714Y-102322380D01*
X103323809Y-102322380D01*
X103466666Y-102370000D01*
X103561904Y-102465238D01*
X103609523Y-102560476D01*
X103657142Y-102750952D01*
X103657142Y-102893809D01*
X103609523Y-103084285D01*
X103561904Y-103179523D01*
X103466666Y-103274761D01*
X103323809Y-103322380D01*
X103085714Y-103322380D01*
X103990476Y-102322380D02*
X104609523Y-102322380D01*
X104276190Y-102703333D01*
X104419047Y-102703333D01*
X104514285Y-102750952D01*
X104561904Y-102798571D01*
X104609523Y-102893809D01*
X104609523Y-103131904D01*
X104561904Y-103227142D01*
X104514285Y-103274761D01*
X104419047Y-103322380D01*
X104133333Y-103322380D01*
X104038095Y-103274761D01*
X103990476Y-103227142D01*
X105085714Y-103322380D02*
X105276190Y-103322380D01*
X105371428Y-103274761D01*
X105419047Y-103227142D01*
X105514285Y-103084285D01*
X105561904Y-102893809D01*
X105561904Y-102512857D01*
X105514285Y-102417619D01*
X105466666Y-102370000D01*
X105371428Y-102322380D01*
X105180952Y-102322380D01*
X105085714Y-102370000D01*
X105038095Y-102417619D01*
X104990476Y-102512857D01*
X104990476Y-102750952D01*
X105038095Y-102846190D01*
X105085714Y-102893809D01*
X105180952Y-102941428D01*
X105371428Y-102941428D01*
X105466666Y-102893809D01*
X105514285Y-102846190D01*
X105561904Y-102750952D01*
D12*
X106171428Y-106263928D02*
X105828571Y-106263928D01*
X106000000Y-106263928D02*
X106000000Y-105663928D01*
X105942857Y-105749642D01*
X105885714Y-105806785D01*
X105828571Y-105835357D01*
D10*
X85625714Y-103322380D02*
X85625714Y-102322380D01*
X85863809Y-102322380D01*
X86006666Y-102370000D01*
X86101904Y-102465238D01*
X86149523Y-102560476D01*
X86197142Y-102750952D01*
X86197142Y-102893809D01*
X86149523Y-103084285D01*
X86101904Y-103179523D01*
X86006666Y-103274761D01*
X85863809Y-103322380D01*
X85625714Y-103322380D01*
X86530476Y-102322380D02*
X87149523Y-102322380D01*
X86816190Y-102703333D01*
X86959047Y-102703333D01*
X87054285Y-102750952D01*
X87101904Y-102798571D01*
X87149523Y-102893809D01*
X87149523Y-103131904D01*
X87101904Y-103227142D01*
X87054285Y-103274761D01*
X86959047Y-103322380D01*
X86673333Y-103322380D01*
X86578095Y-103274761D01*
X86530476Y-103227142D01*
X87720952Y-102750952D02*
X87625714Y-102703333D01*
X87578095Y-102655714D01*
X87530476Y-102560476D01*
X87530476Y-102512857D01*
X87578095Y-102417619D01*
X87625714Y-102370000D01*
X87720952Y-102322380D01*
X87911428Y-102322380D01*
X88006666Y-102370000D01*
X88054285Y-102417619D01*
X88101904Y-102512857D01*
X88101904Y-102560476D01*
X88054285Y-102655714D01*
X88006666Y-102703333D01*
X87911428Y-102750952D01*
X87720952Y-102750952D01*
X87625714Y-102798571D01*
X87578095Y-102846190D01*
X87530476Y-102941428D01*
X87530476Y-103131904D01*
X87578095Y-103227142D01*
X87625714Y-103274761D01*
X87720952Y-103322380D01*
X87911428Y-103322380D01*
X88006666Y-103274761D01*
X88054285Y-103227142D01*
X88101904Y-103131904D01*
X88101904Y-102941428D01*
X88054285Y-102846190D01*
X88006666Y-102798571D01*
X87911428Y-102750952D01*
D12*
X88711428Y-106263928D02*
X88368571Y-106263928D01*
X88540000Y-106263928D02*
X88540000Y-105663928D01*
X88482857Y-105749642D01*
X88425714Y-105806785D01*
X88368571Y-105835357D01*
D10*
X68165714Y-103322380D02*
X68165714Y-102322380D01*
X68403809Y-102322380D01*
X68546666Y-102370000D01*
X68641904Y-102465238D01*
X68689523Y-102560476D01*
X68737142Y-102750952D01*
X68737142Y-102893809D01*
X68689523Y-103084285D01*
X68641904Y-103179523D01*
X68546666Y-103274761D01*
X68403809Y-103322380D01*
X68165714Y-103322380D01*
X69070476Y-102322380D02*
X69689523Y-102322380D01*
X69356190Y-102703333D01*
X69499047Y-102703333D01*
X69594285Y-102750952D01*
X69641904Y-102798571D01*
X69689523Y-102893809D01*
X69689523Y-103131904D01*
X69641904Y-103227142D01*
X69594285Y-103274761D01*
X69499047Y-103322380D01*
X69213333Y-103322380D01*
X69118095Y-103274761D01*
X69070476Y-103227142D01*
X70022857Y-102322380D02*
X70689523Y-102322380D01*
X70260952Y-103322380D01*
D12*
X71251428Y-106263928D02*
X70908571Y-106263928D01*
X71080000Y-106263928D02*
X71080000Y-105663928D01*
X71022857Y-105749642D01*
X70965714Y-105806785D01*
X70908571Y-105835357D01*
D10*
X68165714Y-98242380D02*
X68165714Y-97242380D01*
X68403809Y-97242380D01*
X68546666Y-97290000D01*
X68641904Y-97385238D01*
X68689523Y-97480476D01*
X68737142Y-97670952D01*
X68737142Y-97813809D01*
X68689523Y-98004285D01*
X68641904Y-98099523D01*
X68546666Y-98194761D01*
X68403809Y-98242380D01*
X68165714Y-98242380D01*
X69070476Y-97242380D02*
X69689523Y-97242380D01*
X69356190Y-97623333D01*
X69499047Y-97623333D01*
X69594285Y-97670952D01*
X69641904Y-97718571D01*
X69689523Y-97813809D01*
X69689523Y-98051904D01*
X69641904Y-98147142D01*
X69594285Y-98194761D01*
X69499047Y-98242380D01*
X69213333Y-98242380D01*
X69118095Y-98194761D01*
X69070476Y-98147142D01*
X70546666Y-97242380D02*
X70356190Y-97242380D01*
X70260952Y-97290000D01*
X70213333Y-97337619D01*
X70118095Y-97480476D01*
X70070476Y-97670952D01*
X70070476Y-98051904D01*
X70118095Y-98147142D01*
X70165714Y-98194761D01*
X70260952Y-98242380D01*
X70451428Y-98242380D01*
X70546666Y-98194761D01*
X70594285Y-98147142D01*
X70641904Y-98051904D01*
X70641904Y-97813809D01*
X70594285Y-97718571D01*
X70546666Y-97670952D01*
X70451428Y-97623333D01*
X70260952Y-97623333D01*
X70165714Y-97670952D01*
X70118095Y-97718571D01*
X70070476Y-97813809D01*
D12*
X67851428Y-94938928D02*
X67508571Y-94938928D01*
X67680000Y-94938928D02*
X67680000Y-94338928D01*
X67622857Y-94424642D01*
X67565714Y-94481785D01*
X67508571Y-94510357D01*
D10*
X85625714Y-98242380D02*
X85625714Y-97242380D01*
X85863809Y-97242380D01*
X86006666Y-97290000D01*
X86101904Y-97385238D01*
X86149523Y-97480476D01*
X86197142Y-97670952D01*
X86197142Y-97813809D01*
X86149523Y-98004285D01*
X86101904Y-98099523D01*
X86006666Y-98194761D01*
X85863809Y-98242380D01*
X85625714Y-98242380D01*
X86530476Y-97242380D02*
X87149523Y-97242380D01*
X86816190Y-97623333D01*
X86959047Y-97623333D01*
X87054285Y-97670952D01*
X87101904Y-97718571D01*
X87149523Y-97813809D01*
X87149523Y-98051904D01*
X87101904Y-98147142D01*
X87054285Y-98194761D01*
X86959047Y-98242380D01*
X86673333Y-98242380D01*
X86578095Y-98194761D01*
X86530476Y-98147142D01*
X88054285Y-97242380D02*
X87578095Y-97242380D01*
X87530476Y-97718571D01*
X87578095Y-97670952D01*
X87673333Y-97623333D01*
X87911428Y-97623333D01*
X88006666Y-97670952D01*
X88054285Y-97718571D01*
X88101904Y-97813809D01*
X88101904Y-98051904D01*
X88054285Y-98147142D01*
X88006666Y-98194761D01*
X87911428Y-98242380D01*
X87673333Y-98242380D01*
X87578095Y-98194761D01*
X87530476Y-98147142D01*
D12*
X85311428Y-94938928D02*
X84968571Y-94938928D01*
X85140000Y-94938928D02*
X85140000Y-94338928D01*
X85082857Y-94424642D01*
X85025714Y-94481785D01*
X84968571Y-94510357D01*
D10*
X102925714Y-98242380D02*
X102925714Y-97242380D01*
X103163809Y-97242380D01*
X103306666Y-97290000D01*
X103401904Y-97385238D01*
X103449523Y-97480476D01*
X103497142Y-97670952D01*
X103497142Y-97813809D01*
X103449523Y-98004285D01*
X103401904Y-98099523D01*
X103306666Y-98194761D01*
X103163809Y-98242380D01*
X102925714Y-98242380D01*
X103830476Y-97242380D02*
X104449523Y-97242380D01*
X104116190Y-97623333D01*
X104259047Y-97623333D01*
X104354285Y-97670952D01*
X104401904Y-97718571D01*
X104449523Y-97813809D01*
X104449523Y-98051904D01*
X104401904Y-98147142D01*
X104354285Y-98194761D01*
X104259047Y-98242380D01*
X103973333Y-98242380D01*
X103878095Y-98194761D01*
X103830476Y-98147142D01*
X105306666Y-97575714D02*
X105306666Y-98242380D01*
X105068571Y-97194761D02*
X104830476Y-97909047D01*
X105449523Y-97909047D01*
D12*
X102771428Y-94938928D02*
X102428571Y-94938928D01*
X102600000Y-94938928D02*
X102600000Y-94338928D01*
X102542857Y-94424642D01*
X102485714Y-94481785D01*
X102428571Y-94510357D01*
D10*
X120545714Y-98242380D02*
X120545714Y-97242380D01*
X120783809Y-97242380D01*
X120926666Y-97290000D01*
X121021904Y-97385238D01*
X121069523Y-97480476D01*
X121117142Y-97670952D01*
X121117142Y-97813809D01*
X121069523Y-98004285D01*
X121021904Y-98099523D01*
X120926666Y-98194761D01*
X120783809Y-98242380D01*
X120545714Y-98242380D01*
X121450476Y-97242380D02*
X122069523Y-97242380D01*
X121736190Y-97623333D01*
X121879047Y-97623333D01*
X121974285Y-97670952D01*
X122021904Y-97718571D01*
X122069523Y-97813809D01*
X122069523Y-98051904D01*
X122021904Y-98147142D01*
X121974285Y-98194761D01*
X121879047Y-98242380D01*
X121593333Y-98242380D01*
X121498095Y-98194761D01*
X121450476Y-98147142D01*
X122402857Y-97242380D02*
X123021904Y-97242380D01*
X122688571Y-97623333D01*
X122831428Y-97623333D01*
X122926666Y-97670952D01*
X122974285Y-97718571D01*
X123021904Y-97813809D01*
X123021904Y-98051904D01*
X122974285Y-98147142D01*
X122926666Y-98194761D01*
X122831428Y-98242380D01*
X122545714Y-98242380D01*
X122450476Y-98194761D01*
X122402857Y-98147142D01*
D12*
X120231428Y-94938928D02*
X119888571Y-94938928D01*
X120060000Y-94938928D02*
X120060000Y-94338928D01*
X120002857Y-94424642D01*
X119945714Y-94481785D01*
X119888571Y-94510357D01*
D10*
X138005714Y-98242380D02*
X138005714Y-97242380D01*
X138243809Y-97242380D01*
X138386666Y-97290000D01*
X138481904Y-97385238D01*
X138529523Y-97480476D01*
X138577142Y-97670952D01*
X138577142Y-97813809D01*
X138529523Y-98004285D01*
X138481904Y-98099523D01*
X138386666Y-98194761D01*
X138243809Y-98242380D01*
X138005714Y-98242380D01*
X138910476Y-97242380D02*
X139529523Y-97242380D01*
X139196190Y-97623333D01*
X139339047Y-97623333D01*
X139434285Y-97670952D01*
X139481904Y-97718571D01*
X139529523Y-97813809D01*
X139529523Y-98051904D01*
X139481904Y-98147142D01*
X139434285Y-98194761D01*
X139339047Y-98242380D01*
X139053333Y-98242380D01*
X138958095Y-98194761D01*
X138910476Y-98147142D01*
X139910476Y-97337619D02*
X139958095Y-97290000D01*
X140053333Y-97242380D01*
X140291428Y-97242380D01*
X140386666Y-97290000D01*
X140434285Y-97337619D01*
X140481904Y-97432857D01*
X140481904Y-97528095D01*
X140434285Y-97670952D01*
X139862857Y-98242380D01*
X140481904Y-98242380D01*
D12*
X137691428Y-94938928D02*
X137348571Y-94938928D01*
X137520000Y-94938928D02*
X137520000Y-94338928D01*
X137462857Y-94424642D01*
X137405714Y-94481785D01*
X137348571Y-94510357D01*
D10*
X155465714Y-98242380D02*
X155465714Y-97242380D01*
X155703809Y-97242380D01*
X155846666Y-97290000D01*
X155941904Y-97385238D01*
X155989523Y-97480476D01*
X156037142Y-97670952D01*
X156037142Y-97813809D01*
X155989523Y-98004285D01*
X155941904Y-98099523D01*
X155846666Y-98194761D01*
X155703809Y-98242380D01*
X155465714Y-98242380D01*
X156370476Y-97242380D02*
X156989523Y-97242380D01*
X156656190Y-97623333D01*
X156799047Y-97623333D01*
X156894285Y-97670952D01*
X156941904Y-97718571D01*
X156989523Y-97813809D01*
X156989523Y-98051904D01*
X156941904Y-98147142D01*
X156894285Y-98194761D01*
X156799047Y-98242380D01*
X156513333Y-98242380D01*
X156418095Y-98194761D01*
X156370476Y-98147142D01*
X157941904Y-98242380D02*
X157370476Y-98242380D01*
X157656190Y-98242380D02*
X157656190Y-97242380D01*
X157560952Y-97385238D01*
X157465714Y-97480476D01*
X157370476Y-97528095D01*
D12*
X155151428Y-94938928D02*
X154808571Y-94938928D01*
X154980000Y-94938928D02*
X154980000Y-94338928D01*
X154922857Y-94424642D01*
X154865714Y-94481785D01*
X154808571Y-94510357D01*
D10*
X155465714Y-84272380D02*
X155465714Y-83272380D01*
X155703809Y-83272380D01*
X155846666Y-83320000D01*
X155941904Y-83415238D01*
X155989523Y-83510476D01*
X156037142Y-83700952D01*
X156037142Y-83843809D01*
X155989523Y-84034285D01*
X155941904Y-84129523D01*
X155846666Y-84224761D01*
X155703809Y-84272380D01*
X155465714Y-84272380D01*
X156370476Y-83272380D02*
X156989523Y-83272380D01*
X156656190Y-83653333D01*
X156799047Y-83653333D01*
X156894285Y-83700952D01*
X156941904Y-83748571D01*
X156989523Y-83843809D01*
X156989523Y-84081904D01*
X156941904Y-84177142D01*
X156894285Y-84224761D01*
X156799047Y-84272380D01*
X156513333Y-84272380D01*
X156418095Y-84224761D01*
X156370476Y-84177142D01*
X157608571Y-83272380D02*
X157703809Y-83272380D01*
X157799047Y-83320000D01*
X157846666Y-83367619D01*
X157894285Y-83462857D01*
X157941904Y-83653333D01*
X157941904Y-83891428D01*
X157894285Y-84081904D01*
X157846666Y-84177142D01*
X157799047Y-84224761D01*
X157703809Y-84272380D01*
X157608571Y-84272380D01*
X157513333Y-84224761D01*
X157465714Y-84177142D01*
X157418095Y-84081904D01*
X157370476Y-83891428D01*
X157370476Y-83653333D01*
X157418095Y-83462857D01*
X157465714Y-83367619D01*
X157513333Y-83320000D01*
X157608571Y-83272380D01*
D12*
X158551428Y-87213928D02*
X158208571Y-87213928D01*
X158380000Y-87213928D02*
X158380000Y-86613928D01*
X158322857Y-86699642D01*
X158265714Y-86756785D01*
X158208571Y-86785357D01*
D10*
X138005714Y-84272380D02*
X138005714Y-83272380D01*
X138243809Y-83272380D01*
X138386666Y-83320000D01*
X138481904Y-83415238D01*
X138529523Y-83510476D01*
X138577142Y-83700952D01*
X138577142Y-83843809D01*
X138529523Y-84034285D01*
X138481904Y-84129523D01*
X138386666Y-84224761D01*
X138243809Y-84272380D01*
X138005714Y-84272380D01*
X138958095Y-83367619D02*
X139005714Y-83320000D01*
X139100952Y-83272380D01*
X139339047Y-83272380D01*
X139434285Y-83320000D01*
X139481904Y-83367619D01*
X139529523Y-83462857D01*
X139529523Y-83558095D01*
X139481904Y-83700952D01*
X138910476Y-84272380D01*
X139529523Y-84272380D01*
X140005714Y-84272380D02*
X140196190Y-84272380D01*
X140291428Y-84224761D01*
X140339047Y-84177142D01*
X140434285Y-84034285D01*
X140481904Y-83843809D01*
X140481904Y-83462857D01*
X140434285Y-83367619D01*
X140386666Y-83320000D01*
X140291428Y-83272380D01*
X140100952Y-83272380D01*
X140005714Y-83320000D01*
X139958095Y-83367619D01*
X139910476Y-83462857D01*
X139910476Y-83700952D01*
X139958095Y-83796190D01*
X140005714Y-83843809D01*
X140100952Y-83891428D01*
X140291428Y-83891428D01*
X140386666Y-83843809D01*
X140434285Y-83796190D01*
X140481904Y-83700952D01*
D12*
X141091428Y-87213928D02*
X140748571Y-87213928D01*
X140920000Y-87213928D02*
X140920000Y-86613928D01*
X140862857Y-86699642D01*
X140805714Y-86756785D01*
X140748571Y-86785357D01*
D10*
X120545714Y-84272380D02*
X120545714Y-83272380D01*
X120783809Y-83272380D01*
X120926666Y-83320000D01*
X121021904Y-83415238D01*
X121069523Y-83510476D01*
X121117142Y-83700952D01*
X121117142Y-83843809D01*
X121069523Y-84034285D01*
X121021904Y-84129523D01*
X120926666Y-84224761D01*
X120783809Y-84272380D01*
X120545714Y-84272380D01*
X121498095Y-83367619D02*
X121545714Y-83320000D01*
X121640952Y-83272380D01*
X121879047Y-83272380D01*
X121974285Y-83320000D01*
X122021904Y-83367619D01*
X122069523Y-83462857D01*
X122069523Y-83558095D01*
X122021904Y-83700952D01*
X121450476Y-84272380D01*
X122069523Y-84272380D01*
X122640952Y-83700952D02*
X122545714Y-83653333D01*
X122498095Y-83605714D01*
X122450476Y-83510476D01*
X122450476Y-83462857D01*
X122498095Y-83367619D01*
X122545714Y-83320000D01*
X122640952Y-83272380D01*
X122831428Y-83272380D01*
X122926666Y-83320000D01*
X122974285Y-83367619D01*
X123021904Y-83462857D01*
X123021904Y-83510476D01*
X122974285Y-83605714D01*
X122926666Y-83653333D01*
X122831428Y-83700952D01*
X122640952Y-83700952D01*
X122545714Y-83748571D01*
X122498095Y-83796190D01*
X122450476Y-83891428D01*
X122450476Y-84081904D01*
X122498095Y-84177142D01*
X122545714Y-84224761D01*
X122640952Y-84272380D01*
X122831428Y-84272380D01*
X122926666Y-84224761D01*
X122974285Y-84177142D01*
X123021904Y-84081904D01*
X123021904Y-83891428D01*
X122974285Y-83796190D01*
X122926666Y-83748571D01*
X122831428Y-83700952D01*
D12*
X123631428Y-87213928D02*
X123288571Y-87213928D01*
X123460000Y-87213928D02*
X123460000Y-86613928D01*
X123402857Y-86699642D01*
X123345714Y-86756785D01*
X123288571Y-86785357D01*
D10*
X103085714Y-84272380D02*
X103085714Y-83272380D01*
X103323809Y-83272380D01*
X103466666Y-83320000D01*
X103561904Y-83415238D01*
X103609523Y-83510476D01*
X103657142Y-83700952D01*
X103657142Y-83843809D01*
X103609523Y-84034285D01*
X103561904Y-84129523D01*
X103466666Y-84224761D01*
X103323809Y-84272380D01*
X103085714Y-84272380D01*
X104038095Y-83367619D02*
X104085714Y-83320000D01*
X104180952Y-83272380D01*
X104419047Y-83272380D01*
X104514285Y-83320000D01*
X104561904Y-83367619D01*
X104609523Y-83462857D01*
X104609523Y-83558095D01*
X104561904Y-83700952D01*
X103990476Y-84272380D01*
X104609523Y-84272380D01*
X104942857Y-83272380D02*
X105609523Y-83272380D01*
X105180952Y-84272380D01*
D12*
X106171428Y-87213928D02*
X105828571Y-87213928D01*
X106000000Y-87213928D02*
X106000000Y-86613928D01*
X105942857Y-86699642D01*
X105885714Y-86756785D01*
X105828571Y-86785357D01*
D10*
X85625714Y-84272380D02*
X85625714Y-83272380D01*
X85863809Y-83272380D01*
X86006666Y-83320000D01*
X86101904Y-83415238D01*
X86149523Y-83510476D01*
X86197142Y-83700952D01*
X86197142Y-83843809D01*
X86149523Y-84034285D01*
X86101904Y-84129523D01*
X86006666Y-84224761D01*
X85863809Y-84272380D01*
X85625714Y-84272380D01*
X86578095Y-83367619D02*
X86625714Y-83320000D01*
X86720952Y-83272380D01*
X86959047Y-83272380D01*
X87054285Y-83320000D01*
X87101904Y-83367619D01*
X87149523Y-83462857D01*
X87149523Y-83558095D01*
X87101904Y-83700952D01*
X86530476Y-84272380D01*
X87149523Y-84272380D01*
X88006666Y-83272380D02*
X87816190Y-83272380D01*
X87720952Y-83320000D01*
X87673333Y-83367619D01*
X87578095Y-83510476D01*
X87530476Y-83700952D01*
X87530476Y-84081904D01*
X87578095Y-84177142D01*
X87625714Y-84224761D01*
X87720952Y-84272380D01*
X87911428Y-84272380D01*
X88006666Y-84224761D01*
X88054285Y-84177142D01*
X88101904Y-84081904D01*
X88101904Y-83843809D01*
X88054285Y-83748571D01*
X88006666Y-83700952D01*
X87911428Y-83653333D01*
X87720952Y-83653333D01*
X87625714Y-83700952D01*
X87578095Y-83748571D01*
X87530476Y-83843809D01*
D12*
X88711428Y-87213928D02*
X88368571Y-87213928D01*
X88540000Y-87213928D02*
X88540000Y-86613928D01*
X88482857Y-86699642D01*
X88425714Y-86756785D01*
X88368571Y-86785357D01*
D10*
X68165714Y-84272380D02*
X68165714Y-83272380D01*
X68403809Y-83272380D01*
X68546666Y-83320000D01*
X68641904Y-83415238D01*
X68689523Y-83510476D01*
X68737142Y-83700952D01*
X68737142Y-83843809D01*
X68689523Y-84034285D01*
X68641904Y-84129523D01*
X68546666Y-84224761D01*
X68403809Y-84272380D01*
X68165714Y-84272380D01*
X69118095Y-83367619D02*
X69165714Y-83320000D01*
X69260952Y-83272380D01*
X69499047Y-83272380D01*
X69594285Y-83320000D01*
X69641904Y-83367619D01*
X69689523Y-83462857D01*
X69689523Y-83558095D01*
X69641904Y-83700952D01*
X69070476Y-84272380D01*
X69689523Y-84272380D01*
X70594285Y-83272380D02*
X70118095Y-83272380D01*
X70070476Y-83748571D01*
X70118095Y-83700952D01*
X70213333Y-83653333D01*
X70451428Y-83653333D01*
X70546666Y-83700952D01*
X70594285Y-83748571D01*
X70641904Y-83843809D01*
X70641904Y-84081904D01*
X70594285Y-84177142D01*
X70546666Y-84224761D01*
X70451428Y-84272380D01*
X70213333Y-84272380D01*
X70118095Y-84224761D01*
X70070476Y-84177142D01*
D12*
X71251428Y-87213928D02*
X70908571Y-87213928D01*
X71080000Y-87213928D02*
X71080000Y-86613928D01*
X71022857Y-86699642D01*
X70965714Y-86756785D01*
X70908571Y-86785357D01*
D10*
X68165714Y-79192380D02*
X68165714Y-78192380D01*
X68403809Y-78192380D01*
X68546666Y-78240000D01*
X68641904Y-78335238D01*
X68689523Y-78430476D01*
X68737142Y-78620952D01*
X68737142Y-78763809D01*
X68689523Y-78954285D01*
X68641904Y-79049523D01*
X68546666Y-79144761D01*
X68403809Y-79192380D01*
X68165714Y-79192380D01*
X69118095Y-78287619D02*
X69165714Y-78240000D01*
X69260952Y-78192380D01*
X69499047Y-78192380D01*
X69594285Y-78240000D01*
X69641904Y-78287619D01*
X69689523Y-78382857D01*
X69689523Y-78478095D01*
X69641904Y-78620952D01*
X69070476Y-79192380D01*
X69689523Y-79192380D01*
X70546666Y-78525714D02*
X70546666Y-79192380D01*
X70308571Y-78144761D02*
X70070476Y-78859047D01*
X70689523Y-78859047D01*
D12*
X67851428Y-75888928D02*
X67508571Y-75888928D01*
X67680000Y-75888928D02*
X67680000Y-75288928D01*
X67622857Y-75374642D01*
X67565714Y-75431785D01*
X67508571Y-75460357D01*
D10*
X85625714Y-79192380D02*
X85625714Y-78192380D01*
X85863809Y-78192380D01*
X86006666Y-78240000D01*
X86101904Y-78335238D01*
X86149523Y-78430476D01*
X86197142Y-78620952D01*
X86197142Y-78763809D01*
X86149523Y-78954285D01*
X86101904Y-79049523D01*
X86006666Y-79144761D01*
X85863809Y-79192380D01*
X85625714Y-79192380D01*
X86578095Y-78287619D02*
X86625714Y-78240000D01*
X86720952Y-78192380D01*
X86959047Y-78192380D01*
X87054285Y-78240000D01*
X87101904Y-78287619D01*
X87149523Y-78382857D01*
X87149523Y-78478095D01*
X87101904Y-78620952D01*
X86530476Y-79192380D01*
X87149523Y-79192380D01*
X87482857Y-78192380D02*
X88101904Y-78192380D01*
X87768571Y-78573333D01*
X87911428Y-78573333D01*
X88006666Y-78620952D01*
X88054285Y-78668571D01*
X88101904Y-78763809D01*
X88101904Y-79001904D01*
X88054285Y-79097142D01*
X88006666Y-79144761D01*
X87911428Y-79192380D01*
X87625714Y-79192380D01*
X87530476Y-79144761D01*
X87482857Y-79097142D01*
D12*
X85311428Y-75888928D02*
X84968571Y-75888928D01*
X85140000Y-75888928D02*
X85140000Y-75288928D01*
X85082857Y-75374642D01*
X85025714Y-75431785D01*
X84968571Y-75460357D01*
D10*
X103085714Y-79192380D02*
X103085714Y-78192380D01*
X103323809Y-78192380D01*
X103466666Y-78240000D01*
X103561904Y-78335238D01*
X103609523Y-78430476D01*
X103657142Y-78620952D01*
X103657142Y-78763809D01*
X103609523Y-78954285D01*
X103561904Y-79049523D01*
X103466666Y-79144761D01*
X103323809Y-79192380D01*
X103085714Y-79192380D01*
X104038095Y-78287619D02*
X104085714Y-78240000D01*
X104180952Y-78192380D01*
X104419047Y-78192380D01*
X104514285Y-78240000D01*
X104561904Y-78287619D01*
X104609523Y-78382857D01*
X104609523Y-78478095D01*
X104561904Y-78620952D01*
X103990476Y-79192380D01*
X104609523Y-79192380D01*
X104990476Y-78287619D02*
X105038095Y-78240000D01*
X105133333Y-78192380D01*
X105371428Y-78192380D01*
X105466666Y-78240000D01*
X105514285Y-78287619D01*
X105561904Y-78382857D01*
X105561904Y-78478095D01*
X105514285Y-78620952D01*
X104942857Y-79192380D01*
X105561904Y-79192380D01*
D12*
X102771428Y-75888928D02*
X102428571Y-75888928D01*
X102600000Y-75888928D02*
X102600000Y-75288928D01*
X102542857Y-75374642D01*
X102485714Y-75431785D01*
X102428571Y-75460357D01*
D10*
X120545714Y-79192380D02*
X120545714Y-78192380D01*
X120783809Y-78192380D01*
X120926666Y-78240000D01*
X121021904Y-78335238D01*
X121069523Y-78430476D01*
X121117142Y-78620952D01*
X121117142Y-78763809D01*
X121069523Y-78954285D01*
X121021904Y-79049523D01*
X120926666Y-79144761D01*
X120783809Y-79192380D01*
X120545714Y-79192380D01*
X121498095Y-78287619D02*
X121545714Y-78240000D01*
X121640952Y-78192380D01*
X121879047Y-78192380D01*
X121974285Y-78240000D01*
X122021904Y-78287619D01*
X122069523Y-78382857D01*
X122069523Y-78478095D01*
X122021904Y-78620952D01*
X121450476Y-79192380D01*
X122069523Y-79192380D01*
X123021904Y-79192380D02*
X122450476Y-79192380D01*
X122736190Y-79192380D02*
X122736190Y-78192380D01*
X122640952Y-78335238D01*
X122545714Y-78430476D01*
X122450476Y-78478095D01*
D12*
X120231428Y-75888928D02*
X119888571Y-75888928D01*
X120060000Y-75888928D02*
X120060000Y-75288928D01*
X120002857Y-75374642D01*
X119945714Y-75431785D01*
X119888571Y-75460357D01*
D10*
X138005714Y-79192380D02*
X138005714Y-78192380D01*
X138243809Y-78192380D01*
X138386666Y-78240000D01*
X138481904Y-78335238D01*
X138529523Y-78430476D01*
X138577142Y-78620952D01*
X138577142Y-78763809D01*
X138529523Y-78954285D01*
X138481904Y-79049523D01*
X138386666Y-79144761D01*
X138243809Y-79192380D01*
X138005714Y-79192380D01*
X138958095Y-78287619D02*
X139005714Y-78240000D01*
X139100952Y-78192380D01*
X139339047Y-78192380D01*
X139434285Y-78240000D01*
X139481904Y-78287619D01*
X139529523Y-78382857D01*
X139529523Y-78478095D01*
X139481904Y-78620952D01*
X138910476Y-79192380D01*
X139529523Y-79192380D01*
X140148571Y-78192380D02*
X140243809Y-78192380D01*
X140339047Y-78240000D01*
X140386666Y-78287619D01*
X140434285Y-78382857D01*
X140481904Y-78573333D01*
X140481904Y-78811428D01*
X140434285Y-79001904D01*
X140386666Y-79097142D01*
X140339047Y-79144761D01*
X140243809Y-79192380D01*
X140148571Y-79192380D01*
X140053333Y-79144761D01*
X140005714Y-79097142D01*
X139958095Y-79001904D01*
X139910476Y-78811428D01*
X139910476Y-78573333D01*
X139958095Y-78382857D01*
X140005714Y-78287619D01*
X140053333Y-78240000D01*
X140148571Y-78192380D01*
D12*
X137691428Y-75888928D02*
X137348571Y-75888928D01*
X137520000Y-75888928D02*
X137520000Y-75288928D01*
X137462857Y-75374642D01*
X137405714Y-75431785D01*
X137348571Y-75460357D01*
D10*
X155465714Y-79192380D02*
X155465714Y-78192380D01*
X155703809Y-78192380D01*
X155846666Y-78240000D01*
X155941904Y-78335238D01*
X155989523Y-78430476D01*
X156037142Y-78620952D01*
X156037142Y-78763809D01*
X155989523Y-78954285D01*
X155941904Y-79049523D01*
X155846666Y-79144761D01*
X155703809Y-79192380D01*
X155465714Y-79192380D01*
X156989523Y-79192380D02*
X156418095Y-79192380D01*
X156703809Y-79192380D02*
X156703809Y-78192380D01*
X156608571Y-78335238D01*
X156513333Y-78430476D01*
X156418095Y-78478095D01*
X157465714Y-79192380D02*
X157656190Y-79192380D01*
X157751428Y-79144761D01*
X157799047Y-79097142D01*
X157894285Y-78954285D01*
X157941904Y-78763809D01*
X157941904Y-78382857D01*
X157894285Y-78287619D01*
X157846666Y-78240000D01*
X157751428Y-78192380D01*
X157560952Y-78192380D01*
X157465714Y-78240000D01*
X157418095Y-78287619D01*
X157370476Y-78382857D01*
X157370476Y-78620952D01*
X157418095Y-78716190D01*
X157465714Y-78763809D01*
X157560952Y-78811428D01*
X157751428Y-78811428D01*
X157846666Y-78763809D01*
X157894285Y-78716190D01*
X157941904Y-78620952D01*
D12*
X155151428Y-75888928D02*
X154808571Y-75888928D01*
X154980000Y-75888928D02*
X154980000Y-75288928D01*
X154922857Y-75374642D01*
X154865714Y-75431785D01*
X154808571Y-75460357D01*
D10*
X155465714Y-65222380D02*
X155465714Y-64222380D01*
X155703809Y-64222380D01*
X155846666Y-64270000D01*
X155941904Y-64365238D01*
X155989523Y-64460476D01*
X156037142Y-64650952D01*
X156037142Y-64793809D01*
X155989523Y-64984285D01*
X155941904Y-65079523D01*
X155846666Y-65174761D01*
X155703809Y-65222380D01*
X155465714Y-65222380D01*
X156989523Y-65222380D02*
X156418095Y-65222380D01*
X156703809Y-65222380D02*
X156703809Y-64222380D01*
X156608571Y-64365238D01*
X156513333Y-64460476D01*
X156418095Y-64508095D01*
X157560952Y-64650952D02*
X157465714Y-64603333D01*
X157418095Y-64555714D01*
X157370476Y-64460476D01*
X157370476Y-64412857D01*
X157418095Y-64317619D01*
X157465714Y-64270000D01*
X157560952Y-64222380D01*
X157751428Y-64222380D01*
X157846666Y-64270000D01*
X157894285Y-64317619D01*
X157941904Y-64412857D01*
X157941904Y-64460476D01*
X157894285Y-64555714D01*
X157846666Y-64603333D01*
X157751428Y-64650952D01*
X157560952Y-64650952D01*
X157465714Y-64698571D01*
X157418095Y-64746190D01*
X157370476Y-64841428D01*
X157370476Y-65031904D01*
X157418095Y-65127142D01*
X157465714Y-65174761D01*
X157560952Y-65222380D01*
X157751428Y-65222380D01*
X157846666Y-65174761D01*
X157894285Y-65127142D01*
X157941904Y-65031904D01*
X157941904Y-64841428D01*
X157894285Y-64746190D01*
X157846666Y-64698571D01*
X157751428Y-64650952D01*
D12*
X158551428Y-68163928D02*
X158208571Y-68163928D01*
X158380000Y-68163928D02*
X158380000Y-67563928D01*
X158322857Y-67649642D01*
X158265714Y-67706785D01*
X158208571Y-67735357D01*
D10*
X138005714Y-65222380D02*
X138005714Y-64222380D01*
X138243809Y-64222380D01*
X138386666Y-64270000D01*
X138481904Y-64365238D01*
X138529523Y-64460476D01*
X138577142Y-64650952D01*
X138577142Y-64793809D01*
X138529523Y-64984285D01*
X138481904Y-65079523D01*
X138386666Y-65174761D01*
X138243809Y-65222380D01*
X138005714Y-65222380D01*
X139529523Y-65222380D02*
X138958095Y-65222380D01*
X139243809Y-65222380D02*
X139243809Y-64222380D01*
X139148571Y-64365238D01*
X139053333Y-64460476D01*
X138958095Y-64508095D01*
X139862857Y-64222380D02*
X140529523Y-64222380D01*
X140100952Y-65222380D01*
D12*
X141091428Y-68163928D02*
X140748571Y-68163928D01*
X140920000Y-68163928D02*
X140920000Y-67563928D01*
X140862857Y-67649642D01*
X140805714Y-67706785D01*
X140748571Y-67735357D01*
D10*
X120545714Y-65222380D02*
X120545714Y-64222380D01*
X120783809Y-64222380D01*
X120926666Y-64270000D01*
X121021904Y-64365238D01*
X121069523Y-64460476D01*
X121117142Y-64650952D01*
X121117142Y-64793809D01*
X121069523Y-64984285D01*
X121021904Y-65079523D01*
X120926666Y-65174761D01*
X120783809Y-65222380D01*
X120545714Y-65222380D01*
X122069523Y-65222380D02*
X121498095Y-65222380D01*
X121783809Y-65222380D02*
X121783809Y-64222380D01*
X121688571Y-64365238D01*
X121593333Y-64460476D01*
X121498095Y-64508095D01*
X122926666Y-64222380D02*
X122736190Y-64222380D01*
X122640952Y-64270000D01*
X122593333Y-64317619D01*
X122498095Y-64460476D01*
X122450476Y-64650952D01*
X122450476Y-65031904D01*
X122498095Y-65127142D01*
X122545714Y-65174761D01*
X122640952Y-65222380D01*
X122831428Y-65222380D01*
X122926666Y-65174761D01*
X122974285Y-65127142D01*
X123021904Y-65031904D01*
X123021904Y-64793809D01*
X122974285Y-64698571D01*
X122926666Y-64650952D01*
X122831428Y-64603333D01*
X122640952Y-64603333D01*
X122545714Y-64650952D01*
X122498095Y-64698571D01*
X122450476Y-64793809D01*
D12*
X123631428Y-68163928D02*
X123288571Y-68163928D01*
X123460000Y-68163928D02*
X123460000Y-67563928D01*
X123402857Y-67649642D01*
X123345714Y-67706785D01*
X123288571Y-67735357D01*
D10*
X103085714Y-65222380D02*
X103085714Y-64222380D01*
X103323809Y-64222380D01*
X103466666Y-64270000D01*
X103561904Y-64365238D01*
X103609523Y-64460476D01*
X103657142Y-64650952D01*
X103657142Y-64793809D01*
X103609523Y-64984285D01*
X103561904Y-65079523D01*
X103466666Y-65174761D01*
X103323809Y-65222380D01*
X103085714Y-65222380D01*
X104609523Y-65222380D02*
X104038095Y-65222380D01*
X104323809Y-65222380D02*
X104323809Y-64222380D01*
X104228571Y-64365238D01*
X104133333Y-64460476D01*
X104038095Y-64508095D01*
X105514285Y-64222380D02*
X105038095Y-64222380D01*
X104990476Y-64698571D01*
X105038095Y-64650952D01*
X105133333Y-64603333D01*
X105371428Y-64603333D01*
X105466666Y-64650952D01*
X105514285Y-64698571D01*
X105561904Y-64793809D01*
X105561904Y-65031904D01*
X105514285Y-65127142D01*
X105466666Y-65174761D01*
X105371428Y-65222380D01*
X105133333Y-65222380D01*
X105038095Y-65174761D01*
X104990476Y-65127142D01*
D12*
X106171428Y-68163928D02*
X105828571Y-68163928D01*
X106000000Y-68163928D02*
X106000000Y-67563928D01*
X105942857Y-67649642D01*
X105885714Y-67706785D01*
X105828571Y-67735357D01*
D10*
X85625714Y-65222380D02*
X85625714Y-64222380D01*
X85863809Y-64222380D01*
X86006666Y-64270000D01*
X86101904Y-64365238D01*
X86149523Y-64460476D01*
X86197142Y-64650952D01*
X86197142Y-64793809D01*
X86149523Y-64984285D01*
X86101904Y-65079523D01*
X86006666Y-65174761D01*
X85863809Y-65222380D01*
X85625714Y-65222380D01*
X87149523Y-65222380D02*
X86578095Y-65222380D01*
X86863809Y-65222380D02*
X86863809Y-64222380D01*
X86768571Y-64365238D01*
X86673333Y-64460476D01*
X86578095Y-64508095D01*
X88006666Y-64555714D02*
X88006666Y-65222380D01*
X87768571Y-64174761D02*
X87530476Y-64889047D01*
X88149523Y-64889047D01*
D12*
X88711428Y-68163928D02*
X88368571Y-68163928D01*
X88540000Y-68163928D02*
X88540000Y-67563928D01*
X88482857Y-67649642D01*
X88425714Y-67706785D01*
X88368571Y-67735357D01*
D10*
X68165714Y-65222380D02*
X68165714Y-64222380D01*
X68403809Y-64222380D01*
X68546666Y-64270000D01*
X68641904Y-64365238D01*
X68689523Y-64460476D01*
X68737142Y-64650952D01*
X68737142Y-64793809D01*
X68689523Y-64984285D01*
X68641904Y-65079523D01*
X68546666Y-65174761D01*
X68403809Y-65222380D01*
X68165714Y-65222380D01*
X69689523Y-65222380D02*
X69118095Y-65222380D01*
X69403809Y-65222380D02*
X69403809Y-64222380D01*
X69308571Y-64365238D01*
X69213333Y-64460476D01*
X69118095Y-64508095D01*
X70022857Y-64222380D02*
X70641904Y-64222380D01*
X70308571Y-64603333D01*
X70451428Y-64603333D01*
X70546666Y-64650952D01*
X70594285Y-64698571D01*
X70641904Y-64793809D01*
X70641904Y-65031904D01*
X70594285Y-65127142D01*
X70546666Y-65174761D01*
X70451428Y-65222380D01*
X70165714Y-65222380D01*
X70070476Y-65174761D01*
X70022857Y-65127142D01*
D12*
X71251428Y-68163928D02*
X70908571Y-68163928D01*
X71080000Y-68163928D02*
X71080000Y-67563928D01*
X71022857Y-67649642D01*
X70965714Y-67706785D01*
X70908571Y-67735357D01*
D10*
X68165714Y-60142380D02*
X68165714Y-59142380D01*
X68403809Y-59142380D01*
X68546666Y-59190000D01*
X68641904Y-59285238D01*
X68689523Y-59380476D01*
X68737142Y-59570952D01*
X68737142Y-59713809D01*
X68689523Y-59904285D01*
X68641904Y-59999523D01*
X68546666Y-60094761D01*
X68403809Y-60142380D01*
X68165714Y-60142380D01*
X69689523Y-60142380D02*
X69118095Y-60142380D01*
X69403809Y-60142380D02*
X69403809Y-59142380D01*
X69308571Y-59285238D01*
X69213333Y-59380476D01*
X69118095Y-59428095D01*
X70070476Y-59237619D02*
X70118095Y-59190000D01*
X70213333Y-59142380D01*
X70451428Y-59142380D01*
X70546666Y-59190000D01*
X70594285Y-59237619D01*
X70641904Y-59332857D01*
X70641904Y-59428095D01*
X70594285Y-59570952D01*
X70022857Y-60142380D01*
X70641904Y-60142380D01*
D12*
X67851428Y-56838928D02*
X67508571Y-56838928D01*
X67680000Y-56838928D02*
X67680000Y-56238928D01*
X67622857Y-56324642D01*
X67565714Y-56381785D01*
X67508571Y-56410357D01*
D10*
X85625714Y-60142380D02*
X85625714Y-59142380D01*
X85863809Y-59142380D01*
X86006666Y-59190000D01*
X86101904Y-59285238D01*
X86149523Y-59380476D01*
X86197142Y-59570952D01*
X86197142Y-59713809D01*
X86149523Y-59904285D01*
X86101904Y-59999523D01*
X86006666Y-60094761D01*
X85863809Y-60142380D01*
X85625714Y-60142380D01*
X87149523Y-60142380D02*
X86578095Y-60142380D01*
X86863809Y-60142380D02*
X86863809Y-59142380D01*
X86768571Y-59285238D01*
X86673333Y-59380476D01*
X86578095Y-59428095D01*
X88101904Y-60142380D02*
X87530476Y-60142380D01*
X87816190Y-60142380D02*
X87816190Y-59142380D01*
X87720952Y-59285238D01*
X87625714Y-59380476D01*
X87530476Y-59428095D01*
D12*
X85311428Y-56838928D02*
X84968571Y-56838928D01*
X85140000Y-56838928D02*
X85140000Y-56238928D01*
X85082857Y-56324642D01*
X85025714Y-56381785D01*
X84968571Y-56410357D01*
D10*
X103085714Y-60142380D02*
X103085714Y-59142380D01*
X103323809Y-59142380D01*
X103466666Y-59190000D01*
X103561904Y-59285238D01*
X103609523Y-59380476D01*
X103657142Y-59570952D01*
X103657142Y-59713809D01*
X103609523Y-59904285D01*
X103561904Y-59999523D01*
X103466666Y-60094761D01*
X103323809Y-60142380D01*
X103085714Y-60142380D01*
X104609523Y-60142380D02*
X104038095Y-60142380D01*
X104323809Y-60142380D02*
X104323809Y-59142380D01*
X104228571Y-59285238D01*
X104133333Y-59380476D01*
X104038095Y-59428095D01*
X105228571Y-59142380D02*
X105323809Y-59142380D01*
X105419047Y-59190000D01*
X105466666Y-59237619D01*
X105514285Y-59332857D01*
X105561904Y-59523333D01*
X105561904Y-59761428D01*
X105514285Y-59951904D01*
X105466666Y-60047142D01*
X105419047Y-60094761D01*
X105323809Y-60142380D01*
X105228571Y-60142380D01*
X105133333Y-60094761D01*
X105085714Y-60047142D01*
X105038095Y-59951904D01*
X104990476Y-59761428D01*
X104990476Y-59523333D01*
X105038095Y-59332857D01*
X105085714Y-59237619D01*
X105133333Y-59190000D01*
X105228571Y-59142380D01*
D12*
X102771428Y-56838928D02*
X102428571Y-56838928D01*
X102600000Y-56838928D02*
X102600000Y-56238928D01*
X102542857Y-56324642D01*
X102485714Y-56381785D01*
X102428571Y-56410357D01*
D10*
X121021904Y-60142380D02*
X121021904Y-59142380D01*
X121260000Y-59142380D01*
X121402857Y-59190000D01*
X121498095Y-59285238D01*
X121545714Y-59380476D01*
X121593333Y-59570952D01*
X121593333Y-59713809D01*
X121545714Y-59904285D01*
X121498095Y-59999523D01*
X121402857Y-60094761D01*
X121260000Y-60142380D01*
X121021904Y-60142380D01*
X122069523Y-60142380D02*
X122260000Y-60142380D01*
X122355238Y-60094761D01*
X122402857Y-60047142D01*
X122498095Y-59904285D01*
X122545714Y-59713809D01*
X122545714Y-59332857D01*
X122498095Y-59237619D01*
X122450476Y-59190000D01*
X122355238Y-59142380D01*
X122164761Y-59142380D01*
X122069523Y-59190000D01*
X122021904Y-59237619D01*
X121974285Y-59332857D01*
X121974285Y-59570952D01*
X122021904Y-59666190D01*
X122069523Y-59713809D01*
X122164761Y-59761428D01*
X122355238Y-59761428D01*
X122450476Y-59713809D01*
X122498095Y-59666190D01*
X122545714Y-59570952D01*
D12*
X120231428Y-56838928D02*
X119888571Y-56838928D01*
X120060000Y-56838928D02*
X120060000Y-56238928D01*
X120002857Y-56324642D01*
X119945714Y-56381785D01*
X119888571Y-56410357D01*
D10*
X138481904Y-60142380D02*
X138481904Y-59142380D01*
X138720000Y-59142380D01*
X138862857Y-59190000D01*
X138958095Y-59285238D01*
X139005714Y-59380476D01*
X139053333Y-59570952D01*
X139053333Y-59713809D01*
X139005714Y-59904285D01*
X138958095Y-59999523D01*
X138862857Y-60094761D01*
X138720000Y-60142380D01*
X138481904Y-60142380D01*
X139624761Y-59570952D02*
X139529523Y-59523333D01*
X139481904Y-59475714D01*
X139434285Y-59380476D01*
X139434285Y-59332857D01*
X139481904Y-59237619D01*
X139529523Y-59190000D01*
X139624761Y-59142380D01*
X139815238Y-59142380D01*
X139910476Y-59190000D01*
X139958095Y-59237619D01*
X140005714Y-59332857D01*
X140005714Y-59380476D01*
X139958095Y-59475714D01*
X139910476Y-59523333D01*
X139815238Y-59570952D01*
X139624761Y-59570952D01*
X139529523Y-59618571D01*
X139481904Y-59666190D01*
X139434285Y-59761428D01*
X139434285Y-59951904D01*
X139481904Y-60047142D01*
X139529523Y-60094761D01*
X139624761Y-60142380D01*
X139815238Y-60142380D01*
X139910476Y-60094761D01*
X139958095Y-60047142D01*
X140005714Y-59951904D01*
X140005714Y-59761428D01*
X139958095Y-59666190D01*
X139910476Y-59618571D01*
X139815238Y-59570952D01*
D12*
X137691428Y-56838928D02*
X137348571Y-56838928D01*
X137520000Y-56838928D02*
X137520000Y-56238928D01*
X137462857Y-56324642D01*
X137405714Y-56381785D01*
X137348571Y-56410357D01*
D10*
X155941904Y-60142380D02*
X155941904Y-59142380D01*
X156180000Y-59142380D01*
X156322857Y-59190000D01*
X156418095Y-59285238D01*
X156465714Y-59380476D01*
X156513333Y-59570952D01*
X156513333Y-59713809D01*
X156465714Y-59904285D01*
X156418095Y-59999523D01*
X156322857Y-60094761D01*
X156180000Y-60142380D01*
X155941904Y-60142380D01*
X156846666Y-59142380D02*
X157513333Y-59142380D01*
X157084761Y-60142380D01*
D12*
X155151428Y-56838928D02*
X154808571Y-56838928D01*
X154980000Y-56838928D02*
X154980000Y-56238928D01*
X154922857Y-56324642D01*
X154865714Y-56381785D01*
X154808571Y-56410357D01*
D10*
X155941904Y-46172380D02*
X155941904Y-45172380D01*
X156180000Y-45172380D01*
X156322857Y-45220000D01*
X156418095Y-45315238D01*
X156465714Y-45410476D01*
X156513333Y-45600952D01*
X156513333Y-45743809D01*
X156465714Y-45934285D01*
X156418095Y-46029523D01*
X156322857Y-46124761D01*
X156180000Y-46172380D01*
X155941904Y-46172380D01*
X157370476Y-45172380D02*
X157180000Y-45172380D01*
X157084761Y-45220000D01*
X157037142Y-45267619D01*
X156941904Y-45410476D01*
X156894285Y-45600952D01*
X156894285Y-45981904D01*
X156941904Y-46077142D01*
X156989523Y-46124761D01*
X157084761Y-46172380D01*
X157275238Y-46172380D01*
X157370476Y-46124761D01*
X157418095Y-46077142D01*
X157465714Y-45981904D01*
X157465714Y-45743809D01*
X157418095Y-45648571D01*
X157370476Y-45600952D01*
X157275238Y-45553333D01*
X157084761Y-45553333D01*
X156989523Y-45600952D01*
X156941904Y-45648571D01*
X156894285Y-45743809D01*
D12*
X158551428Y-49113928D02*
X158208571Y-49113928D01*
X158380000Y-49113928D02*
X158380000Y-48513928D01*
X158322857Y-48599642D01*
X158265714Y-48656785D01*
X158208571Y-48685357D01*
D10*
X138481904Y-46172380D02*
X138481904Y-45172380D01*
X138720000Y-45172380D01*
X138862857Y-45220000D01*
X138958095Y-45315238D01*
X139005714Y-45410476D01*
X139053333Y-45600952D01*
X139053333Y-45743809D01*
X139005714Y-45934285D01*
X138958095Y-46029523D01*
X138862857Y-46124761D01*
X138720000Y-46172380D01*
X138481904Y-46172380D01*
X139958095Y-45172380D02*
X139481904Y-45172380D01*
X139434285Y-45648571D01*
X139481904Y-45600952D01*
X139577142Y-45553333D01*
X139815238Y-45553333D01*
X139910476Y-45600952D01*
X139958095Y-45648571D01*
X140005714Y-45743809D01*
X140005714Y-45981904D01*
X139958095Y-46077142D01*
X139910476Y-46124761D01*
X139815238Y-46172380D01*
X139577142Y-46172380D01*
X139481904Y-46124761D01*
X139434285Y-46077142D01*
D12*
X141091428Y-49113928D02*
X140748571Y-49113928D01*
X140920000Y-49113928D02*
X140920000Y-48513928D01*
X140862857Y-48599642D01*
X140805714Y-48656785D01*
X140748571Y-48685357D01*
D10*
X121021904Y-46172380D02*
X121021904Y-45172380D01*
X121260000Y-45172380D01*
X121402857Y-45220000D01*
X121498095Y-45315238D01*
X121545714Y-45410476D01*
X121593333Y-45600952D01*
X121593333Y-45743809D01*
X121545714Y-45934285D01*
X121498095Y-46029523D01*
X121402857Y-46124761D01*
X121260000Y-46172380D01*
X121021904Y-46172380D01*
X122450476Y-45505714D02*
X122450476Y-46172380D01*
X122212380Y-45124761D02*
X121974285Y-45839047D01*
X122593333Y-45839047D01*
D12*
X123631428Y-49113928D02*
X123288571Y-49113928D01*
X123460000Y-49113928D02*
X123460000Y-48513928D01*
X123402857Y-48599642D01*
X123345714Y-48656785D01*
X123288571Y-48685357D01*
D10*
X103561904Y-46172380D02*
X103561904Y-45172380D01*
X103800000Y-45172380D01*
X103942857Y-45220000D01*
X104038095Y-45315238D01*
X104085714Y-45410476D01*
X104133333Y-45600952D01*
X104133333Y-45743809D01*
X104085714Y-45934285D01*
X104038095Y-46029523D01*
X103942857Y-46124761D01*
X103800000Y-46172380D01*
X103561904Y-46172380D01*
X104466666Y-45172380D02*
X105085714Y-45172380D01*
X104752380Y-45553333D01*
X104895238Y-45553333D01*
X104990476Y-45600952D01*
X105038095Y-45648571D01*
X105085714Y-45743809D01*
X105085714Y-45981904D01*
X105038095Y-46077142D01*
X104990476Y-46124761D01*
X104895238Y-46172380D01*
X104609523Y-46172380D01*
X104514285Y-46124761D01*
X104466666Y-46077142D01*
D12*
X106171428Y-49113928D02*
X105828571Y-49113928D01*
X106000000Y-49113928D02*
X106000000Y-48513928D01*
X105942857Y-48599642D01*
X105885714Y-48656785D01*
X105828571Y-48685357D01*
D10*
X86101904Y-46172380D02*
X86101904Y-45172380D01*
X86340000Y-45172380D01*
X86482857Y-45220000D01*
X86578095Y-45315238D01*
X86625714Y-45410476D01*
X86673333Y-45600952D01*
X86673333Y-45743809D01*
X86625714Y-45934285D01*
X86578095Y-46029523D01*
X86482857Y-46124761D01*
X86340000Y-46172380D01*
X86101904Y-46172380D01*
X87054285Y-45267619D02*
X87101904Y-45220000D01*
X87197142Y-45172380D01*
X87435238Y-45172380D01*
X87530476Y-45220000D01*
X87578095Y-45267619D01*
X87625714Y-45362857D01*
X87625714Y-45458095D01*
X87578095Y-45600952D01*
X87006666Y-46172380D01*
X87625714Y-46172380D01*
D12*
X88711428Y-49113928D02*
X88368571Y-49113928D01*
X88540000Y-49113928D02*
X88540000Y-48513928D01*
X88482857Y-48599642D01*
X88425714Y-48656785D01*
X88368571Y-48685357D01*
D10*
X68641904Y-46172380D02*
X68641904Y-45172380D01*
X68880000Y-45172380D01*
X69022857Y-45220000D01*
X69118095Y-45315238D01*
X69165714Y-45410476D01*
X69213333Y-45600952D01*
X69213333Y-45743809D01*
X69165714Y-45934285D01*
X69118095Y-46029523D01*
X69022857Y-46124761D01*
X68880000Y-46172380D01*
X68641904Y-46172380D01*
X70165714Y-46172380D02*
X69594285Y-46172380D01*
X69880000Y-46172380D02*
X69880000Y-45172380D01*
X69784761Y-45315238D01*
X69689523Y-45410476D01*
X69594285Y-45458095D01*
D12*
X71251428Y-49113928D02*
X70908571Y-49113928D01*
X71080000Y-49113928D02*
X71080000Y-48513928D01*
X71022857Y-48599642D01*
X70965714Y-48656785D01*
X70908571Y-48685357D01*
M02*
