G04 #@! TF.GenerationSoftware,KiCad,Pcbnew,(5.1.5)-3*
G04 #@! TF.CreationDate,2020-04-26T19:13:21-05:00*
G04 #@! TF.ProjectId,LED_Board_s_,4c45445f-426f-4617-9264-5f735f2e6b69,rev?*
G04 #@! TF.SameCoordinates,Original*
G04 #@! TF.FileFunction,Legend,Bot*
G04 #@! TF.FilePolarity,Positive*
%FSLAX46Y46*%
G04 Gerber Fmt 4.6, Leading zero omitted, Abs format (unit mm)*
G04 Created by KiCad (PCBNEW (5.1.5)-3) date 2020-04-26 19:13:21*
%MOMM*%
%LPD*%
G04 APERTURE LIST*
%ADD10C,0.120000*%
%ADD11C,0.150000*%
G04 APERTURE END LIST*
D10*
X64109523Y-84690000D02*
X64185714Y-84651904D01*
X64300000Y-84651904D01*
X64414285Y-84690000D01*
X64490476Y-84766190D01*
X64528571Y-84842380D01*
X64566666Y-84994761D01*
X64566666Y-85109047D01*
X64528571Y-85261428D01*
X64490476Y-85337619D01*
X64414285Y-85413809D01*
X64300000Y-85451904D01*
X64223809Y-85451904D01*
X64109523Y-85413809D01*
X64071428Y-85375714D01*
X64071428Y-85109047D01*
X64223809Y-85109047D01*
X63728571Y-85451904D02*
X63728571Y-84651904D01*
X63271428Y-85451904D01*
X63271428Y-84651904D01*
X62890476Y-85451904D02*
X62890476Y-84651904D01*
X62700000Y-84651904D01*
X62585714Y-84690000D01*
X62509523Y-84766190D01*
X62471428Y-84842380D01*
X62433333Y-84994761D01*
X62433333Y-85109047D01*
X62471428Y-85261428D01*
X62509523Y-85337619D01*
X62585714Y-85413809D01*
X62700000Y-85451904D01*
X62890476Y-85451904D01*
X64319047Y-82873809D02*
X64204761Y-82911904D01*
X64014285Y-82911904D01*
X63938095Y-82873809D01*
X63900000Y-82835714D01*
X63861904Y-82759523D01*
X63861904Y-82683333D01*
X63900000Y-82607142D01*
X63938095Y-82569047D01*
X64014285Y-82530952D01*
X64166666Y-82492857D01*
X64242857Y-82454761D01*
X64280952Y-82416666D01*
X64319047Y-82340476D01*
X64319047Y-82264285D01*
X64280952Y-82188095D01*
X64242857Y-82150000D01*
X64166666Y-82111904D01*
X63976190Y-82111904D01*
X63861904Y-82150000D01*
X63519047Y-82911904D02*
X63519047Y-82111904D01*
X63328571Y-82111904D01*
X63214285Y-82150000D01*
X63138095Y-82226190D01*
X63100000Y-82302380D01*
X63061904Y-82454761D01*
X63061904Y-82569047D01*
X63100000Y-82721428D01*
X63138095Y-82797619D01*
X63214285Y-82873809D01*
X63328571Y-82911904D01*
X63519047Y-82911904D01*
X62719047Y-82911904D02*
X62719047Y-82111904D01*
X63842857Y-80295714D02*
X63880952Y-80333809D01*
X63995238Y-80371904D01*
X64071428Y-80371904D01*
X64185714Y-80333809D01*
X64261904Y-80257619D01*
X64300000Y-80181428D01*
X64338095Y-80029047D01*
X64338095Y-79914761D01*
X64300000Y-79762380D01*
X64261904Y-79686190D01*
X64185714Y-79610000D01*
X64071428Y-79571904D01*
X63995238Y-79571904D01*
X63880952Y-79610000D01*
X63842857Y-79648095D01*
X63500000Y-80371904D02*
X63500000Y-79571904D01*
X63042857Y-80371904D02*
X63385714Y-79914761D01*
X63042857Y-79571904D02*
X63500000Y-80029047D01*
X62700000Y-80371904D02*
X62700000Y-79571904D01*
X64528571Y-77527142D02*
X63919047Y-77527142D01*
X64223809Y-77831904D02*
X64223809Y-77222380D01*
X63157142Y-77031904D02*
X63538095Y-77031904D01*
X63576190Y-77412857D01*
X63538095Y-77374761D01*
X63461904Y-77336666D01*
X63271428Y-77336666D01*
X63195238Y-77374761D01*
X63157142Y-77412857D01*
X63119047Y-77489047D01*
X63119047Y-77679523D01*
X63157142Y-77755714D01*
X63195238Y-77793809D01*
X63271428Y-77831904D01*
X63461904Y-77831904D01*
X63538095Y-77793809D01*
X63576190Y-77755714D01*
X62890476Y-77031904D02*
X62623809Y-77831904D01*
X62357142Y-77031904D01*
X59630000Y-86420000D02*
X60960000Y-86420000D01*
X59630000Y-85090000D02*
X59630000Y-86420000D01*
X59630000Y-83820000D02*
X62290000Y-83820000D01*
X62290000Y-83820000D02*
X62290000Y-76140000D01*
X59630000Y-83820000D02*
X59630000Y-76140000D01*
X59630000Y-76140000D02*
X62290000Y-76140000D01*
D11*
X61293333Y-86872380D02*
X61293333Y-87586666D01*
X61340952Y-87729523D01*
X61436190Y-87824761D01*
X61579047Y-87872380D01*
X61674285Y-87872380D01*
X60293333Y-87872380D02*
X60864761Y-87872380D01*
X60579047Y-87872380D02*
X60579047Y-86872380D01*
X60674285Y-87015238D01*
X60769523Y-87110476D01*
X60864761Y-87158095D01*
M02*
