G04 #@! TF.GenerationSoftware,KiCad,Pcbnew,(5.1.5)-3*
G04 #@! TF.CreationDate,2020-04-19T20:17:08-05:00*
G04 #@! TF.ProjectId,Activity_1,41637469-7669-4747-995f-312e6b696361,rev?*
G04 #@! TF.SameCoordinates,Original*
G04 #@! TF.FileFunction,Copper,L2,Bot*
G04 #@! TF.FilePolarity,Positive*
%FSLAX46Y46*%
G04 Gerber Fmt 4.6, Leading zero omitted, Abs format (unit mm)*
G04 Created by KiCad (PCBNEW (5.1.5)-3) date 2020-04-19 20:17:08*
%MOMM*%
%LPD*%
G04 APERTURE LIST*
%ADD10O,1.600000X1.000000*%
%ADD11O,2.100000X1.000000*%
%ADD12O,1.700000X1.700000*%
%ADD13R,1.700000X1.700000*%
%ADD14C,1.700000*%
%ADD15C,0.635000*%
%ADD16C,0.152400*%
G04 APERTURE END LIST*
D10*
X151525000Y-109210000D03*
X151525000Y-117850000D03*
D11*
X155675000Y-117850000D03*
X155675000Y-109210000D03*
D12*
X156210000Y-125730000D03*
D13*
X156210000Y-123190000D03*
D12*
X156210000Y-97790000D03*
D13*
X156210000Y-100330000D03*
D12*
X148590000Y-105410000D03*
X151130000Y-105410000D03*
X153670000Y-105410000D03*
D13*
X156210000Y-105410000D03*
D14*
X156210000Y-91440000D03*
X158750000Y-91440000D03*
X161290000Y-91440000D03*
X163830000Y-91440000D03*
X166370000Y-91440000D03*
X168910000Y-91440000D03*
X171450000Y-91440000D03*
X173990000Y-91440000D03*
X176530000Y-91440000D03*
X179070000Y-91440000D03*
X181610000Y-91440000D03*
X184150000Y-91440000D03*
X186690000Y-91440000D03*
X189230000Y-91440000D03*
X191770000Y-91440000D03*
X194310000Y-91440000D03*
X196850000Y-91440000D03*
X199390000Y-91440000D03*
X201930000Y-91440000D03*
X204470000Y-91440000D03*
X207010000Y-91440000D03*
X209550000Y-91440000D03*
X212090000Y-91440000D03*
X214630000Y-91440000D03*
X217170000Y-91440000D03*
X219710000Y-91440000D03*
X156210000Y-93980000D03*
X158750000Y-93980000D03*
X161290000Y-93980000D03*
X163830000Y-93980000D03*
X166370000Y-93980000D03*
X168910000Y-93980000D03*
X171450000Y-93980000D03*
X173990000Y-93980000D03*
X176530000Y-93980000D03*
X179070000Y-93980000D03*
X181610000Y-93980000D03*
X184150000Y-93980000D03*
X186690000Y-93980000D03*
X189230000Y-93980000D03*
X191770000Y-93980000D03*
X194310000Y-93980000D03*
X196850000Y-93980000D03*
X199390000Y-93980000D03*
X201930000Y-93980000D03*
X204470000Y-93980000D03*
X207010000Y-93980000D03*
X209550000Y-93980000D03*
X212090000Y-93980000D03*
X214630000Y-93980000D03*
X217170000Y-93980000D03*
X219710000Y-93980000D03*
X156210000Y-129540000D03*
X158750000Y-129540000D03*
X161290000Y-129540000D03*
X163830000Y-129540000D03*
X166370000Y-129540000D03*
X168910000Y-129540000D03*
X171450000Y-129540000D03*
X173990000Y-129540000D03*
X176530000Y-129540000D03*
X179070000Y-129540000D03*
X181610000Y-129540000D03*
X184150000Y-129540000D03*
X186690000Y-129540000D03*
X189230000Y-129540000D03*
X191770000Y-129540000D03*
X194310000Y-129540000D03*
X196850000Y-129540000D03*
X199390000Y-129540000D03*
X201930000Y-129540000D03*
X204470000Y-129540000D03*
X207010000Y-129540000D03*
X209550000Y-129540000D03*
X212090000Y-129540000D03*
X214630000Y-129540000D03*
X217170000Y-129540000D03*
X219710000Y-129540000D03*
X161290000Y-97790000D03*
X161290000Y-100330000D03*
X161290000Y-102870000D03*
X161290000Y-105410000D03*
X161290000Y-107950000D03*
X161290000Y-115570000D03*
X161290000Y-118110000D03*
X161290000Y-120650000D03*
X161290000Y-123190000D03*
X161290000Y-125730000D03*
X163830000Y-107950000D03*
X166370000Y-107950000D03*
X168910000Y-107950000D03*
X171450000Y-107950000D03*
X173990000Y-107950000D03*
X176530000Y-107950000D03*
X179070000Y-107950000D03*
X181610000Y-107950000D03*
X184150000Y-107950000D03*
X186690000Y-107950000D03*
X189230000Y-107950000D03*
X191770000Y-107950000D03*
X194310000Y-107950000D03*
X196850000Y-107950000D03*
X199390000Y-107950000D03*
X201930000Y-107950000D03*
X204470000Y-107950000D03*
X207010000Y-107950000D03*
X209550000Y-107950000D03*
X212090000Y-107950000D03*
X214630000Y-107950000D03*
X217170000Y-107950000D03*
X219710000Y-107950000D03*
X222250000Y-107950000D03*
X224790000Y-107950000D03*
X227330000Y-107950000D03*
X163830000Y-105410000D03*
X166370000Y-105410000D03*
X168910000Y-105410000D03*
X171450000Y-105410000D03*
X173990000Y-105410000D03*
X176530000Y-105410000D03*
X179070000Y-105410000D03*
X181610000Y-105410000D03*
X184150000Y-105410000D03*
X186690000Y-105410000D03*
X189230000Y-105410000D03*
X191770000Y-105410000D03*
X194310000Y-105410000D03*
X196850000Y-105410000D03*
X199390000Y-105410000D03*
X201930000Y-105410000D03*
X204470000Y-105410000D03*
X207010000Y-105410000D03*
X209550000Y-105410000D03*
X212090000Y-105410000D03*
X214630000Y-105410000D03*
X217170000Y-105410000D03*
X219710000Y-105410000D03*
X222250000Y-105410000D03*
X224790000Y-105410000D03*
X227330000Y-105410000D03*
X163830000Y-102870000D03*
X166370000Y-102870000D03*
X168910000Y-102870000D03*
X171450000Y-102870000D03*
X173990000Y-102870000D03*
X176530000Y-102870000D03*
X179070000Y-102870000D03*
X181610000Y-102870000D03*
X184150000Y-102870000D03*
X186690000Y-102870000D03*
X189230000Y-102870000D03*
X191770000Y-102870000D03*
X194310000Y-102870000D03*
X196850000Y-102870000D03*
X199390000Y-102870000D03*
X201930000Y-102870000D03*
X204470000Y-102870000D03*
X207010000Y-102870000D03*
X209550000Y-102870000D03*
X212090000Y-102870000D03*
X214630000Y-102870000D03*
X217170000Y-102870000D03*
X219710000Y-102870000D03*
X222250000Y-102870000D03*
X224790000Y-102870000D03*
X227330000Y-102870000D03*
X163830000Y-100330000D03*
X166370000Y-100330000D03*
X168910000Y-100330000D03*
X171450000Y-100330000D03*
X173990000Y-100330000D03*
X176530000Y-100330000D03*
X179070000Y-100330000D03*
X181610000Y-100330000D03*
X184150000Y-100330000D03*
X186690000Y-100330000D03*
X189230000Y-100330000D03*
X191770000Y-100330000D03*
X194310000Y-100330000D03*
X196850000Y-100330000D03*
X199390000Y-100330000D03*
X201930000Y-100330000D03*
X204470000Y-100330000D03*
X207010000Y-100330000D03*
X209550000Y-100330000D03*
X212090000Y-100330000D03*
X214630000Y-100330000D03*
X217170000Y-100330000D03*
X219710000Y-100330000D03*
X222250000Y-100330000D03*
X224790000Y-100330000D03*
X227330000Y-100330000D03*
X163830000Y-97790000D03*
X166370000Y-97790000D03*
X168910000Y-97790000D03*
X171450000Y-97790000D03*
X173990000Y-97790000D03*
X176530000Y-97790000D03*
X179070000Y-97790000D03*
X181610000Y-97790000D03*
X184150000Y-97790000D03*
X186690000Y-97790000D03*
X189230000Y-97790000D03*
X191770000Y-97790000D03*
X194310000Y-97790000D03*
X196850000Y-97790000D03*
X199390000Y-97790000D03*
X201930000Y-97790000D03*
X204470000Y-97790000D03*
X207010000Y-97790000D03*
X209550000Y-97790000D03*
X212090000Y-97790000D03*
X214630000Y-97790000D03*
X217170000Y-97790000D03*
X219710000Y-97790000D03*
X222250000Y-97790000D03*
X224790000Y-97790000D03*
X227330000Y-97790000D03*
X163830000Y-115570000D03*
X166370000Y-115570000D03*
X168910000Y-115570000D03*
X171450000Y-115570000D03*
X173990000Y-115570000D03*
X176530000Y-115570000D03*
X179070000Y-115570000D03*
X181610000Y-115570000D03*
X184150000Y-115570000D03*
X186690000Y-115570000D03*
X189230000Y-115570000D03*
X191770000Y-115570000D03*
X194310000Y-115570000D03*
X196850000Y-115570000D03*
X199390000Y-115570000D03*
X201930000Y-115570000D03*
X204470000Y-115570000D03*
X207010000Y-115570000D03*
X209550000Y-115570000D03*
X212090000Y-115570000D03*
X214630000Y-115570000D03*
X217170000Y-115570000D03*
X219710000Y-115570000D03*
X222250000Y-115570000D03*
X224790000Y-115570000D03*
X227330000Y-115570000D03*
X163830000Y-120650000D03*
X166370000Y-120650000D03*
X168910000Y-120650000D03*
X171450000Y-120650000D03*
X173990000Y-120650000D03*
X176530000Y-120650000D03*
X179070000Y-120650000D03*
X181610000Y-120650000D03*
X184150000Y-120650000D03*
X186690000Y-120650000D03*
X189230000Y-120650000D03*
X191770000Y-120650000D03*
X194310000Y-120650000D03*
X196850000Y-120650000D03*
X199390000Y-120650000D03*
X201930000Y-120650000D03*
X204470000Y-120650000D03*
X207010000Y-120650000D03*
X209550000Y-120650000D03*
X212090000Y-120650000D03*
X214630000Y-120650000D03*
X217170000Y-120650000D03*
X219710000Y-120650000D03*
X222250000Y-120650000D03*
X224790000Y-120650000D03*
X227330000Y-120650000D03*
X163830000Y-118110000D03*
X166370000Y-118110000D03*
X168910000Y-118110000D03*
X171450000Y-118110000D03*
X173990000Y-118110000D03*
X176530000Y-118110000D03*
X179070000Y-118110000D03*
X181610000Y-118110000D03*
X184150000Y-118110000D03*
X186690000Y-118110000D03*
X189230000Y-118110000D03*
X191770000Y-118110000D03*
X194310000Y-118110000D03*
X196850000Y-118110000D03*
X199390000Y-118110000D03*
X201930000Y-118110000D03*
X204470000Y-118110000D03*
X207010000Y-118110000D03*
X209550000Y-118110000D03*
X212090000Y-118110000D03*
X214630000Y-118110000D03*
X217170000Y-118110000D03*
X219710000Y-118110000D03*
X222250000Y-118110000D03*
X224790000Y-118110000D03*
X227330000Y-118110000D03*
X163830000Y-123190000D03*
X166370000Y-123190000D03*
X168910000Y-123190000D03*
X171450000Y-123190000D03*
X173990000Y-123190000D03*
X176530000Y-123190000D03*
X179070000Y-123190000D03*
X181610000Y-123190000D03*
X184150000Y-123190000D03*
X186690000Y-123190000D03*
X189230000Y-123190000D03*
X191770000Y-123190000D03*
X194310000Y-123190000D03*
X196850000Y-123190000D03*
X199390000Y-123190000D03*
X201930000Y-123190000D03*
X204470000Y-123190000D03*
X207010000Y-123190000D03*
X209550000Y-123190000D03*
X212090000Y-123190000D03*
X214630000Y-123190000D03*
X217170000Y-123190000D03*
X219710000Y-123190000D03*
X222250000Y-123190000D03*
X224790000Y-123190000D03*
X227330000Y-123190000D03*
X163830000Y-125730000D03*
X166370000Y-125730000D03*
X168910000Y-125730000D03*
X171450000Y-125730000D03*
X173990000Y-125730000D03*
X176530000Y-125730000D03*
X179070000Y-125730000D03*
X181610000Y-125730000D03*
X184150000Y-125730000D03*
X186690000Y-125730000D03*
X189230000Y-125730000D03*
X191770000Y-125730000D03*
X194310000Y-125730000D03*
X196850000Y-125730000D03*
X199390000Y-125730000D03*
X201930000Y-125730000D03*
X204470000Y-125730000D03*
X207010000Y-125730000D03*
X209550000Y-125730000D03*
X212090000Y-125730000D03*
X214630000Y-125730000D03*
X217170000Y-125730000D03*
X219710000Y-125730000D03*
X222250000Y-125730000D03*
X224790000Y-125730000D03*
X227330000Y-125730000D03*
X156210000Y-132080000D03*
X158750000Y-132080000D03*
X161290000Y-132080000D03*
X163830000Y-132080000D03*
X166370000Y-132080000D03*
X168910000Y-132080000D03*
X171450000Y-132080000D03*
X173990000Y-132080000D03*
X176530000Y-132080000D03*
X179070000Y-132080000D03*
X181610000Y-132080000D03*
X184150000Y-132080000D03*
X186690000Y-132080000D03*
X189230000Y-132080000D03*
X191770000Y-132080000D03*
X194310000Y-132080000D03*
X196850000Y-132080000D03*
X199390000Y-132080000D03*
X201930000Y-132080000D03*
X204470000Y-132080000D03*
X207010000Y-132080000D03*
X209550000Y-132080000D03*
X212090000Y-132080000D03*
X214630000Y-132080000D03*
X217170000Y-132080000D03*
X219710000Y-132080000D03*
D15*
X156210000Y-129540000D02*
X219710000Y-129540000D01*
X156210000Y-91440000D02*
X219710000Y-91440000D01*
X156210000Y-93980000D02*
X219710000Y-93980000D01*
X161290000Y-97790000D02*
X161290000Y-107950000D01*
X161290000Y-115570000D02*
X161290000Y-125730000D01*
X163830000Y-115570000D02*
X163830000Y-125730000D01*
X166370000Y-115570000D02*
X166370000Y-125730000D01*
X168910000Y-115570000D02*
X168910000Y-125730000D01*
X171450000Y-115570000D02*
X171450000Y-125730000D01*
X173990000Y-115570000D02*
X173990000Y-125730000D01*
X176530000Y-115570000D02*
X176530000Y-125730000D01*
X179070000Y-115570000D02*
X179070000Y-125730000D01*
X181610000Y-115570000D02*
X181610000Y-125730000D01*
X184150000Y-115570000D02*
X184150000Y-125730000D01*
X186690000Y-115570000D02*
X186690000Y-125730000D01*
X189230000Y-115570000D02*
X189230000Y-125730000D01*
X191770000Y-115570000D02*
X191770000Y-125730000D01*
X194310000Y-115570000D02*
X194310000Y-125730000D01*
X196850000Y-115570000D02*
X196850000Y-125730000D01*
X199390000Y-115570000D02*
X199390000Y-125730000D01*
X201930000Y-115570000D02*
X201930000Y-125730000D01*
X204470000Y-115570000D02*
X204470000Y-125730000D01*
X207010000Y-115570000D02*
X207010000Y-125730000D01*
X209550000Y-115570000D02*
X209550000Y-125730000D01*
X212090000Y-115570000D02*
X212090000Y-125730000D01*
X214630000Y-115570000D02*
X214630000Y-125730000D01*
X217170000Y-115570000D02*
X217170000Y-125730000D01*
X219710000Y-115570000D02*
X219710000Y-125730000D01*
X222250000Y-115570000D02*
X222250000Y-125730000D01*
X224790000Y-115570000D02*
X224790000Y-125730000D01*
X227330000Y-115570000D02*
X227330000Y-125730000D01*
X163830000Y-97790000D02*
X163830000Y-107950000D01*
X166370000Y-97790000D02*
X166370000Y-107950000D01*
X168910000Y-97790000D02*
X168910000Y-107950000D01*
X171450000Y-97790000D02*
X171450000Y-107950000D01*
X173990000Y-97790000D02*
X173990000Y-107950000D01*
X176530000Y-97790000D02*
X176530000Y-107950000D01*
X179070000Y-97790000D02*
X179070000Y-107950000D01*
X181610000Y-97790000D02*
X181610000Y-107950000D01*
X184150000Y-97790000D02*
X184150000Y-107950000D01*
X186690000Y-97790000D02*
X186690000Y-107950000D01*
X189230000Y-97790000D02*
X189230000Y-107950000D01*
X191770000Y-97790000D02*
X191770000Y-107950000D01*
X194310000Y-97790000D02*
X194310000Y-107950000D01*
X196850000Y-97790000D02*
X196850000Y-107950000D01*
X199390000Y-97790000D02*
X199390000Y-107950000D01*
X201930000Y-97790000D02*
X201930000Y-107950000D01*
X204470000Y-97790000D02*
X204470000Y-107950000D01*
X207010000Y-97790000D02*
X207010000Y-107950000D01*
X209550000Y-97790000D02*
X209550000Y-107950000D01*
X212090000Y-97790000D02*
X212090000Y-107950000D01*
X214630000Y-97790000D02*
X214630000Y-107950000D01*
X217170000Y-97790000D02*
X217170000Y-107950000D01*
X219710000Y-97790000D02*
X219710000Y-107950000D01*
X222250000Y-97790000D02*
X222250000Y-107950000D01*
X224790000Y-97790000D02*
X224790000Y-107950000D01*
X227330000Y-97790000D02*
X227330000Y-107950000D01*
X156210000Y-100330000D02*
X156210000Y-105410000D01*
X151525000Y-109210000D02*
X155675000Y-109210000D01*
X151525000Y-117850000D02*
X155675000Y-117850000D01*
X148590000Y-105410000D02*
X151130000Y-105410000D01*
D16*
X151130000Y-108815000D02*
X151525000Y-109210000D01*
D15*
X151130000Y-105410000D02*
X151130000Y-108815000D01*
X151525000Y-109210000D02*
X151525000Y-117850000D01*
X156210000Y-132080000D02*
X219710000Y-132080000D01*
X151525000Y-117850000D02*
X151525000Y-127395000D01*
X151525000Y-127395000D02*
X156210000Y-132080000D01*
X151130000Y-96520000D02*
X151130000Y-105410000D01*
X156210000Y-91440000D02*
X151130000Y-96520000D01*
M02*
