M48
; DRILL file {KiCad (5.1.5)-3} date 04/19/20 20:17:42
; FORMAT={-:-/ absolute / inch / decimal}
; #@! TF.CreationDate,2020-04-19T20:17:42-05:00
; #@! TF.GenerationSoftware,Kicad,Pcbnew,(5.1.5)-3
; #@! TF.FileFunction,Plated,1,2,PTH
FMAT,2
INCH
T1C0.0236
T2C0.0394
%
G90
G05
T2
X6.15Y-3.6
X6.15Y-3.7
X6.15Y-5.1
X6.15Y-5.2
X6.25Y-3.6
X6.25Y-3.7
X6.25Y-5.1
X6.25Y-5.2
X6.35Y-3.6
X6.35Y-3.7
X6.35Y-3.85
X6.35Y-3.95
X6.35Y-4.05
X6.35Y-4.15
X6.35Y-4.25
X6.35Y-4.55
X6.35Y-4.65
X6.35Y-4.75
X6.35Y-4.85
X6.35Y-4.95
X6.35Y-5.1
X6.35Y-5.2
X6.45Y-3.6
X6.45Y-3.7
X6.45Y-3.85
X6.45Y-3.95
X6.45Y-4.05
X6.45Y-4.15
X6.45Y-4.25
X6.45Y-4.55
X6.45Y-4.65
X6.45Y-4.75
X6.45Y-4.85
X6.45Y-4.95
X6.45Y-5.1
X6.45Y-5.2
X6.55Y-3.6
X6.55Y-3.7
X6.55Y-3.85
X6.55Y-3.95
X6.55Y-4.05
X6.55Y-4.15
X6.55Y-4.25
X6.55Y-4.55
X6.55Y-4.65
X6.55Y-4.75
X6.55Y-4.85
X6.55Y-4.95
X6.55Y-5.1
X6.55Y-5.2
X6.65Y-3.6
X6.65Y-3.7
X6.65Y-3.85
X6.65Y-3.95
X6.65Y-4.05
X6.65Y-4.15
X6.65Y-4.25
X6.65Y-4.55
X6.65Y-4.65
X6.65Y-4.75
X6.65Y-4.85
X6.65Y-4.95
X6.65Y-5.1
X6.65Y-5.2
X6.75Y-3.6
X6.75Y-3.7
X6.75Y-3.85
X6.75Y-3.95
X6.75Y-4.05
X6.75Y-4.15
X6.75Y-4.25
X6.75Y-4.55
X6.75Y-4.65
X6.75Y-4.75
X6.75Y-4.85
X6.75Y-4.95
X6.75Y-5.1
X6.75Y-5.2
X6.85Y-3.6
X6.85Y-3.7
X6.85Y-3.85
X6.85Y-3.95
X6.85Y-4.05
X6.85Y-4.15
X6.85Y-4.25
X6.85Y-4.55
X6.85Y-4.65
X6.85Y-4.75
X6.85Y-4.85
X6.85Y-4.95
X6.85Y-5.1
X6.85Y-5.2
X6.95Y-3.6
X6.95Y-3.7
X6.95Y-3.85
X6.95Y-3.95
X6.95Y-4.05
X6.95Y-4.15
X6.95Y-4.25
X6.95Y-4.55
X6.95Y-4.65
X6.95Y-4.75
X6.95Y-4.85
X6.95Y-4.95
X6.95Y-5.1
X6.95Y-5.2
X7.05Y-3.6
X7.05Y-3.7
X7.05Y-3.85
X7.05Y-3.95
X7.05Y-4.05
X7.05Y-4.15
X7.05Y-4.25
X7.05Y-4.55
X7.05Y-4.65
X7.05Y-4.75
X7.05Y-4.85
X7.05Y-4.95
X7.05Y-5.1
X7.05Y-5.2
X7.15Y-3.6
X7.15Y-3.7
X7.15Y-3.85
X7.15Y-3.95
X7.15Y-4.05
X7.15Y-4.15
X7.15Y-4.25
X7.15Y-4.55
X7.15Y-4.65
X7.15Y-4.75
X7.15Y-4.85
X7.15Y-4.95
X7.15Y-5.1
X7.15Y-5.2
X7.25Y-3.6
X7.25Y-3.7
X7.25Y-3.85
X7.25Y-3.95
X7.25Y-4.05
X7.25Y-4.15
X7.25Y-4.25
X7.25Y-4.55
X7.25Y-4.65
X7.25Y-4.75
X7.25Y-4.85
X7.25Y-4.95
X7.25Y-5.1
X7.25Y-5.2
X7.35Y-3.6
X7.35Y-3.7
X7.35Y-3.85
X7.35Y-3.95
X7.35Y-4.05
X7.35Y-4.15
X7.35Y-4.25
X7.35Y-4.55
X7.35Y-4.65
X7.35Y-4.75
X7.35Y-4.85
X7.35Y-4.95
X7.35Y-5.1
X7.35Y-5.2
X7.45Y-3.6
X7.45Y-3.7
X7.45Y-3.85
X7.45Y-3.95
X7.45Y-4.05
X7.45Y-4.15
X7.45Y-4.25
X7.45Y-4.55
X7.45Y-4.65
X7.45Y-4.75
X7.45Y-4.85
X7.45Y-4.95
X7.45Y-5.1
X7.45Y-5.2
X7.55Y-3.6
X7.55Y-3.7
X7.55Y-3.85
X7.55Y-3.95
X7.55Y-4.05
X7.55Y-4.15
X7.55Y-4.25
X7.55Y-4.55
X7.55Y-4.65
X7.55Y-4.75
X7.55Y-4.85
X7.55Y-4.95
X7.55Y-5.1
X7.55Y-5.2
X7.65Y-3.6
X7.65Y-3.7
X7.65Y-3.85
X7.65Y-3.95
X7.65Y-4.05
X7.65Y-4.15
X7.65Y-4.25
X7.65Y-4.55
X7.65Y-4.65
X7.65Y-4.75
X7.65Y-4.85
X7.65Y-4.95
X7.65Y-5.1
X7.65Y-5.2
X7.75Y-3.6
X7.75Y-3.7
X7.75Y-3.85
X7.75Y-3.95
X7.75Y-4.05
X7.75Y-4.15
X7.75Y-4.25
X7.75Y-4.55
X7.75Y-4.65
X7.75Y-4.75
X7.75Y-4.85
X7.75Y-4.95
X7.75Y-5.1
X7.75Y-5.2
X7.85Y-3.6
X7.85Y-3.7
X7.85Y-3.85
X7.85Y-3.95
X7.85Y-4.05
X7.85Y-4.15
X7.85Y-4.25
X7.85Y-4.55
X7.85Y-4.65
X7.85Y-4.75
X7.85Y-4.85
X7.85Y-4.95
X7.85Y-5.1
X7.85Y-5.2
X7.95Y-3.6
X7.95Y-3.7
X7.95Y-3.85
X7.95Y-3.95
X7.95Y-4.05
X7.95Y-4.15
X7.95Y-4.25
X7.95Y-4.55
X7.95Y-4.65
X7.95Y-4.75
X7.95Y-4.85
X7.95Y-4.95
X7.95Y-5.1
X7.95Y-5.2
X8.05Y-3.6
X8.05Y-3.7
X8.05Y-3.85
X8.05Y-3.95
X8.05Y-4.05
X8.05Y-4.15
X8.05Y-4.25
X8.05Y-4.55
X8.05Y-4.65
X8.05Y-4.75
X8.05Y-4.85
X8.05Y-4.95
X8.05Y-5.1
X8.05Y-5.2
X8.15Y-3.6
X8.15Y-3.7
X8.15Y-3.85
X8.15Y-3.95
X8.15Y-4.05
X8.15Y-4.15
X8.15Y-4.25
X8.15Y-4.55
X8.15Y-4.65
X8.15Y-4.75
X8.15Y-4.85
X8.15Y-4.95
X8.15Y-5.1
X8.15Y-5.2
X8.25Y-3.6
X8.25Y-3.7
X8.25Y-3.85
X8.25Y-3.95
X8.25Y-4.05
X8.25Y-4.15
X8.25Y-4.25
X8.25Y-4.55
X8.25Y-4.65
X8.25Y-4.75
X8.25Y-4.85
X8.25Y-4.95
X8.25Y-5.1
X8.25Y-5.2
X8.35Y-3.6
X8.35Y-3.7
X8.35Y-3.85
X8.35Y-3.95
X8.35Y-4.05
X8.35Y-4.15
X8.35Y-4.25
X8.35Y-4.55
X8.35Y-4.65
X8.35Y-4.75
X8.35Y-4.85
X8.35Y-4.95
X8.35Y-5.1
X8.35Y-5.2
X8.45Y-3.6
X8.45Y-3.7
X8.45Y-3.85
X8.45Y-3.95
X8.45Y-4.05
X8.45Y-4.15
X8.45Y-4.25
X8.45Y-4.55
X8.45Y-4.65
X8.45Y-4.75
X8.45Y-4.85
X8.45Y-4.95
X8.45Y-5.1
X8.45Y-5.2
X8.55Y-3.6
X8.55Y-3.7
X8.55Y-3.85
X8.55Y-3.95
X8.55Y-4.05
X8.55Y-4.15
X8.55Y-4.25
X8.55Y-4.55
X8.55Y-4.65
X8.55Y-4.75
X8.55Y-4.85
X8.55Y-4.95
X8.55Y-5.1
X8.55Y-5.2
X8.65Y-3.6
X8.65Y-3.7
X8.65Y-3.85
X8.65Y-3.95
X8.65Y-4.05
X8.65Y-4.15
X8.65Y-4.25
X8.65Y-4.55
X8.65Y-4.65
X8.65Y-4.75
X8.65Y-4.85
X8.65Y-4.95
X8.65Y-5.1
X8.65Y-5.2
X8.75Y-3.85
X8.75Y-3.95
X8.75Y-4.05
X8.75Y-4.15
X8.75Y-4.25
X8.75Y-4.55
X8.75Y-4.65
X8.75Y-4.75
X8.75Y-4.85
X8.75Y-4.95
X8.85Y-3.85
X8.85Y-3.95
X8.85Y-4.05
X8.85Y-4.15
X8.85Y-4.25
X8.85Y-4.55
X8.85Y-4.65
X8.85Y-4.75
X8.85Y-4.85
X8.85Y-4.95
X8.95Y-3.85
X8.95Y-3.95
X8.95Y-4.05
X8.95Y-4.15
X8.95Y-4.25
X8.95Y-4.55
X8.95Y-4.65
X8.95Y-4.75
X8.95Y-4.85
X8.95Y-4.95
X6.15Y-4.85
X6.15Y-4.95
X5.85Y-4.15
X5.95Y-4.15
X6.05Y-4.15
X6.15Y-4.15
X6.15Y-3.85
X6.15Y-3.95
T1
G00X5.9774Y-4.2996
M15
G01X5.9537Y-4.2996
M16
G05
G00X5.9774Y-4.6398
M15
G01X5.9537Y-4.6398
M16
G05
G00X6.1506Y-4.2996
M15
G01X6.1073Y-4.2996
M16
G05
G00X6.1506Y-4.6398
M15
G01X6.1073Y-4.6398
M16
G05
T0
M30
