G04 #@! TF.GenerationSoftware,KiCad,Pcbnew,(5.1.5)-3*
G04 #@! TF.CreationDate,2020-05-22T15:31:26-05:00*
G04 #@! TF.ProjectId,Power_Board,506f7765-725f-4426-9f61-72642e6b6963,rev?*
G04 #@! TF.SameCoordinates,Original*
G04 #@! TF.FileFunction,Copper,L1,Top*
G04 #@! TF.FilePolarity,Positive*
%FSLAX46Y46*%
G04 Gerber Fmt 4.6, Leading zero omitted, Abs format (unit mm)*
G04 Created by KiCad (PCBNEW (5.1.5)-3) date 2020-05-22 15:31:26*
%MOMM*%
%LPD*%
G04 APERTURE LIST*
%ADD10R,1.905000X3.708400*%
%ADD11R,9.400000X10.800000*%
%ADD12R,4.600000X1.100000*%
%ADD13R,2.300000X1.500000*%
%ADD14R,2.200000X1.200000*%
%ADD15R,6.800000X6.300000*%
%ADD16R,6.300000X6.800000*%
%ADD17R,1.500000X2.300000*%
%ADD18R,1.200000X2.200000*%
%ADD19R,5.300000X1.200000*%
%ADD20R,1.800000X1.200000*%
%ADD21R,1.800000X1.500000*%
%ADD22C,0.100000*%
%ADD23R,3.708400X1.905000*%
%ADD24R,11.000000X2.500000*%
%ADD25R,1.100000X4.600000*%
%ADD26R,10.800000X9.400000*%
%ADD27R,1.200000X5.300000*%
%ADD28R,1.200000X1.800000*%
%ADD29R,1.500000X1.800000*%
%ADD30R,3.600000X6.000000*%
%ADD31R,2.450000X5.900000*%
%ADD32R,4.500000X4.000000*%
%ADD33C,20.000000*%
%ADD34C,1.100000*%
%ADD35R,5.000000X10.000000*%
%ADD36R,1.100000X1.100000*%
%ADD37C,0.800000*%
%ADD38C,1.000000*%
%ADD39C,0.250000*%
%ADD40C,0.500000*%
%ADD41C,0.400000*%
%ADD42C,1.500000*%
%ADD43C,0.750000*%
%ADD44C,2.000000*%
G04 APERTURE END LIST*
D10*
X204937360Y-109538760D03*
X204937360Y-118047760D03*
D11*
X196113540Y-99633260D03*
D12*
X205263540Y-96233260D03*
X205263540Y-97933260D03*
X205263540Y-99633260D03*
X205263540Y-101333260D03*
X205263540Y-103033260D03*
D13*
X230045860Y-103978300D03*
D14*
X229695860Y-101698300D03*
D13*
X230045860Y-99418300D03*
D15*
X222910860Y-101698300D03*
D16*
X89697040Y-104386840D03*
D17*
X91977040Y-111521840D03*
D18*
X89697040Y-111171840D03*
D17*
X87417040Y-111521840D03*
D10*
X78533740Y-113317520D03*
X78533740Y-121826520D03*
D12*
X78860440Y-106811520D03*
X78860440Y-105111520D03*
X78860440Y-103411520D03*
X78860440Y-101711520D03*
X78860440Y-100011520D03*
D11*
X69710440Y-103411520D03*
D19*
X228645140Y-62707520D03*
X228645140Y-65207520D03*
D20*
X225095140Y-62707520D03*
X225095140Y-65207520D03*
D21*
X232195140Y-65207520D03*
X232195140Y-62707520D03*
G04 #@! TA.AperFunction,SMDPad,CuDef*
D22*
G36*
X214738745Y-61456924D02*
G01*
X214763013Y-61460524D01*
X214786812Y-61466485D01*
X214809911Y-61474750D01*
X214832090Y-61485240D01*
X214853133Y-61497852D01*
X214872839Y-61512467D01*
X214891017Y-61528943D01*
X214907493Y-61547121D01*
X214922108Y-61566827D01*
X214934720Y-61587870D01*
X214945210Y-61610049D01*
X214953475Y-61633148D01*
X214959436Y-61656947D01*
X214963036Y-61681215D01*
X214964240Y-61705719D01*
X214964240Y-62355721D01*
X214963036Y-62380225D01*
X214959436Y-62404493D01*
X214953475Y-62428292D01*
X214945210Y-62451391D01*
X214934720Y-62473570D01*
X214922108Y-62494613D01*
X214907493Y-62514319D01*
X214891017Y-62532497D01*
X214872839Y-62548973D01*
X214853133Y-62563588D01*
X214832090Y-62576200D01*
X214809911Y-62586690D01*
X214786812Y-62594955D01*
X214763013Y-62600916D01*
X214738745Y-62604516D01*
X214714241Y-62605720D01*
X213814239Y-62605720D01*
X213789735Y-62604516D01*
X213765467Y-62600916D01*
X213741668Y-62594955D01*
X213718569Y-62586690D01*
X213696390Y-62576200D01*
X213675347Y-62563588D01*
X213655641Y-62548973D01*
X213637463Y-62532497D01*
X213620987Y-62514319D01*
X213606372Y-62494613D01*
X213593760Y-62473570D01*
X213583270Y-62451391D01*
X213575005Y-62428292D01*
X213569044Y-62404493D01*
X213565444Y-62380225D01*
X213564240Y-62355721D01*
X213564240Y-61705719D01*
X213565444Y-61681215D01*
X213569044Y-61656947D01*
X213575005Y-61633148D01*
X213583270Y-61610049D01*
X213593760Y-61587870D01*
X213606372Y-61566827D01*
X213620987Y-61547121D01*
X213637463Y-61528943D01*
X213655641Y-61512467D01*
X213675347Y-61497852D01*
X213696390Y-61485240D01*
X213718569Y-61474750D01*
X213741668Y-61466485D01*
X213765467Y-61460524D01*
X213789735Y-61456924D01*
X213814239Y-61455720D01*
X214714241Y-61455720D01*
X214738745Y-61456924D01*
G37*
G04 #@! TD.AperFunction*
G04 #@! TA.AperFunction,SMDPad,CuDef*
G36*
X214738745Y-59406924D02*
G01*
X214763013Y-59410524D01*
X214786812Y-59416485D01*
X214809911Y-59424750D01*
X214832090Y-59435240D01*
X214853133Y-59447852D01*
X214872839Y-59462467D01*
X214891017Y-59478943D01*
X214907493Y-59497121D01*
X214922108Y-59516827D01*
X214934720Y-59537870D01*
X214945210Y-59560049D01*
X214953475Y-59583148D01*
X214959436Y-59606947D01*
X214963036Y-59631215D01*
X214964240Y-59655719D01*
X214964240Y-60305721D01*
X214963036Y-60330225D01*
X214959436Y-60354493D01*
X214953475Y-60378292D01*
X214945210Y-60401391D01*
X214934720Y-60423570D01*
X214922108Y-60444613D01*
X214907493Y-60464319D01*
X214891017Y-60482497D01*
X214872839Y-60498973D01*
X214853133Y-60513588D01*
X214832090Y-60526200D01*
X214809911Y-60536690D01*
X214786812Y-60544955D01*
X214763013Y-60550916D01*
X214738745Y-60554516D01*
X214714241Y-60555720D01*
X213814239Y-60555720D01*
X213789735Y-60554516D01*
X213765467Y-60550916D01*
X213741668Y-60544955D01*
X213718569Y-60536690D01*
X213696390Y-60526200D01*
X213675347Y-60513588D01*
X213655641Y-60498973D01*
X213637463Y-60482497D01*
X213620987Y-60464319D01*
X213606372Y-60444613D01*
X213593760Y-60423570D01*
X213583270Y-60401391D01*
X213575005Y-60378292D01*
X213569044Y-60354493D01*
X213565444Y-60330225D01*
X213564240Y-60305721D01*
X213564240Y-59655719D01*
X213565444Y-59631215D01*
X213569044Y-59606947D01*
X213575005Y-59583148D01*
X213583270Y-59560049D01*
X213593760Y-59537870D01*
X213606372Y-59516827D01*
X213620987Y-59497121D01*
X213637463Y-59478943D01*
X213655641Y-59462467D01*
X213675347Y-59447852D01*
X213696390Y-59435240D01*
X213718569Y-59424750D01*
X213741668Y-59416485D01*
X213765467Y-59410524D01*
X213789735Y-59406924D01*
X213814239Y-59405720D01*
X214714241Y-59405720D01*
X214738745Y-59406924D01*
G37*
G04 #@! TD.AperFunction*
D23*
X178539140Y-55100220D03*
X170030140Y-55100220D03*
G04 #@! TA.AperFunction,SMDPad,CuDef*
D22*
G36*
X233354643Y-69381124D02*
G01*
X233378912Y-69384724D01*
X233402710Y-69390685D01*
X233425810Y-69398950D01*
X233447989Y-69409440D01*
X233469032Y-69422053D01*
X233488738Y-69436668D01*
X233506916Y-69453144D01*
X233523392Y-69471322D01*
X233538007Y-69491028D01*
X233550620Y-69512071D01*
X233561110Y-69534250D01*
X233569375Y-69557350D01*
X233575336Y-69581148D01*
X233578936Y-69605417D01*
X233580140Y-69629921D01*
X233580140Y-71304919D01*
X233578936Y-71329423D01*
X233575336Y-71353692D01*
X233569375Y-71377490D01*
X233561110Y-71400590D01*
X233550620Y-71422769D01*
X233538007Y-71443812D01*
X233523392Y-71463518D01*
X233506916Y-71481696D01*
X233488738Y-71498172D01*
X233469032Y-71512787D01*
X233447989Y-71525400D01*
X233425810Y-71535890D01*
X233402710Y-71544155D01*
X233378912Y-71550116D01*
X233354643Y-71553716D01*
X233330139Y-71554920D01*
X230530141Y-71554920D01*
X230505637Y-71553716D01*
X230481368Y-71550116D01*
X230457570Y-71544155D01*
X230434470Y-71535890D01*
X230412291Y-71525400D01*
X230391248Y-71512787D01*
X230371542Y-71498172D01*
X230353364Y-71481696D01*
X230336888Y-71463518D01*
X230322273Y-71443812D01*
X230309660Y-71422769D01*
X230299170Y-71400590D01*
X230290905Y-71377490D01*
X230284944Y-71353692D01*
X230281344Y-71329423D01*
X230280140Y-71304919D01*
X230280140Y-69629921D01*
X230281344Y-69605417D01*
X230284944Y-69581148D01*
X230290905Y-69557350D01*
X230299170Y-69534250D01*
X230309660Y-69512071D01*
X230322273Y-69491028D01*
X230336888Y-69471322D01*
X230353364Y-69453144D01*
X230371542Y-69436668D01*
X230391248Y-69422053D01*
X230412291Y-69409440D01*
X230434470Y-69398950D01*
X230457570Y-69390685D01*
X230481368Y-69384724D01*
X230505637Y-69381124D01*
X230530141Y-69379920D01*
X233330139Y-69379920D01*
X233354643Y-69381124D01*
G37*
G04 #@! TD.AperFunction*
G04 #@! TA.AperFunction,SMDPad,CuDef*
G36*
X233354643Y-75756124D02*
G01*
X233378912Y-75759724D01*
X233402710Y-75765685D01*
X233425810Y-75773950D01*
X233447989Y-75784440D01*
X233469032Y-75797053D01*
X233488738Y-75811668D01*
X233506916Y-75828144D01*
X233523392Y-75846322D01*
X233538007Y-75866028D01*
X233550620Y-75887071D01*
X233561110Y-75909250D01*
X233569375Y-75932350D01*
X233575336Y-75956148D01*
X233578936Y-75980417D01*
X233580140Y-76004921D01*
X233580140Y-77679919D01*
X233578936Y-77704423D01*
X233575336Y-77728692D01*
X233569375Y-77752490D01*
X233561110Y-77775590D01*
X233550620Y-77797769D01*
X233538007Y-77818812D01*
X233523392Y-77838518D01*
X233506916Y-77856696D01*
X233488738Y-77873172D01*
X233469032Y-77887787D01*
X233447989Y-77900400D01*
X233425810Y-77910890D01*
X233402710Y-77919155D01*
X233378912Y-77925116D01*
X233354643Y-77928716D01*
X233330139Y-77929920D01*
X230530141Y-77929920D01*
X230505637Y-77928716D01*
X230481368Y-77925116D01*
X230457570Y-77919155D01*
X230434470Y-77910890D01*
X230412291Y-77900400D01*
X230391248Y-77887787D01*
X230371542Y-77873172D01*
X230353364Y-77856696D01*
X230336888Y-77838518D01*
X230322273Y-77818812D01*
X230309660Y-77797769D01*
X230299170Y-77775590D01*
X230290905Y-77752490D01*
X230284944Y-77728692D01*
X230281344Y-77704423D01*
X230280140Y-77679919D01*
X230280140Y-76004921D01*
X230281344Y-75980417D01*
X230284944Y-75956148D01*
X230290905Y-75932350D01*
X230299170Y-75909250D01*
X230309660Y-75887071D01*
X230322273Y-75866028D01*
X230336888Y-75846322D01*
X230353364Y-75828144D01*
X230371542Y-75811668D01*
X230391248Y-75797053D01*
X230412291Y-75784440D01*
X230434470Y-75773950D01*
X230457570Y-75765685D01*
X230481368Y-75759724D01*
X230505637Y-75756124D01*
X230530141Y-75754920D01*
X233330139Y-75754920D01*
X233354643Y-75756124D01*
G37*
G04 #@! TD.AperFunction*
D24*
X188504040Y-75813920D03*
X216504040Y-75813920D03*
D15*
X184946840Y-65031620D03*
D13*
X177811840Y-67311620D03*
D14*
X178161840Y-65031620D03*
D13*
X177811840Y-62751620D03*
D25*
X185045140Y-55426920D03*
X186745140Y-55426920D03*
X188445140Y-55426920D03*
X190145140Y-55426920D03*
X191845140Y-55426920D03*
D26*
X188445140Y-46276920D03*
G04 #@! TA.AperFunction,SMDPad,CuDef*
D22*
G36*
X198506445Y-54693524D02*
G01*
X198530713Y-54697124D01*
X198554512Y-54703085D01*
X198577611Y-54711350D01*
X198599790Y-54721840D01*
X198620833Y-54734452D01*
X198640539Y-54749067D01*
X198658717Y-54765543D01*
X198675193Y-54783721D01*
X198689808Y-54803427D01*
X198702420Y-54824470D01*
X198712910Y-54846649D01*
X198721175Y-54869748D01*
X198727136Y-54893547D01*
X198730736Y-54917815D01*
X198731940Y-54942319D01*
X198731940Y-55842321D01*
X198730736Y-55866825D01*
X198727136Y-55891093D01*
X198721175Y-55914892D01*
X198712910Y-55937991D01*
X198702420Y-55960170D01*
X198689808Y-55981213D01*
X198675193Y-56000919D01*
X198658717Y-56019097D01*
X198640539Y-56035573D01*
X198620833Y-56050188D01*
X198599790Y-56062800D01*
X198577611Y-56073290D01*
X198554512Y-56081555D01*
X198530713Y-56087516D01*
X198506445Y-56091116D01*
X198481941Y-56092320D01*
X197831939Y-56092320D01*
X197807435Y-56091116D01*
X197783167Y-56087516D01*
X197759368Y-56081555D01*
X197736269Y-56073290D01*
X197714090Y-56062800D01*
X197693047Y-56050188D01*
X197673341Y-56035573D01*
X197655163Y-56019097D01*
X197638687Y-56000919D01*
X197624072Y-55981213D01*
X197611460Y-55960170D01*
X197600970Y-55937991D01*
X197592705Y-55914892D01*
X197586744Y-55891093D01*
X197583144Y-55866825D01*
X197581940Y-55842321D01*
X197581940Y-54942319D01*
X197583144Y-54917815D01*
X197586744Y-54893547D01*
X197592705Y-54869748D01*
X197600970Y-54846649D01*
X197611460Y-54824470D01*
X197624072Y-54803427D01*
X197638687Y-54783721D01*
X197655163Y-54765543D01*
X197673341Y-54749067D01*
X197693047Y-54734452D01*
X197714090Y-54721840D01*
X197736269Y-54711350D01*
X197759368Y-54703085D01*
X197783167Y-54697124D01*
X197807435Y-54693524D01*
X197831939Y-54692320D01*
X198481941Y-54692320D01*
X198506445Y-54693524D01*
G37*
G04 #@! TD.AperFunction*
G04 #@! TA.AperFunction,SMDPad,CuDef*
G36*
X196456445Y-54693524D02*
G01*
X196480713Y-54697124D01*
X196504512Y-54703085D01*
X196527611Y-54711350D01*
X196549790Y-54721840D01*
X196570833Y-54734452D01*
X196590539Y-54749067D01*
X196608717Y-54765543D01*
X196625193Y-54783721D01*
X196639808Y-54803427D01*
X196652420Y-54824470D01*
X196662910Y-54846649D01*
X196671175Y-54869748D01*
X196677136Y-54893547D01*
X196680736Y-54917815D01*
X196681940Y-54942319D01*
X196681940Y-55842321D01*
X196680736Y-55866825D01*
X196677136Y-55891093D01*
X196671175Y-55914892D01*
X196662910Y-55937991D01*
X196652420Y-55960170D01*
X196639808Y-55981213D01*
X196625193Y-56000919D01*
X196608717Y-56019097D01*
X196590539Y-56035573D01*
X196570833Y-56050188D01*
X196549790Y-56062800D01*
X196527611Y-56073290D01*
X196504512Y-56081555D01*
X196480713Y-56087516D01*
X196456445Y-56091116D01*
X196431941Y-56092320D01*
X195781939Y-56092320D01*
X195757435Y-56091116D01*
X195733167Y-56087516D01*
X195709368Y-56081555D01*
X195686269Y-56073290D01*
X195664090Y-56062800D01*
X195643047Y-56050188D01*
X195623341Y-56035573D01*
X195605163Y-56019097D01*
X195588687Y-56000919D01*
X195574072Y-55981213D01*
X195561460Y-55960170D01*
X195550970Y-55937991D01*
X195542705Y-55914892D01*
X195536744Y-55891093D01*
X195533144Y-55866825D01*
X195531940Y-55842321D01*
X195531940Y-54942319D01*
X195533144Y-54917815D01*
X195536744Y-54893547D01*
X195542705Y-54869748D01*
X195550970Y-54846649D01*
X195561460Y-54824470D01*
X195574072Y-54803427D01*
X195588687Y-54783721D01*
X195605163Y-54765543D01*
X195623341Y-54749067D01*
X195643047Y-54734452D01*
X195664090Y-54721840D01*
X195686269Y-54711350D01*
X195709368Y-54703085D01*
X195733167Y-54697124D01*
X195757435Y-54693524D01*
X195781939Y-54692320D01*
X196431941Y-54692320D01*
X196456445Y-54693524D01*
G37*
G04 #@! TD.AperFunction*
G04 #@! TA.AperFunction,SMDPad,CuDef*
G36*
X205397245Y-54744324D02*
G01*
X205421513Y-54747924D01*
X205445312Y-54753885D01*
X205468411Y-54762150D01*
X205490590Y-54772640D01*
X205511633Y-54785252D01*
X205531339Y-54799867D01*
X205549517Y-54816343D01*
X205565993Y-54834521D01*
X205580608Y-54854227D01*
X205593220Y-54875270D01*
X205603710Y-54897449D01*
X205611975Y-54920548D01*
X205617936Y-54944347D01*
X205621536Y-54968615D01*
X205622740Y-54993119D01*
X205622740Y-55893121D01*
X205621536Y-55917625D01*
X205617936Y-55941893D01*
X205611975Y-55965692D01*
X205603710Y-55988791D01*
X205593220Y-56010970D01*
X205580608Y-56032013D01*
X205565993Y-56051719D01*
X205549517Y-56069897D01*
X205531339Y-56086373D01*
X205511633Y-56100988D01*
X205490590Y-56113600D01*
X205468411Y-56124090D01*
X205445312Y-56132355D01*
X205421513Y-56138316D01*
X205397245Y-56141916D01*
X205372741Y-56143120D01*
X204722739Y-56143120D01*
X204698235Y-56141916D01*
X204673967Y-56138316D01*
X204650168Y-56132355D01*
X204627069Y-56124090D01*
X204604890Y-56113600D01*
X204583847Y-56100988D01*
X204564141Y-56086373D01*
X204545963Y-56069897D01*
X204529487Y-56051719D01*
X204514872Y-56032013D01*
X204502260Y-56010970D01*
X204491770Y-55988791D01*
X204483505Y-55965692D01*
X204477544Y-55941893D01*
X204473944Y-55917625D01*
X204472740Y-55893121D01*
X204472740Y-54993119D01*
X204473944Y-54968615D01*
X204477544Y-54944347D01*
X204483505Y-54920548D01*
X204491770Y-54897449D01*
X204502260Y-54875270D01*
X204514872Y-54854227D01*
X204529487Y-54834521D01*
X204545963Y-54816343D01*
X204564141Y-54799867D01*
X204583847Y-54785252D01*
X204604890Y-54772640D01*
X204627069Y-54762150D01*
X204650168Y-54753885D01*
X204673967Y-54747924D01*
X204698235Y-54744324D01*
X204722739Y-54743120D01*
X205372741Y-54743120D01*
X205397245Y-54744324D01*
G37*
G04 #@! TD.AperFunction*
G04 #@! TA.AperFunction,SMDPad,CuDef*
G36*
X207447245Y-54744324D02*
G01*
X207471513Y-54747924D01*
X207495312Y-54753885D01*
X207518411Y-54762150D01*
X207540590Y-54772640D01*
X207561633Y-54785252D01*
X207581339Y-54799867D01*
X207599517Y-54816343D01*
X207615993Y-54834521D01*
X207630608Y-54854227D01*
X207643220Y-54875270D01*
X207653710Y-54897449D01*
X207661975Y-54920548D01*
X207667936Y-54944347D01*
X207671536Y-54968615D01*
X207672740Y-54993119D01*
X207672740Y-55893121D01*
X207671536Y-55917625D01*
X207667936Y-55941893D01*
X207661975Y-55965692D01*
X207653710Y-55988791D01*
X207643220Y-56010970D01*
X207630608Y-56032013D01*
X207615993Y-56051719D01*
X207599517Y-56069897D01*
X207581339Y-56086373D01*
X207561633Y-56100988D01*
X207540590Y-56113600D01*
X207518411Y-56124090D01*
X207495312Y-56132355D01*
X207471513Y-56138316D01*
X207447245Y-56141916D01*
X207422741Y-56143120D01*
X206772739Y-56143120D01*
X206748235Y-56141916D01*
X206723967Y-56138316D01*
X206700168Y-56132355D01*
X206677069Y-56124090D01*
X206654890Y-56113600D01*
X206633847Y-56100988D01*
X206614141Y-56086373D01*
X206595963Y-56069897D01*
X206579487Y-56051719D01*
X206564872Y-56032013D01*
X206552260Y-56010970D01*
X206541770Y-55988791D01*
X206533505Y-55965692D01*
X206527544Y-55941893D01*
X206523944Y-55917625D01*
X206522740Y-55893121D01*
X206522740Y-54993119D01*
X206523944Y-54968615D01*
X206527544Y-54944347D01*
X206533505Y-54920548D01*
X206541770Y-54897449D01*
X206552260Y-54875270D01*
X206564872Y-54854227D01*
X206579487Y-54834521D01*
X206595963Y-54816343D01*
X206614141Y-54799867D01*
X206633847Y-54785252D01*
X206654890Y-54772640D01*
X206677069Y-54762150D01*
X206700168Y-54753885D01*
X206723967Y-54747924D01*
X206748235Y-54744324D01*
X206772739Y-54743120D01*
X207422741Y-54743120D01*
X207447245Y-54744324D01*
G37*
G04 #@! TD.AperFunction*
G04 #@! TA.AperFunction,SMDPad,CuDef*
G36*
X91704305Y-71742004D02*
G01*
X91728573Y-71745604D01*
X91752372Y-71751565D01*
X91775471Y-71759830D01*
X91797650Y-71770320D01*
X91818693Y-71782932D01*
X91838399Y-71797547D01*
X91856577Y-71814023D01*
X91873053Y-71832201D01*
X91887668Y-71851907D01*
X91900280Y-71872950D01*
X91910770Y-71895129D01*
X91919035Y-71918228D01*
X91924996Y-71942027D01*
X91928596Y-71966295D01*
X91929800Y-71990799D01*
X91929800Y-72890801D01*
X91928596Y-72915305D01*
X91924996Y-72939573D01*
X91919035Y-72963372D01*
X91910770Y-72986471D01*
X91900280Y-73008650D01*
X91887668Y-73029693D01*
X91873053Y-73049399D01*
X91856577Y-73067577D01*
X91838399Y-73084053D01*
X91818693Y-73098668D01*
X91797650Y-73111280D01*
X91775471Y-73121770D01*
X91752372Y-73130035D01*
X91728573Y-73135996D01*
X91704305Y-73139596D01*
X91679801Y-73140800D01*
X91029799Y-73140800D01*
X91005295Y-73139596D01*
X90981027Y-73135996D01*
X90957228Y-73130035D01*
X90934129Y-73121770D01*
X90911950Y-73111280D01*
X90890907Y-73098668D01*
X90871201Y-73084053D01*
X90853023Y-73067577D01*
X90836547Y-73049399D01*
X90821932Y-73029693D01*
X90809320Y-73008650D01*
X90798830Y-72986471D01*
X90790565Y-72963372D01*
X90784604Y-72939573D01*
X90781004Y-72915305D01*
X90779800Y-72890801D01*
X90779800Y-71990799D01*
X90781004Y-71966295D01*
X90784604Y-71942027D01*
X90790565Y-71918228D01*
X90798830Y-71895129D01*
X90809320Y-71872950D01*
X90821932Y-71851907D01*
X90836547Y-71832201D01*
X90853023Y-71814023D01*
X90871201Y-71797547D01*
X90890907Y-71782932D01*
X90911950Y-71770320D01*
X90934129Y-71759830D01*
X90957228Y-71751565D01*
X90981027Y-71745604D01*
X91005295Y-71742004D01*
X91029799Y-71740800D01*
X91679801Y-71740800D01*
X91704305Y-71742004D01*
G37*
G04 #@! TD.AperFunction*
G04 #@! TA.AperFunction,SMDPad,CuDef*
G36*
X93754305Y-71742004D02*
G01*
X93778573Y-71745604D01*
X93802372Y-71751565D01*
X93825471Y-71759830D01*
X93847650Y-71770320D01*
X93868693Y-71782932D01*
X93888399Y-71797547D01*
X93906577Y-71814023D01*
X93923053Y-71832201D01*
X93937668Y-71851907D01*
X93950280Y-71872950D01*
X93960770Y-71895129D01*
X93969035Y-71918228D01*
X93974996Y-71942027D01*
X93978596Y-71966295D01*
X93979800Y-71990799D01*
X93979800Y-72890801D01*
X93978596Y-72915305D01*
X93974996Y-72939573D01*
X93969035Y-72963372D01*
X93960770Y-72986471D01*
X93950280Y-73008650D01*
X93937668Y-73029693D01*
X93923053Y-73049399D01*
X93906577Y-73067577D01*
X93888399Y-73084053D01*
X93868693Y-73098668D01*
X93847650Y-73111280D01*
X93825471Y-73121770D01*
X93802372Y-73130035D01*
X93778573Y-73135996D01*
X93754305Y-73139596D01*
X93729801Y-73140800D01*
X93079799Y-73140800D01*
X93055295Y-73139596D01*
X93031027Y-73135996D01*
X93007228Y-73130035D01*
X92984129Y-73121770D01*
X92961950Y-73111280D01*
X92940907Y-73098668D01*
X92921201Y-73084053D01*
X92903023Y-73067577D01*
X92886547Y-73049399D01*
X92871932Y-73029693D01*
X92859320Y-73008650D01*
X92848830Y-72986471D01*
X92840565Y-72963372D01*
X92834604Y-72939573D01*
X92831004Y-72915305D01*
X92829800Y-72890801D01*
X92829800Y-71990799D01*
X92831004Y-71966295D01*
X92834604Y-71942027D01*
X92840565Y-71918228D01*
X92848830Y-71895129D01*
X92859320Y-71872950D01*
X92871932Y-71851907D01*
X92886547Y-71832201D01*
X92903023Y-71814023D01*
X92921201Y-71797547D01*
X92940907Y-71782932D01*
X92961950Y-71770320D01*
X92984129Y-71759830D01*
X93007228Y-71751565D01*
X93031027Y-71745604D01*
X93055295Y-71742004D01*
X93079799Y-71740800D01*
X93729801Y-71740800D01*
X93754305Y-71742004D01*
G37*
G04 #@! TD.AperFunction*
D19*
X69807400Y-65176400D03*
X69807400Y-62676400D03*
D20*
X73357400Y-65176400D03*
X73357400Y-62676400D03*
D21*
X66257400Y-62676400D03*
X66257400Y-65176400D03*
D27*
X96909800Y-134794400D03*
X94409800Y-134794400D03*
X91909800Y-134794400D03*
X89409800Y-134794400D03*
D28*
X96909800Y-131244400D03*
X94409800Y-131244400D03*
X91909800Y-131244400D03*
X89409800Y-131244400D03*
D29*
X96909800Y-138344400D03*
X94409800Y-138344400D03*
X91909800Y-138344400D03*
X89409800Y-138344400D03*
X201420200Y-138344400D03*
X203920200Y-138344400D03*
X206420200Y-138344400D03*
X208920200Y-138344400D03*
D28*
X201420200Y-131244400D03*
X203920200Y-131244400D03*
X206420200Y-131244400D03*
X208920200Y-131244400D03*
D27*
X201420200Y-134794400D03*
X203920200Y-134794400D03*
X206420200Y-134794400D03*
X208920200Y-134794400D03*
G04 #@! TA.AperFunction,SMDPad,CuDef*
D22*
G36*
X159579223Y-92843722D02*
G01*
X159593784Y-92845882D01*
X159608063Y-92849459D01*
X159621923Y-92854418D01*
X159635230Y-92860712D01*
X159647856Y-92868280D01*
X159659679Y-92877048D01*
X159670586Y-92886934D01*
X159680472Y-92897841D01*
X159689240Y-92909664D01*
X159696808Y-92922290D01*
X159703102Y-92935597D01*
X159708061Y-92949457D01*
X159711638Y-92963736D01*
X159713798Y-92978297D01*
X159714520Y-92993000D01*
X159714520Y-93293000D01*
X159713798Y-93307703D01*
X159711638Y-93322264D01*
X159708061Y-93336543D01*
X159703102Y-93350403D01*
X159696808Y-93363710D01*
X159689240Y-93376336D01*
X159680472Y-93388159D01*
X159670586Y-93399066D01*
X159659679Y-93408952D01*
X159647856Y-93417720D01*
X159635230Y-93425288D01*
X159621923Y-93431582D01*
X159608063Y-93436541D01*
X159593784Y-93440118D01*
X159579223Y-93442278D01*
X159564520Y-93443000D01*
X158214520Y-93443000D01*
X158199817Y-93442278D01*
X158185256Y-93440118D01*
X158170977Y-93436541D01*
X158157117Y-93431582D01*
X158143810Y-93425288D01*
X158131184Y-93417720D01*
X158119361Y-93408952D01*
X158108454Y-93399066D01*
X158098568Y-93388159D01*
X158089800Y-93376336D01*
X158082232Y-93363710D01*
X158075938Y-93350403D01*
X158070979Y-93336543D01*
X158067402Y-93322264D01*
X158065242Y-93307703D01*
X158064520Y-93293000D01*
X158064520Y-92993000D01*
X158065242Y-92978297D01*
X158067402Y-92963736D01*
X158070979Y-92949457D01*
X158075938Y-92935597D01*
X158082232Y-92922290D01*
X158089800Y-92909664D01*
X158098568Y-92897841D01*
X158108454Y-92886934D01*
X158119361Y-92877048D01*
X158131184Y-92868280D01*
X158143810Y-92860712D01*
X158157117Y-92854418D01*
X158170977Y-92849459D01*
X158185256Y-92845882D01*
X158199817Y-92843722D01*
X158214520Y-92843000D01*
X159564520Y-92843000D01*
X159579223Y-92843722D01*
G37*
G04 #@! TD.AperFunction*
G04 #@! TA.AperFunction,SMDPad,CuDef*
G36*
X159579223Y-94113722D02*
G01*
X159593784Y-94115882D01*
X159608063Y-94119459D01*
X159621923Y-94124418D01*
X159635230Y-94130712D01*
X159647856Y-94138280D01*
X159659679Y-94147048D01*
X159670586Y-94156934D01*
X159680472Y-94167841D01*
X159689240Y-94179664D01*
X159696808Y-94192290D01*
X159703102Y-94205597D01*
X159708061Y-94219457D01*
X159711638Y-94233736D01*
X159713798Y-94248297D01*
X159714520Y-94263000D01*
X159714520Y-94563000D01*
X159713798Y-94577703D01*
X159711638Y-94592264D01*
X159708061Y-94606543D01*
X159703102Y-94620403D01*
X159696808Y-94633710D01*
X159689240Y-94646336D01*
X159680472Y-94658159D01*
X159670586Y-94669066D01*
X159659679Y-94678952D01*
X159647856Y-94687720D01*
X159635230Y-94695288D01*
X159621923Y-94701582D01*
X159608063Y-94706541D01*
X159593784Y-94710118D01*
X159579223Y-94712278D01*
X159564520Y-94713000D01*
X158214520Y-94713000D01*
X158199817Y-94712278D01*
X158185256Y-94710118D01*
X158170977Y-94706541D01*
X158157117Y-94701582D01*
X158143810Y-94695288D01*
X158131184Y-94687720D01*
X158119361Y-94678952D01*
X158108454Y-94669066D01*
X158098568Y-94658159D01*
X158089800Y-94646336D01*
X158082232Y-94633710D01*
X158075938Y-94620403D01*
X158070979Y-94606543D01*
X158067402Y-94592264D01*
X158065242Y-94577703D01*
X158064520Y-94563000D01*
X158064520Y-94263000D01*
X158065242Y-94248297D01*
X158067402Y-94233736D01*
X158070979Y-94219457D01*
X158075938Y-94205597D01*
X158082232Y-94192290D01*
X158089800Y-94179664D01*
X158098568Y-94167841D01*
X158108454Y-94156934D01*
X158119361Y-94147048D01*
X158131184Y-94138280D01*
X158143810Y-94130712D01*
X158157117Y-94124418D01*
X158170977Y-94119459D01*
X158185256Y-94115882D01*
X158199817Y-94113722D01*
X158214520Y-94113000D01*
X159564520Y-94113000D01*
X159579223Y-94113722D01*
G37*
G04 #@! TD.AperFunction*
G04 #@! TA.AperFunction,SMDPad,CuDef*
G36*
X159579223Y-95383722D02*
G01*
X159593784Y-95385882D01*
X159608063Y-95389459D01*
X159621923Y-95394418D01*
X159635230Y-95400712D01*
X159647856Y-95408280D01*
X159659679Y-95417048D01*
X159670586Y-95426934D01*
X159680472Y-95437841D01*
X159689240Y-95449664D01*
X159696808Y-95462290D01*
X159703102Y-95475597D01*
X159708061Y-95489457D01*
X159711638Y-95503736D01*
X159713798Y-95518297D01*
X159714520Y-95533000D01*
X159714520Y-95833000D01*
X159713798Y-95847703D01*
X159711638Y-95862264D01*
X159708061Y-95876543D01*
X159703102Y-95890403D01*
X159696808Y-95903710D01*
X159689240Y-95916336D01*
X159680472Y-95928159D01*
X159670586Y-95939066D01*
X159659679Y-95948952D01*
X159647856Y-95957720D01*
X159635230Y-95965288D01*
X159621923Y-95971582D01*
X159608063Y-95976541D01*
X159593784Y-95980118D01*
X159579223Y-95982278D01*
X159564520Y-95983000D01*
X158214520Y-95983000D01*
X158199817Y-95982278D01*
X158185256Y-95980118D01*
X158170977Y-95976541D01*
X158157117Y-95971582D01*
X158143810Y-95965288D01*
X158131184Y-95957720D01*
X158119361Y-95948952D01*
X158108454Y-95939066D01*
X158098568Y-95928159D01*
X158089800Y-95916336D01*
X158082232Y-95903710D01*
X158075938Y-95890403D01*
X158070979Y-95876543D01*
X158067402Y-95862264D01*
X158065242Y-95847703D01*
X158064520Y-95833000D01*
X158064520Y-95533000D01*
X158065242Y-95518297D01*
X158067402Y-95503736D01*
X158070979Y-95489457D01*
X158075938Y-95475597D01*
X158082232Y-95462290D01*
X158089800Y-95449664D01*
X158098568Y-95437841D01*
X158108454Y-95426934D01*
X158119361Y-95417048D01*
X158131184Y-95408280D01*
X158143810Y-95400712D01*
X158157117Y-95394418D01*
X158170977Y-95389459D01*
X158185256Y-95385882D01*
X158199817Y-95383722D01*
X158214520Y-95383000D01*
X159564520Y-95383000D01*
X159579223Y-95383722D01*
G37*
G04 #@! TD.AperFunction*
G04 #@! TA.AperFunction,SMDPad,CuDef*
G36*
X159579223Y-96653722D02*
G01*
X159593784Y-96655882D01*
X159608063Y-96659459D01*
X159621923Y-96664418D01*
X159635230Y-96670712D01*
X159647856Y-96678280D01*
X159659679Y-96687048D01*
X159670586Y-96696934D01*
X159680472Y-96707841D01*
X159689240Y-96719664D01*
X159696808Y-96732290D01*
X159703102Y-96745597D01*
X159708061Y-96759457D01*
X159711638Y-96773736D01*
X159713798Y-96788297D01*
X159714520Y-96803000D01*
X159714520Y-97103000D01*
X159713798Y-97117703D01*
X159711638Y-97132264D01*
X159708061Y-97146543D01*
X159703102Y-97160403D01*
X159696808Y-97173710D01*
X159689240Y-97186336D01*
X159680472Y-97198159D01*
X159670586Y-97209066D01*
X159659679Y-97218952D01*
X159647856Y-97227720D01*
X159635230Y-97235288D01*
X159621923Y-97241582D01*
X159608063Y-97246541D01*
X159593784Y-97250118D01*
X159579223Y-97252278D01*
X159564520Y-97253000D01*
X158214520Y-97253000D01*
X158199817Y-97252278D01*
X158185256Y-97250118D01*
X158170977Y-97246541D01*
X158157117Y-97241582D01*
X158143810Y-97235288D01*
X158131184Y-97227720D01*
X158119361Y-97218952D01*
X158108454Y-97209066D01*
X158098568Y-97198159D01*
X158089800Y-97186336D01*
X158082232Y-97173710D01*
X158075938Y-97160403D01*
X158070979Y-97146543D01*
X158067402Y-97132264D01*
X158065242Y-97117703D01*
X158064520Y-97103000D01*
X158064520Y-96803000D01*
X158065242Y-96788297D01*
X158067402Y-96773736D01*
X158070979Y-96759457D01*
X158075938Y-96745597D01*
X158082232Y-96732290D01*
X158089800Y-96719664D01*
X158098568Y-96707841D01*
X158108454Y-96696934D01*
X158119361Y-96687048D01*
X158131184Y-96678280D01*
X158143810Y-96670712D01*
X158157117Y-96664418D01*
X158170977Y-96659459D01*
X158185256Y-96655882D01*
X158199817Y-96653722D01*
X158214520Y-96653000D01*
X159564520Y-96653000D01*
X159579223Y-96653722D01*
G37*
G04 #@! TD.AperFunction*
G04 #@! TA.AperFunction,SMDPad,CuDef*
G36*
X154329223Y-96653722D02*
G01*
X154343784Y-96655882D01*
X154358063Y-96659459D01*
X154371923Y-96664418D01*
X154385230Y-96670712D01*
X154397856Y-96678280D01*
X154409679Y-96687048D01*
X154420586Y-96696934D01*
X154430472Y-96707841D01*
X154439240Y-96719664D01*
X154446808Y-96732290D01*
X154453102Y-96745597D01*
X154458061Y-96759457D01*
X154461638Y-96773736D01*
X154463798Y-96788297D01*
X154464520Y-96803000D01*
X154464520Y-97103000D01*
X154463798Y-97117703D01*
X154461638Y-97132264D01*
X154458061Y-97146543D01*
X154453102Y-97160403D01*
X154446808Y-97173710D01*
X154439240Y-97186336D01*
X154430472Y-97198159D01*
X154420586Y-97209066D01*
X154409679Y-97218952D01*
X154397856Y-97227720D01*
X154385230Y-97235288D01*
X154371923Y-97241582D01*
X154358063Y-97246541D01*
X154343784Y-97250118D01*
X154329223Y-97252278D01*
X154314520Y-97253000D01*
X152964520Y-97253000D01*
X152949817Y-97252278D01*
X152935256Y-97250118D01*
X152920977Y-97246541D01*
X152907117Y-97241582D01*
X152893810Y-97235288D01*
X152881184Y-97227720D01*
X152869361Y-97218952D01*
X152858454Y-97209066D01*
X152848568Y-97198159D01*
X152839800Y-97186336D01*
X152832232Y-97173710D01*
X152825938Y-97160403D01*
X152820979Y-97146543D01*
X152817402Y-97132264D01*
X152815242Y-97117703D01*
X152814520Y-97103000D01*
X152814520Y-96803000D01*
X152815242Y-96788297D01*
X152817402Y-96773736D01*
X152820979Y-96759457D01*
X152825938Y-96745597D01*
X152832232Y-96732290D01*
X152839800Y-96719664D01*
X152848568Y-96707841D01*
X152858454Y-96696934D01*
X152869361Y-96687048D01*
X152881184Y-96678280D01*
X152893810Y-96670712D01*
X152907117Y-96664418D01*
X152920977Y-96659459D01*
X152935256Y-96655882D01*
X152949817Y-96653722D01*
X152964520Y-96653000D01*
X154314520Y-96653000D01*
X154329223Y-96653722D01*
G37*
G04 #@! TD.AperFunction*
G04 #@! TA.AperFunction,SMDPad,CuDef*
G36*
X154329223Y-95383722D02*
G01*
X154343784Y-95385882D01*
X154358063Y-95389459D01*
X154371923Y-95394418D01*
X154385230Y-95400712D01*
X154397856Y-95408280D01*
X154409679Y-95417048D01*
X154420586Y-95426934D01*
X154430472Y-95437841D01*
X154439240Y-95449664D01*
X154446808Y-95462290D01*
X154453102Y-95475597D01*
X154458061Y-95489457D01*
X154461638Y-95503736D01*
X154463798Y-95518297D01*
X154464520Y-95533000D01*
X154464520Y-95833000D01*
X154463798Y-95847703D01*
X154461638Y-95862264D01*
X154458061Y-95876543D01*
X154453102Y-95890403D01*
X154446808Y-95903710D01*
X154439240Y-95916336D01*
X154430472Y-95928159D01*
X154420586Y-95939066D01*
X154409679Y-95948952D01*
X154397856Y-95957720D01*
X154385230Y-95965288D01*
X154371923Y-95971582D01*
X154358063Y-95976541D01*
X154343784Y-95980118D01*
X154329223Y-95982278D01*
X154314520Y-95983000D01*
X152964520Y-95983000D01*
X152949817Y-95982278D01*
X152935256Y-95980118D01*
X152920977Y-95976541D01*
X152907117Y-95971582D01*
X152893810Y-95965288D01*
X152881184Y-95957720D01*
X152869361Y-95948952D01*
X152858454Y-95939066D01*
X152848568Y-95928159D01*
X152839800Y-95916336D01*
X152832232Y-95903710D01*
X152825938Y-95890403D01*
X152820979Y-95876543D01*
X152817402Y-95862264D01*
X152815242Y-95847703D01*
X152814520Y-95833000D01*
X152814520Y-95533000D01*
X152815242Y-95518297D01*
X152817402Y-95503736D01*
X152820979Y-95489457D01*
X152825938Y-95475597D01*
X152832232Y-95462290D01*
X152839800Y-95449664D01*
X152848568Y-95437841D01*
X152858454Y-95426934D01*
X152869361Y-95417048D01*
X152881184Y-95408280D01*
X152893810Y-95400712D01*
X152907117Y-95394418D01*
X152920977Y-95389459D01*
X152935256Y-95385882D01*
X152949817Y-95383722D01*
X152964520Y-95383000D01*
X154314520Y-95383000D01*
X154329223Y-95383722D01*
G37*
G04 #@! TD.AperFunction*
G04 #@! TA.AperFunction,SMDPad,CuDef*
G36*
X154329223Y-94113722D02*
G01*
X154343784Y-94115882D01*
X154358063Y-94119459D01*
X154371923Y-94124418D01*
X154385230Y-94130712D01*
X154397856Y-94138280D01*
X154409679Y-94147048D01*
X154420586Y-94156934D01*
X154430472Y-94167841D01*
X154439240Y-94179664D01*
X154446808Y-94192290D01*
X154453102Y-94205597D01*
X154458061Y-94219457D01*
X154461638Y-94233736D01*
X154463798Y-94248297D01*
X154464520Y-94263000D01*
X154464520Y-94563000D01*
X154463798Y-94577703D01*
X154461638Y-94592264D01*
X154458061Y-94606543D01*
X154453102Y-94620403D01*
X154446808Y-94633710D01*
X154439240Y-94646336D01*
X154430472Y-94658159D01*
X154420586Y-94669066D01*
X154409679Y-94678952D01*
X154397856Y-94687720D01*
X154385230Y-94695288D01*
X154371923Y-94701582D01*
X154358063Y-94706541D01*
X154343784Y-94710118D01*
X154329223Y-94712278D01*
X154314520Y-94713000D01*
X152964520Y-94713000D01*
X152949817Y-94712278D01*
X152935256Y-94710118D01*
X152920977Y-94706541D01*
X152907117Y-94701582D01*
X152893810Y-94695288D01*
X152881184Y-94687720D01*
X152869361Y-94678952D01*
X152858454Y-94669066D01*
X152848568Y-94658159D01*
X152839800Y-94646336D01*
X152832232Y-94633710D01*
X152825938Y-94620403D01*
X152820979Y-94606543D01*
X152817402Y-94592264D01*
X152815242Y-94577703D01*
X152814520Y-94563000D01*
X152814520Y-94263000D01*
X152815242Y-94248297D01*
X152817402Y-94233736D01*
X152820979Y-94219457D01*
X152825938Y-94205597D01*
X152832232Y-94192290D01*
X152839800Y-94179664D01*
X152848568Y-94167841D01*
X152858454Y-94156934D01*
X152869361Y-94147048D01*
X152881184Y-94138280D01*
X152893810Y-94130712D01*
X152907117Y-94124418D01*
X152920977Y-94119459D01*
X152935256Y-94115882D01*
X152949817Y-94113722D01*
X152964520Y-94113000D01*
X154314520Y-94113000D01*
X154329223Y-94113722D01*
G37*
G04 #@! TD.AperFunction*
G04 #@! TA.AperFunction,SMDPad,CuDef*
G36*
X154329223Y-92843722D02*
G01*
X154343784Y-92845882D01*
X154358063Y-92849459D01*
X154371923Y-92854418D01*
X154385230Y-92860712D01*
X154397856Y-92868280D01*
X154409679Y-92877048D01*
X154420586Y-92886934D01*
X154430472Y-92897841D01*
X154439240Y-92909664D01*
X154446808Y-92922290D01*
X154453102Y-92935597D01*
X154458061Y-92949457D01*
X154461638Y-92963736D01*
X154463798Y-92978297D01*
X154464520Y-92993000D01*
X154464520Y-93293000D01*
X154463798Y-93307703D01*
X154461638Y-93322264D01*
X154458061Y-93336543D01*
X154453102Y-93350403D01*
X154446808Y-93363710D01*
X154439240Y-93376336D01*
X154430472Y-93388159D01*
X154420586Y-93399066D01*
X154409679Y-93408952D01*
X154397856Y-93417720D01*
X154385230Y-93425288D01*
X154371923Y-93431582D01*
X154358063Y-93436541D01*
X154343784Y-93440118D01*
X154329223Y-93442278D01*
X154314520Y-93443000D01*
X152964520Y-93443000D01*
X152949817Y-93442278D01*
X152935256Y-93440118D01*
X152920977Y-93436541D01*
X152907117Y-93431582D01*
X152893810Y-93425288D01*
X152881184Y-93417720D01*
X152869361Y-93408952D01*
X152858454Y-93399066D01*
X152848568Y-93388159D01*
X152839800Y-93376336D01*
X152832232Y-93363710D01*
X152825938Y-93350403D01*
X152820979Y-93336543D01*
X152817402Y-93322264D01*
X152815242Y-93307703D01*
X152814520Y-93293000D01*
X152814520Y-92993000D01*
X152815242Y-92978297D01*
X152817402Y-92963736D01*
X152820979Y-92949457D01*
X152825938Y-92935597D01*
X152832232Y-92922290D01*
X152839800Y-92909664D01*
X152848568Y-92897841D01*
X152858454Y-92886934D01*
X152869361Y-92877048D01*
X152881184Y-92868280D01*
X152893810Y-92860712D01*
X152907117Y-92854418D01*
X152920977Y-92849459D01*
X152935256Y-92845882D01*
X152949817Y-92843722D01*
X152964520Y-92843000D01*
X154314520Y-92843000D01*
X154329223Y-92843722D01*
G37*
G04 #@! TD.AperFunction*
D26*
X110007400Y-81607000D03*
D25*
X106607400Y-72457000D03*
X108307400Y-72457000D03*
X110007400Y-72457000D03*
X111707400Y-72457000D03*
X113407400Y-72457000D03*
G04 #@! TA.AperFunction,SMDPad,CuDef*
D22*
G36*
X80844665Y-95523904D02*
G01*
X80868933Y-95527504D01*
X80892732Y-95533465D01*
X80915831Y-95541730D01*
X80938010Y-95552220D01*
X80959053Y-95564832D01*
X80978759Y-95579447D01*
X80996937Y-95595923D01*
X81013413Y-95614101D01*
X81028028Y-95633807D01*
X81040640Y-95654850D01*
X81051130Y-95677029D01*
X81059395Y-95700128D01*
X81065356Y-95723927D01*
X81068956Y-95748195D01*
X81070160Y-95772699D01*
X81070160Y-96422701D01*
X81068956Y-96447205D01*
X81065356Y-96471473D01*
X81059395Y-96495272D01*
X81051130Y-96518371D01*
X81040640Y-96540550D01*
X81028028Y-96561593D01*
X81013413Y-96581299D01*
X80996937Y-96599477D01*
X80978759Y-96615953D01*
X80959053Y-96630568D01*
X80938010Y-96643180D01*
X80915831Y-96653670D01*
X80892732Y-96661935D01*
X80868933Y-96667896D01*
X80844665Y-96671496D01*
X80820161Y-96672700D01*
X79920159Y-96672700D01*
X79895655Y-96671496D01*
X79871387Y-96667896D01*
X79847588Y-96661935D01*
X79824489Y-96653670D01*
X79802310Y-96643180D01*
X79781267Y-96630568D01*
X79761561Y-96615953D01*
X79743383Y-96599477D01*
X79726907Y-96581299D01*
X79712292Y-96561593D01*
X79699680Y-96540550D01*
X79689190Y-96518371D01*
X79680925Y-96495272D01*
X79674964Y-96471473D01*
X79671364Y-96447205D01*
X79670160Y-96422701D01*
X79670160Y-95772699D01*
X79671364Y-95748195D01*
X79674964Y-95723927D01*
X79680925Y-95700128D01*
X79689190Y-95677029D01*
X79699680Y-95654850D01*
X79712292Y-95633807D01*
X79726907Y-95614101D01*
X79743383Y-95595923D01*
X79761561Y-95579447D01*
X79781267Y-95564832D01*
X79802310Y-95552220D01*
X79824489Y-95541730D01*
X79847588Y-95533465D01*
X79871387Y-95527504D01*
X79895655Y-95523904D01*
X79920159Y-95522700D01*
X80820161Y-95522700D01*
X80844665Y-95523904D01*
G37*
G04 #@! TD.AperFunction*
G04 #@! TA.AperFunction,SMDPad,CuDef*
G36*
X80844665Y-93473904D02*
G01*
X80868933Y-93477504D01*
X80892732Y-93483465D01*
X80915831Y-93491730D01*
X80938010Y-93502220D01*
X80959053Y-93514832D01*
X80978759Y-93529447D01*
X80996937Y-93545923D01*
X81013413Y-93564101D01*
X81028028Y-93583807D01*
X81040640Y-93604850D01*
X81051130Y-93627029D01*
X81059395Y-93650128D01*
X81065356Y-93673927D01*
X81068956Y-93698195D01*
X81070160Y-93722699D01*
X81070160Y-94372701D01*
X81068956Y-94397205D01*
X81065356Y-94421473D01*
X81059395Y-94445272D01*
X81051130Y-94468371D01*
X81040640Y-94490550D01*
X81028028Y-94511593D01*
X81013413Y-94531299D01*
X80996937Y-94549477D01*
X80978759Y-94565953D01*
X80959053Y-94580568D01*
X80938010Y-94593180D01*
X80915831Y-94603670D01*
X80892732Y-94611935D01*
X80868933Y-94617896D01*
X80844665Y-94621496D01*
X80820161Y-94622700D01*
X79920159Y-94622700D01*
X79895655Y-94621496D01*
X79871387Y-94617896D01*
X79847588Y-94611935D01*
X79824489Y-94603670D01*
X79802310Y-94593180D01*
X79781267Y-94580568D01*
X79761561Y-94565953D01*
X79743383Y-94549477D01*
X79726907Y-94531299D01*
X79712292Y-94511593D01*
X79699680Y-94490550D01*
X79689190Y-94468371D01*
X79680925Y-94445272D01*
X79674964Y-94421473D01*
X79671364Y-94397205D01*
X79670160Y-94372701D01*
X79670160Y-93722699D01*
X79671364Y-93698195D01*
X79674964Y-93673927D01*
X79680925Y-93650128D01*
X79689190Y-93627029D01*
X79699680Y-93604850D01*
X79712292Y-93583807D01*
X79726907Y-93564101D01*
X79743383Y-93545923D01*
X79761561Y-93529447D01*
X79781267Y-93514832D01*
X79802310Y-93502220D01*
X79824489Y-93491730D01*
X79847588Y-93483465D01*
X79871387Y-93477504D01*
X79895655Y-93473904D01*
X79920159Y-93472700D01*
X80820161Y-93472700D01*
X80844665Y-93473904D01*
G37*
G04 #@! TD.AperFunction*
G04 #@! TA.AperFunction,SMDPad,CuDef*
G36*
X149516625Y-102344464D02*
G01*
X149540893Y-102348064D01*
X149564692Y-102354025D01*
X149587791Y-102362290D01*
X149609970Y-102372780D01*
X149631013Y-102385392D01*
X149650719Y-102400007D01*
X149668897Y-102416483D01*
X149685373Y-102434661D01*
X149699988Y-102454367D01*
X149712600Y-102475410D01*
X149723090Y-102497589D01*
X149731355Y-102520688D01*
X149737316Y-102544487D01*
X149740916Y-102568755D01*
X149742120Y-102593259D01*
X149742120Y-103243261D01*
X149740916Y-103267765D01*
X149737316Y-103292033D01*
X149731355Y-103315832D01*
X149723090Y-103338931D01*
X149712600Y-103361110D01*
X149699988Y-103382153D01*
X149685373Y-103401859D01*
X149668897Y-103420037D01*
X149650719Y-103436513D01*
X149631013Y-103451128D01*
X149609970Y-103463740D01*
X149587791Y-103474230D01*
X149564692Y-103482495D01*
X149540893Y-103488456D01*
X149516625Y-103492056D01*
X149492121Y-103493260D01*
X148592119Y-103493260D01*
X148567615Y-103492056D01*
X148543347Y-103488456D01*
X148519548Y-103482495D01*
X148496449Y-103474230D01*
X148474270Y-103463740D01*
X148453227Y-103451128D01*
X148433521Y-103436513D01*
X148415343Y-103420037D01*
X148398867Y-103401859D01*
X148384252Y-103382153D01*
X148371640Y-103361110D01*
X148361150Y-103338931D01*
X148352885Y-103315832D01*
X148346924Y-103292033D01*
X148343324Y-103267765D01*
X148342120Y-103243261D01*
X148342120Y-102593259D01*
X148343324Y-102568755D01*
X148346924Y-102544487D01*
X148352885Y-102520688D01*
X148361150Y-102497589D01*
X148371640Y-102475410D01*
X148384252Y-102454367D01*
X148398867Y-102434661D01*
X148415343Y-102416483D01*
X148433521Y-102400007D01*
X148453227Y-102385392D01*
X148474270Y-102372780D01*
X148496449Y-102362290D01*
X148519548Y-102354025D01*
X148543347Y-102348064D01*
X148567615Y-102344464D01*
X148592119Y-102343260D01*
X149492121Y-102343260D01*
X149516625Y-102344464D01*
G37*
G04 #@! TD.AperFunction*
G04 #@! TA.AperFunction,SMDPad,CuDef*
G36*
X149516625Y-100294464D02*
G01*
X149540893Y-100298064D01*
X149564692Y-100304025D01*
X149587791Y-100312290D01*
X149609970Y-100322780D01*
X149631013Y-100335392D01*
X149650719Y-100350007D01*
X149668897Y-100366483D01*
X149685373Y-100384661D01*
X149699988Y-100404367D01*
X149712600Y-100425410D01*
X149723090Y-100447589D01*
X149731355Y-100470688D01*
X149737316Y-100494487D01*
X149740916Y-100518755D01*
X149742120Y-100543259D01*
X149742120Y-101193261D01*
X149740916Y-101217765D01*
X149737316Y-101242033D01*
X149731355Y-101265832D01*
X149723090Y-101288931D01*
X149712600Y-101311110D01*
X149699988Y-101332153D01*
X149685373Y-101351859D01*
X149668897Y-101370037D01*
X149650719Y-101386513D01*
X149631013Y-101401128D01*
X149609970Y-101413740D01*
X149587791Y-101424230D01*
X149564692Y-101432495D01*
X149540893Y-101438456D01*
X149516625Y-101442056D01*
X149492121Y-101443260D01*
X148592119Y-101443260D01*
X148567615Y-101442056D01*
X148543347Y-101438456D01*
X148519548Y-101432495D01*
X148496449Y-101424230D01*
X148474270Y-101413740D01*
X148453227Y-101401128D01*
X148433521Y-101386513D01*
X148415343Y-101370037D01*
X148398867Y-101351859D01*
X148384252Y-101332153D01*
X148371640Y-101311110D01*
X148361150Y-101288931D01*
X148352885Y-101265832D01*
X148346924Y-101242033D01*
X148343324Y-101217765D01*
X148342120Y-101193261D01*
X148342120Y-100543259D01*
X148343324Y-100518755D01*
X148346924Y-100494487D01*
X148352885Y-100470688D01*
X148361150Y-100447589D01*
X148371640Y-100425410D01*
X148384252Y-100404367D01*
X148398867Y-100384661D01*
X148415343Y-100366483D01*
X148433521Y-100350007D01*
X148453227Y-100335392D01*
X148474270Y-100322780D01*
X148496449Y-100312290D01*
X148519548Y-100304025D01*
X148543347Y-100298064D01*
X148567615Y-100294464D01*
X148592119Y-100293260D01*
X149492121Y-100293260D01*
X149516625Y-100294464D01*
G37*
G04 #@! TD.AperFunction*
G04 #@! TA.AperFunction,SMDPad,CuDef*
G36*
X209966085Y-93981624D02*
G01*
X209990353Y-93985224D01*
X210014152Y-93991185D01*
X210037251Y-93999450D01*
X210059430Y-94009940D01*
X210080473Y-94022552D01*
X210100179Y-94037167D01*
X210118357Y-94053643D01*
X210134833Y-94071821D01*
X210149448Y-94091527D01*
X210162060Y-94112570D01*
X210172550Y-94134749D01*
X210180815Y-94157848D01*
X210186776Y-94181647D01*
X210190376Y-94205915D01*
X210191580Y-94230419D01*
X210191580Y-94880421D01*
X210190376Y-94904925D01*
X210186776Y-94929193D01*
X210180815Y-94952992D01*
X210172550Y-94976091D01*
X210162060Y-94998270D01*
X210149448Y-95019313D01*
X210134833Y-95039019D01*
X210118357Y-95057197D01*
X210100179Y-95073673D01*
X210080473Y-95088288D01*
X210059430Y-95100900D01*
X210037251Y-95111390D01*
X210014152Y-95119655D01*
X209990353Y-95125616D01*
X209966085Y-95129216D01*
X209941581Y-95130420D01*
X209041579Y-95130420D01*
X209017075Y-95129216D01*
X208992807Y-95125616D01*
X208969008Y-95119655D01*
X208945909Y-95111390D01*
X208923730Y-95100900D01*
X208902687Y-95088288D01*
X208882981Y-95073673D01*
X208864803Y-95057197D01*
X208848327Y-95039019D01*
X208833712Y-95019313D01*
X208821100Y-94998270D01*
X208810610Y-94976091D01*
X208802345Y-94952992D01*
X208796384Y-94929193D01*
X208792784Y-94904925D01*
X208791580Y-94880421D01*
X208791580Y-94230419D01*
X208792784Y-94205915D01*
X208796384Y-94181647D01*
X208802345Y-94157848D01*
X208810610Y-94134749D01*
X208821100Y-94112570D01*
X208833712Y-94091527D01*
X208848327Y-94071821D01*
X208864803Y-94053643D01*
X208882981Y-94037167D01*
X208902687Y-94022552D01*
X208923730Y-94009940D01*
X208945909Y-93999450D01*
X208969008Y-93991185D01*
X208992807Y-93985224D01*
X209017075Y-93981624D01*
X209041579Y-93980420D01*
X209941581Y-93980420D01*
X209966085Y-93981624D01*
G37*
G04 #@! TD.AperFunction*
G04 #@! TA.AperFunction,SMDPad,CuDef*
G36*
X209966085Y-91931624D02*
G01*
X209990353Y-91935224D01*
X210014152Y-91941185D01*
X210037251Y-91949450D01*
X210059430Y-91959940D01*
X210080473Y-91972552D01*
X210100179Y-91987167D01*
X210118357Y-92003643D01*
X210134833Y-92021821D01*
X210149448Y-92041527D01*
X210162060Y-92062570D01*
X210172550Y-92084749D01*
X210180815Y-92107848D01*
X210186776Y-92131647D01*
X210190376Y-92155915D01*
X210191580Y-92180419D01*
X210191580Y-92830421D01*
X210190376Y-92854925D01*
X210186776Y-92879193D01*
X210180815Y-92902992D01*
X210172550Y-92926091D01*
X210162060Y-92948270D01*
X210149448Y-92969313D01*
X210134833Y-92989019D01*
X210118357Y-93007197D01*
X210100179Y-93023673D01*
X210080473Y-93038288D01*
X210059430Y-93050900D01*
X210037251Y-93061390D01*
X210014152Y-93069655D01*
X209990353Y-93075616D01*
X209966085Y-93079216D01*
X209941581Y-93080420D01*
X209041579Y-93080420D01*
X209017075Y-93079216D01*
X208992807Y-93075616D01*
X208969008Y-93069655D01*
X208945909Y-93061390D01*
X208923730Y-93050900D01*
X208902687Y-93038288D01*
X208882981Y-93023673D01*
X208864803Y-93007197D01*
X208848327Y-92989019D01*
X208833712Y-92969313D01*
X208821100Y-92948270D01*
X208810610Y-92926091D01*
X208802345Y-92902992D01*
X208796384Y-92879193D01*
X208792784Y-92854925D01*
X208791580Y-92830421D01*
X208791580Y-92180419D01*
X208792784Y-92155915D01*
X208796384Y-92131647D01*
X208802345Y-92107848D01*
X208810610Y-92084749D01*
X208821100Y-92062570D01*
X208833712Y-92041527D01*
X208848327Y-92021821D01*
X208864803Y-92003643D01*
X208882981Y-91987167D01*
X208902687Y-91972552D01*
X208923730Y-91959940D01*
X208945909Y-91949450D01*
X208969008Y-91941185D01*
X208992807Y-91935224D01*
X209017075Y-91931624D01*
X209041579Y-91930420D01*
X209941581Y-91930420D01*
X209966085Y-91931624D01*
G37*
G04 #@! TD.AperFunction*
G04 #@! TA.AperFunction,SMDPad,CuDef*
G36*
X149516625Y-97870364D02*
G01*
X149540893Y-97873964D01*
X149564692Y-97879925D01*
X149587791Y-97888190D01*
X149609970Y-97898680D01*
X149631013Y-97911292D01*
X149650719Y-97925907D01*
X149668897Y-97942383D01*
X149685373Y-97960561D01*
X149699988Y-97980267D01*
X149712600Y-98001310D01*
X149723090Y-98023489D01*
X149731355Y-98046588D01*
X149737316Y-98070387D01*
X149740916Y-98094655D01*
X149742120Y-98119159D01*
X149742120Y-98769161D01*
X149740916Y-98793665D01*
X149737316Y-98817933D01*
X149731355Y-98841732D01*
X149723090Y-98864831D01*
X149712600Y-98887010D01*
X149699988Y-98908053D01*
X149685373Y-98927759D01*
X149668897Y-98945937D01*
X149650719Y-98962413D01*
X149631013Y-98977028D01*
X149609970Y-98989640D01*
X149587791Y-99000130D01*
X149564692Y-99008395D01*
X149540893Y-99014356D01*
X149516625Y-99017956D01*
X149492121Y-99019160D01*
X148592119Y-99019160D01*
X148567615Y-99017956D01*
X148543347Y-99014356D01*
X148519548Y-99008395D01*
X148496449Y-99000130D01*
X148474270Y-98989640D01*
X148453227Y-98977028D01*
X148433521Y-98962413D01*
X148415343Y-98945937D01*
X148398867Y-98927759D01*
X148384252Y-98908053D01*
X148371640Y-98887010D01*
X148361150Y-98864831D01*
X148352885Y-98841732D01*
X148346924Y-98817933D01*
X148343324Y-98793665D01*
X148342120Y-98769161D01*
X148342120Y-98119159D01*
X148343324Y-98094655D01*
X148346924Y-98070387D01*
X148352885Y-98046588D01*
X148361150Y-98023489D01*
X148371640Y-98001310D01*
X148384252Y-97980267D01*
X148398867Y-97960561D01*
X148415343Y-97942383D01*
X148433521Y-97925907D01*
X148453227Y-97911292D01*
X148474270Y-97898680D01*
X148496449Y-97888190D01*
X148519548Y-97879925D01*
X148543347Y-97873964D01*
X148567615Y-97870364D01*
X148592119Y-97869160D01*
X149492121Y-97869160D01*
X149516625Y-97870364D01*
G37*
G04 #@! TD.AperFunction*
G04 #@! TA.AperFunction,SMDPad,CuDef*
G36*
X149516625Y-95820364D02*
G01*
X149540893Y-95823964D01*
X149564692Y-95829925D01*
X149587791Y-95838190D01*
X149609970Y-95848680D01*
X149631013Y-95861292D01*
X149650719Y-95875907D01*
X149668897Y-95892383D01*
X149685373Y-95910561D01*
X149699988Y-95930267D01*
X149712600Y-95951310D01*
X149723090Y-95973489D01*
X149731355Y-95996588D01*
X149737316Y-96020387D01*
X149740916Y-96044655D01*
X149742120Y-96069159D01*
X149742120Y-96719161D01*
X149740916Y-96743665D01*
X149737316Y-96767933D01*
X149731355Y-96791732D01*
X149723090Y-96814831D01*
X149712600Y-96837010D01*
X149699988Y-96858053D01*
X149685373Y-96877759D01*
X149668897Y-96895937D01*
X149650719Y-96912413D01*
X149631013Y-96927028D01*
X149609970Y-96939640D01*
X149587791Y-96950130D01*
X149564692Y-96958395D01*
X149540893Y-96964356D01*
X149516625Y-96967956D01*
X149492121Y-96969160D01*
X148592119Y-96969160D01*
X148567615Y-96967956D01*
X148543347Y-96964356D01*
X148519548Y-96958395D01*
X148496449Y-96950130D01*
X148474270Y-96939640D01*
X148453227Y-96927028D01*
X148433521Y-96912413D01*
X148415343Y-96895937D01*
X148398867Y-96877759D01*
X148384252Y-96858053D01*
X148371640Y-96837010D01*
X148361150Y-96814831D01*
X148352885Y-96791732D01*
X148346924Y-96767933D01*
X148343324Y-96743665D01*
X148342120Y-96719161D01*
X148342120Y-96069159D01*
X148343324Y-96044655D01*
X148346924Y-96020387D01*
X148352885Y-95996588D01*
X148361150Y-95973489D01*
X148371640Y-95951310D01*
X148384252Y-95930267D01*
X148398867Y-95910561D01*
X148415343Y-95892383D01*
X148433521Y-95875907D01*
X148453227Y-95861292D01*
X148474270Y-95848680D01*
X148496449Y-95838190D01*
X148519548Y-95829925D01*
X148543347Y-95823964D01*
X148567615Y-95820364D01*
X148592119Y-95819160D01*
X149492121Y-95819160D01*
X149516625Y-95820364D01*
G37*
G04 #@! TD.AperFunction*
G04 #@! TA.AperFunction,SMDPad,CuDef*
G36*
X117567085Y-99587764D02*
G01*
X117591353Y-99591364D01*
X117615152Y-99597325D01*
X117638251Y-99605590D01*
X117660430Y-99616080D01*
X117681473Y-99628692D01*
X117701179Y-99643307D01*
X117719357Y-99659783D01*
X117735833Y-99677961D01*
X117750448Y-99697667D01*
X117763060Y-99718710D01*
X117773550Y-99740889D01*
X117781815Y-99763988D01*
X117787776Y-99787787D01*
X117791376Y-99812055D01*
X117792580Y-99836559D01*
X117792580Y-100736561D01*
X117791376Y-100761065D01*
X117787776Y-100785333D01*
X117781815Y-100809132D01*
X117773550Y-100832231D01*
X117763060Y-100854410D01*
X117750448Y-100875453D01*
X117735833Y-100895159D01*
X117719357Y-100913337D01*
X117701179Y-100929813D01*
X117681473Y-100944428D01*
X117660430Y-100957040D01*
X117638251Y-100967530D01*
X117615152Y-100975795D01*
X117591353Y-100981756D01*
X117567085Y-100985356D01*
X117542581Y-100986560D01*
X116892579Y-100986560D01*
X116868075Y-100985356D01*
X116843807Y-100981756D01*
X116820008Y-100975795D01*
X116796909Y-100967530D01*
X116774730Y-100957040D01*
X116753687Y-100944428D01*
X116733981Y-100929813D01*
X116715803Y-100913337D01*
X116699327Y-100895159D01*
X116684712Y-100875453D01*
X116672100Y-100854410D01*
X116661610Y-100832231D01*
X116653345Y-100809132D01*
X116647384Y-100785333D01*
X116643784Y-100761065D01*
X116642580Y-100736561D01*
X116642580Y-99836559D01*
X116643784Y-99812055D01*
X116647384Y-99787787D01*
X116653345Y-99763988D01*
X116661610Y-99740889D01*
X116672100Y-99718710D01*
X116684712Y-99697667D01*
X116699327Y-99677961D01*
X116715803Y-99659783D01*
X116733981Y-99643307D01*
X116753687Y-99628692D01*
X116774730Y-99616080D01*
X116796909Y-99605590D01*
X116820008Y-99597325D01*
X116843807Y-99591364D01*
X116868075Y-99587764D01*
X116892579Y-99586560D01*
X117542581Y-99586560D01*
X117567085Y-99587764D01*
G37*
G04 #@! TD.AperFunction*
G04 #@! TA.AperFunction,SMDPad,CuDef*
G36*
X119617085Y-99587764D02*
G01*
X119641353Y-99591364D01*
X119665152Y-99597325D01*
X119688251Y-99605590D01*
X119710430Y-99616080D01*
X119731473Y-99628692D01*
X119751179Y-99643307D01*
X119769357Y-99659783D01*
X119785833Y-99677961D01*
X119800448Y-99697667D01*
X119813060Y-99718710D01*
X119823550Y-99740889D01*
X119831815Y-99763988D01*
X119837776Y-99787787D01*
X119841376Y-99812055D01*
X119842580Y-99836559D01*
X119842580Y-100736561D01*
X119841376Y-100761065D01*
X119837776Y-100785333D01*
X119831815Y-100809132D01*
X119823550Y-100832231D01*
X119813060Y-100854410D01*
X119800448Y-100875453D01*
X119785833Y-100895159D01*
X119769357Y-100913337D01*
X119751179Y-100929813D01*
X119731473Y-100944428D01*
X119710430Y-100957040D01*
X119688251Y-100967530D01*
X119665152Y-100975795D01*
X119641353Y-100981756D01*
X119617085Y-100985356D01*
X119592581Y-100986560D01*
X118942579Y-100986560D01*
X118918075Y-100985356D01*
X118893807Y-100981756D01*
X118870008Y-100975795D01*
X118846909Y-100967530D01*
X118824730Y-100957040D01*
X118803687Y-100944428D01*
X118783981Y-100929813D01*
X118765803Y-100913337D01*
X118749327Y-100895159D01*
X118734712Y-100875453D01*
X118722100Y-100854410D01*
X118711610Y-100832231D01*
X118703345Y-100809132D01*
X118697384Y-100785333D01*
X118693784Y-100761065D01*
X118692580Y-100736561D01*
X118692580Y-99836559D01*
X118693784Y-99812055D01*
X118697384Y-99787787D01*
X118703345Y-99763988D01*
X118711610Y-99740889D01*
X118722100Y-99718710D01*
X118734712Y-99697667D01*
X118749327Y-99677961D01*
X118765803Y-99659783D01*
X118783981Y-99643307D01*
X118803687Y-99628692D01*
X118824730Y-99616080D01*
X118846909Y-99605590D01*
X118870008Y-99597325D01*
X118893807Y-99591364D01*
X118918075Y-99587764D01*
X118942579Y-99586560D01*
X119592581Y-99586560D01*
X119617085Y-99587764D01*
G37*
G04 #@! TD.AperFunction*
G04 #@! TA.AperFunction,SMDPad,CuDef*
G36*
X214284085Y-95497784D02*
G01*
X214308353Y-95501384D01*
X214332152Y-95507345D01*
X214355251Y-95515610D01*
X214377430Y-95526100D01*
X214398473Y-95538712D01*
X214418179Y-95553327D01*
X214436357Y-95569803D01*
X214452833Y-95587981D01*
X214467448Y-95607687D01*
X214480060Y-95628730D01*
X214490550Y-95650909D01*
X214498815Y-95674008D01*
X214504776Y-95697807D01*
X214508376Y-95722075D01*
X214509580Y-95746579D01*
X214509580Y-96396581D01*
X214508376Y-96421085D01*
X214504776Y-96445353D01*
X214498815Y-96469152D01*
X214490550Y-96492251D01*
X214480060Y-96514430D01*
X214467448Y-96535473D01*
X214452833Y-96555179D01*
X214436357Y-96573357D01*
X214418179Y-96589833D01*
X214398473Y-96604448D01*
X214377430Y-96617060D01*
X214355251Y-96627550D01*
X214332152Y-96635815D01*
X214308353Y-96641776D01*
X214284085Y-96645376D01*
X214259581Y-96646580D01*
X213359579Y-96646580D01*
X213335075Y-96645376D01*
X213310807Y-96641776D01*
X213287008Y-96635815D01*
X213263909Y-96627550D01*
X213241730Y-96617060D01*
X213220687Y-96604448D01*
X213200981Y-96589833D01*
X213182803Y-96573357D01*
X213166327Y-96555179D01*
X213151712Y-96535473D01*
X213139100Y-96514430D01*
X213128610Y-96492251D01*
X213120345Y-96469152D01*
X213114384Y-96445353D01*
X213110784Y-96421085D01*
X213109580Y-96396581D01*
X213109580Y-95746579D01*
X213110784Y-95722075D01*
X213114384Y-95697807D01*
X213120345Y-95674008D01*
X213128610Y-95650909D01*
X213139100Y-95628730D01*
X213151712Y-95607687D01*
X213166327Y-95587981D01*
X213182803Y-95569803D01*
X213200981Y-95553327D01*
X213220687Y-95538712D01*
X213241730Y-95526100D01*
X213263909Y-95515610D01*
X213287008Y-95507345D01*
X213310807Y-95501384D01*
X213335075Y-95497784D01*
X213359579Y-95496580D01*
X214259581Y-95496580D01*
X214284085Y-95497784D01*
G37*
G04 #@! TD.AperFunction*
G04 #@! TA.AperFunction,SMDPad,CuDef*
G36*
X214284085Y-97547784D02*
G01*
X214308353Y-97551384D01*
X214332152Y-97557345D01*
X214355251Y-97565610D01*
X214377430Y-97576100D01*
X214398473Y-97588712D01*
X214418179Y-97603327D01*
X214436357Y-97619803D01*
X214452833Y-97637981D01*
X214467448Y-97657687D01*
X214480060Y-97678730D01*
X214490550Y-97700909D01*
X214498815Y-97724008D01*
X214504776Y-97747807D01*
X214508376Y-97772075D01*
X214509580Y-97796579D01*
X214509580Y-98446581D01*
X214508376Y-98471085D01*
X214504776Y-98495353D01*
X214498815Y-98519152D01*
X214490550Y-98542251D01*
X214480060Y-98564430D01*
X214467448Y-98585473D01*
X214452833Y-98605179D01*
X214436357Y-98623357D01*
X214418179Y-98639833D01*
X214398473Y-98654448D01*
X214377430Y-98667060D01*
X214355251Y-98677550D01*
X214332152Y-98685815D01*
X214308353Y-98691776D01*
X214284085Y-98695376D01*
X214259581Y-98696580D01*
X213359579Y-98696580D01*
X213335075Y-98695376D01*
X213310807Y-98691776D01*
X213287008Y-98685815D01*
X213263909Y-98677550D01*
X213241730Y-98667060D01*
X213220687Y-98654448D01*
X213200981Y-98639833D01*
X213182803Y-98623357D01*
X213166327Y-98605179D01*
X213151712Y-98585473D01*
X213139100Y-98564430D01*
X213128610Y-98542251D01*
X213120345Y-98519152D01*
X213114384Y-98495353D01*
X213110784Y-98471085D01*
X213109580Y-98446581D01*
X213109580Y-97796579D01*
X213110784Y-97772075D01*
X213114384Y-97747807D01*
X213120345Y-97724008D01*
X213128610Y-97700909D01*
X213139100Y-97678730D01*
X213151712Y-97657687D01*
X213166327Y-97637981D01*
X213182803Y-97619803D01*
X213200981Y-97603327D01*
X213220687Y-97588712D01*
X213241730Y-97576100D01*
X213263909Y-97565610D01*
X213287008Y-97557345D01*
X213310807Y-97551384D01*
X213335075Y-97547784D01*
X213359579Y-97546580D01*
X214259581Y-97546580D01*
X214284085Y-97547784D01*
G37*
G04 #@! TD.AperFunction*
G04 #@! TA.AperFunction,SMDPad,CuDef*
G36*
X122882685Y-102543484D02*
G01*
X122906953Y-102547084D01*
X122930752Y-102553045D01*
X122953851Y-102561310D01*
X122976030Y-102571800D01*
X122997073Y-102584412D01*
X123016779Y-102599027D01*
X123034957Y-102615503D01*
X123051433Y-102633681D01*
X123066048Y-102653387D01*
X123078660Y-102674430D01*
X123089150Y-102696609D01*
X123097415Y-102719708D01*
X123103376Y-102743507D01*
X123106976Y-102767775D01*
X123108180Y-102792279D01*
X123108180Y-103442281D01*
X123106976Y-103466785D01*
X123103376Y-103491053D01*
X123097415Y-103514852D01*
X123089150Y-103537951D01*
X123078660Y-103560130D01*
X123066048Y-103581173D01*
X123051433Y-103600879D01*
X123034957Y-103619057D01*
X123016779Y-103635533D01*
X122997073Y-103650148D01*
X122976030Y-103662760D01*
X122953851Y-103673250D01*
X122930752Y-103681515D01*
X122906953Y-103687476D01*
X122882685Y-103691076D01*
X122858181Y-103692280D01*
X121958179Y-103692280D01*
X121933675Y-103691076D01*
X121909407Y-103687476D01*
X121885608Y-103681515D01*
X121862509Y-103673250D01*
X121840330Y-103662760D01*
X121819287Y-103650148D01*
X121799581Y-103635533D01*
X121781403Y-103619057D01*
X121764927Y-103600879D01*
X121750312Y-103581173D01*
X121737700Y-103560130D01*
X121727210Y-103537951D01*
X121718945Y-103514852D01*
X121712984Y-103491053D01*
X121709384Y-103466785D01*
X121708180Y-103442281D01*
X121708180Y-102792279D01*
X121709384Y-102767775D01*
X121712984Y-102743507D01*
X121718945Y-102719708D01*
X121727210Y-102696609D01*
X121737700Y-102674430D01*
X121750312Y-102653387D01*
X121764927Y-102633681D01*
X121781403Y-102615503D01*
X121799581Y-102599027D01*
X121819287Y-102584412D01*
X121840330Y-102571800D01*
X121862509Y-102561310D01*
X121885608Y-102553045D01*
X121909407Y-102547084D01*
X121933675Y-102543484D01*
X121958179Y-102542280D01*
X122858181Y-102542280D01*
X122882685Y-102543484D01*
G37*
G04 #@! TD.AperFunction*
G04 #@! TA.AperFunction,SMDPad,CuDef*
G36*
X122882685Y-104593484D02*
G01*
X122906953Y-104597084D01*
X122930752Y-104603045D01*
X122953851Y-104611310D01*
X122976030Y-104621800D01*
X122997073Y-104634412D01*
X123016779Y-104649027D01*
X123034957Y-104665503D01*
X123051433Y-104683681D01*
X123066048Y-104703387D01*
X123078660Y-104724430D01*
X123089150Y-104746609D01*
X123097415Y-104769708D01*
X123103376Y-104793507D01*
X123106976Y-104817775D01*
X123108180Y-104842279D01*
X123108180Y-105492281D01*
X123106976Y-105516785D01*
X123103376Y-105541053D01*
X123097415Y-105564852D01*
X123089150Y-105587951D01*
X123078660Y-105610130D01*
X123066048Y-105631173D01*
X123051433Y-105650879D01*
X123034957Y-105669057D01*
X123016779Y-105685533D01*
X122997073Y-105700148D01*
X122976030Y-105712760D01*
X122953851Y-105723250D01*
X122930752Y-105731515D01*
X122906953Y-105737476D01*
X122882685Y-105741076D01*
X122858181Y-105742280D01*
X121958179Y-105742280D01*
X121933675Y-105741076D01*
X121909407Y-105737476D01*
X121885608Y-105731515D01*
X121862509Y-105723250D01*
X121840330Y-105712760D01*
X121819287Y-105700148D01*
X121799581Y-105685533D01*
X121781403Y-105669057D01*
X121764927Y-105650879D01*
X121750312Y-105631173D01*
X121737700Y-105610130D01*
X121727210Y-105587951D01*
X121718945Y-105564852D01*
X121712984Y-105541053D01*
X121709384Y-105516785D01*
X121708180Y-105492281D01*
X121708180Y-104842279D01*
X121709384Y-104817775D01*
X121712984Y-104793507D01*
X121718945Y-104769708D01*
X121727210Y-104746609D01*
X121737700Y-104724430D01*
X121750312Y-104703387D01*
X121764927Y-104683681D01*
X121781403Y-104665503D01*
X121799581Y-104649027D01*
X121819287Y-104634412D01*
X121840330Y-104621800D01*
X121862509Y-104611310D01*
X121885608Y-104603045D01*
X121909407Y-104597084D01*
X121933675Y-104593484D01*
X121958179Y-104592280D01*
X122858181Y-104592280D01*
X122882685Y-104593484D01*
G37*
G04 #@! TD.AperFunction*
G04 #@! TA.AperFunction,SMDPad,CuDef*
G36*
X217816465Y-92435384D02*
G01*
X217840733Y-92438984D01*
X217864532Y-92444945D01*
X217887631Y-92453210D01*
X217909810Y-92463700D01*
X217930853Y-92476312D01*
X217950559Y-92490927D01*
X217968737Y-92507403D01*
X217985213Y-92525581D01*
X217999828Y-92545287D01*
X218012440Y-92566330D01*
X218022930Y-92588509D01*
X218031195Y-92611608D01*
X218037156Y-92635407D01*
X218040756Y-92659675D01*
X218041960Y-92684179D01*
X218041960Y-93584181D01*
X218040756Y-93608685D01*
X218037156Y-93632953D01*
X218031195Y-93656752D01*
X218022930Y-93679851D01*
X218012440Y-93702030D01*
X217999828Y-93723073D01*
X217985213Y-93742779D01*
X217968737Y-93760957D01*
X217950559Y-93777433D01*
X217930853Y-93792048D01*
X217909810Y-93804660D01*
X217887631Y-93815150D01*
X217864532Y-93823415D01*
X217840733Y-93829376D01*
X217816465Y-93832976D01*
X217791961Y-93834180D01*
X217141959Y-93834180D01*
X217117455Y-93832976D01*
X217093187Y-93829376D01*
X217069388Y-93823415D01*
X217046289Y-93815150D01*
X217024110Y-93804660D01*
X217003067Y-93792048D01*
X216983361Y-93777433D01*
X216965183Y-93760957D01*
X216948707Y-93742779D01*
X216934092Y-93723073D01*
X216921480Y-93702030D01*
X216910990Y-93679851D01*
X216902725Y-93656752D01*
X216896764Y-93632953D01*
X216893164Y-93608685D01*
X216891960Y-93584181D01*
X216891960Y-92684179D01*
X216893164Y-92659675D01*
X216896764Y-92635407D01*
X216902725Y-92611608D01*
X216910990Y-92588509D01*
X216921480Y-92566330D01*
X216934092Y-92545287D01*
X216948707Y-92525581D01*
X216965183Y-92507403D01*
X216983361Y-92490927D01*
X217003067Y-92476312D01*
X217024110Y-92463700D01*
X217046289Y-92453210D01*
X217069388Y-92444945D01*
X217093187Y-92438984D01*
X217117455Y-92435384D01*
X217141959Y-92434180D01*
X217791961Y-92434180D01*
X217816465Y-92435384D01*
G37*
G04 #@! TD.AperFunction*
G04 #@! TA.AperFunction,SMDPad,CuDef*
G36*
X219866465Y-92435384D02*
G01*
X219890733Y-92438984D01*
X219914532Y-92444945D01*
X219937631Y-92453210D01*
X219959810Y-92463700D01*
X219980853Y-92476312D01*
X220000559Y-92490927D01*
X220018737Y-92507403D01*
X220035213Y-92525581D01*
X220049828Y-92545287D01*
X220062440Y-92566330D01*
X220072930Y-92588509D01*
X220081195Y-92611608D01*
X220087156Y-92635407D01*
X220090756Y-92659675D01*
X220091960Y-92684179D01*
X220091960Y-93584181D01*
X220090756Y-93608685D01*
X220087156Y-93632953D01*
X220081195Y-93656752D01*
X220072930Y-93679851D01*
X220062440Y-93702030D01*
X220049828Y-93723073D01*
X220035213Y-93742779D01*
X220018737Y-93760957D01*
X220000559Y-93777433D01*
X219980853Y-93792048D01*
X219959810Y-93804660D01*
X219937631Y-93815150D01*
X219914532Y-93823415D01*
X219890733Y-93829376D01*
X219866465Y-93832976D01*
X219841961Y-93834180D01*
X219191959Y-93834180D01*
X219167455Y-93832976D01*
X219143187Y-93829376D01*
X219119388Y-93823415D01*
X219096289Y-93815150D01*
X219074110Y-93804660D01*
X219053067Y-93792048D01*
X219033361Y-93777433D01*
X219015183Y-93760957D01*
X218998707Y-93742779D01*
X218984092Y-93723073D01*
X218971480Y-93702030D01*
X218960990Y-93679851D01*
X218952725Y-93656752D01*
X218946764Y-93632953D01*
X218943164Y-93608685D01*
X218941960Y-93584181D01*
X218941960Y-92684179D01*
X218943164Y-92659675D01*
X218946764Y-92635407D01*
X218952725Y-92611608D01*
X218960990Y-92588509D01*
X218971480Y-92566330D01*
X218984092Y-92545287D01*
X218998707Y-92525581D01*
X219015183Y-92507403D01*
X219033361Y-92490927D01*
X219053067Y-92476312D01*
X219074110Y-92463700D01*
X219096289Y-92453210D01*
X219119388Y-92444945D01*
X219143187Y-92438984D01*
X219167455Y-92435384D01*
X219191959Y-92434180D01*
X219841961Y-92434180D01*
X219866465Y-92435384D01*
G37*
G04 #@! TD.AperFunction*
G04 #@! TA.AperFunction,SMDPad,CuDef*
G36*
X102695105Y-71792804D02*
G01*
X102719373Y-71796404D01*
X102743172Y-71802365D01*
X102766271Y-71810630D01*
X102788450Y-71821120D01*
X102809493Y-71833732D01*
X102829199Y-71848347D01*
X102847377Y-71864823D01*
X102863853Y-71883001D01*
X102878468Y-71902707D01*
X102891080Y-71923750D01*
X102901570Y-71945929D01*
X102909835Y-71969028D01*
X102915796Y-71992827D01*
X102919396Y-72017095D01*
X102920600Y-72041599D01*
X102920600Y-72941601D01*
X102919396Y-72966105D01*
X102915796Y-72990373D01*
X102909835Y-73014172D01*
X102901570Y-73037271D01*
X102891080Y-73059450D01*
X102878468Y-73080493D01*
X102863853Y-73100199D01*
X102847377Y-73118377D01*
X102829199Y-73134853D01*
X102809493Y-73149468D01*
X102788450Y-73162080D01*
X102766271Y-73172570D01*
X102743172Y-73180835D01*
X102719373Y-73186796D01*
X102695105Y-73190396D01*
X102670601Y-73191600D01*
X102020599Y-73191600D01*
X101996095Y-73190396D01*
X101971827Y-73186796D01*
X101948028Y-73180835D01*
X101924929Y-73172570D01*
X101902750Y-73162080D01*
X101881707Y-73149468D01*
X101862001Y-73134853D01*
X101843823Y-73118377D01*
X101827347Y-73100199D01*
X101812732Y-73080493D01*
X101800120Y-73059450D01*
X101789630Y-73037271D01*
X101781365Y-73014172D01*
X101775404Y-72990373D01*
X101771804Y-72966105D01*
X101770600Y-72941601D01*
X101770600Y-72041599D01*
X101771804Y-72017095D01*
X101775404Y-71992827D01*
X101781365Y-71969028D01*
X101789630Y-71945929D01*
X101800120Y-71923750D01*
X101812732Y-71902707D01*
X101827347Y-71883001D01*
X101843823Y-71864823D01*
X101862001Y-71848347D01*
X101881707Y-71833732D01*
X101902750Y-71821120D01*
X101924929Y-71810630D01*
X101948028Y-71802365D01*
X101971827Y-71796404D01*
X101996095Y-71792804D01*
X102020599Y-71791600D01*
X102670601Y-71791600D01*
X102695105Y-71792804D01*
G37*
G04 #@! TD.AperFunction*
G04 #@! TA.AperFunction,SMDPad,CuDef*
G36*
X100645105Y-71792804D02*
G01*
X100669373Y-71796404D01*
X100693172Y-71802365D01*
X100716271Y-71810630D01*
X100738450Y-71821120D01*
X100759493Y-71833732D01*
X100779199Y-71848347D01*
X100797377Y-71864823D01*
X100813853Y-71883001D01*
X100828468Y-71902707D01*
X100841080Y-71923750D01*
X100851570Y-71945929D01*
X100859835Y-71969028D01*
X100865796Y-71992827D01*
X100869396Y-72017095D01*
X100870600Y-72041599D01*
X100870600Y-72941601D01*
X100869396Y-72966105D01*
X100865796Y-72990373D01*
X100859835Y-73014172D01*
X100851570Y-73037271D01*
X100841080Y-73059450D01*
X100828468Y-73080493D01*
X100813853Y-73100199D01*
X100797377Y-73118377D01*
X100779199Y-73134853D01*
X100759493Y-73149468D01*
X100738450Y-73162080D01*
X100716271Y-73172570D01*
X100693172Y-73180835D01*
X100669373Y-73186796D01*
X100645105Y-73190396D01*
X100620601Y-73191600D01*
X99970599Y-73191600D01*
X99946095Y-73190396D01*
X99921827Y-73186796D01*
X99898028Y-73180835D01*
X99874929Y-73172570D01*
X99852750Y-73162080D01*
X99831707Y-73149468D01*
X99812001Y-73134853D01*
X99793823Y-73118377D01*
X99777347Y-73100199D01*
X99762732Y-73080493D01*
X99750120Y-73059450D01*
X99739630Y-73037271D01*
X99731365Y-73014172D01*
X99725404Y-72990373D01*
X99721804Y-72966105D01*
X99720600Y-72941601D01*
X99720600Y-72041599D01*
X99721804Y-72017095D01*
X99725404Y-71992827D01*
X99731365Y-71969028D01*
X99739630Y-71945929D01*
X99750120Y-71923750D01*
X99762732Y-71902707D01*
X99777347Y-71883001D01*
X99793823Y-71864823D01*
X99812001Y-71848347D01*
X99831707Y-71833732D01*
X99852750Y-71821120D01*
X99874929Y-71810630D01*
X99898028Y-71802365D01*
X99921827Y-71796404D01*
X99946095Y-71792804D01*
X99970599Y-71791600D01*
X100620601Y-71791600D01*
X100645105Y-71792804D01*
G37*
G04 #@! TD.AperFunction*
G04 #@! TA.AperFunction,SMDPad,CuDef*
G36*
X84662805Y-67329404D02*
G01*
X84687073Y-67333004D01*
X84710872Y-67338965D01*
X84733971Y-67347230D01*
X84756150Y-67357720D01*
X84777193Y-67370332D01*
X84796899Y-67384947D01*
X84815077Y-67401423D01*
X84831553Y-67419601D01*
X84846168Y-67439307D01*
X84858780Y-67460350D01*
X84869270Y-67482529D01*
X84877535Y-67505628D01*
X84883496Y-67529427D01*
X84887096Y-67553695D01*
X84888300Y-67578199D01*
X84888300Y-68228201D01*
X84887096Y-68252705D01*
X84883496Y-68276973D01*
X84877535Y-68300772D01*
X84869270Y-68323871D01*
X84858780Y-68346050D01*
X84846168Y-68367093D01*
X84831553Y-68386799D01*
X84815077Y-68404977D01*
X84796899Y-68421453D01*
X84777193Y-68436068D01*
X84756150Y-68448680D01*
X84733971Y-68459170D01*
X84710872Y-68467435D01*
X84687073Y-68473396D01*
X84662805Y-68476996D01*
X84638301Y-68478200D01*
X83738299Y-68478200D01*
X83713795Y-68476996D01*
X83689527Y-68473396D01*
X83665728Y-68467435D01*
X83642629Y-68459170D01*
X83620450Y-68448680D01*
X83599407Y-68436068D01*
X83579701Y-68421453D01*
X83561523Y-68404977D01*
X83545047Y-68386799D01*
X83530432Y-68367093D01*
X83517820Y-68346050D01*
X83507330Y-68323871D01*
X83499065Y-68300772D01*
X83493104Y-68276973D01*
X83489504Y-68252705D01*
X83488300Y-68228201D01*
X83488300Y-67578199D01*
X83489504Y-67553695D01*
X83493104Y-67529427D01*
X83499065Y-67505628D01*
X83507330Y-67482529D01*
X83517820Y-67460350D01*
X83530432Y-67439307D01*
X83545047Y-67419601D01*
X83561523Y-67401423D01*
X83579701Y-67384947D01*
X83599407Y-67370332D01*
X83620450Y-67357720D01*
X83642629Y-67347230D01*
X83665728Y-67338965D01*
X83689527Y-67333004D01*
X83713795Y-67329404D01*
X83738299Y-67328200D01*
X84638301Y-67328200D01*
X84662805Y-67329404D01*
G37*
G04 #@! TD.AperFunction*
G04 #@! TA.AperFunction,SMDPad,CuDef*
G36*
X84662805Y-65279404D02*
G01*
X84687073Y-65283004D01*
X84710872Y-65288965D01*
X84733971Y-65297230D01*
X84756150Y-65307720D01*
X84777193Y-65320332D01*
X84796899Y-65334947D01*
X84815077Y-65351423D01*
X84831553Y-65369601D01*
X84846168Y-65389307D01*
X84858780Y-65410350D01*
X84869270Y-65432529D01*
X84877535Y-65455628D01*
X84883496Y-65479427D01*
X84887096Y-65503695D01*
X84888300Y-65528199D01*
X84888300Y-66178201D01*
X84887096Y-66202705D01*
X84883496Y-66226973D01*
X84877535Y-66250772D01*
X84869270Y-66273871D01*
X84858780Y-66296050D01*
X84846168Y-66317093D01*
X84831553Y-66336799D01*
X84815077Y-66354977D01*
X84796899Y-66371453D01*
X84777193Y-66386068D01*
X84756150Y-66398680D01*
X84733971Y-66409170D01*
X84710872Y-66417435D01*
X84687073Y-66423396D01*
X84662805Y-66426996D01*
X84638301Y-66428200D01*
X83738299Y-66428200D01*
X83713795Y-66426996D01*
X83689527Y-66423396D01*
X83665728Y-66417435D01*
X83642629Y-66409170D01*
X83620450Y-66398680D01*
X83599407Y-66386068D01*
X83579701Y-66371453D01*
X83561523Y-66354977D01*
X83545047Y-66336799D01*
X83530432Y-66317093D01*
X83517820Y-66296050D01*
X83507330Y-66273871D01*
X83499065Y-66250772D01*
X83493104Y-66226973D01*
X83489504Y-66202705D01*
X83488300Y-66178201D01*
X83488300Y-65528199D01*
X83489504Y-65503695D01*
X83493104Y-65479427D01*
X83499065Y-65455628D01*
X83507330Y-65432529D01*
X83517820Y-65410350D01*
X83530432Y-65389307D01*
X83545047Y-65369601D01*
X83561523Y-65351423D01*
X83579701Y-65334947D01*
X83599407Y-65320332D01*
X83620450Y-65307720D01*
X83642629Y-65297230D01*
X83665728Y-65288965D01*
X83689527Y-65283004D01*
X83713795Y-65279404D01*
X83738299Y-65278200D01*
X84638301Y-65278200D01*
X84662805Y-65279404D01*
G37*
G04 #@! TD.AperFunction*
D30*
X108708940Y-131101240D03*
X108708940Y-105501240D03*
X224815400Y-135073300D03*
X224815400Y-109473300D03*
D31*
X182223460Y-122880120D03*
X176673460Y-122880120D03*
D32*
X173172120Y-79909940D03*
X173172120Y-89309940D03*
D24*
X81948500Y-52070000D03*
X109948500Y-52070000D03*
D33*
X149089599Y-134502000D03*
D34*
X149089599Y-127002000D03*
X154392899Y-129198700D03*
X156589599Y-134502000D03*
X154392899Y-139805300D03*
X149089599Y-142002000D03*
X143786299Y-139805300D03*
X141589599Y-134502000D03*
X143786299Y-129198700D03*
D35*
X149089599Y-114502000D03*
D36*
X167457120Y-97168820D03*
X167457120Y-94368820D03*
D13*
X120640700Y-65132300D03*
D14*
X120290700Y-62852300D03*
D13*
X120640700Y-60572300D03*
D15*
X113505700Y-62852300D03*
G04 #@! TA.AperFunction,SMDPad,CuDef*
D22*
G36*
X125298764Y-138463644D02*
G01*
X125323033Y-138467244D01*
X125346831Y-138473205D01*
X125369931Y-138481470D01*
X125392109Y-138491960D01*
X125413153Y-138504573D01*
X125432858Y-138519187D01*
X125451037Y-138535663D01*
X125467513Y-138553842D01*
X125482127Y-138573547D01*
X125494740Y-138594591D01*
X125505230Y-138616769D01*
X125513495Y-138639869D01*
X125519456Y-138663667D01*
X125523056Y-138687936D01*
X125524260Y-138712440D01*
X125524260Y-140712440D01*
X125523056Y-140736944D01*
X125519456Y-140761213D01*
X125513495Y-140785011D01*
X125505230Y-140808111D01*
X125494740Y-140830289D01*
X125482127Y-140851333D01*
X125467513Y-140871038D01*
X125451037Y-140889217D01*
X125432858Y-140905693D01*
X125413153Y-140920307D01*
X125392109Y-140932920D01*
X125369931Y-140943410D01*
X125346831Y-140951675D01*
X125323033Y-140957636D01*
X125298764Y-140961236D01*
X125274260Y-140962440D01*
X121774260Y-140962440D01*
X121749756Y-140961236D01*
X121725487Y-140957636D01*
X121701689Y-140951675D01*
X121678589Y-140943410D01*
X121656411Y-140932920D01*
X121635367Y-140920307D01*
X121615662Y-140905693D01*
X121597483Y-140889217D01*
X121581007Y-140871038D01*
X121566393Y-140851333D01*
X121553780Y-140830289D01*
X121543290Y-140808111D01*
X121535025Y-140785011D01*
X121529064Y-140761213D01*
X121525464Y-140736944D01*
X121524260Y-140712440D01*
X121524260Y-138712440D01*
X121525464Y-138687936D01*
X121529064Y-138663667D01*
X121535025Y-138639869D01*
X121543290Y-138616769D01*
X121553780Y-138594591D01*
X121566393Y-138573547D01*
X121581007Y-138553842D01*
X121597483Y-138535663D01*
X121615662Y-138519187D01*
X121635367Y-138504573D01*
X121656411Y-138491960D01*
X121678589Y-138481470D01*
X121701689Y-138473205D01*
X121725487Y-138467244D01*
X121749756Y-138463644D01*
X121774260Y-138462440D01*
X125274260Y-138462440D01*
X125298764Y-138463644D01*
G37*
G04 #@! TD.AperFunction*
G04 #@! TA.AperFunction,SMDPad,CuDef*
G36*
X117298764Y-138463644D02*
G01*
X117323033Y-138467244D01*
X117346831Y-138473205D01*
X117369931Y-138481470D01*
X117392109Y-138491960D01*
X117413153Y-138504573D01*
X117432858Y-138519187D01*
X117451037Y-138535663D01*
X117467513Y-138553842D01*
X117482127Y-138573547D01*
X117494740Y-138594591D01*
X117505230Y-138616769D01*
X117513495Y-138639869D01*
X117519456Y-138663667D01*
X117523056Y-138687936D01*
X117524260Y-138712440D01*
X117524260Y-140712440D01*
X117523056Y-140736944D01*
X117519456Y-140761213D01*
X117513495Y-140785011D01*
X117505230Y-140808111D01*
X117494740Y-140830289D01*
X117482127Y-140851333D01*
X117467513Y-140871038D01*
X117451037Y-140889217D01*
X117432858Y-140905693D01*
X117413153Y-140920307D01*
X117392109Y-140932920D01*
X117369931Y-140943410D01*
X117346831Y-140951675D01*
X117323033Y-140957636D01*
X117298764Y-140961236D01*
X117274260Y-140962440D01*
X113774260Y-140962440D01*
X113749756Y-140961236D01*
X113725487Y-140957636D01*
X113701689Y-140951675D01*
X113678589Y-140943410D01*
X113656411Y-140932920D01*
X113635367Y-140920307D01*
X113615662Y-140905693D01*
X113597483Y-140889217D01*
X113581007Y-140871038D01*
X113566393Y-140851333D01*
X113553780Y-140830289D01*
X113543290Y-140808111D01*
X113535025Y-140785011D01*
X113529064Y-140761213D01*
X113525464Y-140736944D01*
X113524260Y-140712440D01*
X113524260Y-138712440D01*
X113525464Y-138687936D01*
X113529064Y-138663667D01*
X113535025Y-138639869D01*
X113543290Y-138616769D01*
X113553780Y-138594591D01*
X113566393Y-138573547D01*
X113581007Y-138553842D01*
X113597483Y-138535663D01*
X113615662Y-138519187D01*
X113635367Y-138504573D01*
X113656411Y-138491960D01*
X113678589Y-138481470D01*
X113701689Y-138473205D01*
X113725487Y-138467244D01*
X113749756Y-138463644D01*
X113774260Y-138462440D01*
X117274260Y-138462440D01*
X117298764Y-138463644D01*
G37*
G04 #@! TD.AperFunction*
G04 #@! TA.AperFunction,SMDPad,CuDef*
G36*
X217948124Y-138020984D02*
G01*
X217972393Y-138024584D01*
X217996191Y-138030545D01*
X218019291Y-138038810D01*
X218041469Y-138049300D01*
X218062513Y-138061913D01*
X218082218Y-138076527D01*
X218100397Y-138093003D01*
X218116873Y-138111182D01*
X218131487Y-138130887D01*
X218144100Y-138151931D01*
X218154590Y-138174109D01*
X218162855Y-138197209D01*
X218168816Y-138221007D01*
X218172416Y-138245276D01*
X218173620Y-138269780D01*
X218173620Y-141269780D01*
X218172416Y-141294284D01*
X218168816Y-141318553D01*
X218162855Y-141342351D01*
X218154590Y-141365451D01*
X218144100Y-141387629D01*
X218131487Y-141408673D01*
X218116873Y-141428378D01*
X218100397Y-141446557D01*
X218082218Y-141463033D01*
X218062513Y-141477647D01*
X218041469Y-141490260D01*
X218019291Y-141500750D01*
X217996191Y-141509015D01*
X217972393Y-141514976D01*
X217948124Y-141518576D01*
X217923620Y-141519780D01*
X215923620Y-141519780D01*
X215899116Y-141518576D01*
X215874847Y-141514976D01*
X215851049Y-141509015D01*
X215827949Y-141500750D01*
X215805771Y-141490260D01*
X215784727Y-141477647D01*
X215765022Y-141463033D01*
X215746843Y-141446557D01*
X215730367Y-141428378D01*
X215715753Y-141408673D01*
X215703140Y-141387629D01*
X215692650Y-141365451D01*
X215684385Y-141342351D01*
X215678424Y-141318553D01*
X215674824Y-141294284D01*
X215673620Y-141269780D01*
X215673620Y-138269780D01*
X215674824Y-138245276D01*
X215678424Y-138221007D01*
X215684385Y-138197209D01*
X215692650Y-138174109D01*
X215703140Y-138151931D01*
X215715753Y-138130887D01*
X215730367Y-138111182D01*
X215746843Y-138093003D01*
X215765022Y-138076527D01*
X215784727Y-138061913D01*
X215805771Y-138049300D01*
X215827949Y-138038810D01*
X215851049Y-138030545D01*
X215874847Y-138024584D01*
X215899116Y-138020984D01*
X215923620Y-138019780D01*
X217923620Y-138019780D01*
X217948124Y-138020984D01*
G37*
G04 #@! TD.AperFunction*
G04 #@! TA.AperFunction,SMDPad,CuDef*
G36*
X217948124Y-144520984D02*
G01*
X217972393Y-144524584D01*
X217996191Y-144530545D01*
X218019291Y-144538810D01*
X218041469Y-144549300D01*
X218062513Y-144561913D01*
X218082218Y-144576527D01*
X218100397Y-144593003D01*
X218116873Y-144611182D01*
X218131487Y-144630887D01*
X218144100Y-144651931D01*
X218154590Y-144674109D01*
X218162855Y-144697209D01*
X218168816Y-144721007D01*
X218172416Y-144745276D01*
X218173620Y-144769780D01*
X218173620Y-147769780D01*
X218172416Y-147794284D01*
X218168816Y-147818553D01*
X218162855Y-147842351D01*
X218154590Y-147865451D01*
X218144100Y-147887629D01*
X218131487Y-147908673D01*
X218116873Y-147928378D01*
X218100397Y-147946557D01*
X218082218Y-147963033D01*
X218062513Y-147977647D01*
X218041469Y-147990260D01*
X218019291Y-148000750D01*
X217996191Y-148009015D01*
X217972393Y-148014976D01*
X217948124Y-148018576D01*
X217923620Y-148019780D01*
X215923620Y-148019780D01*
X215899116Y-148018576D01*
X215874847Y-148014976D01*
X215851049Y-148009015D01*
X215827949Y-148000750D01*
X215805771Y-147990260D01*
X215784727Y-147977647D01*
X215765022Y-147963033D01*
X215746843Y-147946557D01*
X215730367Y-147928378D01*
X215715753Y-147908673D01*
X215703140Y-147887629D01*
X215692650Y-147865451D01*
X215684385Y-147842351D01*
X215678424Y-147818553D01*
X215674824Y-147794284D01*
X215673620Y-147769780D01*
X215673620Y-144769780D01*
X215674824Y-144745276D01*
X215678424Y-144721007D01*
X215684385Y-144697209D01*
X215692650Y-144674109D01*
X215703140Y-144651931D01*
X215715753Y-144630887D01*
X215730367Y-144611182D01*
X215746843Y-144593003D01*
X215765022Y-144576527D01*
X215784727Y-144561913D01*
X215805771Y-144549300D01*
X215827949Y-144538810D01*
X215851049Y-144530545D01*
X215874847Y-144524584D01*
X215899116Y-144520984D01*
X215923620Y-144519780D01*
X217923620Y-144519780D01*
X217948124Y-144520984D01*
G37*
G04 #@! TD.AperFunction*
G04 #@! TA.AperFunction,SMDPad,CuDef*
G36*
X207419305Y-124990184D02*
G01*
X207443573Y-124993784D01*
X207467372Y-124999745D01*
X207490471Y-125008010D01*
X207512650Y-125018500D01*
X207533693Y-125031112D01*
X207553399Y-125045727D01*
X207571577Y-125062203D01*
X207588053Y-125080381D01*
X207602668Y-125100087D01*
X207615280Y-125121130D01*
X207625770Y-125143309D01*
X207634035Y-125166408D01*
X207639996Y-125190207D01*
X207643596Y-125214475D01*
X207644800Y-125238979D01*
X207644800Y-126138981D01*
X207643596Y-126163485D01*
X207639996Y-126187753D01*
X207634035Y-126211552D01*
X207625770Y-126234651D01*
X207615280Y-126256830D01*
X207602668Y-126277873D01*
X207588053Y-126297579D01*
X207571577Y-126315757D01*
X207553399Y-126332233D01*
X207533693Y-126346848D01*
X207512650Y-126359460D01*
X207490471Y-126369950D01*
X207467372Y-126378215D01*
X207443573Y-126384176D01*
X207419305Y-126387776D01*
X207394801Y-126388980D01*
X206744799Y-126388980D01*
X206720295Y-126387776D01*
X206696027Y-126384176D01*
X206672228Y-126378215D01*
X206649129Y-126369950D01*
X206626950Y-126359460D01*
X206605907Y-126346848D01*
X206586201Y-126332233D01*
X206568023Y-126315757D01*
X206551547Y-126297579D01*
X206536932Y-126277873D01*
X206524320Y-126256830D01*
X206513830Y-126234651D01*
X206505565Y-126211552D01*
X206499604Y-126187753D01*
X206496004Y-126163485D01*
X206494800Y-126138981D01*
X206494800Y-125238979D01*
X206496004Y-125214475D01*
X206499604Y-125190207D01*
X206505565Y-125166408D01*
X206513830Y-125143309D01*
X206524320Y-125121130D01*
X206536932Y-125100087D01*
X206551547Y-125080381D01*
X206568023Y-125062203D01*
X206586201Y-125045727D01*
X206605907Y-125031112D01*
X206626950Y-125018500D01*
X206649129Y-125008010D01*
X206672228Y-124999745D01*
X206696027Y-124993784D01*
X206720295Y-124990184D01*
X206744799Y-124988980D01*
X207394801Y-124988980D01*
X207419305Y-124990184D01*
G37*
G04 #@! TD.AperFunction*
G04 #@! TA.AperFunction,SMDPad,CuDef*
G36*
X205369305Y-124990184D02*
G01*
X205393573Y-124993784D01*
X205417372Y-124999745D01*
X205440471Y-125008010D01*
X205462650Y-125018500D01*
X205483693Y-125031112D01*
X205503399Y-125045727D01*
X205521577Y-125062203D01*
X205538053Y-125080381D01*
X205552668Y-125100087D01*
X205565280Y-125121130D01*
X205575770Y-125143309D01*
X205584035Y-125166408D01*
X205589996Y-125190207D01*
X205593596Y-125214475D01*
X205594800Y-125238979D01*
X205594800Y-126138981D01*
X205593596Y-126163485D01*
X205589996Y-126187753D01*
X205584035Y-126211552D01*
X205575770Y-126234651D01*
X205565280Y-126256830D01*
X205552668Y-126277873D01*
X205538053Y-126297579D01*
X205521577Y-126315757D01*
X205503399Y-126332233D01*
X205483693Y-126346848D01*
X205462650Y-126359460D01*
X205440471Y-126369950D01*
X205417372Y-126378215D01*
X205393573Y-126384176D01*
X205369305Y-126387776D01*
X205344801Y-126388980D01*
X204694799Y-126388980D01*
X204670295Y-126387776D01*
X204646027Y-126384176D01*
X204622228Y-126378215D01*
X204599129Y-126369950D01*
X204576950Y-126359460D01*
X204555907Y-126346848D01*
X204536201Y-126332233D01*
X204518023Y-126315757D01*
X204501547Y-126297579D01*
X204486932Y-126277873D01*
X204474320Y-126256830D01*
X204463830Y-126234651D01*
X204455565Y-126211552D01*
X204449604Y-126187753D01*
X204446004Y-126163485D01*
X204444800Y-126138981D01*
X204444800Y-125238979D01*
X204446004Y-125214475D01*
X204449604Y-125190207D01*
X204455565Y-125166408D01*
X204463830Y-125143309D01*
X204474320Y-125121130D01*
X204486932Y-125100087D01*
X204501547Y-125080381D01*
X204518023Y-125062203D01*
X204536201Y-125045727D01*
X204555907Y-125031112D01*
X204576950Y-125018500D01*
X204599129Y-125008010D01*
X204622228Y-124999745D01*
X204646027Y-124993784D01*
X204670295Y-124990184D01*
X204694799Y-124988980D01*
X205344801Y-124988980D01*
X205369305Y-124990184D01*
G37*
G04 #@! TD.AperFunction*
G04 #@! TA.AperFunction,SMDPad,CuDef*
G36*
X177186244Y-104248764D02*
G01*
X177210513Y-104252364D01*
X177234311Y-104258325D01*
X177257411Y-104266590D01*
X177279589Y-104277080D01*
X177300633Y-104289693D01*
X177320338Y-104304307D01*
X177338517Y-104320783D01*
X177354993Y-104338962D01*
X177369607Y-104358667D01*
X177382220Y-104379711D01*
X177392710Y-104401889D01*
X177400975Y-104424989D01*
X177406936Y-104448787D01*
X177410536Y-104473056D01*
X177411740Y-104497560D01*
X177411740Y-106647560D01*
X177410536Y-106672064D01*
X177406936Y-106696333D01*
X177400975Y-106720131D01*
X177392710Y-106743231D01*
X177382220Y-106765409D01*
X177369607Y-106786453D01*
X177354993Y-106806158D01*
X177338517Y-106824337D01*
X177320338Y-106840813D01*
X177300633Y-106855427D01*
X177279589Y-106868040D01*
X177257411Y-106878530D01*
X177234311Y-106886795D01*
X177210513Y-106892756D01*
X177186244Y-106896356D01*
X177161740Y-106897560D01*
X176236740Y-106897560D01*
X176212236Y-106896356D01*
X176187967Y-106892756D01*
X176164169Y-106886795D01*
X176141069Y-106878530D01*
X176118891Y-106868040D01*
X176097847Y-106855427D01*
X176078142Y-106840813D01*
X176059963Y-106824337D01*
X176043487Y-106806158D01*
X176028873Y-106786453D01*
X176016260Y-106765409D01*
X176005770Y-106743231D01*
X175997505Y-106720131D01*
X175991544Y-106696333D01*
X175987944Y-106672064D01*
X175986740Y-106647560D01*
X175986740Y-104497560D01*
X175987944Y-104473056D01*
X175991544Y-104448787D01*
X175997505Y-104424989D01*
X176005770Y-104401889D01*
X176016260Y-104379711D01*
X176028873Y-104358667D01*
X176043487Y-104338962D01*
X176059963Y-104320783D01*
X176078142Y-104304307D01*
X176097847Y-104289693D01*
X176118891Y-104277080D01*
X176141069Y-104266590D01*
X176164169Y-104258325D01*
X176187967Y-104252364D01*
X176212236Y-104248764D01*
X176236740Y-104247560D01*
X177161740Y-104247560D01*
X177186244Y-104248764D01*
G37*
G04 #@! TD.AperFunction*
G04 #@! TA.AperFunction,SMDPad,CuDef*
G36*
X174211244Y-104248764D02*
G01*
X174235513Y-104252364D01*
X174259311Y-104258325D01*
X174282411Y-104266590D01*
X174304589Y-104277080D01*
X174325633Y-104289693D01*
X174345338Y-104304307D01*
X174363517Y-104320783D01*
X174379993Y-104338962D01*
X174394607Y-104358667D01*
X174407220Y-104379711D01*
X174417710Y-104401889D01*
X174425975Y-104424989D01*
X174431936Y-104448787D01*
X174435536Y-104473056D01*
X174436740Y-104497560D01*
X174436740Y-106647560D01*
X174435536Y-106672064D01*
X174431936Y-106696333D01*
X174425975Y-106720131D01*
X174417710Y-106743231D01*
X174407220Y-106765409D01*
X174394607Y-106786453D01*
X174379993Y-106806158D01*
X174363517Y-106824337D01*
X174345338Y-106840813D01*
X174325633Y-106855427D01*
X174304589Y-106868040D01*
X174282411Y-106878530D01*
X174259311Y-106886795D01*
X174235513Y-106892756D01*
X174211244Y-106896356D01*
X174186740Y-106897560D01*
X173261740Y-106897560D01*
X173237236Y-106896356D01*
X173212967Y-106892756D01*
X173189169Y-106886795D01*
X173166069Y-106878530D01*
X173143891Y-106868040D01*
X173122847Y-106855427D01*
X173103142Y-106840813D01*
X173084963Y-106824337D01*
X173068487Y-106806158D01*
X173053873Y-106786453D01*
X173041260Y-106765409D01*
X173030770Y-106743231D01*
X173022505Y-106720131D01*
X173016544Y-106696333D01*
X173012944Y-106672064D01*
X173011740Y-106647560D01*
X173011740Y-104497560D01*
X173012944Y-104473056D01*
X173016544Y-104448787D01*
X173022505Y-104424989D01*
X173030770Y-104401889D01*
X173041260Y-104379711D01*
X173053873Y-104358667D01*
X173068487Y-104338962D01*
X173084963Y-104320783D01*
X173103142Y-104304307D01*
X173122847Y-104289693D01*
X173143891Y-104277080D01*
X173166069Y-104266590D01*
X173189169Y-104258325D01*
X173212967Y-104252364D01*
X173237236Y-104248764D01*
X173261740Y-104247560D01*
X174186740Y-104247560D01*
X174211244Y-104248764D01*
G37*
G04 #@! TD.AperFunction*
G04 #@! TA.AperFunction,SMDPad,CuDef*
G36*
X154192765Y-102344464D02*
G01*
X154217033Y-102348064D01*
X154240832Y-102354025D01*
X154263931Y-102362290D01*
X154286110Y-102372780D01*
X154307153Y-102385392D01*
X154326859Y-102400007D01*
X154345037Y-102416483D01*
X154361513Y-102434661D01*
X154376128Y-102454367D01*
X154388740Y-102475410D01*
X154399230Y-102497589D01*
X154407495Y-102520688D01*
X154413456Y-102544487D01*
X154417056Y-102568755D01*
X154418260Y-102593259D01*
X154418260Y-103243261D01*
X154417056Y-103267765D01*
X154413456Y-103292033D01*
X154407495Y-103315832D01*
X154399230Y-103338931D01*
X154388740Y-103361110D01*
X154376128Y-103382153D01*
X154361513Y-103401859D01*
X154345037Y-103420037D01*
X154326859Y-103436513D01*
X154307153Y-103451128D01*
X154286110Y-103463740D01*
X154263931Y-103474230D01*
X154240832Y-103482495D01*
X154217033Y-103488456D01*
X154192765Y-103492056D01*
X154168261Y-103493260D01*
X153268259Y-103493260D01*
X153243755Y-103492056D01*
X153219487Y-103488456D01*
X153195688Y-103482495D01*
X153172589Y-103474230D01*
X153150410Y-103463740D01*
X153129367Y-103451128D01*
X153109661Y-103436513D01*
X153091483Y-103420037D01*
X153075007Y-103401859D01*
X153060392Y-103382153D01*
X153047780Y-103361110D01*
X153037290Y-103338931D01*
X153029025Y-103315832D01*
X153023064Y-103292033D01*
X153019464Y-103267765D01*
X153018260Y-103243261D01*
X153018260Y-102593259D01*
X153019464Y-102568755D01*
X153023064Y-102544487D01*
X153029025Y-102520688D01*
X153037290Y-102497589D01*
X153047780Y-102475410D01*
X153060392Y-102454367D01*
X153075007Y-102434661D01*
X153091483Y-102416483D01*
X153109661Y-102400007D01*
X153129367Y-102385392D01*
X153150410Y-102372780D01*
X153172589Y-102362290D01*
X153195688Y-102354025D01*
X153219487Y-102348064D01*
X153243755Y-102344464D01*
X153268259Y-102343260D01*
X154168261Y-102343260D01*
X154192765Y-102344464D01*
G37*
G04 #@! TD.AperFunction*
G04 #@! TA.AperFunction,SMDPad,CuDef*
G36*
X154192765Y-100294464D02*
G01*
X154217033Y-100298064D01*
X154240832Y-100304025D01*
X154263931Y-100312290D01*
X154286110Y-100322780D01*
X154307153Y-100335392D01*
X154326859Y-100350007D01*
X154345037Y-100366483D01*
X154361513Y-100384661D01*
X154376128Y-100404367D01*
X154388740Y-100425410D01*
X154399230Y-100447589D01*
X154407495Y-100470688D01*
X154413456Y-100494487D01*
X154417056Y-100518755D01*
X154418260Y-100543259D01*
X154418260Y-101193261D01*
X154417056Y-101217765D01*
X154413456Y-101242033D01*
X154407495Y-101265832D01*
X154399230Y-101288931D01*
X154388740Y-101311110D01*
X154376128Y-101332153D01*
X154361513Y-101351859D01*
X154345037Y-101370037D01*
X154326859Y-101386513D01*
X154307153Y-101401128D01*
X154286110Y-101413740D01*
X154263931Y-101424230D01*
X154240832Y-101432495D01*
X154217033Y-101438456D01*
X154192765Y-101442056D01*
X154168261Y-101443260D01*
X153268259Y-101443260D01*
X153243755Y-101442056D01*
X153219487Y-101438456D01*
X153195688Y-101432495D01*
X153172589Y-101424230D01*
X153150410Y-101413740D01*
X153129367Y-101401128D01*
X153109661Y-101386513D01*
X153091483Y-101370037D01*
X153075007Y-101351859D01*
X153060392Y-101332153D01*
X153047780Y-101311110D01*
X153037290Y-101288931D01*
X153029025Y-101265832D01*
X153023064Y-101242033D01*
X153019464Y-101217765D01*
X153018260Y-101193261D01*
X153018260Y-100543259D01*
X153019464Y-100518755D01*
X153023064Y-100494487D01*
X153029025Y-100470688D01*
X153037290Y-100447589D01*
X153047780Y-100425410D01*
X153060392Y-100404367D01*
X153075007Y-100384661D01*
X153091483Y-100366483D01*
X153109661Y-100350007D01*
X153129367Y-100335392D01*
X153150410Y-100322780D01*
X153172589Y-100312290D01*
X153195688Y-100304025D01*
X153219487Y-100298064D01*
X153243755Y-100294464D01*
X153268259Y-100293260D01*
X154168261Y-100293260D01*
X154192765Y-100294464D01*
G37*
G04 #@! TD.AperFunction*
G04 #@! TA.AperFunction,SMDPad,CuDef*
G36*
X144787765Y-93801904D02*
G01*
X144812033Y-93805504D01*
X144835832Y-93811465D01*
X144858931Y-93819730D01*
X144881110Y-93830220D01*
X144902153Y-93842832D01*
X144921859Y-93857447D01*
X144940037Y-93873923D01*
X144956513Y-93892101D01*
X144971128Y-93911807D01*
X144983740Y-93932850D01*
X144994230Y-93955029D01*
X145002495Y-93978128D01*
X145008456Y-94001927D01*
X145012056Y-94026195D01*
X145013260Y-94050699D01*
X145013260Y-94950701D01*
X145012056Y-94975205D01*
X145008456Y-94999473D01*
X145002495Y-95023272D01*
X144994230Y-95046371D01*
X144983740Y-95068550D01*
X144971128Y-95089593D01*
X144956513Y-95109299D01*
X144940037Y-95127477D01*
X144921859Y-95143953D01*
X144902153Y-95158568D01*
X144881110Y-95171180D01*
X144858931Y-95181670D01*
X144835832Y-95189935D01*
X144812033Y-95195896D01*
X144787765Y-95199496D01*
X144763261Y-95200700D01*
X144113259Y-95200700D01*
X144088755Y-95199496D01*
X144064487Y-95195896D01*
X144040688Y-95189935D01*
X144017589Y-95181670D01*
X143995410Y-95171180D01*
X143974367Y-95158568D01*
X143954661Y-95143953D01*
X143936483Y-95127477D01*
X143920007Y-95109299D01*
X143905392Y-95089593D01*
X143892780Y-95068550D01*
X143882290Y-95046371D01*
X143874025Y-95023272D01*
X143868064Y-94999473D01*
X143864464Y-94975205D01*
X143863260Y-94950701D01*
X143863260Y-94050699D01*
X143864464Y-94026195D01*
X143868064Y-94001927D01*
X143874025Y-93978128D01*
X143882290Y-93955029D01*
X143892780Y-93932850D01*
X143905392Y-93911807D01*
X143920007Y-93892101D01*
X143936483Y-93873923D01*
X143954661Y-93857447D01*
X143974367Y-93842832D01*
X143995410Y-93830220D01*
X144017589Y-93819730D01*
X144040688Y-93811465D01*
X144064487Y-93805504D01*
X144088755Y-93801904D01*
X144113259Y-93800700D01*
X144763261Y-93800700D01*
X144787765Y-93801904D01*
G37*
G04 #@! TD.AperFunction*
G04 #@! TA.AperFunction,SMDPad,CuDef*
G36*
X146837765Y-93801904D02*
G01*
X146862033Y-93805504D01*
X146885832Y-93811465D01*
X146908931Y-93819730D01*
X146931110Y-93830220D01*
X146952153Y-93842832D01*
X146971859Y-93857447D01*
X146990037Y-93873923D01*
X147006513Y-93892101D01*
X147021128Y-93911807D01*
X147033740Y-93932850D01*
X147044230Y-93955029D01*
X147052495Y-93978128D01*
X147058456Y-94001927D01*
X147062056Y-94026195D01*
X147063260Y-94050699D01*
X147063260Y-94950701D01*
X147062056Y-94975205D01*
X147058456Y-94999473D01*
X147052495Y-95023272D01*
X147044230Y-95046371D01*
X147033740Y-95068550D01*
X147021128Y-95089593D01*
X147006513Y-95109299D01*
X146990037Y-95127477D01*
X146971859Y-95143953D01*
X146952153Y-95158568D01*
X146931110Y-95171180D01*
X146908931Y-95181670D01*
X146885832Y-95189935D01*
X146862033Y-95195896D01*
X146837765Y-95199496D01*
X146813261Y-95200700D01*
X146163259Y-95200700D01*
X146138755Y-95199496D01*
X146114487Y-95195896D01*
X146090688Y-95189935D01*
X146067589Y-95181670D01*
X146045410Y-95171180D01*
X146024367Y-95158568D01*
X146004661Y-95143953D01*
X145986483Y-95127477D01*
X145970007Y-95109299D01*
X145955392Y-95089593D01*
X145942780Y-95068550D01*
X145932290Y-95046371D01*
X145924025Y-95023272D01*
X145918064Y-94999473D01*
X145914464Y-94975205D01*
X145913260Y-94950701D01*
X145913260Y-94050699D01*
X145914464Y-94026195D01*
X145918064Y-94001927D01*
X145924025Y-93978128D01*
X145932290Y-93955029D01*
X145942780Y-93932850D01*
X145955392Y-93911807D01*
X145970007Y-93892101D01*
X145986483Y-93873923D01*
X146004661Y-93857447D01*
X146024367Y-93842832D01*
X146045410Y-93830220D01*
X146067589Y-93819730D01*
X146090688Y-93811465D01*
X146114487Y-93805504D01*
X146138755Y-93801904D01*
X146163259Y-93800700D01*
X146813261Y-93800700D01*
X146837765Y-93801904D01*
G37*
G04 #@! TD.AperFunction*
G04 #@! TA.AperFunction,SMDPad,CuDef*
G36*
X159652164Y-81461624D02*
G01*
X159676433Y-81465224D01*
X159700231Y-81471185D01*
X159723331Y-81479450D01*
X159745509Y-81489940D01*
X159766553Y-81502553D01*
X159786258Y-81517167D01*
X159804437Y-81533643D01*
X159820913Y-81551822D01*
X159835527Y-81571527D01*
X159848140Y-81592571D01*
X159858630Y-81614749D01*
X159866895Y-81637849D01*
X159872856Y-81661647D01*
X159876456Y-81685916D01*
X159877660Y-81710420D01*
X159877660Y-84710420D01*
X159876456Y-84734924D01*
X159872856Y-84759193D01*
X159866895Y-84782991D01*
X159858630Y-84806091D01*
X159848140Y-84828269D01*
X159835527Y-84849313D01*
X159820913Y-84869018D01*
X159804437Y-84887197D01*
X159786258Y-84903673D01*
X159766553Y-84918287D01*
X159745509Y-84930900D01*
X159723331Y-84941390D01*
X159700231Y-84949655D01*
X159676433Y-84955616D01*
X159652164Y-84959216D01*
X159627660Y-84960420D01*
X158527660Y-84960420D01*
X158503156Y-84959216D01*
X158478887Y-84955616D01*
X158455089Y-84949655D01*
X158431989Y-84941390D01*
X158409811Y-84930900D01*
X158388767Y-84918287D01*
X158369062Y-84903673D01*
X158350883Y-84887197D01*
X158334407Y-84869018D01*
X158319793Y-84849313D01*
X158307180Y-84828269D01*
X158296690Y-84806091D01*
X158288425Y-84782991D01*
X158282464Y-84759193D01*
X158278864Y-84734924D01*
X158277660Y-84710420D01*
X158277660Y-81710420D01*
X158278864Y-81685916D01*
X158282464Y-81661647D01*
X158288425Y-81637849D01*
X158296690Y-81614749D01*
X158307180Y-81592571D01*
X158319793Y-81571527D01*
X158334407Y-81551822D01*
X158350883Y-81533643D01*
X158369062Y-81517167D01*
X158388767Y-81502553D01*
X158409811Y-81489940D01*
X158431989Y-81479450D01*
X158455089Y-81471185D01*
X158478887Y-81465224D01*
X158503156Y-81461624D01*
X158527660Y-81460420D01*
X159627660Y-81460420D01*
X159652164Y-81461624D01*
G37*
G04 #@! TD.AperFunction*
G04 #@! TA.AperFunction,SMDPad,CuDef*
G36*
X159652164Y-86861624D02*
G01*
X159676433Y-86865224D01*
X159700231Y-86871185D01*
X159723331Y-86879450D01*
X159745509Y-86889940D01*
X159766553Y-86902553D01*
X159786258Y-86917167D01*
X159804437Y-86933643D01*
X159820913Y-86951822D01*
X159835527Y-86971527D01*
X159848140Y-86992571D01*
X159858630Y-87014749D01*
X159866895Y-87037849D01*
X159872856Y-87061647D01*
X159876456Y-87085916D01*
X159877660Y-87110420D01*
X159877660Y-90110420D01*
X159876456Y-90134924D01*
X159872856Y-90159193D01*
X159866895Y-90182991D01*
X159858630Y-90206091D01*
X159848140Y-90228269D01*
X159835527Y-90249313D01*
X159820913Y-90269018D01*
X159804437Y-90287197D01*
X159786258Y-90303673D01*
X159766553Y-90318287D01*
X159745509Y-90330900D01*
X159723331Y-90341390D01*
X159700231Y-90349655D01*
X159676433Y-90355616D01*
X159652164Y-90359216D01*
X159627660Y-90360420D01*
X158527660Y-90360420D01*
X158503156Y-90359216D01*
X158478887Y-90355616D01*
X158455089Y-90349655D01*
X158431989Y-90341390D01*
X158409811Y-90330900D01*
X158388767Y-90318287D01*
X158369062Y-90303673D01*
X158350883Y-90287197D01*
X158334407Y-90269018D01*
X158319793Y-90249313D01*
X158307180Y-90228269D01*
X158296690Y-90206091D01*
X158288425Y-90182991D01*
X158282464Y-90159193D01*
X158278864Y-90134924D01*
X158277660Y-90110420D01*
X158277660Y-87110420D01*
X158278864Y-87085916D01*
X158282464Y-87061647D01*
X158288425Y-87037849D01*
X158296690Y-87014749D01*
X158307180Y-86992571D01*
X158319793Y-86971527D01*
X158334407Y-86951822D01*
X158350883Y-86933643D01*
X158369062Y-86917167D01*
X158388767Y-86902553D01*
X158409811Y-86889940D01*
X158431989Y-86879450D01*
X158455089Y-86871185D01*
X158478887Y-86865224D01*
X158503156Y-86861624D01*
X158527660Y-86860420D01*
X159627660Y-86860420D01*
X159652164Y-86861624D01*
G37*
G04 #@! TD.AperFunction*
G04 #@! TA.AperFunction,SMDPad,CuDef*
G36*
X149181345Y-88086064D02*
G01*
X149205613Y-88089664D01*
X149229412Y-88095625D01*
X149252511Y-88103890D01*
X149274690Y-88114380D01*
X149295733Y-88126992D01*
X149315439Y-88141607D01*
X149333617Y-88158083D01*
X149350093Y-88176261D01*
X149364708Y-88195967D01*
X149377320Y-88217010D01*
X149387810Y-88239189D01*
X149396075Y-88262288D01*
X149402036Y-88286087D01*
X149405636Y-88310355D01*
X149406840Y-88334859D01*
X149406840Y-88984861D01*
X149405636Y-89009365D01*
X149402036Y-89033633D01*
X149396075Y-89057432D01*
X149387810Y-89080531D01*
X149377320Y-89102710D01*
X149364708Y-89123753D01*
X149350093Y-89143459D01*
X149333617Y-89161637D01*
X149315439Y-89178113D01*
X149295733Y-89192728D01*
X149274690Y-89205340D01*
X149252511Y-89215830D01*
X149229412Y-89224095D01*
X149205613Y-89230056D01*
X149181345Y-89233656D01*
X149156841Y-89234860D01*
X148256839Y-89234860D01*
X148232335Y-89233656D01*
X148208067Y-89230056D01*
X148184268Y-89224095D01*
X148161169Y-89215830D01*
X148138990Y-89205340D01*
X148117947Y-89192728D01*
X148098241Y-89178113D01*
X148080063Y-89161637D01*
X148063587Y-89143459D01*
X148048972Y-89123753D01*
X148036360Y-89102710D01*
X148025870Y-89080531D01*
X148017605Y-89057432D01*
X148011644Y-89033633D01*
X148008044Y-89009365D01*
X148006840Y-88984861D01*
X148006840Y-88334859D01*
X148008044Y-88310355D01*
X148011644Y-88286087D01*
X148017605Y-88262288D01*
X148025870Y-88239189D01*
X148036360Y-88217010D01*
X148048972Y-88195967D01*
X148063587Y-88176261D01*
X148080063Y-88158083D01*
X148098241Y-88141607D01*
X148117947Y-88126992D01*
X148138990Y-88114380D01*
X148161169Y-88103890D01*
X148184268Y-88095625D01*
X148208067Y-88089664D01*
X148232335Y-88086064D01*
X148256839Y-88084860D01*
X149156841Y-88084860D01*
X149181345Y-88086064D01*
G37*
G04 #@! TD.AperFunction*
G04 #@! TA.AperFunction,SMDPad,CuDef*
G36*
X149181345Y-90136064D02*
G01*
X149205613Y-90139664D01*
X149229412Y-90145625D01*
X149252511Y-90153890D01*
X149274690Y-90164380D01*
X149295733Y-90176992D01*
X149315439Y-90191607D01*
X149333617Y-90208083D01*
X149350093Y-90226261D01*
X149364708Y-90245967D01*
X149377320Y-90267010D01*
X149387810Y-90289189D01*
X149396075Y-90312288D01*
X149402036Y-90336087D01*
X149405636Y-90360355D01*
X149406840Y-90384859D01*
X149406840Y-91034861D01*
X149405636Y-91059365D01*
X149402036Y-91083633D01*
X149396075Y-91107432D01*
X149387810Y-91130531D01*
X149377320Y-91152710D01*
X149364708Y-91173753D01*
X149350093Y-91193459D01*
X149333617Y-91211637D01*
X149315439Y-91228113D01*
X149295733Y-91242728D01*
X149274690Y-91255340D01*
X149252511Y-91265830D01*
X149229412Y-91274095D01*
X149205613Y-91280056D01*
X149181345Y-91283656D01*
X149156841Y-91284860D01*
X148256839Y-91284860D01*
X148232335Y-91283656D01*
X148208067Y-91280056D01*
X148184268Y-91274095D01*
X148161169Y-91265830D01*
X148138990Y-91255340D01*
X148117947Y-91242728D01*
X148098241Y-91228113D01*
X148080063Y-91211637D01*
X148063587Y-91193459D01*
X148048972Y-91173753D01*
X148036360Y-91152710D01*
X148025870Y-91130531D01*
X148017605Y-91107432D01*
X148011644Y-91083633D01*
X148008044Y-91059365D01*
X148006840Y-91034861D01*
X148006840Y-90384859D01*
X148008044Y-90360355D01*
X148011644Y-90336087D01*
X148017605Y-90312288D01*
X148025870Y-90289189D01*
X148036360Y-90267010D01*
X148048972Y-90245967D01*
X148063587Y-90226261D01*
X148080063Y-90208083D01*
X148098241Y-90191607D01*
X148117947Y-90176992D01*
X148138990Y-90164380D01*
X148161169Y-90153890D01*
X148184268Y-90145625D01*
X148208067Y-90139664D01*
X148232335Y-90136064D01*
X148256839Y-90134860D01*
X149156841Y-90134860D01*
X149181345Y-90136064D01*
G37*
G04 #@! TD.AperFunction*
G04 #@! TA.AperFunction,SMDPad,CuDef*
G36*
X67946903Y-49955204D02*
G01*
X67971172Y-49958804D01*
X67994970Y-49964765D01*
X68018070Y-49973030D01*
X68040249Y-49983520D01*
X68061292Y-49996133D01*
X68080998Y-50010748D01*
X68099176Y-50027224D01*
X68115652Y-50045402D01*
X68130267Y-50065108D01*
X68142880Y-50086151D01*
X68153370Y-50108330D01*
X68161635Y-50131430D01*
X68167596Y-50155228D01*
X68171196Y-50179497D01*
X68172400Y-50204001D01*
X68172400Y-51878999D01*
X68171196Y-51903503D01*
X68167596Y-51927772D01*
X68161635Y-51951570D01*
X68153370Y-51974670D01*
X68142880Y-51996849D01*
X68130267Y-52017892D01*
X68115652Y-52037598D01*
X68099176Y-52055776D01*
X68080998Y-52072252D01*
X68061292Y-52086867D01*
X68040249Y-52099480D01*
X68018070Y-52109970D01*
X67994970Y-52118235D01*
X67971172Y-52124196D01*
X67946903Y-52127796D01*
X67922399Y-52129000D01*
X65122401Y-52129000D01*
X65097897Y-52127796D01*
X65073628Y-52124196D01*
X65049830Y-52118235D01*
X65026730Y-52109970D01*
X65004551Y-52099480D01*
X64983508Y-52086867D01*
X64963802Y-52072252D01*
X64945624Y-52055776D01*
X64929148Y-52037598D01*
X64914533Y-52017892D01*
X64901920Y-51996849D01*
X64891430Y-51974670D01*
X64883165Y-51951570D01*
X64877204Y-51927772D01*
X64873604Y-51903503D01*
X64872400Y-51878999D01*
X64872400Y-50204001D01*
X64873604Y-50179497D01*
X64877204Y-50155228D01*
X64883165Y-50131430D01*
X64891430Y-50108330D01*
X64901920Y-50086151D01*
X64914533Y-50065108D01*
X64929148Y-50045402D01*
X64945624Y-50027224D01*
X64963802Y-50010748D01*
X64983508Y-49996133D01*
X65004551Y-49983520D01*
X65026730Y-49973030D01*
X65049830Y-49964765D01*
X65073628Y-49958804D01*
X65097897Y-49955204D01*
X65122401Y-49954000D01*
X67922399Y-49954000D01*
X67946903Y-49955204D01*
G37*
G04 #@! TD.AperFunction*
G04 #@! TA.AperFunction,SMDPad,CuDef*
G36*
X67946903Y-56330204D02*
G01*
X67971172Y-56333804D01*
X67994970Y-56339765D01*
X68018070Y-56348030D01*
X68040249Y-56358520D01*
X68061292Y-56371133D01*
X68080998Y-56385748D01*
X68099176Y-56402224D01*
X68115652Y-56420402D01*
X68130267Y-56440108D01*
X68142880Y-56461151D01*
X68153370Y-56483330D01*
X68161635Y-56506430D01*
X68167596Y-56530228D01*
X68171196Y-56554497D01*
X68172400Y-56579001D01*
X68172400Y-58253999D01*
X68171196Y-58278503D01*
X68167596Y-58302772D01*
X68161635Y-58326570D01*
X68153370Y-58349670D01*
X68142880Y-58371849D01*
X68130267Y-58392892D01*
X68115652Y-58412598D01*
X68099176Y-58430776D01*
X68080998Y-58447252D01*
X68061292Y-58461867D01*
X68040249Y-58474480D01*
X68018070Y-58484970D01*
X67994970Y-58493235D01*
X67971172Y-58499196D01*
X67946903Y-58502796D01*
X67922399Y-58504000D01*
X65122401Y-58504000D01*
X65097897Y-58502796D01*
X65073628Y-58499196D01*
X65049830Y-58493235D01*
X65026730Y-58484970D01*
X65004551Y-58474480D01*
X64983508Y-58461867D01*
X64963802Y-58447252D01*
X64945624Y-58430776D01*
X64929148Y-58412598D01*
X64914533Y-58392892D01*
X64901920Y-58371849D01*
X64891430Y-58349670D01*
X64883165Y-58326570D01*
X64877204Y-58302772D01*
X64873604Y-58278503D01*
X64872400Y-58253999D01*
X64872400Y-56579001D01*
X64873604Y-56554497D01*
X64877204Y-56530228D01*
X64883165Y-56506430D01*
X64891430Y-56483330D01*
X64901920Y-56461151D01*
X64914533Y-56440108D01*
X64929148Y-56420402D01*
X64945624Y-56402224D01*
X64963802Y-56385748D01*
X64983508Y-56371133D01*
X65004551Y-56358520D01*
X65026730Y-56348030D01*
X65049830Y-56339765D01*
X65073628Y-56333804D01*
X65097897Y-56330204D01*
X65122401Y-56329000D01*
X67922399Y-56329000D01*
X67946903Y-56330204D01*
G37*
G04 #@! TD.AperFunction*
D23*
X164985700Y-114503200D03*
X156476700Y-114503200D03*
X132600700Y-114503200D03*
X141109700Y-114503200D03*
X128422400Y-72783700D03*
X119913400Y-72783700D03*
D37*
X234088240Y-63457520D03*
X234088240Y-61957520D03*
X234838240Y-62707520D03*
X167284640Y-55850220D03*
X167284640Y-54350220D03*
X232930140Y-78904920D03*
X230930140Y-78904920D03*
X223220600Y-63460060D03*
X222470600Y-62710060D03*
X166784640Y-55100220D03*
X223220600Y-61960060D03*
X203393040Y-55443120D03*
X199710040Y-55417720D03*
X188445140Y-43651920D03*
X186445140Y-49651920D03*
X188445140Y-45651920D03*
X184445140Y-47651920D03*
X186445140Y-43651920D03*
X184445140Y-43651920D03*
X186445140Y-47651920D03*
X188445140Y-47651920D03*
X186445140Y-45651920D03*
X184445140Y-45651920D03*
X184445140Y-49651920D03*
X192445140Y-47651920D03*
X192445140Y-43651920D03*
X192445140Y-49651920D03*
X190445140Y-47651920D03*
X190445140Y-45651920D03*
X231930140Y-79154920D03*
X190445140Y-43651920D03*
X192445140Y-45651920D03*
X190445140Y-49651920D03*
X175629000Y-68057460D03*
X188450220Y-59410600D03*
X188445140Y-49651920D03*
X189204600Y-58625740D03*
X187945840Y-58587640D03*
X174879000Y-62735460D03*
X174879000Y-67307460D03*
X175629000Y-66557460D03*
X175629000Y-63485460D03*
X175629000Y-61985460D03*
X185031380Y-58902600D03*
X181747160Y-56466740D03*
X181747160Y-53548280D03*
X79283740Y-124572020D03*
X77783740Y-124572020D03*
X78533740Y-125072020D03*
X67085440Y-103411520D03*
X73085440Y-105411520D03*
X69085440Y-103411520D03*
X71085440Y-107411520D03*
X67085440Y-105411520D03*
X67085440Y-107411520D03*
X71085440Y-105411520D03*
X71085440Y-103411520D03*
X69085440Y-105411520D03*
X69085440Y-107411520D03*
X73085440Y-107411520D03*
X71085440Y-99411520D03*
X67085440Y-99411520D03*
X73085440Y-99411520D03*
X71085440Y-101411520D03*
X69085440Y-101411520D03*
X67085440Y-101411520D03*
X69085440Y-99411520D03*
X73085440Y-101411520D03*
X82844120Y-103406440D03*
X73085440Y-103411520D03*
X82059260Y-102652060D03*
X82021160Y-103910820D03*
X82336120Y-106825280D03*
X81836120Y-107825280D03*
X79900260Y-110109500D03*
X76981800Y-110109500D03*
X203384900Y-106331240D03*
X206303360Y-106331240D03*
X151391620Y-93149420D03*
X160655000Y-93088460D03*
X142519400Y-94460060D03*
X149052280Y-104470200D03*
X153682700Y-104470200D03*
X172211740Y-104572560D03*
X171711740Y-105572560D03*
X172211740Y-106572560D03*
X203690220Y-125005720D03*
X203685140Y-126384940D03*
X216923620Y-149519780D03*
X216173620Y-148769780D03*
X217673620Y-148769780D03*
X224815400Y-139377420D03*
X226315400Y-139127420D03*
X227815400Y-137627420D03*
X223315400Y-139127420D03*
X209476340Y-90883740D03*
X221625160Y-93172280D03*
X213837520Y-99407980D03*
X205687360Y-120793260D03*
X204187360Y-120793260D03*
X204937360Y-121293260D03*
X199488540Y-99633260D03*
X193488540Y-103633260D03*
X197488540Y-101633260D03*
X197488540Y-99633260D03*
X199488540Y-103633260D03*
X195488540Y-97633260D03*
X197488540Y-95633260D03*
X193488540Y-97633260D03*
X195488540Y-95633260D03*
X193488540Y-99633260D03*
X199488540Y-101633260D03*
X195488540Y-99633260D03*
X193488540Y-101633260D03*
X195488540Y-103633260D03*
X199488540Y-95633260D03*
X197488540Y-97633260D03*
X199488540Y-97633260D03*
X197488540Y-103633260D03*
X193488540Y-95633260D03*
X209247220Y-99628180D03*
X208462360Y-98873800D03*
X195488540Y-101633260D03*
X208739220Y-103047020D03*
X208239220Y-104047020D03*
X232978700Y-103994460D03*
X232228700Y-103244460D03*
X232228700Y-104744460D03*
X232978700Y-99422460D03*
X232228700Y-100172460D03*
X232228700Y-98672460D03*
X115316500Y-100233220D03*
X92722880Y-113704680D03*
X87400880Y-114454680D03*
X91972880Y-114454680D03*
X91222880Y-113704680D03*
X88150880Y-113704680D03*
X86650880Y-113704680D03*
X80415880Y-92301560D03*
X127024260Y-139712440D03*
X126274260Y-138962440D03*
X126274260Y-140462440D03*
X184031380Y-58402600D03*
X114421160Y-69481320D03*
X122823540Y-59826460D03*
X123573540Y-60576460D03*
X122823540Y-61326460D03*
X122823540Y-65898460D03*
X123573540Y-65148460D03*
X122823540Y-64398460D03*
X64364300Y-65926400D03*
X63614300Y-65176400D03*
X64364300Y-64426400D03*
X75231940Y-64423860D03*
X75981940Y-65173860D03*
X75231940Y-65923860D03*
X113421160Y-68981320D03*
X131667900Y-72783700D03*
X131167900Y-73533700D03*
X131167900Y-72033700D03*
X66522400Y-48729000D03*
X67522400Y-48979000D03*
X65522400Y-48979000D03*
X110007400Y-78232000D03*
X110002320Y-68473320D03*
X109247940Y-69258180D03*
X110506700Y-69296280D03*
X116705380Y-71417180D03*
X116705380Y-74335640D03*
X98742500Y-72466200D03*
X95059500Y-72440800D03*
X207244700Y-140189700D03*
X204704700Y-129189700D03*
X207244700Y-129189700D03*
X205746100Y-140189700D03*
X203206100Y-129189700D03*
X205746100Y-129189700D03*
X90151200Y-140253200D03*
X88652600Y-140253200D03*
X91192600Y-140253200D03*
X93732600Y-140253200D03*
X96272600Y-140253200D03*
X92691200Y-140253200D03*
X95231200Y-140253200D03*
X97771200Y-140253200D03*
X88652600Y-129253200D03*
X90151200Y-129253200D03*
X97771200Y-129253200D03*
X95231200Y-129253200D03*
X93732600Y-129253200D03*
X92691200Y-129253200D03*
X91192600Y-129253200D03*
X96272600Y-129253200D03*
X129855200Y-113503200D03*
X129355200Y-114503200D03*
X129855200Y-115503200D03*
X168231200Y-114503200D03*
X167731200Y-115503200D03*
X167731200Y-113503200D03*
X112007400Y-78232000D03*
X114007400Y-78232000D03*
X110007400Y-80232000D03*
X112007400Y-80232000D03*
X114007400Y-80232000D03*
X110007400Y-82232000D03*
X112007400Y-82232000D03*
X114007400Y-82232000D03*
X110007400Y-84232000D03*
X112007400Y-84232000D03*
X114007400Y-84232000D03*
X108007400Y-78232000D03*
X106007400Y-78232000D03*
X106007400Y-80232000D03*
X106007400Y-82232000D03*
X106007400Y-84232000D03*
X108007400Y-80232000D03*
X108007400Y-82232000D03*
X108007400Y-84232000D03*
X151089599Y-120770400D03*
X147089599Y-120770400D03*
X145675399Y-120184600D03*
X152503799Y-120184600D03*
X153089599Y-118770400D03*
X145089599Y-118770400D03*
X149089599Y-120770400D03*
X151089599Y-108212000D03*
X147089599Y-108212000D03*
X153089599Y-110212000D03*
X145089599Y-110212000D03*
X149089599Y-108212000D03*
X145675399Y-108797800D03*
X152503799Y-108797800D03*
X161409380Y-95638620D03*
X148709380Y-86951820D03*
X158469940Y-80736060D03*
X159672680Y-80736060D03*
X173172120Y-76609940D03*
X174922120Y-76609940D03*
X171422120Y-76609940D03*
X208424260Y-100132560D03*
X148689060Y-92014040D03*
X216173620Y-137269780D03*
X216923620Y-136519780D03*
X221815400Y-137627420D03*
D38*
X234272555Y-62707520D02*
X232195140Y-62707520D01*
X234838240Y-62707520D02*
X234272555Y-62707520D01*
D39*
X232195140Y-62707520D02*
X233338240Y-62707520D01*
D38*
X233338240Y-62707520D02*
X234088240Y-63457520D01*
X233338240Y-62707520D02*
X234088240Y-61957520D01*
X223968060Y-62707520D02*
X223220600Y-61960060D01*
X223973140Y-62707520D02*
X223220600Y-63460060D01*
D39*
X225095140Y-62707520D02*
X223968060Y-62707520D01*
D38*
X174879000Y-67307460D02*
X177807680Y-67307460D01*
D39*
X177807680Y-67307460D02*
X177811840Y-67311620D01*
D38*
X176383160Y-67311620D02*
X175629000Y-66557460D01*
D39*
X177811840Y-67311620D02*
X176383160Y-67311620D01*
X174895160Y-62751620D02*
X174879000Y-62735460D01*
D38*
X176374840Y-67311620D02*
X175629000Y-68057460D01*
D39*
X177811840Y-67311620D02*
X176374840Y-67311620D01*
D38*
X177811840Y-62751620D02*
X174895160Y-62751620D01*
D39*
X177811840Y-62751620D02*
X176362840Y-62751620D01*
D38*
X176362840Y-62751620D02*
X175629000Y-63485460D01*
X188445140Y-57866280D02*
X189204600Y-58625740D01*
D39*
X188445140Y-55426920D02*
X188445140Y-57866280D01*
X188445140Y-57838340D02*
X188445140Y-55426920D01*
D38*
X188445140Y-55426920D02*
X188445140Y-59405520D01*
D39*
X188445140Y-59405520D02*
X188450220Y-59410600D01*
X177811840Y-62751620D02*
X176395160Y-62751620D01*
D38*
X176395160Y-62751620D02*
X175629000Y-61985460D01*
D39*
X203393040Y-55443120D02*
X205047740Y-55443120D01*
X199710040Y-55417720D02*
X198182340Y-55417720D01*
X198182340Y-55417720D02*
X198156940Y-55392320D01*
D40*
X232930140Y-78904920D02*
X232930140Y-77842420D01*
D39*
X232930140Y-77842420D02*
X231930140Y-76842420D01*
D40*
X230930140Y-78904920D02*
X230930140Y-77842420D01*
D39*
X230930140Y-77842420D02*
X231930140Y-76842420D01*
D38*
X225095140Y-62707520D02*
X222473140Y-62707520D01*
D39*
X222473140Y-62707520D02*
X222470600Y-62710060D01*
D40*
X231930140Y-76842420D02*
X231930140Y-79154920D01*
X170030140Y-55100220D02*
X166784640Y-55100220D01*
D39*
X169280140Y-55850220D02*
X170030140Y-55100220D01*
D41*
X167284640Y-55850220D02*
X169280140Y-55850220D01*
D39*
X169280140Y-54350220D02*
X170030140Y-55100220D01*
D38*
X181747160Y-56466740D02*
X181747160Y-53548280D01*
D42*
X178539140Y-55100220D02*
X184718440Y-55100220D01*
D39*
X184718440Y-55100220D02*
X185045140Y-55426920D01*
D38*
X185031380Y-58902600D02*
X185031380Y-55440680D01*
D39*
X185031380Y-55440680D02*
X185045140Y-55426920D01*
D38*
X81299800Y-103411520D02*
X82059260Y-102652060D01*
X78860440Y-103411520D02*
X82839040Y-103411520D01*
D40*
X78533740Y-121826520D02*
X78533740Y-125072020D01*
D39*
X79283740Y-122576520D02*
X78533740Y-121826520D01*
D41*
X79283740Y-124572020D02*
X79283740Y-122576520D01*
D39*
X77783740Y-122576520D02*
X78533740Y-121826520D01*
D41*
X77783740Y-124572020D02*
X77783740Y-122576520D01*
D38*
X79900260Y-110109500D02*
X76981800Y-110109500D01*
D42*
X78533740Y-113317520D02*
X78533740Y-107138220D01*
D38*
X82336120Y-106825280D02*
X78874200Y-106825280D01*
X206303360Y-106331240D02*
X203384900Y-106331240D01*
D40*
X204937360Y-118047760D02*
X204937360Y-121293260D01*
D39*
X205687360Y-118797760D02*
X204937360Y-118047760D01*
D41*
X205687360Y-120793260D02*
X205687360Y-118797760D01*
D39*
X204187360Y-118797760D02*
X204937360Y-118047760D01*
D41*
X204187360Y-120793260D02*
X204187360Y-118797760D01*
D38*
X207702900Y-99633260D02*
X208462360Y-98873800D01*
X205263540Y-99633260D02*
X209242140Y-99633260D01*
D42*
X204936840Y-109539260D02*
X204936840Y-103359960D01*
D38*
X208239220Y-104047020D02*
X207225460Y-103033260D01*
X208739220Y-103047020D02*
X205277300Y-103047020D01*
X231474540Y-99418300D02*
X232228700Y-100172460D01*
X231462540Y-103978300D02*
X232228700Y-104744460D01*
X232978700Y-99422460D02*
X230050020Y-99422460D01*
X230045860Y-103978300D02*
X232962540Y-103978300D01*
X231482860Y-99418300D02*
X232228700Y-98672460D01*
X231494860Y-103978300D02*
X232228700Y-103244460D01*
X91972880Y-114454680D02*
X91972880Y-111526000D01*
D39*
X91972880Y-111526000D02*
X91977040Y-111521840D01*
D38*
X91977040Y-112950520D02*
X91222880Y-113704680D01*
D39*
X91977040Y-111521840D02*
X91977040Y-112950520D01*
X87417040Y-114438520D02*
X87400880Y-114454680D01*
D38*
X91977040Y-112958840D02*
X92722880Y-113704680D01*
D39*
X91977040Y-111521840D02*
X91977040Y-112958840D01*
D38*
X87417040Y-111521840D02*
X87417040Y-114438520D01*
D39*
X87417040Y-111521840D02*
X87417040Y-112970840D01*
D38*
X87417040Y-112970840D02*
X88150880Y-113704680D01*
D39*
X87417040Y-111521840D02*
X87417040Y-112938520D01*
D38*
X87417040Y-112938520D02*
X86650880Y-113704680D01*
D39*
X87898740Y-102588540D02*
X89697040Y-104386840D01*
D38*
X81836120Y-107825280D02*
X80822360Y-106811520D01*
D42*
X224055940Y-75813920D02*
X216504040Y-75813920D01*
X225097340Y-74772520D02*
X224055940Y-75813920D01*
D39*
X225095140Y-65207520D02*
X225095140Y-65392640D01*
D42*
X225097340Y-65394840D02*
X225097340Y-74772520D01*
D39*
X225095140Y-65392640D02*
X225097340Y-65394840D01*
X225095140Y-65207520D02*
X216866040Y-65207520D01*
X214264240Y-62605720D02*
X214264240Y-62030720D01*
X216866040Y-65207520D02*
X214264240Y-62605720D01*
D38*
X232195140Y-65207520D02*
X232195140Y-70202420D01*
D39*
X232195140Y-70202420D02*
X231930140Y-70467420D01*
X220842840Y-75813920D02*
X216504040Y-75813920D01*
D43*
X186745140Y-55426920D02*
X186745140Y-63233320D01*
D39*
X186745140Y-63233320D02*
X184946840Y-65031620D01*
D44*
X184939940Y-74239120D02*
X184939940Y-68438520D01*
D39*
X188504040Y-75813920D02*
X186514740Y-75813920D01*
D44*
X184946840Y-68431620D02*
X184946840Y-65031620D01*
D39*
X184939940Y-68438520D02*
X184946840Y-68431620D01*
D44*
X184939940Y-75725020D02*
X184939940Y-74239120D01*
D39*
X185028840Y-75813920D02*
X184939940Y-75725020D01*
X188504040Y-75813920D02*
X185028840Y-75813920D01*
X214264240Y-59980720D02*
X214264240Y-59405720D01*
X210301640Y-55443120D02*
X207097740Y-55443120D01*
X214264240Y-59405720D02*
X210301640Y-55443120D01*
X207097740Y-56143120D02*
X203594040Y-59646820D01*
X191815040Y-59646820D02*
X190145140Y-57976920D01*
X207097740Y-55443120D02*
X207097740Y-56143120D01*
X203594040Y-59646820D02*
X191815040Y-59646820D01*
X190145140Y-57976920D02*
X190145140Y-55426920D01*
X191845140Y-55426920D02*
X196072340Y-55426920D01*
X196072340Y-55426920D02*
X196106940Y-55392320D01*
X164985700Y-114503200D02*
X165862000Y-114503200D01*
D38*
X165862000Y-114503200D02*
X168231200Y-114503200D01*
X167731200Y-115503200D02*
X166731200Y-114503200D01*
D39*
X166731200Y-114503200D02*
X164985700Y-114503200D01*
D38*
X167731200Y-113503200D02*
X166731200Y-114503200D01*
X129355200Y-114503200D02*
X132600700Y-114503200D01*
X129855200Y-113503200D02*
X130855200Y-114503200D01*
D39*
X130855200Y-114503200D02*
X132600700Y-114503200D01*
D38*
X129855200Y-115503200D02*
X130855200Y-114503200D01*
D39*
X89409800Y-134794400D02*
X89409800Y-131244400D01*
X89409800Y-134794400D02*
X89409800Y-138344400D01*
X206420200Y-131244400D02*
X206420200Y-134794400D01*
X206420200Y-134794400D02*
X206420200Y-138344400D01*
D40*
X89409800Y-139496000D02*
X88652600Y-140253200D01*
X89409800Y-138344400D02*
X89409800Y-139496000D01*
X89409800Y-139511800D02*
X90151200Y-140253200D01*
D39*
X89409800Y-138344400D02*
X89409800Y-139511800D01*
D40*
X91909800Y-139536000D02*
X91192600Y-140253200D01*
X91909800Y-138344400D02*
X91909800Y-139536000D01*
X91909800Y-139471800D02*
X92691200Y-140253200D01*
D39*
X91909800Y-138344400D02*
X91909800Y-139471800D01*
X89409800Y-131244400D02*
X89409800Y-130999700D01*
X89052599Y-129653199D02*
X89052599Y-129654999D01*
D40*
X88652600Y-129253200D02*
X89052599Y-129653199D01*
X89409800Y-130012200D02*
X89409800Y-131244400D01*
X89052599Y-129654999D02*
X89409800Y-130012200D01*
D39*
X89409800Y-129994600D02*
X89409800Y-130012200D01*
D40*
X90151200Y-129253200D02*
X89409800Y-129994600D01*
D39*
X91192600Y-129253200D02*
X91178100Y-129253200D01*
X91592599Y-129653199D02*
X91592599Y-129654999D01*
D40*
X91192600Y-129253200D02*
X91592599Y-129653199D01*
X91909800Y-129972200D02*
X91909800Y-131244400D01*
X91592599Y-129654999D02*
X91909800Y-129972200D01*
X91972200Y-129972200D02*
X91909800Y-129972200D01*
X92691200Y-129253200D02*
X91972200Y-129972200D01*
D43*
X206420200Y-139515600D02*
X205746100Y-140189700D01*
X206420200Y-138344400D02*
X206420200Y-139515600D01*
X206420200Y-139365200D02*
X207244700Y-140189700D01*
D39*
X206420200Y-138344400D02*
X206420200Y-139365200D01*
D43*
X206420200Y-129863800D02*
X205746100Y-129189700D01*
X206420200Y-130014200D02*
X207244700Y-129189700D01*
D40*
X206420200Y-130066800D02*
X206420200Y-129863800D01*
D39*
X206420200Y-130066800D02*
X206420200Y-130014200D01*
D43*
X206420200Y-131244400D02*
X206420200Y-130066800D01*
D39*
X95059500Y-72440800D02*
X93404800Y-72440800D01*
X100270200Y-72466200D02*
X100295600Y-72491600D01*
X98742500Y-72466200D02*
X100270200Y-72466200D01*
D38*
X110007400Y-70017640D02*
X109247940Y-69258180D01*
D39*
X110007400Y-72457000D02*
X110007400Y-70017640D01*
X110007400Y-70045580D02*
X110007400Y-72457000D01*
X110007400Y-68478400D02*
X110002320Y-68473320D01*
D38*
X110007400Y-72457000D02*
X110007400Y-68478400D01*
D40*
X66522400Y-51041500D02*
X66522400Y-48729000D01*
D39*
X65522400Y-50041500D02*
X66522400Y-51041500D01*
D40*
X65522400Y-48979000D02*
X65522400Y-50041500D01*
D39*
X67522400Y-50041500D02*
X66522400Y-51041500D01*
D40*
X67522400Y-48979000D02*
X67522400Y-50041500D01*
X128422400Y-72783700D02*
X131667900Y-72783700D01*
D39*
X129172400Y-72033700D02*
X128422400Y-72783700D01*
D41*
X131167900Y-72033700D02*
X129172400Y-72033700D01*
D39*
X129172400Y-73533700D02*
X128422400Y-72783700D01*
D41*
X131167900Y-73533700D02*
X129172400Y-73533700D01*
D39*
X75979400Y-65176400D02*
X75981940Y-65173860D01*
D38*
X73357400Y-65176400D02*
X75979400Y-65176400D01*
X74479400Y-65176400D02*
X75231940Y-64423860D01*
D39*
X73357400Y-65176400D02*
X74479400Y-65176400D01*
D38*
X74484480Y-65176400D02*
X75231940Y-65923860D01*
D39*
X73357400Y-65176400D02*
X74484480Y-65176400D01*
D38*
X64179985Y-65176400D02*
X66257400Y-65176400D01*
X63614300Y-65176400D02*
X64179985Y-65176400D01*
X65114300Y-65176400D02*
X64364300Y-65926400D01*
X65114300Y-65176400D02*
X64364300Y-64426400D01*
D39*
X66257400Y-65176400D02*
X65114300Y-65176400D01*
X120644860Y-60576460D02*
X120640700Y-60572300D01*
D38*
X123573540Y-60576460D02*
X120644860Y-60576460D01*
X122077700Y-60572300D02*
X122823540Y-59826460D01*
D39*
X120640700Y-60572300D02*
X122077700Y-60572300D01*
D38*
X122069380Y-60572300D02*
X122823540Y-61326460D01*
D39*
X120640700Y-60572300D02*
X122069380Y-60572300D01*
X123557380Y-65132300D02*
X123573540Y-65148460D01*
D40*
X120640700Y-65132300D02*
X123557380Y-65132300D01*
X122089700Y-65132300D02*
X122823540Y-64398460D01*
D39*
X120640700Y-65132300D02*
X122089700Y-65132300D01*
D40*
X122057380Y-65132300D02*
X122823540Y-65898460D01*
D39*
X120640700Y-65132300D02*
X122057380Y-65132300D01*
X224491270Y-65232280D02*
X224753595Y-65494605D01*
X149088399Y-114503200D02*
X149089599Y-114502000D01*
D42*
X141109700Y-114503200D02*
X149088399Y-114503200D01*
D39*
X156475500Y-114502000D02*
X156476700Y-114503200D01*
D42*
X149089599Y-114502000D02*
X156475500Y-114502000D01*
D38*
X149089599Y-114502000D02*
X149089599Y-108212000D01*
X147702400Y-110212000D02*
X145089599Y-110212000D01*
D39*
X149089599Y-114502000D02*
X149089599Y-111920801D01*
X149089599Y-114502000D02*
X149089599Y-111666801D01*
D38*
X150544400Y-110212000D02*
X153089599Y-110212000D01*
D39*
X149089599Y-111666801D02*
X150544400Y-110212000D01*
X149089599Y-114502000D02*
X149089599Y-114206801D01*
D38*
X151089599Y-112206801D02*
X151089599Y-108212000D01*
D39*
X149089599Y-114206801D02*
X151089599Y-112206801D01*
X149089599Y-114502000D02*
X148893600Y-114502000D01*
X148893600Y-114502000D02*
X147089599Y-112697999D01*
X149089599Y-111599199D02*
X147702400Y-110212000D01*
X149089599Y-114502000D02*
X149089599Y-111599199D01*
X149089599Y-112212000D02*
X149089599Y-114502000D01*
D38*
X152503799Y-108797800D02*
X149089599Y-112212000D01*
X145675399Y-108797800D02*
X146351599Y-109474000D01*
D39*
X146351599Y-109474000D02*
X146354800Y-109474000D01*
X146354800Y-109474000D02*
X146507200Y-109626400D01*
X146507200Y-109626400D02*
X146558000Y-109626400D01*
D38*
X147089599Y-112697999D02*
X147089599Y-108212000D01*
X147675600Y-118770400D02*
X145089599Y-118770400D01*
D39*
X149089599Y-117356401D02*
X147675600Y-118770400D01*
D38*
X150114000Y-118770400D02*
X153089599Y-118770400D01*
D39*
X149089599Y-117745999D02*
X150114000Y-118770400D01*
D38*
X149089599Y-116770400D02*
X145675399Y-120184600D01*
D39*
X149089599Y-117034799D02*
X149098000Y-117043200D01*
X149098000Y-117043200D02*
X149089599Y-117745999D01*
D38*
X149089599Y-120770400D02*
X149089599Y-114502000D01*
D39*
X149089599Y-114502000D02*
X149089599Y-115934001D01*
D38*
X147089599Y-117934001D02*
X147089599Y-120770400D01*
D39*
X149089599Y-115934001D02*
X147089599Y-117934001D01*
X149089599Y-114502000D02*
X149089599Y-116374399D01*
X149089599Y-116374399D02*
X149199600Y-116484400D01*
X149199600Y-116484400D02*
X149089599Y-117034799D01*
X149089599Y-114502000D02*
X149089599Y-116221999D01*
D38*
X151089599Y-118221999D02*
X151089599Y-120770400D01*
D39*
X149089599Y-116221999D02*
X151089599Y-118221999D01*
X149089599Y-114502000D02*
X149089599Y-117187199D01*
X149089599Y-117187199D02*
X149148800Y-117246400D01*
X149148800Y-117246400D02*
X149089599Y-117356401D01*
X149089599Y-116770400D02*
X149089599Y-114502000D01*
D38*
X152503799Y-120184600D02*
X149089599Y-116770400D01*
D40*
X94409800Y-139576000D02*
X93732600Y-140253200D01*
X94409800Y-138344400D02*
X94409800Y-139576000D01*
X94409800Y-139431800D02*
X95231200Y-140253200D01*
D39*
X94409800Y-138344400D02*
X94409800Y-139431800D01*
D40*
X96909800Y-139616000D02*
X96272600Y-140253200D01*
X96909800Y-138344400D02*
X96909800Y-139616000D01*
X96909800Y-139391800D02*
X97771200Y-140253200D01*
D39*
X96909800Y-138344400D02*
X96909800Y-139391800D01*
X94132599Y-129653199D02*
X94132599Y-129654999D01*
D40*
X93732600Y-129253200D02*
X94132599Y-129653199D01*
X94132599Y-129654999D02*
X94409800Y-129932200D01*
X96272600Y-129253200D02*
X96909800Y-129890400D01*
X97771200Y-129253200D02*
X96920300Y-130104100D01*
X96909800Y-129890400D02*
X96920300Y-130156700D01*
D39*
X96920300Y-130104100D02*
X96920300Y-130156700D01*
D40*
X96920300Y-130156700D02*
X96909800Y-131244400D01*
X95231200Y-129253200D02*
X94831201Y-129653199D01*
X94831201Y-129654999D02*
X94418400Y-130067800D01*
X94409800Y-129932200D02*
X94418400Y-130067800D01*
D39*
X94831201Y-129653199D02*
X94831201Y-129654999D01*
D40*
X94418400Y-130067800D02*
X94409800Y-131244400D01*
D39*
X113734100Y-72783700D02*
X113407400Y-72457000D01*
D42*
X119913400Y-72783700D02*
X113734100Y-72783700D01*
D38*
X116705380Y-71417180D02*
X116705380Y-74335640D01*
D39*
X113421160Y-72443240D02*
X113407400Y-72457000D01*
D38*
X113421160Y-68981320D02*
X113421160Y-72443240D01*
D39*
X84188300Y-65278200D02*
X84188300Y-65853200D01*
X81586500Y-62676400D02*
X84188300Y-65278200D01*
X73357400Y-62676400D02*
X81586500Y-62676400D01*
X66257400Y-57681500D02*
X66522400Y-57416500D01*
D38*
X66257400Y-62676400D02*
X66257400Y-57681500D01*
D39*
X77609700Y-52070000D02*
X81948500Y-52070000D01*
D42*
X74396600Y-52070000D02*
X81948500Y-52070000D01*
X73355200Y-53111400D02*
X74396600Y-52070000D01*
D39*
X73357400Y-62676400D02*
X73357400Y-62491280D01*
D42*
X73355200Y-62489080D02*
X73355200Y-53111400D01*
D39*
X73357400Y-62491280D02*
X73355200Y-62489080D01*
X225071800Y-62676400D02*
X225071800Y-62420640D01*
X225071800Y-62420640D02*
X225071940Y-62420500D01*
X225071800Y-62676400D02*
X225084000Y-62676400D01*
X170030140Y-55100220D02*
X169085260Y-55100220D01*
D41*
X168335260Y-54350220D02*
X167284640Y-54350220D01*
D39*
X169085260Y-55100220D02*
X168335260Y-54350220D01*
D43*
X125524260Y-139712440D02*
X127024260Y-139712440D01*
X126274260Y-138962440D02*
X125524260Y-139712440D01*
D39*
X126274260Y-140462440D02*
X126274260Y-140531640D01*
X123524260Y-139712440D02*
X125524260Y-139712440D01*
D43*
X125874261Y-140062441D02*
X125524260Y-139712440D01*
X126274260Y-140462440D02*
X125874261Y-140062441D01*
D39*
X80415880Y-94001980D02*
X80370160Y-94047700D01*
X80415880Y-92301560D02*
X80415880Y-94001980D01*
X117164240Y-100233220D02*
X117217580Y-100286560D01*
X115316500Y-100233220D02*
X117164240Y-100233220D01*
X213809580Y-99380040D02*
X213837520Y-99407980D01*
X213809580Y-98121580D02*
X213809580Y-99380040D01*
X209476340Y-92490180D02*
X209491580Y-92505420D01*
X209476340Y-90883740D02*
X209476340Y-92490180D01*
D38*
X216173620Y-148769780D02*
X216923620Y-148019780D01*
X216923620Y-148019780D02*
X217673620Y-148769780D01*
D39*
X216923620Y-146269780D02*
X216923620Y-148019780D01*
D38*
X216923620Y-148954095D02*
X216923620Y-146269780D01*
X216923620Y-149519780D02*
X216923620Y-148954095D01*
D40*
X204373480Y-125688980D02*
X203690220Y-125005720D01*
X205019800Y-125688980D02*
X204373480Y-125688980D01*
X204381100Y-125688980D02*
X203685140Y-126384940D01*
D39*
X205019800Y-125688980D02*
X204381100Y-125688980D01*
D40*
X173724240Y-105572560D02*
X171711740Y-105572560D01*
D39*
X173724240Y-105572560D02*
X173724240Y-105014700D01*
D40*
X173282100Y-104572560D02*
X172211740Y-104572560D01*
D39*
X173724240Y-105014700D02*
X173282100Y-104572560D01*
X173724240Y-105572560D02*
X173724240Y-106051680D01*
D40*
X173203360Y-106572560D02*
X172211740Y-106572560D01*
D39*
X173724240Y-106051680D02*
X173203360Y-106572560D01*
X153718260Y-104434640D02*
X153682700Y-104470200D01*
D40*
X153718260Y-102918260D02*
X153718260Y-104434640D01*
D39*
X149042120Y-104460040D02*
X149052280Y-104470200D01*
D40*
X149042120Y-102918260D02*
X149042120Y-104460040D01*
D39*
X144397620Y-94460060D02*
X144438260Y-94500700D01*
D40*
X142519400Y-94460060D02*
X144397620Y-94460060D01*
D39*
X113407400Y-70495080D02*
X113407400Y-72457000D01*
D38*
X114421160Y-69481320D02*
X113407400Y-70495080D01*
D39*
X185045140Y-57388840D02*
X185045140Y-55426920D01*
D38*
X184031380Y-58402600D02*
X185045140Y-57388840D01*
D39*
X161365000Y-95683000D02*
X161409380Y-95638620D01*
D40*
X158889520Y-95683000D02*
X161365000Y-95683000D01*
D39*
X148709380Y-88657320D02*
X148706840Y-88659860D01*
D40*
X148709380Y-86951820D02*
X148709380Y-88657320D01*
D39*
X159077660Y-83210420D02*
X159077660Y-81894680D01*
D40*
X159077660Y-81343780D02*
X159077660Y-83210420D01*
X158469940Y-80736060D02*
X159077660Y-81343780D01*
D39*
X159077660Y-81331080D02*
X159077660Y-83210420D01*
D40*
X159672680Y-80736060D02*
X159077660Y-81331080D01*
D39*
X171422120Y-78159940D02*
X173172120Y-79909940D01*
D38*
X171422120Y-76609940D02*
X171422120Y-78159940D01*
X173172120Y-77175625D02*
X173172120Y-79909940D01*
X173172120Y-76609940D02*
X173172120Y-77175625D01*
D39*
X174922120Y-78159940D02*
X173172120Y-79909940D01*
D38*
X174922120Y-76609940D02*
X174922120Y-78159940D01*
D39*
X91909800Y-134794400D02*
X91909800Y-138344400D01*
X207924960Y-99633260D02*
X205263540Y-99633260D01*
D38*
X208424260Y-100132560D02*
X207924960Y-99633260D01*
X110007400Y-69795580D02*
X110506700Y-69296280D01*
D39*
X110007400Y-72457000D02*
X110007400Y-69795580D01*
D38*
X81521860Y-103411520D02*
X82021160Y-103910820D01*
D39*
X78860440Y-103411520D02*
X81521860Y-103411520D01*
D38*
X188445140Y-58088340D02*
X187945840Y-58587640D01*
D39*
X188445140Y-55426920D02*
X188445140Y-58088340D01*
X225095140Y-62707520D02*
X228645140Y-62707520D01*
X73357400Y-65176400D02*
X69807400Y-65176400D01*
X96909800Y-138344400D02*
X96909800Y-134794400D01*
X94409800Y-134794400D02*
X94409800Y-131244400D01*
X66257400Y-62676400D02*
X69807400Y-62676400D01*
X69807400Y-62676400D02*
X73357400Y-62676400D01*
X225095140Y-65207520D02*
X228645140Y-65207520D01*
X228645140Y-65207520D02*
X232195140Y-65207520D01*
X203920200Y-138344400D02*
X203920200Y-134794400D01*
X203920200Y-134794400D02*
X203920200Y-131244400D01*
D43*
X203606099Y-129589699D02*
X203606099Y-129591499D01*
X203206100Y-129189700D02*
X203606099Y-129589699D01*
X203606099Y-129591499D02*
X203920200Y-129905600D01*
X204304701Y-129589699D02*
X204304701Y-129591499D01*
X204704700Y-129189700D02*
X204304701Y-129589699D01*
D40*
X203930000Y-129966200D02*
X203930000Y-130067800D01*
D43*
X204304701Y-129591499D02*
X203930000Y-129966200D01*
X203920200Y-129905600D02*
X203930000Y-130067800D01*
X203930000Y-130067800D02*
X203920200Y-131244400D01*
D39*
X221587060Y-93134180D02*
X221625160Y-93172280D01*
X219516960Y-93134180D02*
X221587060Y-93134180D01*
X225261280Y-135073300D02*
X224815400Y-135073300D01*
D38*
X227815400Y-137627420D02*
X225261280Y-135073300D01*
D39*
X224369520Y-135073300D02*
X224815400Y-135073300D01*
X224815400Y-135073300D02*
X224815400Y-136677400D01*
D38*
X223315400Y-139127420D02*
X224815400Y-137627420D01*
X224815400Y-138811735D02*
X224815400Y-135073300D01*
X224815400Y-139377420D02*
X224815400Y-138811735D01*
D39*
X224815400Y-137627420D02*
X224815400Y-135073300D01*
D38*
X226315400Y-139127420D02*
X224815400Y-137627420D01*
D39*
X159052260Y-92980260D02*
X158889520Y-93143000D01*
X151398040Y-93143000D02*
X151391620Y-93149420D01*
D40*
X153639520Y-93143000D02*
X151398040Y-93143000D01*
D39*
X148742400Y-90745420D02*
X148706840Y-90709860D01*
X159072580Y-88615500D02*
X159077660Y-88610420D01*
D40*
X159072580Y-91567000D02*
X159072580Y-88615500D01*
D39*
X148706840Y-91996260D02*
X148689060Y-92014040D01*
D40*
X148706840Y-90709860D02*
X148706840Y-91996260D01*
D39*
X158889520Y-93143000D02*
X159068840Y-93143000D01*
D40*
X159072580Y-93139260D02*
X159072580Y-91567000D01*
D39*
X159068840Y-93143000D02*
X159072580Y-93139260D01*
X160600460Y-93143000D02*
X160655000Y-93088460D01*
D40*
X158889520Y-93143000D02*
X160600460Y-93143000D01*
D38*
X216173620Y-137269780D02*
X216923620Y-138019780D01*
X216923620Y-136519780D02*
X216923620Y-137085465D01*
X216923620Y-137085465D02*
X216923620Y-139769780D01*
X221815400Y-137627420D02*
X224369520Y-135073300D01*
X222765400Y-135073300D02*
X224815400Y-135073300D01*
X219870100Y-135073300D02*
X222765400Y-135073300D01*
X216923620Y-138019780D02*
X219870100Y-135073300D01*
D39*
X216923620Y-139769780D02*
X216923620Y-138019780D01*
X216923620Y-139769780D02*
X215673620Y-139769780D01*
X207123000Y-142697200D02*
X207117920Y-142692120D01*
D38*
X207117920Y-142692120D02*
X204878940Y-142692120D01*
X203920200Y-141733380D02*
X203920200Y-138344400D01*
X204878940Y-142692120D02*
X203920200Y-141733380D01*
D39*
X215673620Y-139769780D02*
X215667200Y-139776200D01*
D38*
X215667200Y-139776200D02*
X212145880Y-139776200D01*
X209229960Y-142692120D02*
X207117920Y-142692120D01*
X212145880Y-139776200D02*
X209229960Y-142692120D01*
D39*
X146575960Y-94413000D02*
X146488260Y-94500700D01*
D40*
X149042120Y-94477840D02*
X149042120Y-96394160D01*
D39*
X149106960Y-94413000D02*
X149042120Y-94477840D01*
D40*
X149106960Y-94413000D02*
X146575960Y-94413000D01*
X153639520Y-94413000D02*
X149106960Y-94413000D01*
D39*
X153639520Y-100789520D02*
X153718260Y-100868260D01*
D40*
X153639520Y-96953000D02*
X153639520Y-100789520D01*
D39*
X176699240Y-122854340D02*
X176673460Y-122880120D01*
D40*
X176699240Y-105572560D02*
X176699240Y-122854340D01*
X176699240Y-99902340D02*
X176699240Y-105572560D01*
X174165720Y-97368820D02*
X176699240Y-99902340D01*
D39*
X167141300Y-96953000D02*
X167457120Y-97268820D01*
D40*
X171655440Y-97167700D02*
X173964600Y-97167700D01*
X167457120Y-97168820D02*
X171654320Y-97168820D01*
D39*
X171654320Y-97168820D02*
X171655440Y-97167700D01*
X167241300Y-96953000D02*
X167457120Y-97168820D01*
D40*
X158889520Y-96953000D02*
X167241300Y-96953000D01*
X173964600Y-97167700D02*
X174165720Y-97368820D01*
D39*
X208920200Y-138344400D02*
X208920200Y-134794400D01*
X208920200Y-134794400D02*
X208920200Y-131244400D01*
D40*
X201856340Y-122880120D02*
X182223460Y-122880120D01*
X207507840Y-122880120D02*
X208920200Y-124292480D01*
X201856340Y-122880120D02*
X207507840Y-122880120D01*
X208803240Y-125688980D02*
X207069800Y-125688980D01*
D39*
X208920200Y-125072020D02*
X208803240Y-125188980D01*
D40*
X208920200Y-125072020D02*
X208920200Y-124292480D01*
X208920200Y-131244400D02*
X208920200Y-125072020D01*
D39*
X201420200Y-131244400D02*
X201420200Y-134794400D01*
X201420200Y-134794400D02*
X201420200Y-138344400D01*
X115524260Y-139712440D02*
X114235980Y-139712440D01*
X108708940Y-139862300D02*
X108858800Y-139712440D01*
D44*
X108708940Y-139862300D02*
X108708940Y-139101240D01*
X108858800Y-139712440D02*
X115524260Y-139712440D01*
D39*
X108708940Y-131101240D02*
X108708940Y-131990840D01*
X108708940Y-131990840D02*
X107936780Y-132763000D01*
D44*
X108708940Y-139101240D02*
X108708940Y-133101240D01*
D39*
X120618080Y-131101240D02*
X122408180Y-129311140D01*
X108708940Y-131210040D02*
X109398300Y-131899400D01*
X108708940Y-131101240D02*
X108708940Y-131210040D01*
X109398300Y-131899400D02*
X119812300Y-131899400D01*
X122408180Y-129311140D02*
X122408180Y-116735600D01*
X119812300Y-131899400D02*
X120610460Y-131101240D01*
X122408180Y-116735600D02*
X122408180Y-105167280D01*
X120610460Y-131101240D02*
X120618080Y-131101240D01*
D44*
X116007640Y-150187660D02*
X113007640Y-147187660D01*
X108708940Y-142888960D02*
X113007640Y-147187660D01*
X108708940Y-139862300D02*
X108708940Y-142888960D01*
X117007640Y-150187660D02*
X116146580Y-150187660D01*
D38*
X116146580Y-150187660D02*
X116007640Y-150187660D01*
D44*
X158574740Y-150187660D02*
X117007640Y-150187660D01*
X173951900Y-134810500D02*
X158574740Y-150187660D01*
X201378820Y-134810500D02*
X173951900Y-134810500D01*
D39*
X201420200Y-134794400D02*
X201394920Y-134794400D01*
X201394920Y-134794400D02*
X201378820Y-134810500D01*
D44*
X113512600Y-53644800D02*
X113512600Y-59445400D01*
D39*
X109948500Y-52070000D02*
X111937800Y-52070000D01*
D44*
X113505700Y-59452300D02*
X113505700Y-62852300D01*
D39*
X113512600Y-59445400D02*
X113505700Y-59452300D01*
X111707400Y-64650600D02*
X113505700Y-62852300D01*
D43*
X111707400Y-72457000D02*
X111707400Y-64650600D01*
D39*
X109948500Y-52070000D02*
X113423700Y-52070000D01*
D44*
X113512600Y-52158900D02*
X113512600Y-53644800D01*
D39*
X113423700Y-52070000D02*
X113512600Y-52158900D01*
X167301300Y-94413000D02*
X167457120Y-94568820D01*
D40*
X158889520Y-94413000D02*
X167301300Y-94413000D01*
D39*
X167444420Y-94356120D02*
X167457120Y-94368820D01*
D40*
X168257120Y-94368820D02*
X167457120Y-94368820D01*
X173172120Y-91559940D02*
X170363240Y-94368820D01*
X170363240Y-94368820D02*
X168257120Y-94368820D01*
X173172120Y-89309940D02*
X173172120Y-91559940D01*
D39*
X224815400Y-103602840D02*
X222910860Y-101698300D01*
D44*
X224815400Y-111473300D02*
X224815400Y-103602840D01*
D39*
X222545820Y-101333260D02*
X222910860Y-101698300D01*
D38*
X205263540Y-101333260D02*
X222545820Y-101333260D01*
D39*
X88978200Y-105111520D02*
X89608140Y-104481580D01*
D38*
X78860440Y-105111520D02*
X88978200Y-105111520D01*
D39*
X107689280Y-104481580D02*
X108708940Y-105501240D01*
D44*
X89608140Y-104481580D02*
X107689280Y-104481580D01*
D39*
X88150900Y-72440800D02*
X91354800Y-72440800D01*
X84188300Y-67903200D02*
X84188300Y-68478200D01*
X84188300Y-68478200D02*
X88150900Y-72440800D01*
X91354800Y-71740800D02*
X94858500Y-68237100D01*
X91354800Y-72440800D02*
X91354800Y-71740800D01*
X108307400Y-69907000D02*
X108307400Y-72457000D01*
X106637500Y-68237100D02*
X108307400Y-69907000D01*
X94858500Y-68237100D02*
X106637500Y-68237100D01*
X102380200Y-72457000D02*
X102345600Y-72491600D01*
X106607400Y-72457000D02*
X102380200Y-72457000D01*
X205263540Y-97933260D02*
X209297520Y-97933260D01*
X211159200Y-96071580D02*
X213809580Y-96071580D01*
X209297520Y-97933260D02*
X211159200Y-96071580D01*
X216891960Y-93134180D02*
X217466960Y-93134180D01*
X216171980Y-93134180D02*
X216891960Y-93134180D01*
X213809580Y-95496580D02*
X216171980Y-93134180D01*
X213809580Y-96071580D02*
X213809580Y-95496580D01*
X119842580Y-100286560D02*
X119267580Y-100286560D01*
X120152460Y-100286560D02*
X119842580Y-100286560D01*
X122408180Y-102542280D02*
X120152460Y-100286560D01*
X122408180Y-103117280D02*
X122408180Y-102542280D01*
X119267580Y-99586560D02*
X117493620Y-97812600D01*
X119267580Y-100286560D02*
X119267580Y-99586560D01*
X85309360Y-97812600D02*
X81410440Y-101711520D01*
X81410440Y-101711520D02*
X78860440Y-101711520D01*
X117493620Y-97812600D02*
X85309360Y-97812600D01*
D40*
X152814520Y-95683000D02*
X153639520Y-95683000D01*
X152503280Y-95683000D02*
X152814520Y-95683000D01*
X149742120Y-98444160D02*
X152503280Y-95683000D01*
X149042120Y-98444160D02*
X149742120Y-98444160D01*
X149042120Y-98444160D02*
X149042120Y-100868260D01*
D39*
X207813540Y-96233260D02*
X205263540Y-96233260D01*
X208388740Y-96233260D02*
X207813540Y-96233260D01*
X209491580Y-95130420D02*
X208388740Y-96233260D01*
X209491580Y-94555420D02*
X209491580Y-95130420D01*
X78860440Y-100011520D02*
X80069380Y-100011520D01*
X80370160Y-99710740D02*
X80370160Y-96097700D01*
X80069380Y-100011520D02*
X80370160Y-99710740D01*
M02*
