G04 #@! TF.GenerationSoftware,KiCad,Pcbnew,(5.1.5)-3*
G04 #@! TF.CreationDate,2020-05-22T15:31:26-05:00*
G04 #@! TF.ProjectId,Power_Board,506f7765-725f-4426-9f61-72642e6b6963,rev?*
G04 #@! TF.SameCoordinates,Original*
G04 #@! TF.FileFunction,Copper,L4,Bot*
G04 #@! TF.FilePolarity,Positive*
%FSLAX46Y46*%
G04 Gerber Fmt 4.6, Leading zero omitted, Abs format (unit mm)*
G04 Created by KiCad (PCBNEW (5.1.5)-3) date 2020-05-22 15:31:26*
%MOMM*%
%LPD*%
G04 APERTURE LIST*
%ADD10C,20.000000*%
%ADD11C,1.100000*%
%ADD12C,0.800000*%
%ADD13C,0.254000*%
G04 APERTURE END LIST*
D10*
X149089599Y-134502000D03*
D11*
X149089599Y-127002000D03*
X154392899Y-129198700D03*
X156589599Y-134502000D03*
X154392899Y-139805300D03*
X149089599Y-142002000D03*
X143786299Y-139805300D03*
X141589599Y-134502000D03*
X143786299Y-129198700D03*
D12*
X234088240Y-63457520D03*
X234088240Y-61957520D03*
X234838240Y-62707520D03*
X167284640Y-55850220D03*
X167284640Y-54350220D03*
X232930140Y-78904920D03*
X230930140Y-78904920D03*
X223220600Y-63460060D03*
X222470600Y-62710060D03*
X166784640Y-55100220D03*
X223220600Y-61960060D03*
X203393040Y-55443120D03*
X199710040Y-55417720D03*
X188445140Y-43651920D03*
X186445140Y-49651920D03*
X188445140Y-45651920D03*
X184445140Y-47651920D03*
X186445140Y-43651920D03*
X184445140Y-43651920D03*
X186445140Y-47651920D03*
X188445140Y-47651920D03*
X186445140Y-45651920D03*
X184445140Y-45651920D03*
X184445140Y-49651920D03*
X192445140Y-47651920D03*
X192445140Y-43651920D03*
X192445140Y-49651920D03*
X190445140Y-47651920D03*
X190445140Y-45651920D03*
X231930140Y-79154920D03*
X190445140Y-43651920D03*
X192445140Y-45651920D03*
X190445140Y-49651920D03*
X175629000Y-68057460D03*
X188450220Y-59410600D03*
X188445140Y-49651920D03*
X189204600Y-58625740D03*
X187945840Y-58587640D03*
X174879000Y-62735460D03*
X174879000Y-67307460D03*
X175629000Y-66557460D03*
X175629000Y-63485460D03*
X175629000Y-61985460D03*
X185031380Y-58902600D03*
X181747160Y-56466740D03*
X181747160Y-53548280D03*
X79283740Y-124572020D03*
X77783740Y-124572020D03*
X78533740Y-125072020D03*
X67085440Y-103411520D03*
X73085440Y-105411520D03*
X69085440Y-103411520D03*
X71085440Y-107411520D03*
X67085440Y-105411520D03*
X67085440Y-107411520D03*
X71085440Y-105411520D03*
X71085440Y-103411520D03*
X69085440Y-105411520D03*
X69085440Y-107411520D03*
X73085440Y-107411520D03*
X71085440Y-99411520D03*
X67085440Y-99411520D03*
X73085440Y-99411520D03*
X71085440Y-101411520D03*
X69085440Y-101411520D03*
X67085440Y-101411520D03*
X69085440Y-99411520D03*
X73085440Y-101411520D03*
X82844120Y-103406440D03*
X73085440Y-103411520D03*
X82059260Y-102652060D03*
X82021160Y-103910820D03*
X82336120Y-106825280D03*
X81836120Y-107825280D03*
X79900260Y-110109500D03*
X76981800Y-110109500D03*
X203384900Y-106331240D03*
X206303360Y-106331240D03*
X151391620Y-93149420D03*
X160655000Y-93088460D03*
X142519400Y-94460060D03*
X149052280Y-104470200D03*
X153682700Y-104470200D03*
X172211740Y-104572560D03*
X171711740Y-105572560D03*
X172211740Y-106572560D03*
X203690220Y-125005720D03*
X203685140Y-126384940D03*
X216923620Y-149519780D03*
X216173620Y-148769780D03*
X217673620Y-148769780D03*
X224815400Y-139377420D03*
X226315400Y-139127420D03*
X227815400Y-137627420D03*
X223315400Y-139127420D03*
X209476340Y-90883740D03*
X221625160Y-93172280D03*
X213837520Y-99407980D03*
X205687360Y-120793260D03*
X204187360Y-120793260D03*
X204937360Y-121293260D03*
X199488540Y-99633260D03*
X193488540Y-103633260D03*
X197488540Y-101633260D03*
X197488540Y-99633260D03*
X199488540Y-103633260D03*
X195488540Y-97633260D03*
X197488540Y-95633260D03*
X193488540Y-97633260D03*
X195488540Y-95633260D03*
X193488540Y-99633260D03*
X199488540Y-101633260D03*
X195488540Y-99633260D03*
X193488540Y-101633260D03*
X195488540Y-103633260D03*
X199488540Y-95633260D03*
X197488540Y-97633260D03*
X199488540Y-97633260D03*
X197488540Y-103633260D03*
X193488540Y-95633260D03*
X209247220Y-99628180D03*
X208462360Y-98873800D03*
X195488540Y-101633260D03*
X208739220Y-103047020D03*
X208239220Y-104047020D03*
X232978700Y-103994460D03*
X232228700Y-103244460D03*
X232228700Y-104744460D03*
X232978700Y-99422460D03*
X232228700Y-100172460D03*
X232228700Y-98672460D03*
X115316500Y-100233220D03*
X92722880Y-113704680D03*
X87400880Y-114454680D03*
X91972880Y-114454680D03*
X91222880Y-113704680D03*
X88150880Y-113704680D03*
X86650880Y-113704680D03*
X80415880Y-92301560D03*
X127024260Y-139712440D03*
X126274260Y-138962440D03*
X126274260Y-140462440D03*
X184031380Y-58402600D03*
X114421160Y-69481320D03*
X122823540Y-59826460D03*
X123573540Y-60576460D03*
X122823540Y-61326460D03*
X122823540Y-65898460D03*
X123573540Y-65148460D03*
X122823540Y-64398460D03*
X64364300Y-65926400D03*
X63614300Y-65176400D03*
X64364300Y-64426400D03*
X75231940Y-64423860D03*
X75981940Y-65173860D03*
X75231940Y-65923860D03*
X113421160Y-68981320D03*
X131667900Y-72783700D03*
X131167900Y-73533700D03*
X131167900Y-72033700D03*
X66522400Y-48729000D03*
X67522400Y-48979000D03*
X65522400Y-48979000D03*
X110007400Y-78232000D03*
X110002320Y-68473320D03*
X109247940Y-69258180D03*
X110506700Y-69296280D03*
X116705380Y-71417180D03*
X116705380Y-74335640D03*
X98742500Y-72466200D03*
X95059500Y-72440800D03*
X207244700Y-140189700D03*
X204704700Y-129189700D03*
X207244700Y-129189700D03*
X205746100Y-140189700D03*
X203206100Y-129189700D03*
X205746100Y-129189700D03*
X90151200Y-140253200D03*
X88652600Y-140253200D03*
X91192600Y-140253200D03*
X93732600Y-140253200D03*
X96272600Y-140253200D03*
X92691200Y-140253200D03*
X95231200Y-140253200D03*
X97771200Y-140253200D03*
X88652600Y-129253200D03*
X90151200Y-129253200D03*
X97771200Y-129253200D03*
X95231200Y-129253200D03*
X93732600Y-129253200D03*
X92691200Y-129253200D03*
X91192600Y-129253200D03*
X96272600Y-129253200D03*
X129855200Y-113503200D03*
X129355200Y-114503200D03*
X129855200Y-115503200D03*
X168231200Y-114503200D03*
X167731200Y-115503200D03*
X167731200Y-113503200D03*
X112007400Y-78232000D03*
X114007400Y-78232000D03*
X110007400Y-80232000D03*
X112007400Y-80232000D03*
X114007400Y-80232000D03*
X110007400Y-82232000D03*
X112007400Y-82232000D03*
X114007400Y-82232000D03*
X110007400Y-84232000D03*
X112007400Y-84232000D03*
X114007400Y-84232000D03*
X108007400Y-78232000D03*
X106007400Y-78232000D03*
X106007400Y-80232000D03*
X106007400Y-82232000D03*
X106007400Y-84232000D03*
X108007400Y-80232000D03*
X108007400Y-82232000D03*
X108007400Y-84232000D03*
X151089599Y-120770400D03*
X147089599Y-120770400D03*
X145675399Y-120184600D03*
X152503799Y-120184600D03*
X153089599Y-118770400D03*
X145089599Y-118770400D03*
X149089599Y-120770400D03*
X151089599Y-108212000D03*
X147089599Y-108212000D03*
X153089599Y-110212000D03*
X145089599Y-110212000D03*
X149089599Y-108212000D03*
X145675399Y-108797800D03*
X152503799Y-108797800D03*
X161409380Y-95638620D03*
X148709380Y-86951820D03*
X158469940Y-80736060D03*
X159672680Y-80736060D03*
X173172120Y-76609940D03*
X174922120Y-76609940D03*
X171422120Y-76609940D03*
X208424260Y-100132560D03*
X148689060Y-92014040D03*
X216173620Y-137269780D03*
X216923620Y-136519780D03*
X221815400Y-137627420D03*
D13*
G36*
X247404600Y-153747800D02*
G01*
X50874598Y-153747800D01*
X50874598Y-146259257D01*
X54754598Y-146259257D01*
X54754598Y-146906345D01*
X54880838Y-147541000D01*
X55128469Y-148138832D01*
X55487972Y-148676867D01*
X55945532Y-149134427D01*
X56483567Y-149493930D01*
X57081399Y-149741561D01*
X57716054Y-149867801D01*
X58363142Y-149867801D01*
X58997797Y-149741561D01*
X59595629Y-149493930D01*
X60133664Y-149134427D01*
X60591224Y-148676867D01*
X60950727Y-148138832D01*
X61198358Y-147541000D01*
X61324598Y-146906345D01*
X61324598Y-146259257D01*
X236954600Y-146259257D01*
X236954600Y-146906345D01*
X237080840Y-147541000D01*
X237328471Y-148138832D01*
X237687974Y-148676867D01*
X238145534Y-149134427D01*
X238683569Y-149493930D01*
X239281401Y-149741561D01*
X239916056Y-149867801D01*
X240563144Y-149867801D01*
X241197799Y-149741561D01*
X241795631Y-149493930D01*
X242333666Y-149134427D01*
X242791226Y-148676867D01*
X243150729Y-148138832D01*
X243398360Y-147541000D01*
X243524600Y-146906345D01*
X243524600Y-146259257D01*
X243398360Y-145624602D01*
X243150729Y-145026770D01*
X242791226Y-144488735D01*
X242333666Y-144031175D01*
X241795631Y-143671672D01*
X241197799Y-143424041D01*
X240563144Y-143297801D01*
X239916056Y-143297801D01*
X239281401Y-143424041D01*
X238683569Y-143671672D01*
X238145534Y-144031175D01*
X237687974Y-144488735D01*
X237328471Y-145026770D01*
X237080840Y-145624602D01*
X236954600Y-146259257D01*
X61324598Y-146259257D01*
X61198358Y-145624602D01*
X60950727Y-145026770D01*
X60591224Y-144488735D01*
X60133664Y-144031175D01*
X59595629Y-143671672D01*
X58997797Y-143424041D01*
X58363142Y-143297801D01*
X57716054Y-143297801D01*
X57081399Y-143424041D01*
X56483567Y-143671672D01*
X55945532Y-144031175D01*
X55487972Y-144488735D01*
X55128469Y-145026770D01*
X54880838Y-145624602D01*
X54754598Y-146259257D01*
X50874598Y-146259257D01*
X50874598Y-142035475D01*
X141735729Y-142035475D01*
X142911446Y-143221564D01*
X144731260Y-144259318D01*
X146718562Y-144922104D01*
X148796983Y-145184450D01*
X150886648Y-145036277D01*
X152907254Y-144483277D01*
X154781150Y-143546702D01*
X155267752Y-143221564D01*
X156443469Y-142035475D01*
X149089599Y-134681605D01*
X141735729Y-142035475D01*
X50874598Y-142035475D01*
X50874598Y-140151261D01*
X92697600Y-140151261D01*
X92697600Y-140355139D01*
X92737374Y-140555098D01*
X92815395Y-140743456D01*
X92928663Y-140912974D01*
X93072826Y-141057137D01*
X93242344Y-141170405D01*
X93430702Y-141248426D01*
X93630661Y-141288200D01*
X93834539Y-141288200D01*
X94034498Y-141248426D01*
X94222856Y-141170405D01*
X94392374Y-141057137D01*
X94481900Y-140967611D01*
X94571426Y-141057137D01*
X94740944Y-141170405D01*
X94929302Y-141248426D01*
X95129261Y-141288200D01*
X95333139Y-141288200D01*
X95533098Y-141248426D01*
X95721456Y-141170405D01*
X95751900Y-141150063D01*
X95782344Y-141170405D01*
X95970702Y-141248426D01*
X96170661Y-141288200D01*
X96374539Y-141288200D01*
X96574498Y-141248426D01*
X96762856Y-141170405D01*
X96932374Y-141057137D01*
X97021900Y-140967611D01*
X97111426Y-141057137D01*
X97280944Y-141170405D01*
X97469302Y-141248426D01*
X97669261Y-141288200D01*
X97873139Y-141288200D01*
X98073098Y-141248426D01*
X98261456Y-141170405D01*
X98430974Y-141057137D01*
X98575137Y-140912974D01*
X98688405Y-140743456D01*
X98766426Y-140555098D01*
X98806200Y-140355139D01*
X98806200Y-140151261D01*
X98766426Y-139951302D01*
X98688405Y-139762944D01*
X98575137Y-139593426D01*
X98430974Y-139449263D01*
X98261456Y-139335995D01*
X98073098Y-139257974D01*
X97873139Y-139218200D01*
X97669261Y-139218200D01*
X97469302Y-139257974D01*
X97280944Y-139335995D01*
X97111426Y-139449263D01*
X97021900Y-139538789D01*
X96932374Y-139449263D01*
X96762856Y-139335995D01*
X96574498Y-139257974D01*
X96374539Y-139218200D01*
X96170661Y-139218200D01*
X95970702Y-139257974D01*
X95782344Y-139335995D01*
X95751900Y-139356337D01*
X95721456Y-139335995D01*
X95533098Y-139257974D01*
X95333139Y-139218200D01*
X95129261Y-139218200D01*
X94929302Y-139257974D01*
X94740944Y-139335995D01*
X94571426Y-139449263D01*
X94481900Y-139538789D01*
X94392374Y-139449263D01*
X94222856Y-139335995D01*
X94034498Y-139257974D01*
X93834539Y-139218200D01*
X93630661Y-139218200D01*
X93430702Y-139257974D01*
X93242344Y-139335995D01*
X93072826Y-139449263D01*
X92928663Y-139593426D01*
X92815395Y-139762944D01*
X92737374Y-139951302D01*
X92697600Y-140151261D01*
X50874598Y-140151261D01*
X50874598Y-134209384D01*
X138407149Y-134209384D01*
X138555322Y-136299049D01*
X139108322Y-138319655D01*
X140044897Y-140193551D01*
X140370035Y-140680153D01*
X141556124Y-141855870D01*
X148909994Y-134502000D01*
X149269204Y-134502000D01*
X156623074Y-141855870D01*
X157809163Y-140680153D01*
X158752744Y-139025481D01*
X222280400Y-139025481D01*
X222280400Y-139229359D01*
X222320174Y-139429318D01*
X222398195Y-139617676D01*
X222511463Y-139787194D01*
X222655626Y-139931357D01*
X222825144Y-140044625D01*
X223013502Y-140122646D01*
X223213461Y-140162420D01*
X223417339Y-140162420D01*
X223617298Y-140122646D01*
X223805656Y-140044625D01*
X223951372Y-139947261D01*
X224011463Y-140037194D01*
X224155626Y-140181357D01*
X224325144Y-140294625D01*
X224513502Y-140372646D01*
X224713461Y-140412420D01*
X224917339Y-140412420D01*
X225117298Y-140372646D01*
X225305656Y-140294625D01*
X225475174Y-140181357D01*
X225619337Y-140037194D01*
X225679428Y-139947261D01*
X225825144Y-140044625D01*
X226013502Y-140122646D01*
X226213461Y-140162420D01*
X226417339Y-140162420D01*
X226617298Y-140122646D01*
X226805656Y-140044625D01*
X226975174Y-139931357D01*
X227119337Y-139787194D01*
X227232605Y-139617676D01*
X227310626Y-139429318D01*
X227350400Y-139229359D01*
X227350400Y-139025481D01*
X227310626Y-138825522D01*
X227232605Y-138637164D01*
X227119337Y-138467646D01*
X226975174Y-138323483D01*
X226805656Y-138210215D01*
X226617298Y-138132194D01*
X226417339Y-138092420D01*
X226213461Y-138092420D01*
X226013502Y-138132194D01*
X225825144Y-138210215D01*
X225655626Y-138323483D01*
X225511463Y-138467646D01*
X225451372Y-138557579D01*
X225305656Y-138460215D01*
X225117298Y-138382194D01*
X224917339Y-138342420D01*
X224713461Y-138342420D01*
X224513502Y-138382194D01*
X224325144Y-138460215D01*
X224179428Y-138557579D01*
X224119337Y-138467646D01*
X223975174Y-138323483D01*
X223805656Y-138210215D01*
X223617298Y-138132194D01*
X223417339Y-138092420D01*
X223213461Y-138092420D01*
X223013502Y-138132194D01*
X222825144Y-138210215D01*
X222655626Y-138323483D01*
X222511463Y-138467646D01*
X222398195Y-138637164D01*
X222320174Y-138825522D01*
X222280400Y-139025481D01*
X158752744Y-139025481D01*
X158846917Y-138860339D01*
X159411382Y-137167841D01*
X215138620Y-137167841D01*
X215138620Y-137371719D01*
X215178394Y-137571678D01*
X215256415Y-137760036D01*
X215369683Y-137929554D01*
X215513846Y-138073717D01*
X215683364Y-138186985D01*
X215871722Y-138265006D01*
X216071681Y-138304780D01*
X216275559Y-138304780D01*
X216475518Y-138265006D01*
X216663876Y-138186985D01*
X216833394Y-138073717D01*
X216977557Y-137929554D01*
X217090825Y-137760036D01*
X217168846Y-137571678D01*
X217178034Y-137525481D01*
X220780400Y-137525481D01*
X220780400Y-137729359D01*
X220820174Y-137929318D01*
X220898195Y-138117676D01*
X221011463Y-138287194D01*
X221155626Y-138431357D01*
X221325144Y-138544625D01*
X221513502Y-138622646D01*
X221713461Y-138662420D01*
X221917339Y-138662420D01*
X222117298Y-138622646D01*
X222305656Y-138544625D01*
X222475174Y-138431357D01*
X222619337Y-138287194D01*
X222732605Y-138117676D01*
X222810626Y-137929318D01*
X222850400Y-137729359D01*
X222850400Y-137525481D01*
X226780400Y-137525481D01*
X226780400Y-137729359D01*
X226820174Y-137929318D01*
X226898195Y-138117676D01*
X227011463Y-138287194D01*
X227155626Y-138431357D01*
X227325144Y-138544625D01*
X227513502Y-138622646D01*
X227713461Y-138662420D01*
X227917339Y-138662420D01*
X228117298Y-138622646D01*
X228305656Y-138544625D01*
X228475174Y-138431357D01*
X228619337Y-138287194D01*
X228732605Y-138117676D01*
X228810626Y-137929318D01*
X228850400Y-137729359D01*
X228850400Y-137525481D01*
X228810626Y-137325522D01*
X228732605Y-137137164D01*
X228619337Y-136967646D01*
X228475174Y-136823483D01*
X228305656Y-136710215D01*
X228117298Y-136632194D01*
X227917339Y-136592420D01*
X227713461Y-136592420D01*
X227513502Y-136632194D01*
X227325144Y-136710215D01*
X227155626Y-136823483D01*
X227011463Y-136967646D01*
X226898195Y-137137164D01*
X226820174Y-137325522D01*
X226780400Y-137525481D01*
X222850400Y-137525481D01*
X222810626Y-137325522D01*
X222732605Y-137137164D01*
X222619337Y-136967646D01*
X222475174Y-136823483D01*
X222305656Y-136710215D01*
X222117298Y-136632194D01*
X221917339Y-136592420D01*
X221713461Y-136592420D01*
X221513502Y-136632194D01*
X221325144Y-136710215D01*
X221155626Y-136823483D01*
X221011463Y-136967646D01*
X220898195Y-137137164D01*
X220820174Y-137325522D01*
X220780400Y-137525481D01*
X217178034Y-137525481D01*
X217178248Y-137524408D01*
X217225518Y-137515006D01*
X217413876Y-137436985D01*
X217583394Y-137323717D01*
X217727557Y-137179554D01*
X217840825Y-137010036D01*
X217918846Y-136821678D01*
X217958620Y-136621719D01*
X217958620Y-136417841D01*
X217918846Y-136217882D01*
X217840825Y-136029524D01*
X217727557Y-135860006D01*
X217583394Y-135715843D01*
X217413876Y-135602575D01*
X217225518Y-135524554D01*
X217025559Y-135484780D01*
X216821681Y-135484780D01*
X216621722Y-135524554D01*
X216433364Y-135602575D01*
X216263846Y-135715843D01*
X216119683Y-135860006D01*
X216006415Y-136029524D01*
X215928394Y-136217882D01*
X215918992Y-136265152D01*
X215871722Y-136274554D01*
X215683364Y-136352575D01*
X215513846Y-136465843D01*
X215369683Y-136610006D01*
X215256415Y-136779524D01*
X215178394Y-136967882D01*
X215138620Y-137167841D01*
X159411382Y-137167841D01*
X159509703Y-136873037D01*
X159772049Y-134794616D01*
X159623876Y-132704951D01*
X159070876Y-130684345D01*
X158272902Y-129087761D01*
X202171100Y-129087761D01*
X202171100Y-129291639D01*
X202210874Y-129491598D01*
X202288895Y-129679956D01*
X202402163Y-129849474D01*
X202546326Y-129993637D01*
X202715844Y-130106905D01*
X202904202Y-130184926D01*
X203104161Y-130224700D01*
X203308039Y-130224700D01*
X203507998Y-130184926D01*
X203696356Y-130106905D01*
X203865874Y-129993637D01*
X203955400Y-129904111D01*
X204044926Y-129993637D01*
X204214444Y-130106905D01*
X204402802Y-130184926D01*
X204602761Y-130224700D01*
X204806639Y-130224700D01*
X205006598Y-130184926D01*
X205194956Y-130106905D01*
X205364474Y-129993637D01*
X205508637Y-129849474D01*
X205621905Y-129679956D01*
X205699926Y-129491598D01*
X205739700Y-129291639D01*
X205739700Y-129087761D01*
X205699926Y-128887802D01*
X205621905Y-128699444D01*
X205508637Y-128529926D01*
X205364474Y-128385763D01*
X205194956Y-128272495D01*
X205006598Y-128194474D01*
X204806639Y-128154700D01*
X204602761Y-128154700D01*
X204402802Y-128194474D01*
X204214444Y-128272495D01*
X204044926Y-128385763D01*
X203955400Y-128475289D01*
X203865874Y-128385763D01*
X203696356Y-128272495D01*
X203507998Y-128194474D01*
X203308039Y-128154700D01*
X203104161Y-128154700D01*
X202904202Y-128194474D01*
X202715844Y-128272495D01*
X202546326Y-128385763D01*
X202402163Y-128529926D01*
X202288895Y-128699444D01*
X202210874Y-128887802D01*
X202171100Y-129087761D01*
X158272902Y-129087761D01*
X158134301Y-128810449D01*
X157809163Y-128323847D01*
X156623074Y-127148130D01*
X149269204Y-134502000D01*
X148909994Y-134502000D01*
X141556124Y-127148130D01*
X140370035Y-128323847D01*
X139332281Y-130143661D01*
X138669495Y-132130963D01*
X138407149Y-134209384D01*
X50874598Y-134209384D01*
X50874598Y-129151261D01*
X92697600Y-129151261D01*
X92697600Y-129355139D01*
X92737374Y-129555098D01*
X92815395Y-129743456D01*
X92928663Y-129912974D01*
X93072826Y-130057137D01*
X93242344Y-130170405D01*
X93430702Y-130248426D01*
X93630661Y-130288200D01*
X93834539Y-130288200D01*
X94034498Y-130248426D01*
X94222856Y-130170405D01*
X94392374Y-130057137D01*
X94481900Y-129967611D01*
X94571426Y-130057137D01*
X94740944Y-130170405D01*
X94929302Y-130248426D01*
X95129261Y-130288200D01*
X95333139Y-130288200D01*
X95533098Y-130248426D01*
X95721456Y-130170405D01*
X95751900Y-130150063D01*
X95782344Y-130170405D01*
X95970702Y-130248426D01*
X96170661Y-130288200D01*
X96374539Y-130288200D01*
X96574498Y-130248426D01*
X96762856Y-130170405D01*
X96932374Y-130057137D01*
X97021900Y-129967611D01*
X97111426Y-130057137D01*
X97280944Y-130170405D01*
X97469302Y-130248426D01*
X97669261Y-130288200D01*
X97873139Y-130288200D01*
X98073098Y-130248426D01*
X98261456Y-130170405D01*
X98430974Y-130057137D01*
X98575137Y-129912974D01*
X98688405Y-129743456D01*
X98766426Y-129555098D01*
X98806200Y-129355139D01*
X98806200Y-129151261D01*
X98766426Y-128951302D01*
X98688405Y-128762944D01*
X98575137Y-128593426D01*
X98430974Y-128449263D01*
X98261456Y-128335995D01*
X98073098Y-128257974D01*
X97873139Y-128218200D01*
X97669261Y-128218200D01*
X97469302Y-128257974D01*
X97280944Y-128335995D01*
X97111426Y-128449263D01*
X97021900Y-128538789D01*
X96932374Y-128449263D01*
X96762856Y-128335995D01*
X96574498Y-128257974D01*
X96374539Y-128218200D01*
X96170661Y-128218200D01*
X95970702Y-128257974D01*
X95782344Y-128335995D01*
X95751900Y-128356337D01*
X95721456Y-128335995D01*
X95533098Y-128257974D01*
X95333139Y-128218200D01*
X95129261Y-128218200D01*
X94929302Y-128257974D01*
X94740944Y-128335995D01*
X94571426Y-128449263D01*
X94481900Y-128538789D01*
X94392374Y-128449263D01*
X94222856Y-128335995D01*
X94034498Y-128257974D01*
X93834539Y-128218200D01*
X93630661Y-128218200D01*
X93430702Y-128257974D01*
X93242344Y-128335995D01*
X93072826Y-128449263D01*
X92928663Y-128593426D01*
X92815395Y-128762944D01*
X92737374Y-128951302D01*
X92697600Y-129151261D01*
X50874598Y-129151261D01*
X50874598Y-126968525D01*
X141735729Y-126968525D01*
X149089599Y-134322395D01*
X156443469Y-126968525D01*
X155267752Y-125782436D01*
X153447938Y-124744682D01*
X151460636Y-124081896D01*
X149382215Y-123819550D01*
X147292550Y-123967723D01*
X145271944Y-124520723D01*
X143398048Y-125457298D01*
X142911446Y-125782436D01*
X141735729Y-126968525D01*
X50874598Y-126968525D01*
X50874598Y-118668461D01*
X144054599Y-118668461D01*
X144054599Y-118872339D01*
X144094373Y-119072298D01*
X144172394Y-119260656D01*
X144285662Y-119430174D01*
X144429825Y-119574337D01*
X144599343Y-119687605D01*
X144737313Y-119744755D01*
X144680173Y-119882702D01*
X144640399Y-120082661D01*
X144640399Y-120286539D01*
X144680173Y-120486498D01*
X144758194Y-120674856D01*
X144871462Y-120844374D01*
X145015625Y-120988537D01*
X145185143Y-121101805D01*
X145373501Y-121179826D01*
X145573460Y-121219600D01*
X145777338Y-121219600D01*
X145977297Y-121179826D01*
X146115244Y-121122686D01*
X146172394Y-121260656D01*
X146285662Y-121430174D01*
X146429825Y-121574337D01*
X146599343Y-121687605D01*
X146787701Y-121765626D01*
X146987660Y-121805400D01*
X147191538Y-121805400D01*
X147391497Y-121765626D01*
X147579855Y-121687605D01*
X147749373Y-121574337D01*
X147893536Y-121430174D01*
X148006804Y-121260656D01*
X148084825Y-121072298D01*
X148089599Y-121048297D01*
X148094373Y-121072298D01*
X148172394Y-121260656D01*
X148285662Y-121430174D01*
X148429825Y-121574337D01*
X148599343Y-121687605D01*
X148787701Y-121765626D01*
X148987660Y-121805400D01*
X149191538Y-121805400D01*
X149391497Y-121765626D01*
X149579855Y-121687605D01*
X149749373Y-121574337D01*
X149893536Y-121430174D01*
X150006804Y-121260656D01*
X150084825Y-121072298D01*
X150089599Y-121048297D01*
X150094373Y-121072298D01*
X150172394Y-121260656D01*
X150285662Y-121430174D01*
X150429825Y-121574337D01*
X150599343Y-121687605D01*
X150787701Y-121765626D01*
X150987660Y-121805400D01*
X151191538Y-121805400D01*
X151391497Y-121765626D01*
X151579855Y-121687605D01*
X151749373Y-121574337D01*
X151893536Y-121430174D01*
X152006804Y-121260656D01*
X152063954Y-121122686D01*
X152201901Y-121179826D01*
X152401860Y-121219600D01*
X152605738Y-121219600D01*
X152805697Y-121179826D01*
X152994055Y-121101805D01*
X153163573Y-120988537D01*
X153307736Y-120844374D01*
X153421004Y-120674856D01*
X153499025Y-120486498D01*
X153538799Y-120286539D01*
X153538799Y-120082661D01*
X153499025Y-119882702D01*
X153441885Y-119744755D01*
X153579855Y-119687605D01*
X153749373Y-119574337D01*
X153893536Y-119430174D01*
X154006804Y-119260656D01*
X154084825Y-119072298D01*
X154124599Y-118872339D01*
X154124599Y-118668461D01*
X154084825Y-118468502D01*
X154006804Y-118280144D01*
X153893536Y-118110626D01*
X153749373Y-117966463D01*
X153579855Y-117853195D01*
X153391497Y-117775174D01*
X153191538Y-117735400D01*
X152987660Y-117735400D01*
X152787701Y-117775174D01*
X152599343Y-117853195D01*
X152429825Y-117966463D01*
X152285662Y-118110626D01*
X152172394Y-118280144D01*
X152094373Y-118468502D01*
X152054599Y-118668461D01*
X152054599Y-118872339D01*
X152094373Y-119072298D01*
X152151513Y-119210245D01*
X152013543Y-119267395D01*
X151844025Y-119380663D01*
X151699862Y-119524826D01*
X151586594Y-119694344D01*
X151529444Y-119832314D01*
X151391497Y-119775174D01*
X151191538Y-119735400D01*
X150987660Y-119735400D01*
X150787701Y-119775174D01*
X150599343Y-119853195D01*
X150429825Y-119966463D01*
X150285662Y-120110626D01*
X150172394Y-120280144D01*
X150094373Y-120468502D01*
X150089599Y-120492503D01*
X150084825Y-120468502D01*
X150006804Y-120280144D01*
X149893536Y-120110626D01*
X149749373Y-119966463D01*
X149579855Y-119853195D01*
X149391497Y-119775174D01*
X149191538Y-119735400D01*
X148987660Y-119735400D01*
X148787701Y-119775174D01*
X148599343Y-119853195D01*
X148429825Y-119966463D01*
X148285662Y-120110626D01*
X148172394Y-120280144D01*
X148094373Y-120468502D01*
X148089599Y-120492503D01*
X148084825Y-120468502D01*
X148006804Y-120280144D01*
X147893536Y-120110626D01*
X147749373Y-119966463D01*
X147579855Y-119853195D01*
X147391497Y-119775174D01*
X147191538Y-119735400D01*
X146987660Y-119735400D01*
X146787701Y-119775174D01*
X146649754Y-119832314D01*
X146592604Y-119694344D01*
X146479336Y-119524826D01*
X146335173Y-119380663D01*
X146165655Y-119267395D01*
X146027685Y-119210245D01*
X146084825Y-119072298D01*
X146124599Y-118872339D01*
X146124599Y-118668461D01*
X146084825Y-118468502D01*
X146006804Y-118280144D01*
X145893536Y-118110626D01*
X145749373Y-117966463D01*
X145579855Y-117853195D01*
X145391497Y-117775174D01*
X145191538Y-117735400D01*
X144987660Y-117735400D01*
X144787701Y-117775174D01*
X144599343Y-117853195D01*
X144429825Y-117966463D01*
X144285662Y-118110626D01*
X144172394Y-118280144D01*
X144094373Y-118468502D01*
X144054599Y-118668461D01*
X50874598Y-118668461D01*
X50874598Y-110007561D01*
X75946800Y-110007561D01*
X75946800Y-110211439D01*
X75986574Y-110411398D01*
X76064595Y-110599756D01*
X76177863Y-110769274D01*
X76322026Y-110913437D01*
X76491544Y-111026705D01*
X76679902Y-111104726D01*
X76879861Y-111144500D01*
X77083739Y-111144500D01*
X77283698Y-111104726D01*
X77472056Y-111026705D01*
X77641574Y-110913437D01*
X77785737Y-110769274D01*
X77899005Y-110599756D01*
X77977026Y-110411398D01*
X78016800Y-110211439D01*
X78016800Y-110007561D01*
X78865260Y-110007561D01*
X78865260Y-110211439D01*
X78905034Y-110411398D01*
X78983055Y-110599756D01*
X79096323Y-110769274D01*
X79240486Y-110913437D01*
X79410004Y-111026705D01*
X79598362Y-111104726D01*
X79798321Y-111144500D01*
X80002199Y-111144500D01*
X80202158Y-111104726D01*
X80390516Y-111026705D01*
X80560034Y-110913437D01*
X80704197Y-110769274D01*
X80817465Y-110599756D01*
X80895486Y-110411398D01*
X80935260Y-110211439D01*
X80935260Y-110110061D01*
X144054599Y-110110061D01*
X144054599Y-110313939D01*
X144094373Y-110513898D01*
X144172394Y-110702256D01*
X144285662Y-110871774D01*
X144429825Y-111015937D01*
X144599343Y-111129205D01*
X144787701Y-111207226D01*
X144987660Y-111247000D01*
X145191538Y-111247000D01*
X145391497Y-111207226D01*
X145579855Y-111129205D01*
X145749373Y-111015937D01*
X145893536Y-110871774D01*
X146006804Y-110702256D01*
X146084825Y-110513898D01*
X146124599Y-110313939D01*
X146124599Y-110110061D01*
X146084825Y-109910102D01*
X146027685Y-109772155D01*
X146165655Y-109715005D01*
X146335173Y-109601737D01*
X146479336Y-109457574D01*
X146592604Y-109288056D01*
X146649754Y-109150086D01*
X146787701Y-109207226D01*
X146987660Y-109247000D01*
X147191538Y-109247000D01*
X147391497Y-109207226D01*
X147579855Y-109129205D01*
X147749373Y-109015937D01*
X147893536Y-108871774D01*
X148006804Y-108702256D01*
X148084825Y-108513898D01*
X148089599Y-108489897D01*
X148094373Y-108513898D01*
X148172394Y-108702256D01*
X148285662Y-108871774D01*
X148429825Y-109015937D01*
X148599343Y-109129205D01*
X148787701Y-109207226D01*
X148987660Y-109247000D01*
X149191538Y-109247000D01*
X149391497Y-109207226D01*
X149579855Y-109129205D01*
X149749373Y-109015937D01*
X149893536Y-108871774D01*
X150006804Y-108702256D01*
X150084825Y-108513898D01*
X150089599Y-108489897D01*
X150094373Y-108513898D01*
X150172394Y-108702256D01*
X150285662Y-108871774D01*
X150429825Y-109015937D01*
X150599343Y-109129205D01*
X150787701Y-109207226D01*
X150987660Y-109247000D01*
X151191538Y-109247000D01*
X151391497Y-109207226D01*
X151529444Y-109150086D01*
X151586594Y-109288056D01*
X151699862Y-109457574D01*
X151844025Y-109601737D01*
X152013543Y-109715005D01*
X152151513Y-109772155D01*
X152094373Y-109910102D01*
X152054599Y-110110061D01*
X152054599Y-110313939D01*
X152094373Y-110513898D01*
X152172394Y-110702256D01*
X152285662Y-110871774D01*
X152429825Y-111015937D01*
X152599343Y-111129205D01*
X152787701Y-111207226D01*
X152987660Y-111247000D01*
X153191538Y-111247000D01*
X153391497Y-111207226D01*
X153579855Y-111129205D01*
X153749373Y-111015937D01*
X153893536Y-110871774D01*
X154006804Y-110702256D01*
X154084825Y-110513898D01*
X154124599Y-110313939D01*
X154124599Y-110110061D01*
X154084825Y-109910102D01*
X154006804Y-109721744D01*
X153893536Y-109552226D01*
X153749373Y-109408063D01*
X153579855Y-109294795D01*
X153441885Y-109237645D01*
X153499025Y-109099698D01*
X153538799Y-108899739D01*
X153538799Y-108695861D01*
X153499025Y-108495902D01*
X153421004Y-108307544D01*
X153307736Y-108138026D01*
X153163573Y-107993863D01*
X152994055Y-107880595D01*
X152805697Y-107802574D01*
X152605738Y-107762800D01*
X152401860Y-107762800D01*
X152201901Y-107802574D01*
X152063954Y-107859714D01*
X152006804Y-107721744D01*
X151893536Y-107552226D01*
X151749373Y-107408063D01*
X151579855Y-107294795D01*
X151391497Y-107216774D01*
X151191538Y-107177000D01*
X150987660Y-107177000D01*
X150787701Y-107216774D01*
X150599343Y-107294795D01*
X150429825Y-107408063D01*
X150285662Y-107552226D01*
X150172394Y-107721744D01*
X150094373Y-107910102D01*
X150089599Y-107934103D01*
X150084825Y-107910102D01*
X150006804Y-107721744D01*
X149893536Y-107552226D01*
X149749373Y-107408063D01*
X149579855Y-107294795D01*
X149391497Y-107216774D01*
X149191538Y-107177000D01*
X148987660Y-107177000D01*
X148787701Y-107216774D01*
X148599343Y-107294795D01*
X148429825Y-107408063D01*
X148285662Y-107552226D01*
X148172394Y-107721744D01*
X148094373Y-107910102D01*
X148089599Y-107934103D01*
X148084825Y-107910102D01*
X148006804Y-107721744D01*
X147893536Y-107552226D01*
X147749373Y-107408063D01*
X147579855Y-107294795D01*
X147391497Y-107216774D01*
X147191538Y-107177000D01*
X146987660Y-107177000D01*
X146787701Y-107216774D01*
X146599343Y-107294795D01*
X146429825Y-107408063D01*
X146285662Y-107552226D01*
X146172394Y-107721744D01*
X146115244Y-107859714D01*
X145977297Y-107802574D01*
X145777338Y-107762800D01*
X145573460Y-107762800D01*
X145373501Y-107802574D01*
X145185143Y-107880595D01*
X145015625Y-107993863D01*
X144871462Y-108138026D01*
X144758194Y-108307544D01*
X144680173Y-108495902D01*
X144640399Y-108695861D01*
X144640399Y-108899739D01*
X144680173Y-109099698D01*
X144737313Y-109237645D01*
X144599343Y-109294795D01*
X144429825Y-109408063D01*
X144285662Y-109552226D01*
X144172394Y-109721744D01*
X144094373Y-109910102D01*
X144054599Y-110110061D01*
X80935260Y-110110061D01*
X80935260Y-110007561D01*
X80895486Y-109807602D01*
X80817465Y-109619244D01*
X80704197Y-109449726D01*
X80560034Y-109305563D01*
X80390516Y-109192295D01*
X80202158Y-109114274D01*
X80002199Y-109074500D01*
X79798321Y-109074500D01*
X79598362Y-109114274D01*
X79410004Y-109192295D01*
X79240486Y-109305563D01*
X79096323Y-109449726D01*
X78983055Y-109619244D01*
X78905034Y-109807602D01*
X78865260Y-110007561D01*
X78016800Y-110007561D01*
X77977026Y-109807602D01*
X77899005Y-109619244D01*
X77785737Y-109449726D01*
X77641574Y-109305563D01*
X77472056Y-109192295D01*
X77283698Y-109114274D01*
X77083739Y-109074500D01*
X76879861Y-109074500D01*
X76679902Y-109114274D01*
X76491544Y-109192295D01*
X76322026Y-109305563D01*
X76177863Y-109449726D01*
X76064595Y-109619244D01*
X75986574Y-109807602D01*
X75946800Y-110007561D01*
X50874598Y-110007561D01*
X50874598Y-107723341D01*
X80801120Y-107723341D01*
X80801120Y-107927219D01*
X80840894Y-108127178D01*
X80918915Y-108315536D01*
X81032183Y-108485054D01*
X81176346Y-108629217D01*
X81345864Y-108742485D01*
X81534222Y-108820506D01*
X81734181Y-108860280D01*
X81938059Y-108860280D01*
X82138018Y-108820506D01*
X82326376Y-108742485D01*
X82495894Y-108629217D01*
X82640057Y-108485054D01*
X82753325Y-108315536D01*
X82831346Y-108127178D01*
X82871120Y-107927219D01*
X82871120Y-107723341D01*
X82869232Y-107713850D01*
X82995894Y-107629217D01*
X83140057Y-107485054D01*
X83253325Y-107315536D01*
X83331346Y-107127178D01*
X83371120Y-106927219D01*
X83371120Y-106723341D01*
X83331346Y-106523382D01*
X83253325Y-106335024D01*
X83182684Y-106229301D01*
X202349900Y-106229301D01*
X202349900Y-106433179D01*
X202389674Y-106633138D01*
X202467695Y-106821496D01*
X202580963Y-106991014D01*
X202725126Y-107135177D01*
X202894644Y-107248445D01*
X203083002Y-107326466D01*
X203282961Y-107366240D01*
X203486839Y-107366240D01*
X203686798Y-107326466D01*
X203875156Y-107248445D01*
X204044674Y-107135177D01*
X204188837Y-106991014D01*
X204302105Y-106821496D01*
X204380126Y-106633138D01*
X204419900Y-106433179D01*
X204419900Y-106229301D01*
X205268360Y-106229301D01*
X205268360Y-106433179D01*
X205308134Y-106633138D01*
X205386155Y-106821496D01*
X205499423Y-106991014D01*
X205643586Y-107135177D01*
X205813104Y-107248445D01*
X206001462Y-107326466D01*
X206201421Y-107366240D01*
X206405299Y-107366240D01*
X206605258Y-107326466D01*
X206793616Y-107248445D01*
X206963134Y-107135177D01*
X207107297Y-106991014D01*
X207220565Y-106821496D01*
X207298586Y-106633138D01*
X207338360Y-106433179D01*
X207338360Y-106229301D01*
X207298586Y-106029342D01*
X207220565Y-105840984D01*
X207107297Y-105671466D01*
X206963134Y-105527303D01*
X206793616Y-105414035D01*
X206605258Y-105336014D01*
X206405299Y-105296240D01*
X206201421Y-105296240D01*
X206001462Y-105336014D01*
X205813104Y-105414035D01*
X205643586Y-105527303D01*
X205499423Y-105671466D01*
X205386155Y-105840984D01*
X205308134Y-106029342D01*
X205268360Y-106229301D01*
X204419900Y-106229301D01*
X204380126Y-106029342D01*
X204302105Y-105840984D01*
X204188837Y-105671466D01*
X204044674Y-105527303D01*
X203875156Y-105414035D01*
X203686798Y-105336014D01*
X203486839Y-105296240D01*
X203282961Y-105296240D01*
X203083002Y-105336014D01*
X202894644Y-105414035D01*
X202725126Y-105527303D01*
X202580963Y-105671466D01*
X202467695Y-105840984D01*
X202389674Y-106029342D01*
X202349900Y-106229301D01*
X83182684Y-106229301D01*
X83140057Y-106165506D01*
X82995894Y-106021343D01*
X82826376Y-105908075D01*
X82638018Y-105830054D01*
X82438059Y-105790280D01*
X82234181Y-105790280D01*
X82034222Y-105830054D01*
X81845864Y-105908075D01*
X81676346Y-106021343D01*
X81532183Y-106165506D01*
X81418915Y-106335024D01*
X81340894Y-106523382D01*
X81301120Y-106723341D01*
X81301120Y-106927219D01*
X81303008Y-106936710D01*
X81176346Y-107021343D01*
X81032183Y-107165506D01*
X80918915Y-107335024D01*
X80840894Y-107523382D01*
X80801120Y-107723341D01*
X50874598Y-107723341D01*
X50874598Y-103945081D01*
X207204220Y-103945081D01*
X207204220Y-104148959D01*
X207243994Y-104348918D01*
X207322015Y-104537276D01*
X207435283Y-104706794D01*
X207579446Y-104850957D01*
X207748964Y-104964225D01*
X207937322Y-105042246D01*
X208137281Y-105082020D01*
X208341159Y-105082020D01*
X208541118Y-105042246D01*
X208729476Y-104964225D01*
X208898994Y-104850957D01*
X209043157Y-104706794D01*
X209156425Y-104537276D01*
X209234446Y-104348918D01*
X209274220Y-104148959D01*
X209274220Y-103945081D01*
X209272332Y-103935590D01*
X209398994Y-103850957D01*
X209543157Y-103706794D01*
X209656425Y-103537276D01*
X209734446Y-103348918D01*
X209774220Y-103148959D01*
X209774220Y-102945081D01*
X209734446Y-102745122D01*
X209656425Y-102556764D01*
X209543157Y-102387246D01*
X209398994Y-102243083D01*
X209229476Y-102129815D01*
X209041118Y-102051794D01*
X208841159Y-102012020D01*
X208637281Y-102012020D01*
X208437322Y-102051794D01*
X208248964Y-102129815D01*
X208079446Y-102243083D01*
X207935283Y-102387246D01*
X207822015Y-102556764D01*
X207743994Y-102745122D01*
X207704220Y-102945081D01*
X207704220Y-103148959D01*
X207706108Y-103158450D01*
X207579446Y-103243083D01*
X207435283Y-103387246D01*
X207322015Y-103556764D01*
X207243994Y-103745122D01*
X207204220Y-103945081D01*
X50874598Y-103945081D01*
X50874598Y-91912101D01*
X147654060Y-91912101D01*
X147654060Y-92115979D01*
X147693834Y-92315938D01*
X147771855Y-92504296D01*
X147885123Y-92673814D01*
X148029286Y-92817977D01*
X148198804Y-92931245D01*
X148387162Y-93009266D01*
X148587121Y-93049040D01*
X148790999Y-93049040D01*
X148798836Y-93047481D01*
X150356620Y-93047481D01*
X150356620Y-93251359D01*
X150396394Y-93451318D01*
X150474415Y-93639676D01*
X150587683Y-93809194D01*
X150731846Y-93953357D01*
X150901364Y-94066625D01*
X151089722Y-94144646D01*
X151289681Y-94184420D01*
X151493559Y-94184420D01*
X151693518Y-94144646D01*
X151881876Y-94066625D01*
X152051394Y-93953357D01*
X152195557Y-93809194D01*
X152308825Y-93639676D01*
X152386846Y-93451318D01*
X152426620Y-93251359D01*
X152426620Y-93047481D01*
X152414495Y-92986521D01*
X159620000Y-92986521D01*
X159620000Y-93190399D01*
X159659774Y-93390358D01*
X159737795Y-93578716D01*
X159851063Y-93748234D01*
X159995226Y-93892397D01*
X160164744Y-94005665D01*
X160353102Y-94083686D01*
X160553061Y-94123460D01*
X160756939Y-94123460D01*
X160956898Y-94083686D01*
X161145256Y-94005665D01*
X161314774Y-93892397D01*
X161458937Y-93748234D01*
X161572205Y-93578716D01*
X161650226Y-93390358D01*
X161690000Y-93190399D01*
X161690000Y-93070341D01*
X220590160Y-93070341D01*
X220590160Y-93274219D01*
X220629934Y-93474178D01*
X220707955Y-93662536D01*
X220821223Y-93832054D01*
X220965386Y-93976217D01*
X221134904Y-94089485D01*
X221323262Y-94167506D01*
X221523221Y-94207280D01*
X221727099Y-94207280D01*
X221927058Y-94167506D01*
X222115416Y-94089485D01*
X222284934Y-93976217D01*
X222429097Y-93832054D01*
X222542365Y-93662536D01*
X222620386Y-93474178D01*
X222660160Y-93274219D01*
X222660160Y-93070341D01*
X222620386Y-92870382D01*
X222542365Y-92682024D01*
X222429097Y-92512506D01*
X222284934Y-92368343D01*
X222115416Y-92255075D01*
X221927058Y-92177054D01*
X221727099Y-92137280D01*
X221523221Y-92137280D01*
X221323262Y-92177054D01*
X221134904Y-92255075D01*
X220965386Y-92368343D01*
X220821223Y-92512506D01*
X220707955Y-92682024D01*
X220629934Y-92870382D01*
X220590160Y-93070341D01*
X161690000Y-93070341D01*
X161690000Y-92986521D01*
X161650226Y-92786562D01*
X161572205Y-92598204D01*
X161458937Y-92428686D01*
X161314774Y-92284523D01*
X161145256Y-92171255D01*
X160956898Y-92093234D01*
X160756939Y-92053460D01*
X160553061Y-92053460D01*
X160353102Y-92093234D01*
X160164744Y-92171255D01*
X159995226Y-92284523D01*
X159851063Y-92428686D01*
X159737795Y-92598204D01*
X159659774Y-92786562D01*
X159620000Y-92986521D01*
X152414495Y-92986521D01*
X152386846Y-92847522D01*
X152308825Y-92659164D01*
X152195557Y-92489646D01*
X152051394Y-92345483D01*
X151881876Y-92232215D01*
X151693518Y-92154194D01*
X151493559Y-92114420D01*
X151289681Y-92114420D01*
X151089722Y-92154194D01*
X150901364Y-92232215D01*
X150731846Y-92345483D01*
X150587683Y-92489646D01*
X150474415Y-92659164D01*
X150396394Y-92847522D01*
X150356620Y-93047481D01*
X148798836Y-93047481D01*
X148990958Y-93009266D01*
X149179316Y-92931245D01*
X149348834Y-92817977D01*
X149492997Y-92673814D01*
X149606265Y-92504296D01*
X149684286Y-92315938D01*
X149724060Y-92115979D01*
X149724060Y-91912101D01*
X149684286Y-91712142D01*
X149606265Y-91523784D01*
X149550283Y-91440000D01*
X228473000Y-91440000D01*
X228473000Y-96520000D01*
X228475440Y-96544776D01*
X228482667Y-96568601D01*
X228494403Y-96590557D01*
X228510197Y-96609803D01*
X228529443Y-96625597D01*
X228551399Y-96637333D01*
X228575224Y-96644560D01*
X228600000Y-96647000D01*
X233680000Y-96647000D01*
X233704776Y-96644560D01*
X233728601Y-96637333D01*
X233750557Y-96625597D01*
X233769803Y-96609803D01*
X233785597Y-96590557D01*
X233797333Y-96568601D01*
X233804560Y-96544776D01*
X233807000Y-96520000D01*
X233807000Y-91440000D01*
X233804560Y-91415224D01*
X233797333Y-91391399D01*
X233785597Y-91369443D01*
X233769803Y-91350197D01*
X233750557Y-91334403D01*
X233728601Y-91322667D01*
X233704776Y-91315440D01*
X233680000Y-91313000D01*
X228600000Y-91313000D01*
X228575224Y-91315440D01*
X228551399Y-91322667D01*
X228529443Y-91334403D01*
X228510197Y-91350197D01*
X228494403Y-91369443D01*
X228482667Y-91391399D01*
X228475440Y-91415224D01*
X228473000Y-91440000D01*
X149550283Y-91440000D01*
X149492997Y-91354266D01*
X149348834Y-91210103D01*
X149179316Y-91096835D01*
X148990958Y-91018814D01*
X148790999Y-90979040D01*
X148587121Y-90979040D01*
X148387162Y-91018814D01*
X148198804Y-91096835D01*
X148029286Y-91210103D01*
X147885123Y-91354266D01*
X147771855Y-91523784D01*
X147693834Y-91712142D01*
X147654060Y-91912101D01*
X50874598Y-91912101D01*
X50874598Y-74233701D01*
X115670380Y-74233701D01*
X115670380Y-74437579D01*
X115710154Y-74637538D01*
X115788175Y-74825896D01*
X115901443Y-74995414D01*
X116045606Y-75139577D01*
X116215124Y-75252845D01*
X116403482Y-75330866D01*
X116603441Y-75370640D01*
X116807319Y-75370640D01*
X117007278Y-75330866D01*
X117195636Y-75252845D01*
X117365154Y-75139577D01*
X117509317Y-74995414D01*
X117622585Y-74825896D01*
X117700606Y-74637538D01*
X117740380Y-74437579D01*
X117740380Y-74233701D01*
X117700606Y-74033742D01*
X117622585Y-73845384D01*
X117509317Y-73675866D01*
X117365154Y-73531703D01*
X117195636Y-73418435D01*
X117007278Y-73340414D01*
X116807319Y-73300640D01*
X116603441Y-73300640D01*
X116403482Y-73340414D01*
X116215124Y-73418435D01*
X116045606Y-73531703D01*
X115901443Y-73675866D01*
X115788175Y-73845384D01*
X115710154Y-74033742D01*
X115670380Y-74233701D01*
X50874598Y-74233701D01*
X50874598Y-71315241D01*
X115670380Y-71315241D01*
X115670380Y-71519119D01*
X115710154Y-71719078D01*
X115788175Y-71907436D01*
X115901443Y-72076954D01*
X116045606Y-72221117D01*
X116215124Y-72334385D01*
X116403482Y-72412406D01*
X116603441Y-72452180D01*
X116807319Y-72452180D01*
X117007278Y-72412406D01*
X117195636Y-72334385D01*
X117365154Y-72221117D01*
X117509317Y-72076954D01*
X117622585Y-71907436D01*
X117700606Y-71719078D01*
X117740380Y-71519119D01*
X117740380Y-71315241D01*
X117700606Y-71115282D01*
X117622585Y-70926924D01*
X117509317Y-70757406D01*
X117365154Y-70613243D01*
X117195636Y-70499975D01*
X117007278Y-70421954D01*
X116807319Y-70382180D01*
X116603441Y-70382180D01*
X116403482Y-70421954D01*
X116215124Y-70499975D01*
X116045606Y-70613243D01*
X115901443Y-70757406D01*
X115788175Y-70926924D01*
X115710154Y-71115282D01*
X115670380Y-71315241D01*
X50874598Y-71315241D01*
X50874598Y-68879381D01*
X112386160Y-68879381D01*
X112386160Y-69083259D01*
X112425934Y-69283218D01*
X112503955Y-69471576D01*
X112617223Y-69641094D01*
X112761386Y-69785257D01*
X112930904Y-69898525D01*
X113119262Y-69976546D01*
X113319221Y-70016320D01*
X113523099Y-70016320D01*
X113532590Y-70014432D01*
X113617223Y-70141094D01*
X113761386Y-70285257D01*
X113930904Y-70398525D01*
X114119262Y-70476546D01*
X114319221Y-70516320D01*
X114523099Y-70516320D01*
X114723058Y-70476546D01*
X114911416Y-70398525D01*
X115080934Y-70285257D01*
X115225097Y-70141094D01*
X115338365Y-69971576D01*
X115416386Y-69783218D01*
X115456160Y-69583259D01*
X115456160Y-69379381D01*
X115416386Y-69179422D01*
X115338365Y-68991064D01*
X115225097Y-68821546D01*
X115080934Y-68677383D01*
X114911416Y-68564115D01*
X114723058Y-68486094D01*
X114523099Y-68446320D01*
X114319221Y-68446320D01*
X114309730Y-68448208D01*
X114225097Y-68321546D01*
X114080934Y-68177383D01*
X113911416Y-68064115D01*
X113723058Y-67986094D01*
X113523099Y-67946320D01*
X113319221Y-67946320D01*
X113119262Y-67986094D01*
X112930904Y-68064115D01*
X112761386Y-68177383D01*
X112617223Y-68321546D01*
X112503955Y-68491064D01*
X112425934Y-68679422D01*
X112386160Y-68879381D01*
X50874598Y-68879381D01*
X50874598Y-58300661D01*
X182996380Y-58300661D01*
X182996380Y-58504539D01*
X183036154Y-58704498D01*
X183114175Y-58892856D01*
X183227443Y-59062374D01*
X183371606Y-59206537D01*
X183541124Y-59319805D01*
X183729482Y-59397826D01*
X183929441Y-59437600D01*
X184133319Y-59437600D01*
X184142810Y-59435712D01*
X184227443Y-59562374D01*
X184371606Y-59706537D01*
X184541124Y-59819805D01*
X184729482Y-59897826D01*
X184929441Y-59937600D01*
X185133319Y-59937600D01*
X185333278Y-59897826D01*
X185521636Y-59819805D01*
X185691154Y-59706537D01*
X185835317Y-59562374D01*
X185948585Y-59392856D01*
X186026606Y-59204498D01*
X186066380Y-59004539D01*
X186066380Y-58800661D01*
X186026606Y-58600702D01*
X185948585Y-58412344D01*
X185835317Y-58242826D01*
X185691154Y-58098663D01*
X185521636Y-57985395D01*
X185333278Y-57907374D01*
X185133319Y-57867600D01*
X184929441Y-57867600D01*
X184919950Y-57869488D01*
X184835317Y-57742826D01*
X184691154Y-57598663D01*
X184521636Y-57485395D01*
X184333278Y-57407374D01*
X184133319Y-57367600D01*
X183929441Y-57367600D01*
X183729482Y-57407374D01*
X183541124Y-57485395D01*
X183371606Y-57598663D01*
X183227443Y-57742826D01*
X183114175Y-57912344D01*
X183036154Y-58100702D01*
X182996380Y-58300661D01*
X50874598Y-58300661D01*
X50874598Y-56364801D01*
X180712160Y-56364801D01*
X180712160Y-56568679D01*
X180751934Y-56768638D01*
X180829955Y-56956996D01*
X180943223Y-57126514D01*
X181087386Y-57270677D01*
X181256904Y-57383945D01*
X181445262Y-57461966D01*
X181645221Y-57501740D01*
X181849099Y-57501740D01*
X182049058Y-57461966D01*
X182237416Y-57383945D01*
X182406934Y-57270677D01*
X182551097Y-57126514D01*
X182664365Y-56956996D01*
X182742386Y-56768638D01*
X182782160Y-56568679D01*
X182782160Y-56364801D01*
X182742386Y-56164842D01*
X182664365Y-55976484D01*
X182551097Y-55806966D01*
X182406934Y-55662803D01*
X182237416Y-55549535D01*
X182049058Y-55471514D01*
X181849099Y-55431740D01*
X181645221Y-55431740D01*
X181445262Y-55471514D01*
X181256904Y-55549535D01*
X181087386Y-55662803D01*
X180943223Y-55806966D01*
X180829955Y-55976484D01*
X180751934Y-56164842D01*
X180712160Y-56364801D01*
X50874598Y-56364801D01*
X50874598Y-53446341D01*
X180712160Y-53446341D01*
X180712160Y-53650219D01*
X180751934Y-53850178D01*
X180829955Y-54038536D01*
X180943223Y-54208054D01*
X181087386Y-54352217D01*
X181256904Y-54465485D01*
X181445262Y-54543506D01*
X181645221Y-54583280D01*
X181849099Y-54583280D01*
X182049058Y-54543506D01*
X182237416Y-54465485D01*
X182406934Y-54352217D01*
X182551097Y-54208054D01*
X182664365Y-54038536D01*
X182742386Y-53850178D01*
X182782160Y-53650219D01*
X182782160Y-53446341D01*
X182742386Y-53246382D01*
X182664365Y-53058024D01*
X182551097Y-52888506D01*
X182406934Y-52744343D01*
X182237416Y-52631075D01*
X182049058Y-52553054D01*
X181849099Y-52513280D01*
X181645221Y-52513280D01*
X181445262Y-52553054D01*
X181256904Y-52631075D01*
X181087386Y-52744343D01*
X180943223Y-52888506D01*
X180829955Y-53058024D01*
X180751934Y-53246382D01*
X180712160Y-53446341D01*
X50874598Y-53446341D01*
X50874599Y-41409255D01*
X54754598Y-41409255D01*
X54754598Y-42056343D01*
X54880838Y-42690998D01*
X55128469Y-43288830D01*
X55487972Y-43826865D01*
X55945532Y-44284425D01*
X56483567Y-44643928D01*
X57081399Y-44891559D01*
X57716054Y-45017799D01*
X58363142Y-45017799D01*
X58997797Y-44891559D01*
X59595629Y-44643928D01*
X60133664Y-44284425D01*
X60591224Y-43826865D01*
X60950727Y-43288830D01*
X61198358Y-42690998D01*
X61324598Y-42056343D01*
X61324598Y-41409255D01*
X236954600Y-41409255D01*
X236954600Y-42056343D01*
X237080840Y-42690998D01*
X237328471Y-43288830D01*
X237687974Y-43826865D01*
X238145534Y-44284425D01*
X238683569Y-44643928D01*
X239281401Y-44891559D01*
X239916056Y-45017799D01*
X240563144Y-45017799D01*
X241197799Y-44891559D01*
X241795631Y-44643928D01*
X242333666Y-44284425D01*
X242791226Y-43826865D01*
X243150729Y-43288830D01*
X243398360Y-42690998D01*
X243524600Y-42056343D01*
X243524600Y-41409255D01*
X243398360Y-40774600D01*
X243150729Y-40176768D01*
X242791226Y-39638733D01*
X242333666Y-39181173D01*
X241795631Y-38821670D01*
X241197799Y-38574039D01*
X240563144Y-38447799D01*
X239916056Y-38447799D01*
X239281401Y-38574039D01*
X238683569Y-38821670D01*
X238145534Y-39181173D01*
X237687974Y-39638733D01*
X237328471Y-40176768D01*
X237080840Y-40774600D01*
X236954600Y-41409255D01*
X61324598Y-41409255D01*
X61198358Y-40774600D01*
X60950727Y-40176768D01*
X60591224Y-39638733D01*
X60133664Y-39181173D01*
X59595629Y-38821670D01*
X58997797Y-38574039D01*
X58363142Y-38447799D01*
X57716054Y-38447799D01*
X57081399Y-38574039D01*
X56483567Y-38821670D01*
X55945532Y-39181173D01*
X55487972Y-39638733D01*
X55128469Y-40176768D01*
X54880838Y-40774600D01*
X54754598Y-41409255D01*
X50874599Y-41409255D01*
X50874600Y-34567800D01*
X247404599Y-34567800D01*
X247404600Y-153747800D01*
G37*
X247404600Y-153747800D02*
X50874598Y-153747800D01*
X50874598Y-146259257D01*
X54754598Y-146259257D01*
X54754598Y-146906345D01*
X54880838Y-147541000D01*
X55128469Y-148138832D01*
X55487972Y-148676867D01*
X55945532Y-149134427D01*
X56483567Y-149493930D01*
X57081399Y-149741561D01*
X57716054Y-149867801D01*
X58363142Y-149867801D01*
X58997797Y-149741561D01*
X59595629Y-149493930D01*
X60133664Y-149134427D01*
X60591224Y-148676867D01*
X60950727Y-148138832D01*
X61198358Y-147541000D01*
X61324598Y-146906345D01*
X61324598Y-146259257D01*
X236954600Y-146259257D01*
X236954600Y-146906345D01*
X237080840Y-147541000D01*
X237328471Y-148138832D01*
X237687974Y-148676867D01*
X238145534Y-149134427D01*
X238683569Y-149493930D01*
X239281401Y-149741561D01*
X239916056Y-149867801D01*
X240563144Y-149867801D01*
X241197799Y-149741561D01*
X241795631Y-149493930D01*
X242333666Y-149134427D01*
X242791226Y-148676867D01*
X243150729Y-148138832D01*
X243398360Y-147541000D01*
X243524600Y-146906345D01*
X243524600Y-146259257D01*
X243398360Y-145624602D01*
X243150729Y-145026770D01*
X242791226Y-144488735D01*
X242333666Y-144031175D01*
X241795631Y-143671672D01*
X241197799Y-143424041D01*
X240563144Y-143297801D01*
X239916056Y-143297801D01*
X239281401Y-143424041D01*
X238683569Y-143671672D01*
X238145534Y-144031175D01*
X237687974Y-144488735D01*
X237328471Y-145026770D01*
X237080840Y-145624602D01*
X236954600Y-146259257D01*
X61324598Y-146259257D01*
X61198358Y-145624602D01*
X60950727Y-145026770D01*
X60591224Y-144488735D01*
X60133664Y-144031175D01*
X59595629Y-143671672D01*
X58997797Y-143424041D01*
X58363142Y-143297801D01*
X57716054Y-143297801D01*
X57081399Y-143424041D01*
X56483567Y-143671672D01*
X55945532Y-144031175D01*
X55487972Y-144488735D01*
X55128469Y-145026770D01*
X54880838Y-145624602D01*
X54754598Y-146259257D01*
X50874598Y-146259257D01*
X50874598Y-142035475D01*
X141735729Y-142035475D01*
X142911446Y-143221564D01*
X144731260Y-144259318D01*
X146718562Y-144922104D01*
X148796983Y-145184450D01*
X150886648Y-145036277D01*
X152907254Y-144483277D01*
X154781150Y-143546702D01*
X155267752Y-143221564D01*
X156443469Y-142035475D01*
X149089599Y-134681605D01*
X141735729Y-142035475D01*
X50874598Y-142035475D01*
X50874598Y-140151261D01*
X92697600Y-140151261D01*
X92697600Y-140355139D01*
X92737374Y-140555098D01*
X92815395Y-140743456D01*
X92928663Y-140912974D01*
X93072826Y-141057137D01*
X93242344Y-141170405D01*
X93430702Y-141248426D01*
X93630661Y-141288200D01*
X93834539Y-141288200D01*
X94034498Y-141248426D01*
X94222856Y-141170405D01*
X94392374Y-141057137D01*
X94481900Y-140967611D01*
X94571426Y-141057137D01*
X94740944Y-141170405D01*
X94929302Y-141248426D01*
X95129261Y-141288200D01*
X95333139Y-141288200D01*
X95533098Y-141248426D01*
X95721456Y-141170405D01*
X95751900Y-141150063D01*
X95782344Y-141170405D01*
X95970702Y-141248426D01*
X96170661Y-141288200D01*
X96374539Y-141288200D01*
X96574498Y-141248426D01*
X96762856Y-141170405D01*
X96932374Y-141057137D01*
X97021900Y-140967611D01*
X97111426Y-141057137D01*
X97280944Y-141170405D01*
X97469302Y-141248426D01*
X97669261Y-141288200D01*
X97873139Y-141288200D01*
X98073098Y-141248426D01*
X98261456Y-141170405D01*
X98430974Y-141057137D01*
X98575137Y-140912974D01*
X98688405Y-140743456D01*
X98766426Y-140555098D01*
X98806200Y-140355139D01*
X98806200Y-140151261D01*
X98766426Y-139951302D01*
X98688405Y-139762944D01*
X98575137Y-139593426D01*
X98430974Y-139449263D01*
X98261456Y-139335995D01*
X98073098Y-139257974D01*
X97873139Y-139218200D01*
X97669261Y-139218200D01*
X97469302Y-139257974D01*
X97280944Y-139335995D01*
X97111426Y-139449263D01*
X97021900Y-139538789D01*
X96932374Y-139449263D01*
X96762856Y-139335995D01*
X96574498Y-139257974D01*
X96374539Y-139218200D01*
X96170661Y-139218200D01*
X95970702Y-139257974D01*
X95782344Y-139335995D01*
X95751900Y-139356337D01*
X95721456Y-139335995D01*
X95533098Y-139257974D01*
X95333139Y-139218200D01*
X95129261Y-139218200D01*
X94929302Y-139257974D01*
X94740944Y-139335995D01*
X94571426Y-139449263D01*
X94481900Y-139538789D01*
X94392374Y-139449263D01*
X94222856Y-139335995D01*
X94034498Y-139257974D01*
X93834539Y-139218200D01*
X93630661Y-139218200D01*
X93430702Y-139257974D01*
X93242344Y-139335995D01*
X93072826Y-139449263D01*
X92928663Y-139593426D01*
X92815395Y-139762944D01*
X92737374Y-139951302D01*
X92697600Y-140151261D01*
X50874598Y-140151261D01*
X50874598Y-134209384D01*
X138407149Y-134209384D01*
X138555322Y-136299049D01*
X139108322Y-138319655D01*
X140044897Y-140193551D01*
X140370035Y-140680153D01*
X141556124Y-141855870D01*
X148909994Y-134502000D01*
X149269204Y-134502000D01*
X156623074Y-141855870D01*
X157809163Y-140680153D01*
X158752744Y-139025481D01*
X222280400Y-139025481D01*
X222280400Y-139229359D01*
X222320174Y-139429318D01*
X222398195Y-139617676D01*
X222511463Y-139787194D01*
X222655626Y-139931357D01*
X222825144Y-140044625D01*
X223013502Y-140122646D01*
X223213461Y-140162420D01*
X223417339Y-140162420D01*
X223617298Y-140122646D01*
X223805656Y-140044625D01*
X223951372Y-139947261D01*
X224011463Y-140037194D01*
X224155626Y-140181357D01*
X224325144Y-140294625D01*
X224513502Y-140372646D01*
X224713461Y-140412420D01*
X224917339Y-140412420D01*
X225117298Y-140372646D01*
X225305656Y-140294625D01*
X225475174Y-140181357D01*
X225619337Y-140037194D01*
X225679428Y-139947261D01*
X225825144Y-140044625D01*
X226013502Y-140122646D01*
X226213461Y-140162420D01*
X226417339Y-140162420D01*
X226617298Y-140122646D01*
X226805656Y-140044625D01*
X226975174Y-139931357D01*
X227119337Y-139787194D01*
X227232605Y-139617676D01*
X227310626Y-139429318D01*
X227350400Y-139229359D01*
X227350400Y-139025481D01*
X227310626Y-138825522D01*
X227232605Y-138637164D01*
X227119337Y-138467646D01*
X226975174Y-138323483D01*
X226805656Y-138210215D01*
X226617298Y-138132194D01*
X226417339Y-138092420D01*
X226213461Y-138092420D01*
X226013502Y-138132194D01*
X225825144Y-138210215D01*
X225655626Y-138323483D01*
X225511463Y-138467646D01*
X225451372Y-138557579D01*
X225305656Y-138460215D01*
X225117298Y-138382194D01*
X224917339Y-138342420D01*
X224713461Y-138342420D01*
X224513502Y-138382194D01*
X224325144Y-138460215D01*
X224179428Y-138557579D01*
X224119337Y-138467646D01*
X223975174Y-138323483D01*
X223805656Y-138210215D01*
X223617298Y-138132194D01*
X223417339Y-138092420D01*
X223213461Y-138092420D01*
X223013502Y-138132194D01*
X222825144Y-138210215D01*
X222655626Y-138323483D01*
X222511463Y-138467646D01*
X222398195Y-138637164D01*
X222320174Y-138825522D01*
X222280400Y-139025481D01*
X158752744Y-139025481D01*
X158846917Y-138860339D01*
X159411382Y-137167841D01*
X215138620Y-137167841D01*
X215138620Y-137371719D01*
X215178394Y-137571678D01*
X215256415Y-137760036D01*
X215369683Y-137929554D01*
X215513846Y-138073717D01*
X215683364Y-138186985D01*
X215871722Y-138265006D01*
X216071681Y-138304780D01*
X216275559Y-138304780D01*
X216475518Y-138265006D01*
X216663876Y-138186985D01*
X216833394Y-138073717D01*
X216977557Y-137929554D01*
X217090825Y-137760036D01*
X217168846Y-137571678D01*
X217178034Y-137525481D01*
X220780400Y-137525481D01*
X220780400Y-137729359D01*
X220820174Y-137929318D01*
X220898195Y-138117676D01*
X221011463Y-138287194D01*
X221155626Y-138431357D01*
X221325144Y-138544625D01*
X221513502Y-138622646D01*
X221713461Y-138662420D01*
X221917339Y-138662420D01*
X222117298Y-138622646D01*
X222305656Y-138544625D01*
X222475174Y-138431357D01*
X222619337Y-138287194D01*
X222732605Y-138117676D01*
X222810626Y-137929318D01*
X222850400Y-137729359D01*
X222850400Y-137525481D01*
X226780400Y-137525481D01*
X226780400Y-137729359D01*
X226820174Y-137929318D01*
X226898195Y-138117676D01*
X227011463Y-138287194D01*
X227155626Y-138431357D01*
X227325144Y-138544625D01*
X227513502Y-138622646D01*
X227713461Y-138662420D01*
X227917339Y-138662420D01*
X228117298Y-138622646D01*
X228305656Y-138544625D01*
X228475174Y-138431357D01*
X228619337Y-138287194D01*
X228732605Y-138117676D01*
X228810626Y-137929318D01*
X228850400Y-137729359D01*
X228850400Y-137525481D01*
X228810626Y-137325522D01*
X228732605Y-137137164D01*
X228619337Y-136967646D01*
X228475174Y-136823483D01*
X228305656Y-136710215D01*
X228117298Y-136632194D01*
X227917339Y-136592420D01*
X227713461Y-136592420D01*
X227513502Y-136632194D01*
X227325144Y-136710215D01*
X227155626Y-136823483D01*
X227011463Y-136967646D01*
X226898195Y-137137164D01*
X226820174Y-137325522D01*
X226780400Y-137525481D01*
X222850400Y-137525481D01*
X222810626Y-137325522D01*
X222732605Y-137137164D01*
X222619337Y-136967646D01*
X222475174Y-136823483D01*
X222305656Y-136710215D01*
X222117298Y-136632194D01*
X221917339Y-136592420D01*
X221713461Y-136592420D01*
X221513502Y-136632194D01*
X221325144Y-136710215D01*
X221155626Y-136823483D01*
X221011463Y-136967646D01*
X220898195Y-137137164D01*
X220820174Y-137325522D01*
X220780400Y-137525481D01*
X217178034Y-137525481D01*
X217178248Y-137524408D01*
X217225518Y-137515006D01*
X217413876Y-137436985D01*
X217583394Y-137323717D01*
X217727557Y-137179554D01*
X217840825Y-137010036D01*
X217918846Y-136821678D01*
X217958620Y-136621719D01*
X217958620Y-136417841D01*
X217918846Y-136217882D01*
X217840825Y-136029524D01*
X217727557Y-135860006D01*
X217583394Y-135715843D01*
X217413876Y-135602575D01*
X217225518Y-135524554D01*
X217025559Y-135484780D01*
X216821681Y-135484780D01*
X216621722Y-135524554D01*
X216433364Y-135602575D01*
X216263846Y-135715843D01*
X216119683Y-135860006D01*
X216006415Y-136029524D01*
X215928394Y-136217882D01*
X215918992Y-136265152D01*
X215871722Y-136274554D01*
X215683364Y-136352575D01*
X215513846Y-136465843D01*
X215369683Y-136610006D01*
X215256415Y-136779524D01*
X215178394Y-136967882D01*
X215138620Y-137167841D01*
X159411382Y-137167841D01*
X159509703Y-136873037D01*
X159772049Y-134794616D01*
X159623876Y-132704951D01*
X159070876Y-130684345D01*
X158272902Y-129087761D01*
X202171100Y-129087761D01*
X202171100Y-129291639D01*
X202210874Y-129491598D01*
X202288895Y-129679956D01*
X202402163Y-129849474D01*
X202546326Y-129993637D01*
X202715844Y-130106905D01*
X202904202Y-130184926D01*
X203104161Y-130224700D01*
X203308039Y-130224700D01*
X203507998Y-130184926D01*
X203696356Y-130106905D01*
X203865874Y-129993637D01*
X203955400Y-129904111D01*
X204044926Y-129993637D01*
X204214444Y-130106905D01*
X204402802Y-130184926D01*
X204602761Y-130224700D01*
X204806639Y-130224700D01*
X205006598Y-130184926D01*
X205194956Y-130106905D01*
X205364474Y-129993637D01*
X205508637Y-129849474D01*
X205621905Y-129679956D01*
X205699926Y-129491598D01*
X205739700Y-129291639D01*
X205739700Y-129087761D01*
X205699926Y-128887802D01*
X205621905Y-128699444D01*
X205508637Y-128529926D01*
X205364474Y-128385763D01*
X205194956Y-128272495D01*
X205006598Y-128194474D01*
X204806639Y-128154700D01*
X204602761Y-128154700D01*
X204402802Y-128194474D01*
X204214444Y-128272495D01*
X204044926Y-128385763D01*
X203955400Y-128475289D01*
X203865874Y-128385763D01*
X203696356Y-128272495D01*
X203507998Y-128194474D01*
X203308039Y-128154700D01*
X203104161Y-128154700D01*
X202904202Y-128194474D01*
X202715844Y-128272495D01*
X202546326Y-128385763D01*
X202402163Y-128529926D01*
X202288895Y-128699444D01*
X202210874Y-128887802D01*
X202171100Y-129087761D01*
X158272902Y-129087761D01*
X158134301Y-128810449D01*
X157809163Y-128323847D01*
X156623074Y-127148130D01*
X149269204Y-134502000D01*
X148909994Y-134502000D01*
X141556124Y-127148130D01*
X140370035Y-128323847D01*
X139332281Y-130143661D01*
X138669495Y-132130963D01*
X138407149Y-134209384D01*
X50874598Y-134209384D01*
X50874598Y-129151261D01*
X92697600Y-129151261D01*
X92697600Y-129355139D01*
X92737374Y-129555098D01*
X92815395Y-129743456D01*
X92928663Y-129912974D01*
X93072826Y-130057137D01*
X93242344Y-130170405D01*
X93430702Y-130248426D01*
X93630661Y-130288200D01*
X93834539Y-130288200D01*
X94034498Y-130248426D01*
X94222856Y-130170405D01*
X94392374Y-130057137D01*
X94481900Y-129967611D01*
X94571426Y-130057137D01*
X94740944Y-130170405D01*
X94929302Y-130248426D01*
X95129261Y-130288200D01*
X95333139Y-130288200D01*
X95533098Y-130248426D01*
X95721456Y-130170405D01*
X95751900Y-130150063D01*
X95782344Y-130170405D01*
X95970702Y-130248426D01*
X96170661Y-130288200D01*
X96374539Y-130288200D01*
X96574498Y-130248426D01*
X96762856Y-130170405D01*
X96932374Y-130057137D01*
X97021900Y-129967611D01*
X97111426Y-130057137D01*
X97280944Y-130170405D01*
X97469302Y-130248426D01*
X97669261Y-130288200D01*
X97873139Y-130288200D01*
X98073098Y-130248426D01*
X98261456Y-130170405D01*
X98430974Y-130057137D01*
X98575137Y-129912974D01*
X98688405Y-129743456D01*
X98766426Y-129555098D01*
X98806200Y-129355139D01*
X98806200Y-129151261D01*
X98766426Y-128951302D01*
X98688405Y-128762944D01*
X98575137Y-128593426D01*
X98430974Y-128449263D01*
X98261456Y-128335995D01*
X98073098Y-128257974D01*
X97873139Y-128218200D01*
X97669261Y-128218200D01*
X97469302Y-128257974D01*
X97280944Y-128335995D01*
X97111426Y-128449263D01*
X97021900Y-128538789D01*
X96932374Y-128449263D01*
X96762856Y-128335995D01*
X96574498Y-128257974D01*
X96374539Y-128218200D01*
X96170661Y-128218200D01*
X95970702Y-128257974D01*
X95782344Y-128335995D01*
X95751900Y-128356337D01*
X95721456Y-128335995D01*
X95533098Y-128257974D01*
X95333139Y-128218200D01*
X95129261Y-128218200D01*
X94929302Y-128257974D01*
X94740944Y-128335995D01*
X94571426Y-128449263D01*
X94481900Y-128538789D01*
X94392374Y-128449263D01*
X94222856Y-128335995D01*
X94034498Y-128257974D01*
X93834539Y-128218200D01*
X93630661Y-128218200D01*
X93430702Y-128257974D01*
X93242344Y-128335995D01*
X93072826Y-128449263D01*
X92928663Y-128593426D01*
X92815395Y-128762944D01*
X92737374Y-128951302D01*
X92697600Y-129151261D01*
X50874598Y-129151261D01*
X50874598Y-126968525D01*
X141735729Y-126968525D01*
X149089599Y-134322395D01*
X156443469Y-126968525D01*
X155267752Y-125782436D01*
X153447938Y-124744682D01*
X151460636Y-124081896D01*
X149382215Y-123819550D01*
X147292550Y-123967723D01*
X145271944Y-124520723D01*
X143398048Y-125457298D01*
X142911446Y-125782436D01*
X141735729Y-126968525D01*
X50874598Y-126968525D01*
X50874598Y-118668461D01*
X144054599Y-118668461D01*
X144054599Y-118872339D01*
X144094373Y-119072298D01*
X144172394Y-119260656D01*
X144285662Y-119430174D01*
X144429825Y-119574337D01*
X144599343Y-119687605D01*
X144737313Y-119744755D01*
X144680173Y-119882702D01*
X144640399Y-120082661D01*
X144640399Y-120286539D01*
X144680173Y-120486498D01*
X144758194Y-120674856D01*
X144871462Y-120844374D01*
X145015625Y-120988537D01*
X145185143Y-121101805D01*
X145373501Y-121179826D01*
X145573460Y-121219600D01*
X145777338Y-121219600D01*
X145977297Y-121179826D01*
X146115244Y-121122686D01*
X146172394Y-121260656D01*
X146285662Y-121430174D01*
X146429825Y-121574337D01*
X146599343Y-121687605D01*
X146787701Y-121765626D01*
X146987660Y-121805400D01*
X147191538Y-121805400D01*
X147391497Y-121765626D01*
X147579855Y-121687605D01*
X147749373Y-121574337D01*
X147893536Y-121430174D01*
X148006804Y-121260656D01*
X148084825Y-121072298D01*
X148089599Y-121048297D01*
X148094373Y-121072298D01*
X148172394Y-121260656D01*
X148285662Y-121430174D01*
X148429825Y-121574337D01*
X148599343Y-121687605D01*
X148787701Y-121765626D01*
X148987660Y-121805400D01*
X149191538Y-121805400D01*
X149391497Y-121765626D01*
X149579855Y-121687605D01*
X149749373Y-121574337D01*
X149893536Y-121430174D01*
X150006804Y-121260656D01*
X150084825Y-121072298D01*
X150089599Y-121048297D01*
X150094373Y-121072298D01*
X150172394Y-121260656D01*
X150285662Y-121430174D01*
X150429825Y-121574337D01*
X150599343Y-121687605D01*
X150787701Y-121765626D01*
X150987660Y-121805400D01*
X151191538Y-121805400D01*
X151391497Y-121765626D01*
X151579855Y-121687605D01*
X151749373Y-121574337D01*
X151893536Y-121430174D01*
X152006804Y-121260656D01*
X152063954Y-121122686D01*
X152201901Y-121179826D01*
X152401860Y-121219600D01*
X152605738Y-121219600D01*
X152805697Y-121179826D01*
X152994055Y-121101805D01*
X153163573Y-120988537D01*
X153307736Y-120844374D01*
X153421004Y-120674856D01*
X153499025Y-120486498D01*
X153538799Y-120286539D01*
X153538799Y-120082661D01*
X153499025Y-119882702D01*
X153441885Y-119744755D01*
X153579855Y-119687605D01*
X153749373Y-119574337D01*
X153893536Y-119430174D01*
X154006804Y-119260656D01*
X154084825Y-119072298D01*
X154124599Y-118872339D01*
X154124599Y-118668461D01*
X154084825Y-118468502D01*
X154006804Y-118280144D01*
X153893536Y-118110626D01*
X153749373Y-117966463D01*
X153579855Y-117853195D01*
X153391497Y-117775174D01*
X153191538Y-117735400D01*
X152987660Y-117735400D01*
X152787701Y-117775174D01*
X152599343Y-117853195D01*
X152429825Y-117966463D01*
X152285662Y-118110626D01*
X152172394Y-118280144D01*
X152094373Y-118468502D01*
X152054599Y-118668461D01*
X152054599Y-118872339D01*
X152094373Y-119072298D01*
X152151513Y-119210245D01*
X152013543Y-119267395D01*
X151844025Y-119380663D01*
X151699862Y-119524826D01*
X151586594Y-119694344D01*
X151529444Y-119832314D01*
X151391497Y-119775174D01*
X151191538Y-119735400D01*
X150987660Y-119735400D01*
X150787701Y-119775174D01*
X150599343Y-119853195D01*
X150429825Y-119966463D01*
X150285662Y-120110626D01*
X150172394Y-120280144D01*
X150094373Y-120468502D01*
X150089599Y-120492503D01*
X150084825Y-120468502D01*
X150006804Y-120280144D01*
X149893536Y-120110626D01*
X149749373Y-119966463D01*
X149579855Y-119853195D01*
X149391497Y-119775174D01*
X149191538Y-119735400D01*
X148987660Y-119735400D01*
X148787701Y-119775174D01*
X148599343Y-119853195D01*
X148429825Y-119966463D01*
X148285662Y-120110626D01*
X148172394Y-120280144D01*
X148094373Y-120468502D01*
X148089599Y-120492503D01*
X148084825Y-120468502D01*
X148006804Y-120280144D01*
X147893536Y-120110626D01*
X147749373Y-119966463D01*
X147579855Y-119853195D01*
X147391497Y-119775174D01*
X147191538Y-119735400D01*
X146987660Y-119735400D01*
X146787701Y-119775174D01*
X146649754Y-119832314D01*
X146592604Y-119694344D01*
X146479336Y-119524826D01*
X146335173Y-119380663D01*
X146165655Y-119267395D01*
X146027685Y-119210245D01*
X146084825Y-119072298D01*
X146124599Y-118872339D01*
X146124599Y-118668461D01*
X146084825Y-118468502D01*
X146006804Y-118280144D01*
X145893536Y-118110626D01*
X145749373Y-117966463D01*
X145579855Y-117853195D01*
X145391497Y-117775174D01*
X145191538Y-117735400D01*
X144987660Y-117735400D01*
X144787701Y-117775174D01*
X144599343Y-117853195D01*
X144429825Y-117966463D01*
X144285662Y-118110626D01*
X144172394Y-118280144D01*
X144094373Y-118468502D01*
X144054599Y-118668461D01*
X50874598Y-118668461D01*
X50874598Y-110007561D01*
X75946800Y-110007561D01*
X75946800Y-110211439D01*
X75986574Y-110411398D01*
X76064595Y-110599756D01*
X76177863Y-110769274D01*
X76322026Y-110913437D01*
X76491544Y-111026705D01*
X76679902Y-111104726D01*
X76879861Y-111144500D01*
X77083739Y-111144500D01*
X77283698Y-111104726D01*
X77472056Y-111026705D01*
X77641574Y-110913437D01*
X77785737Y-110769274D01*
X77899005Y-110599756D01*
X77977026Y-110411398D01*
X78016800Y-110211439D01*
X78016800Y-110007561D01*
X78865260Y-110007561D01*
X78865260Y-110211439D01*
X78905034Y-110411398D01*
X78983055Y-110599756D01*
X79096323Y-110769274D01*
X79240486Y-110913437D01*
X79410004Y-111026705D01*
X79598362Y-111104726D01*
X79798321Y-111144500D01*
X80002199Y-111144500D01*
X80202158Y-111104726D01*
X80390516Y-111026705D01*
X80560034Y-110913437D01*
X80704197Y-110769274D01*
X80817465Y-110599756D01*
X80895486Y-110411398D01*
X80935260Y-110211439D01*
X80935260Y-110110061D01*
X144054599Y-110110061D01*
X144054599Y-110313939D01*
X144094373Y-110513898D01*
X144172394Y-110702256D01*
X144285662Y-110871774D01*
X144429825Y-111015937D01*
X144599343Y-111129205D01*
X144787701Y-111207226D01*
X144987660Y-111247000D01*
X145191538Y-111247000D01*
X145391497Y-111207226D01*
X145579855Y-111129205D01*
X145749373Y-111015937D01*
X145893536Y-110871774D01*
X146006804Y-110702256D01*
X146084825Y-110513898D01*
X146124599Y-110313939D01*
X146124599Y-110110061D01*
X146084825Y-109910102D01*
X146027685Y-109772155D01*
X146165655Y-109715005D01*
X146335173Y-109601737D01*
X146479336Y-109457574D01*
X146592604Y-109288056D01*
X146649754Y-109150086D01*
X146787701Y-109207226D01*
X146987660Y-109247000D01*
X147191538Y-109247000D01*
X147391497Y-109207226D01*
X147579855Y-109129205D01*
X147749373Y-109015937D01*
X147893536Y-108871774D01*
X148006804Y-108702256D01*
X148084825Y-108513898D01*
X148089599Y-108489897D01*
X148094373Y-108513898D01*
X148172394Y-108702256D01*
X148285662Y-108871774D01*
X148429825Y-109015937D01*
X148599343Y-109129205D01*
X148787701Y-109207226D01*
X148987660Y-109247000D01*
X149191538Y-109247000D01*
X149391497Y-109207226D01*
X149579855Y-109129205D01*
X149749373Y-109015937D01*
X149893536Y-108871774D01*
X150006804Y-108702256D01*
X150084825Y-108513898D01*
X150089599Y-108489897D01*
X150094373Y-108513898D01*
X150172394Y-108702256D01*
X150285662Y-108871774D01*
X150429825Y-109015937D01*
X150599343Y-109129205D01*
X150787701Y-109207226D01*
X150987660Y-109247000D01*
X151191538Y-109247000D01*
X151391497Y-109207226D01*
X151529444Y-109150086D01*
X151586594Y-109288056D01*
X151699862Y-109457574D01*
X151844025Y-109601737D01*
X152013543Y-109715005D01*
X152151513Y-109772155D01*
X152094373Y-109910102D01*
X152054599Y-110110061D01*
X152054599Y-110313939D01*
X152094373Y-110513898D01*
X152172394Y-110702256D01*
X152285662Y-110871774D01*
X152429825Y-111015937D01*
X152599343Y-111129205D01*
X152787701Y-111207226D01*
X152987660Y-111247000D01*
X153191538Y-111247000D01*
X153391497Y-111207226D01*
X153579855Y-111129205D01*
X153749373Y-111015937D01*
X153893536Y-110871774D01*
X154006804Y-110702256D01*
X154084825Y-110513898D01*
X154124599Y-110313939D01*
X154124599Y-110110061D01*
X154084825Y-109910102D01*
X154006804Y-109721744D01*
X153893536Y-109552226D01*
X153749373Y-109408063D01*
X153579855Y-109294795D01*
X153441885Y-109237645D01*
X153499025Y-109099698D01*
X153538799Y-108899739D01*
X153538799Y-108695861D01*
X153499025Y-108495902D01*
X153421004Y-108307544D01*
X153307736Y-108138026D01*
X153163573Y-107993863D01*
X152994055Y-107880595D01*
X152805697Y-107802574D01*
X152605738Y-107762800D01*
X152401860Y-107762800D01*
X152201901Y-107802574D01*
X152063954Y-107859714D01*
X152006804Y-107721744D01*
X151893536Y-107552226D01*
X151749373Y-107408063D01*
X151579855Y-107294795D01*
X151391497Y-107216774D01*
X151191538Y-107177000D01*
X150987660Y-107177000D01*
X150787701Y-107216774D01*
X150599343Y-107294795D01*
X150429825Y-107408063D01*
X150285662Y-107552226D01*
X150172394Y-107721744D01*
X150094373Y-107910102D01*
X150089599Y-107934103D01*
X150084825Y-107910102D01*
X150006804Y-107721744D01*
X149893536Y-107552226D01*
X149749373Y-107408063D01*
X149579855Y-107294795D01*
X149391497Y-107216774D01*
X149191538Y-107177000D01*
X148987660Y-107177000D01*
X148787701Y-107216774D01*
X148599343Y-107294795D01*
X148429825Y-107408063D01*
X148285662Y-107552226D01*
X148172394Y-107721744D01*
X148094373Y-107910102D01*
X148089599Y-107934103D01*
X148084825Y-107910102D01*
X148006804Y-107721744D01*
X147893536Y-107552226D01*
X147749373Y-107408063D01*
X147579855Y-107294795D01*
X147391497Y-107216774D01*
X147191538Y-107177000D01*
X146987660Y-107177000D01*
X146787701Y-107216774D01*
X146599343Y-107294795D01*
X146429825Y-107408063D01*
X146285662Y-107552226D01*
X146172394Y-107721744D01*
X146115244Y-107859714D01*
X145977297Y-107802574D01*
X145777338Y-107762800D01*
X145573460Y-107762800D01*
X145373501Y-107802574D01*
X145185143Y-107880595D01*
X145015625Y-107993863D01*
X144871462Y-108138026D01*
X144758194Y-108307544D01*
X144680173Y-108495902D01*
X144640399Y-108695861D01*
X144640399Y-108899739D01*
X144680173Y-109099698D01*
X144737313Y-109237645D01*
X144599343Y-109294795D01*
X144429825Y-109408063D01*
X144285662Y-109552226D01*
X144172394Y-109721744D01*
X144094373Y-109910102D01*
X144054599Y-110110061D01*
X80935260Y-110110061D01*
X80935260Y-110007561D01*
X80895486Y-109807602D01*
X80817465Y-109619244D01*
X80704197Y-109449726D01*
X80560034Y-109305563D01*
X80390516Y-109192295D01*
X80202158Y-109114274D01*
X80002199Y-109074500D01*
X79798321Y-109074500D01*
X79598362Y-109114274D01*
X79410004Y-109192295D01*
X79240486Y-109305563D01*
X79096323Y-109449726D01*
X78983055Y-109619244D01*
X78905034Y-109807602D01*
X78865260Y-110007561D01*
X78016800Y-110007561D01*
X77977026Y-109807602D01*
X77899005Y-109619244D01*
X77785737Y-109449726D01*
X77641574Y-109305563D01*
X77472056Y-109192295D01*
X77283698Y-109114274D01*
X77083739Y-109074500D01*
X76879861Y-109074500D01*
X76679902Y-109114274D01*
X76491544Y-109192295D01*
X76322026Y-109305563D01*
X76177863Y-109449726D01*
X76064595Y-109619244D01*
X75986574Y-109807602D01*
X75946800Y-110007561D01*
X50874598Y-110007561D01*
X50874598Y-107723341D01*
X80801120Y-107723341D01*
X80801120Y-107927219D01*
X80840894Y-108127178D01*
X80918915Y-108315536D01*
X81032183Y-108485054D01*
X81176346Y-108629217D01*
X81345864Y-108742485D01*
X81534222Y-108820506D01*
X81734181Y-108860280D01*
X81938059Y-108860280D01*
X82138018Y-108820506D01*
X82326376Y-108742485D01*
X82495894Y-108629217D01*
X82640057Y-108485054D01*
X82753325Y-108315536D01*
X82831346Y-108127178D01*
X82871120Y-107927219D01*
X82871120Y-107723341D01*
X82869232Y-107713850D01*
X82995894Y-107629217D01*
X83140057Y-107485054D01*
X83253325Y-107315536D01*
X83331346Y-107127178D01*
X83371120Y-106927219D01*
X83371120Y-106723341D01*
X83331346Y-106523382D01*
X83253325Y-106335024D01*
X83182684Y-106229301D01*
X202349900Y-106229301D01*
X202349900Y-106433179D01*
X202389674Y-106633138D01*
X202467695Y-106821496D01*
X202580963Y-106991014D01*
X202725126Y-107135177D01*
X202894644Y-107248445D01*
X203083002Y-107326466D01*
X203282961Y-107366240D01*
X203486839Y-107366240D01*
X203686798Y-107326466D01*
X203875156Y-107248445D01*
X204044674Y-107135177D01*
X204188837Y-106991014D01*
X204302105Y-106821496D01*
X204380126Y-106633138D01*
X204419900Y-106433179D01*
X204419900Y-106229301D01*
X205268360Y-106229301D01*
X205268360Y-106433179D01*
X205308134Y-106633138D01*
X205386155Y-106821496D01*
X205499423Y-106991014D01*
X205643586Y-107135177D01*
X205813104Y-107248445D01*
X206001462Y-107326466D01*
X206201421Y-107366240D01*
X206405299Y-107366240D01*
X206605258Y-107326466D01*
X206793616Y-107248445D01*
X206963134Y-107135177D01*
X207107297Y-106991014D01*
X207220565Y-106821496D01*
X207298586Y-106633138D01*
X207338360Y-106433179D01*
X207338360Y-106229301D01*
X207298586Y-106029342D01*
X207220565Y-105840984D01*
X207107297Y-105671466D01*
X206963134Y-105527303D01*
X206793616Y-105414035D01*
X206605258Y-105336014D01*
X206405299Y-105296240D01*
X206201421Y-105296240D01*
X206001462Y-105336014D01*
X205813104Y-105414035D01*
X205643586Y-105527303D01*
X205499423Y-105671466D01*
X205386155Y-105840984D01*
X205308134Y-106029342D01*
X205268360Y-106229301D01*
X204419900Y-106229301D01*
X204380126Y-106029342D01*
X204302105Y-105840984D01*
X204188837Y-105671466D01*
X204044674Y-105527303D01*
X203875156Y-105414035D01*
X203686798Y-105336014D01*
X203486839Y-105296240D01*
X203282961Y-105296240D01*
X203083002Y-105336014D01*
X202894644Y-105414035D01*
X202725126Y-105527303D01*
X202580963Y-105671466D01*
X202467695Y-105840984D01*
X202389674Y-106029342D01*
X202349900Y-106229301D01*
X83182684Y-106229301D01*
X83140057Y-106165506D01*
X82995894Y-106021343D01*
X82826376Y-105908075D01*
X82638018Y-105830054D01*
X82438059Y-105790280D01*
X82234181Y-105790280D01*
X82034222Y-105830054D01*
X81845864Y-105908075D01*
X81676346Y-106021343D01*
X81532183Y-106165506D01*
X81418915Y-106335024D01*
X81340894Y-106523382D01*
X81301120Y-106723341D01*
X81301120Y-106927219D01*
X81303008Y-106936710D01*
X81176346Y-107021343D01*
X81032183Y-107165506D01*
X80918915Y-107335024D01*
X80840894Y-107523382D01*
X80801120Y-107723341D01*
X50874598Y-107723341D01*
X50874598Y-103945081D01*
X207204220Y-103945081D01*
X207204220Y-104148959D01*
X207243994Y-104348918D01*
X207322015Y-104537276D01*
X207435283Y-104706794D01*
X207579446Y-104850957D01*
X207748964Y-104964225D01*
X207937322Y-105042246D01*
X208137281Y-105082020D01*
X208341159Y-105082020D01*
X208541118Y-105042246D01*
X208729476Y-104964225D01*
X208898994Y-104850957D01*
X209043157Y-104706794D01*
X209156425Y-104537276D01*
X209234446Y-104348918D01*
X209274220Y-104148959D01*
X209274220Y-103945081D01*
X209272332Y-103935590D01*
X209398994Y-103850957D01*
X209543157Y-103706794D01*
X209656425Y-103537276D01*
X209734446Y-103348918D01*
X209774220Y-103148959D01*
X209774220Y-102945081D01*
X209734446Y-102745122D01*
X209656425Y-102556764D01*
X209543157Y-102387246D01*
X209398994Y-102243083D01*
X209229476Y-102129815D01*
X209041118Y-102051794D01*
X208841159Y-102012020D01*
X208637281Y-102012020D01*
X208437322Y-102051794D01*
X208248964Y-102129815D01*
X208079446Y-102243083D01*
X207935283Y-102387246D01*
X207822015Y-102556764D01*
X207743994Y-102745122D01*
X207704220Y-102945081D01*
X207704220Y-103148959D01*
X207706108Y-103158450D01*
X207579446Y-103243083D01*
X207435283Y-103387246D01*
X207322015Y-103556764D01*
X207243994Y-103745122D01*
X207204220Y-103945081D01*
X50874598Y-103945081D01*
X50874598Y-91912101D01*
X147654060Y-91912101D01*
X147654060Y-92115979D01*
X147693834Y-92315938D01*
X147771855Y-92504296D01*
X147885123Y-92673814D01*
X148029286Y-92817977D01*
X148198804Y-92931245D01*
X148387162Y-93009266D01*
X148587121Y-93049040D01*
X148790999Y-93049040D01*
X148798836Y-93047481D01*
X150356620Y-93047481D01*
X150356620Y-93251359D01*
X150396394Y-93451318D01*
X150474415Y-93639676D01*
X150587683Y-93809194D01*
X150731846Y-93953357D01*
X150901364Y-94066625D01*
X151089722Y-94144646D01*
X151289681Y-94184420D01*
X151493559Y-94184420D01*
X151693518Y-94144646D01*
X151881876Y-94066625D01*
X152051394Y-93953357D01*
X152195557Y-93809194D01*
X152308825Y-93639676D01*
X152386846Y-93451318D01*
X152426620Y-93251359D01*
X152426620Y-93047481D01*
X152414495Y-92986521D01*
X159620000Y-92986521D01*
X159620000Y-93190399D01*
X159659774Y-93390358D01*
X159737795Y-93578716D01*
X159851063Y-93748234D01*
X159995226Y-93892397D01*
X160164744Y-94005665D01*
X160353102Y-94083686D01*
X160553061Y-94123460D01*
X160756939Y-94123460D01*
X160956898Y-94083686D01*
X161145256Y-94005665D01*
X161314774Y-93892397D01*
X161458937Y-93748234D01*
X161572205Y-93578716D01*
X161650226Y-93390358D01*
X161690000Y-93190399D01*
X161690000Y-93070341D01*
X220590160Y-93070341D01*
X220590160Y-93274219D01*
X220629934Y-93474178D01*
X220707955Y-93662536D01*
X220821223Y-93832054D01*
X220965386Y-93976217D01*
X221134904Y-94089485D01*
X221323262Y-94167506D01*
X221523221Y-94207280D01*
X221727099Y-94207280D01*
X221927058Y-94167506D01*
X222115416Y-94089485D01*
X222284934Y-93976217D01*
X222429097Y-93832054D01*
X222542365Y-93662536D01*
X222620386Y-93474178D01*
X222660160Y-93274219D01*
X222660160Y-93070341D01*
X222620386Y-92870382D01*
X222542365Y-92682024D01*
X222429097Y-92512506D01*
X222284934Y-92368343D01*
X222115416Y-92255075D01*
X221927058Y-92177054D01*
X221727099Y-92137280D01*
X221523221Y-92137280D01*
X221323262Y-92177054D01*
X221134904Y-92255075D01*
X220965386Y-92368343D01*
X220821223Y-92512506D01*
X220707955Y-92682024D01*
X220629934Y-92870382D01*
X220590160Y-93070341D01*
X161690000Y-93070341D01*
X161690000Y-92986521D01*
X161650226Y-92786562D01*
X161572205Y-92598204D01*
X161458937Y-92428686D01*
X161314774Y-92284523D01*
X161145256Y-92171255D01*
X160956898Y-92093234D01*
X160756939Y-92053460D01*
X160553061Y-92053460D01*
X160353102Y-92093234D01*
X160164744Y-92171255D01*
X159995226Y-92284523D01*
X159851063Y-92428686D01*
X159737795Y-92598204D01*
X159659774Y-92786562D01*
X159620000Y-92986521D01*
X152414495Y-92986521D01*
X152386846Y-92847522D01*
X152308825Y-92659164D01*
X152195557Y-92489646D01*
X152051394Y-92345483D01*
X151881876Y-92232215D01*
X151693518Y-92154194D01*
X151493559Y-92114420D01*
X151289681Y-92114420D01*
X151089722Y-92154194D01*
X150901364Y-92232215D01*
X150731846Y-92345483D01*
X150587683Y-92489646D01*
X150474415Y-92659164D01*
X150396394Y-92847522D01*
X150356620Y-93047481D01*
X148798836Y-93047481D01*
X148990958Y-93009266D01*
X149179316Y-92931245D01*
X149348834Y-92817977D01*
X149492997Y-92673814D01*
X149606265Y-92504296D01*
X149684286Y-92315938D01*
X149724060Y-92115979D01*
X149724060Y-91912101D01*
X149684286Y-91712142D01*
X149606265Y-91523784D01*
X149550283Y-91440000D01*
X228473000Y-91440000D01*
X228473000Y-96520000D01*
X228475440Y-96544776D01*
X228482667Y-96568601D01*
X228494403Y-96590557D01*
X228510197Y-96609803D01*
X228529443Y-96625597D01*
X228551399Y-96637333D01*
X228575224Y-96644560D01*
X228600000Y-96647000D01*
X233680000Y-96647000D01*
X233704776Y-96644560D01*
X233728601Y-96637333D01*
X233750557Y-96625597D01*
X233769803Y-96609803D01*
X233785597Y-96590557D01*
X233797333Y-96568601D01*
X233804560Y-96544776D01*
X233807000Y-96520000D01*
X233807000Y-91440000D01*
X233804560Y-91415224D01*
X233797333Y-91391399D01*
X233785597Y-91369443D01*
X233769803Y-91350197D01*
X233750557Y-91334403D01*
X233728601Y-91322667D01*
X233704776Y-91315440D01*
X233680000Y-91313000D01*
X228600000Y-91313000D01*
X228575224Y-91315440D01*
X228551399Y-91322667D01*
X228529443Y-91334403D01*
X228510197Y-91350197D01*
X228494403Y-91369443D01*
X228482667Y-91391399D01*
X228475440Y-91415224D01*
X228473000Y-91440000D01*
X149550283Y-91440000D01*
X149492997Y-91354266D01*
X149348834Y-91210103D01*
X149179316Y-91096835D01*
X148990958Y-91018814D01*
X148790999Y-90979040D01*
X148587121Y-90979040D01*
X148387162Y-91018814D01*
X148198804Y-91096835D01*
X148029286Y-91210103D01*
X147885123Y-91354266D01*
X147771855Y-91523784D01*
X147693834Y-91712142D01*
X147654060Y-91912101D01*
X50874598Y-91912101D01*
X50874598Y-74233701D01*
X115670380Y-74233701D01*
X115670380Y-74437579D01*
X115710154Y-74637538D01*
X115788175Y-74825896D01*
X115901443Y-74995414D01*
X116045606Y-75139577D01*
X116215124Y-75252845D01*
X116403482Y-75330866D01*
X116603441Y-75370640D01*
X116807319Y-75370640D01*
X117007278Y-75330866D01*
X117195636Y-75252845D01*
X117365154Y-75139577D01*
X117509317Y-74995414D01*
X117622585Y-74825896D01*
X117700606Y-74637538D01*
X117740380Y-74437579D01*
X117740380Y-74233701D01*
X117700606Y-74033742D01*
X117622585Y-73845384D01*
X117509317Y-73675866D01*
X117365154Y-73531703D01*
X117195636Y-73418435D01*
X117007278Y-73340414D01*
X116807319Y-73300640D01*
X116603441Y-73300640D01*
X116403482Y-73340414D01*
X116215124Y-73418435D01*
X116045606Y-73531703D01*
X115901443Y-73675866D01*
X115788175Y-73845384D01*
X115710154Y-74033742D01*
X115670380Y-74233701D01*
X50874598Y-74233701D01*
X50874598Y-71315241D01*
X115670380Y-71315241D01*
X115670380Y-71519119D01*
X115710154Y-71719078D01*
X115788175Y-71907436D01*
X115901443Y-72076954D01*
X116045606Y-72221117D01*
X116215124Y-72334385D01*
X116403482Y-72412406D01*
X116603441Y-72452180D01*
X116807319Y-72452180D01*
X117007278Y-72412406D01*
X117195636Y-72334385D01*
X117365154Y-72221117D01*
X117509317Y-72076954D01*
X117622585Y-71907436D01*
X117700606Y-71719078D01*
X117740380Y-71519119D01*
X117740380Y-71315241D01*
X117700606Y-71115282D01*
X117622585Y-70926924D01*
X117509317Y-70757406D01*
X117365154Y-70613243D01*
X117195636Y-70499975D01*
X117007278Y-70421954D01*
X116807319Y-70382180D01*
X116603441Y-70382180D01*
X116403482Y-70421954D01*
X116215124Y-70499975D01*
X116045606Y-70613243D01*
X115901443Y-70757406D01*
X115788175Y-70926924D01*
X115710154Y-71115282D01*
X115670380Y-71315241D01*
X50874598Y-71315241D01*
X50874598Y-68879381D01*
X112386160Y-68879381D01*
X112386160Y-69083259D01*
X112425934Y-69283218D01*
X112503955Y-69471576D01*
X112617223Y-69641094D01*
X112761386Y-69785257D01*
X112930904Y-69898525D01*
X113119262Y-69976546D01*
X113319221Y-70016320D01*
X113523099Y-70016320D01*
X113532590Y-70014432D01*
X113617223Y-70141094D01*
X113761386Y-70285257D01*
X113930904Y-70398525D01*
X114119262Y-70476546D01*
X114319221Y-70516320D01*
X114523099Y-70516320D01*
X114723058Y-70476546D01*
X114911416Y-70398525D01*
X115080934Y-70285257D01*
X115225097Y-70141094D01*
X115338365Y-69971576D01*
X115416386Y-69783218D01*
X115456160Y-69583259D01*
X115456160Y-69379381D01*
X115416386Y-69179422D01*
X115338365Y-68991064D01*
X115225097Y-68821546D01*
X115080934Y-68677383D01*
X114911416Y-68564115D01*
X114723058Y-68486094D01*
X114523099Y-68446320D01*
X114319221Y-68446320D01*
X114309730Y-68448208D01*
X114225097Y-68321546D01*
X114080934Y-68177383D01*
X113911416Y-68064115D01*
X113723058Y-67986094D01*
X113523099Y-67946320D01*
X113319221Y-67946320D01*
X113119262Y-67986094D01*
X112930904Y-68064115D01*
X112761386Y-68177383D01*
X112617223Y-68321546D01*
X112503955Y-68491064D01*
X112425934Y-68679422D01*
X112386160Y-68879381D01*
X50874598Y-68879381D01*
X50874598Y-58300661D01*
X182996380Y-58300661D01*
X182996380Y-58504539D01*
X183036154Y-58704498D01*
X183114175Y-58892856D01*
X183227443Y-59062374D01*
X183371606Y-59206537D01*
X183541124Y-59319805D01*
X183729482Y-59397826D01*
X183929441Y-59437600D01*
X184133319Y-59437600D01*
X184142810Y-59435712D01*
X184227443Y-59562374D01*
X184371606Y-59706537D01*
X184541124Y-59819805D01*
X184729482Y-59897826D01*
X184929441Y-59937600D01*
X185133319Y-59937600D01*
X185333278Y-59897826D01*
X185521636Y-59819805D01*
X185691154Y-59706537D01*
X185835317Y-59562374D01*
X185948585Y-59392856D01*
X186026606Y-59204498D01*
X186066380Y-59004539D01*
X186066380Y-58800661D01*
X186026606Y-58600702D01*
X185948585Y-58412344D01*
X185835317Y-58242826D01*
X185691154Y-58098663D01*
X185521636Y-57985395D01*
X185333278Y-57907374D01*
X185133319Y-57867600D01*
X184929441Y-57867600D01*
X184919950Y-57869488D01*
X184835317Y-57742826D01*
X184691154Y-57598663D01*
X184521636Y-57485395D01*
X184333278Y-57407374D01*
X184133319Y-57367600D01*
X183929441Y-57367600D01*
X183729482Y-57407374D01*
X183541124Y-57485395D01*
X183371606Y-57598663D01*
X183227443Y-57742826D01*
X183114175Y-57912344D01*
X183036154Y-58100702D01*
X182996380Y-58300661D01*
X50874598Y-58300661D01*
X50874598Y-56364801D01*
X180712160Y-56364801D01*
X180712160Y-56568679D01*
X180751934Y-56768638D01*
X180829955Y-56956996D01*
X180943223Y-57126514D01*
X181087386Y-57270677D01*
X181256904Y-57383945D01*
X181445262Y-57461966D01*
X181645221Y-57501740D01*
X181849099Y-57501740D01*
X182049058Y-57461966D01*
X182237416Y-57383945D01*
X182406934Y-57270677D01*
X182551097Y-57126514D01*
X182664365Y-56956996D01*
X182742386Y-56768638D01*
X182782160Y-56568679D01*
X182782160Y-56364801D01*
X182742386Y-56164842D01*
X182664365Y-55976484D01*
X182551097Y-55806966D01*
X182406934Y-55662803D01*
X182237416Y-55549535D01*
X182049058Y-55471514D01*
X181849099Y-55431740D01*
X181645221Y-55431740D01*
X181445262Y-55471514D01*
X181256904Y-55549535D01*
X181087386Y-55662803D01*
X180943223Y-55806966D01*
X180829955Y-55976484D01*
X180751934Y-56164842D01*
X180712160Y-56364801D01*
X50874598Y-56364801D01*
X50874598Y-53446341D01*
X180712160Y-53446341D01*
X180712160Y-53650219D01*
X180751934Y-53850178D01*
X180829955Y-54038536D01*
X180943223Y-54208054D01*
X181087386Y-54352217D01*
X181256904Y-54465485D01*
X181445262Y-54543506D01*
X181645221Y-54583280D01*
X181849099Y-54583280D01*
X182049058Y-54543506D01*
X182237416Y-54465485D01*
X182406934Y-54352217D01*
X182551097Y-54208054D01*
X182664365Y-54038536D01*
X182742386Y-53850178D01*
X182782160Y-53650219D01*
X182782160Y-53446341D01*
X182742386Y-53246382D01*
X182664365Y-53058024D01*
X182551097Y-52888506D01*
X182406934Y-52744343D01*
X182237416Y-52631075D01*
X182049058Y-52553054D01*
X181849099Y-52513280D01*
X181645221Y-52513280D01*
X181445262Y-52553054D01*
X181256904Y-52631075D01*
X181087386Y-52744343D01*
X180943223Y-52888506D01*
X180829955Y-53058024D01*
X180751934Y-53246382D01*
X180712160Y-53446341D01*
X50874598Y-53446341D01*
X50874599Y-41409255D01*
X54754598Y-41409255D01*
X54754598Y-42056343D01*
X54880838Y-42690998D01*
X55128469Y-43288830D01*
X55487972Y-43826865D01*
X55945532Y-44284425D01*
X56483567Y-44643928D01*
X57081399Y-44891559D01*
X57716054Y-45017799D01*
X58363142Y-45017799D01*
X58997797Y-44891559D01*
X59595629Y-44643928D01*
X60133664Y-44284425D01*
X60591224Y-43826865D01*
X60950727Y-43288830D01*
X61198358Y-42690998D01*
X61324598Y-42056343D01*
X61324598Y-41409255D01*
X236954600Y-41409255D01*
X236954600Y-42056343D01*
X237080840Y-42690998D01*
X237328471Y-43288830D01*
X237687974Y-43826865D01*
X238145534Y-44284425D01*
X238683569Y-44643928D01*
X239281401Y-44891559D01*
X239916056Y-45017799D01*
X240563144Y-45017799D01*
X241197799Y-44891559D01*
X241795631Y-44643928D01*
X242333666Y-44284425D01*
X242791226Y-43826865D01*
X243150729Y-43288830D01*
X243398360Y-42690998D01*
X243524600Y-42056343D01*
X243524600Y-41409255D01*
X243398360Y-40774600D01*
X243150729Y-40176768D01*
X242791226Y-39638733D01*
X242333666Y-39181173D01*
X241795631Y-38821670D01*
X241197799Y-38574039D01*
X240563144Y-38447799D01*
X239916056Y-38447799D01*
X239281401Y-38574039D01*
X238683569Y-38821670D01*
X238145534Y-39181173D01*
X237687974Y-39638733D01*
X237328471Y-40176768D01*
X237080840Y-40774600D01*
X236954600Y-41409255D01*
X61324598Y-41409255D01*
X61198358Y-40774600D01*
X60950727Y-40176768D01*
X60591224Y-39638733D01*
X60133664Y-39181173D01*
X59595629Y-38821670D01*
X58997797Y-38574039D01*
X58363142Y-38447799D01*
X57716054Y-38447799D01*
X57081399Y-38574039D01*
X56483567Y-38821670D01*
X55945532Y-39181173D01*
X55487972Y-39638733D01*
X55128469Y-40176768D01*
X54880838Y-40774600D01*
X54754598Y-41409255D01*
X50874599Y-41409255D01*
X50874600Y-34567800D01*
X247404599Y-34567800D01*
X247404600Y-153747800D01*
M02*
