M48
; DRILL file {KiCad (5.1.5)-3} date 05/22/20 15:31:28
; FORMAT={-:-/ absolute / inch / decimal}
; #@! TF.CreationDate,2020-05-22T15:31:28-05:00
; #@! TF.GenerationSoftware,Kicad,Pcbnew,(5.1.5)-3
; #@! TF.FileFunction,Plated,1,4,PTH
FMAT,2
INCH
T1C0.0157
T2C0.0315
T3C0.4370
%
G90
G05
T1
X2.5045Y-2.566
X2.534Y-2.5365
X2.534Y-2.5955
X2.5796Y-1.9283
X2.619Y-1.9185
X2.6412Y-3.9138
X2.6412Y-3.9926
X2.6412Y-4.0713
X2.6412Y-4.1501
X2.6412Y-4.2288
X2.6584Y-1.9283
X2.7199Y-3.9138
X2.7199Y-3.9926
X2.7199Y-4.0713
X2.7199Y-4.1501
X2.7199Y-4.2288
X2.7986Y-3.9138
X2.7986Y-3.9926
X2.7986Y-4.0713
X2.7986Y-4.1501
X2.7986Y-4.2288
X2.8774Y-3.9138
X2.8774Y-3.9926
X2.8774Y-4.0713
X2.8774Y-4.1501
X2.8774Y-4.2288
X2.9619Y-2.5364
X2.9619Y-2.5954
X2.9914Y-2.5659
X3.0308Y-4.335
X3.0624Y-4.9044
X3.0919Y-4.9241
X3.1214Y-4.9044
X3.1457Y-4.335
X3.166Y-3.6339
X3.2219Y-4.2451
X3.2292Y-4.091
X3.2307Y-4.0414
X3.2416Y-4.2057
X3.2616Y-4.0711
X3.4115Y-4.4766
X3.441Y-4.5061
X3.4705Y-4.4766
X3.4903Y-5.0887
X3.4903Y-5.5218
X3.5493Y-5.0887
X3.5493Y-5.5218
X3.5903Y-5.0887
X3.5903Y-5.5218
X3.5915Y-4.4766
X3.621Y-4.5061
X3.6493Y-5.0887
X3.6493Y-5.5218
X3.6505Y-4.4766
X3.6903Y-5.0887
X3.6903Y-5.5218
X3.7425Y-2.852
X3.7493Y-5.0887
X3.7493Y-5.5218
X3.7903Y-5.0887
X3.7903Y-5.5218
X3.8493Y-5.0887
X3.8493Y-5.5218
X3.8875Y-2.853
X4.1735Y-3.08
X4.1735Y-3.1587
X4.1735Y-3.2375
X4.1735Y-3.3162
X4.2523Y-3.08
X4.2523Y-3.1587
X4.2523Y-3.2375
X4.2523Y-3.3162
X4.3011Y-2.7267
X4.3308Y-2.6958
X4.331Y-3.08
X4.331Y-3.1587
X4.331Y-3.2375
X4.331Y-3.3162
X4.3507Y-2.7282
X4.4097Y-3.08
X4.4097Y-3.1587
X4.4097Y-3.2375
X4.4097Y-3.3162
X4.4654Y-2.7158
X4.4885Y-3.08
X4.4885Y-3.1587
X4.4885Y-3.2375
X4.4885Y-3.3162
X4.5048Y-2.7355
X4.54Y-3.9462
X4.5947Y-2.8117
X4.5947Y-2.9266
X4.8356Y-2.3554
X4.8356Y-2.4144
X4.8356Y-2.5354
X4.8356Y-2.5944
X4.8651Y-2.3849
X4.8651Y-2.5649
X4.9714Y-5.471
X4.9714Y-5.53
X5.001Y-5.5005
X5.0927Y-4.508
X5.1124Y-4.4686
X5.1124Y-4.5474
X5.1641Y-2.836
X5.1641Y-2.895
X5.1838Y-2.8655
X5.611Y-3.7189
X5.7122Y-4.3391
X5.7122Y-4.676
X5.7353Y-4.2834
X5.7353Y-4.7317
X5.7909Y-4.2603
X5.7909Y-4.7547
X5.8539Y-3.6226
X5.8547Y-3.4233
X5.8682Y-4.113
X5.8697Y-4.2603
X5.8697Y-4.7547
X5.9484Y-4.2603
X5.9484Y-4.7547
X5.9603Y-3.6673
X6.0041Y-4.2834
X6.0041Y-4.7317
X6.0271Y-4.3391
X6.0271Y-4.676
X6.0505Y-4.113
X6.239Y-3.1786
X6.2863Y-3.1786
X6.325Y-3.6649
X6.3547Y-3.7653
X6.5663Y-2.1693
X6.586Y-2.1398
X6.586Y-2.1988
X6.6036Y-4.4686
X6.6036Y-4.5474
X6.6233Y-4.508
X6.7489Y-3.0161
X6.7603Y-4.1564
X6.78Y-4.117
X6.78Y-4.1958
X6.8178Y-3.0161
X6.885Y-2.4699
X6.885Y-2.6499
X6.8867Y-3.0161
X6.9145Y-2.4404
X6.9145Y-2.4994
X6.9145Y-2.6204
X6.9145Y-2.6794
X7.1554Y-2.1082
X7.1554Y-2.2231
X7.2453Y-2.2993
X7.2616Y-1.7186
X7.2616Y-1.7973
X7.2616Y-1.8761
X7.2616Y-1.9548
X7.2847Y-2.319
X7.3404Y-1.7186
X7.3404Y-1.7973
X7.3404Y-1.8761
X7.3404Y-1.9548
X7.3994Y-2.3066
X7.4191Y-1.7186
X7.4191Y-1.7973
X7.4191Y-1.8761
X7.4191Y-1.9548
X7.4193Y-2.339
X7.449Y-2.3081
X7.4978Y-1.7186
X7.4978Y-1.7973
X7.4978Y-1.8761
X7.4978Y-1.9548
X7.5766Y-1.7186
X7.5766Y-1.7973
X7.5766Y-1.8761
X7.5766Y-1.9548
X7.6177Y-3.7651
X7.6177Y-3.8438
X7.6177Y-3.9226
X7.6177Y-4.0013
X7.6177Y-4.08
X7.6964Y-3.7651
X7.6964Y-3.8438
X7.6964Y-3.9226
X7.6964Y-4.0013
X7.6964Y-4.08
X7.7751Y-3.7651
X7.7751Y-3.8438
X7.7751Y-3.9226
X7.7751Y-4.0013
X7.7751Y-4.08
X7.8539Y-3.7651
X7.8539Y-3.8438
X7.8539Y-3.9226
X7.8539Y-4.0013
X7.8539Y-4.08
X7.8626Y-2.1818
X8.0002Y-5.0862
X8.0073Y-4.1863
X8.0076Y-2.1828
X8.0191Y-4.9758
X8.0193Y-4.9215
X8.0389Y-4.7556
X8.0592Y-5.0862
X8.0684Y-4.7753
X8.0979Y-4.7556
X8.1002Y-5.0862
X8.1002Y-5.5193
X8.1222Y-4.1863
X8.1592Y-5.0862
X8.1592Y-5.5193
X8.1984Y-4.0963
X8.2057Y-3.9422
X8.2072Y-3.8927
X8.2181Y-4.057
X8.2381Y-3.9224
X8.2471Y-3.5781
X8.4188Y-3.9137
X8.5108Y-5.4043
X8.5108Y-5.8571
X8.5403Y-5.3748
X8.5403Y-5.8866
X8.5698Y-5.8571
X8.7254Y-3.6682
X8.7329Y-5.4184
X8.7587Y-2.4689
X8.7882Y-2.4394
X8.7882Y-2.4984
X8.7919Y-5.4775
X8.851Y-5.4873
X8.9101Y-5.4775
X8.9691Y-5.4184
X9.0917Y-3.1065
X9.1311Y-3.1163
X9.1429Y-3.8847
X9.1429Y-3.9438
X9.1429Y-4.0647
X9.1429Y-4.1238
X9.1705Y-3.1065
X9.1724Y-3.9143
X9.1724Y-4.0943
X9.2161Y-2.4393
X9.2161Y-2.4983
X9.2456Y-2.4688
T2
X5.5744Y-5.2954
X5.6609Y-5.0866
X5.6609Y-5.5041
X5.8697Y-5.0001
X5.8697Y-5.5906
X6.0785Y-5.0866
X6.0785Y-5.5041
X6.1649Y-5.2954
T3
X5.8697Y-5.2954
T0
M30
