G04 #@! TF.GenerationSoftware,KiCad,Pcbnew,(5.1.5)-3*
G04 #@! TF.CreationDate,2020-05-22T15:31:26-05:00*
G04 #@! TF.ProjectId,Power_Board,506f7765-725f-4426-9f61-72642e6b6963,rev?*
G04 #@! TF.SameCoordinates,Original*
G04 #@! TF.FileFunction,Copper,L3,Inr*
G04 #@! TF.FilePolarity,Positive*
%FSLAX46Y46*%
G04 Gerber Fmt 4.6, Leading zero omitted, Abs format (unit mm)*
G04 Created by KiCad (PCBNEW (5.1.5)-3) date 2020-05-22 15:31:26*
%MOMM*%
%LPD*%
G04 APERTURE LIST*
%ADD10C,0.300000*%
%ADD11C,20.000000*%
%ADD12C,1.100000*%
%ADD13C,0.800000*%
%ADD14C,0.254000*%
G04 APERTURE END LIST*
D10*
X231640000Y-93158571D02*
X230711428Y-93158571D01*
X231211428Y-93730000D01*
X230997142Y-93730000D01*
X230854285Y-93801428D01*
X230782857Y-93872857D01*
X230711428Y-94015714D01*
X230711428Y-94372857D01*
X230782857Y-94515714D01*
X230854285Y-94587142D01*
X230997142Y-94658571D01*
X231425714Y-94658571D01*
X231568571Y-94587142D01*
X231640000Y-94515714D01*
D11*
X149089599Y-134502000D03*
D12*
X149089599Y-127002000D03*
X154392899Y-129198700D03*
X156589599Y-134502000D03*
X154392899Y-139805300D03*
X149089599Y-142002000D03*
X143786299Y-139805300D03*
X141589599Y-134502000D03*
X143786299Y-129198700D03*
D13*
X234088240Y-63457520D03*
X234088240Y-61957520D03*
X234838240Y-62707520D03*
X167284640Y-55850220D03*
X167284640Y-54350220D03*
X232930140Y-78904920D03*
X230930140Y-78904920D03*
X223220600Y-63460060D03*
X222470600Y-62710060D03*
X166784640Y-55100220D03*
X223220600Y-61960060D03*
X203393040Y-55443120D03*
X199710040Y-55417720D03*
X188445140Y-43651920D03*
X186445140Y-49651920D03*
X188445140Y-45651920D03*
X184445140Y-47651920D03*
X186445140Y-43651920D03*
X184445140Y-43651920D03*
X186445140Y-47651920D03*
X188445140Y-47651920D03*
X186445140Y-45651920D03*
X184445140Y-45651920D03*
X184445140Y-49651920D03*
X192445140Y-47651920D03*
X192445140Y-43651920D03*
X192445140Y-49651920D03*
X190445140Y-47651920D03*
X190445140Y-45651920D03*
X231930140Y-79154920D03*
X190445140Y-43651920D03*
X192445140Y-45651920D03*
X190445140Y-49651920D03*
X175629000Y-68057460D03*
X188450220Y-59410600D03*
X188445140Y-49651920D03*
X189204600Y-58625740D03*
X187945840Y-58587640D03*
X174879000Y-62735460D03*
X174879000Y-67307460D03*
X175629000Y-66557460D03*
X175629000Y-63485460D03*
X175629000Y-61985460D03*
X185031380Y-58902600D03*
X181747160Y-56466740D03*
X181747160Y-53548280D03*
X79283740Y-124572020D03*
X77783740Y-124572020D03*
X78533740Y-125072020D03*
X67085440Y-103411520D03*
X73085440Y-105411520D03*
X69085440Y-103411520D03*
X71085440Y-107411520D03*
X67085440Y-105411520D03*
X67085440Y-107411520D03*
X71085440Y-105411520D03*
X71085440Y-103411520D03*
X69085440Y-105411520D03*
X69085440Y-107411520D03*
X73085440Y-107411520D03*
X71085440Y-99411520D03*
X67085440Y-99411520D03*
X73085440Y-99411520D03*
X71085440Y-101411520D03*
X69085440Y-101411520D03*
X67085440Y-101411520D03*
X69085440Y-99411520D03*
X73085440Y-101411520D03*
X82844120Y-103406440D03*
X73085440Y-103411520D03*
X82059260Y-102652060D03*
X82021160Y-103910820D03*
X82336120Y-106825280D03*
X81836120Y-107825280D03*
X79900260Y-110109500D03*
X76981800Y-110109500D03*
X203384900Y-106331240D03*
X206303360Y-106331240D03*
X151391620Y-93149420D03*
X160655000Y-93088460D03*
X142519400Y-94460060D03*
X149052280Y-104470200D03*
X153682700Y-104470200D03*
X172211740Y-104572560D03*
X171711740Y-105572560D03*
X172211740Y-106572560D03*
X203690220Y-125005720D03*
X203685140Y-126384940D03*
X216923620Y-149519780D03*
X216173620Y-148769780D03*
X217673620Y-148769780D03*
X224815400Y-139377420D03*
X226315400Y-139127420D03*
X227815400Y-137627420D03*
X223315400Y-139127420D03*
X209476340Y-90883740D03*
X221625160Y-93172280D03*
X213837520Y-99407980D03*
X205687360Y-120793260D03*
X204187360Y-120793260D03*
X204937360Y-121293260D03*
X199488540Y-99633260D03*
X193488540Y-103633260D03*
X197488540Y-101633260D03*
X197488540Y-99633260D03*
X199488540Y-103633260D03*
X195488540Y-97633260D03*
X197488540Y-95633260D03*
X193488540Y-97633260D03*
X195488540Y-95633260D03*
X193488540Y-99633260D03*
X199488540Y-101633260D03*
X195488540Y-99633260D03*
X193488540Y-101633260D03*
X195488540Y-103633260D03*
X199488540Y-95633260D03*
X197488540Y-97633260D03*
X199488540Y-97633260D03*
X197488540Y-103633260D03*
X193488540Y-95633260D03*
X209247220Y-99628180D03*
X208462360Y-98873800D03*
X195488540Y-101633260D03*
X208739220Y-103047020D03*
X208239220Y-104047020D03*
X232978700Y-103994460D03*
X232228700Y-103244460D03*
X232228700Y-104744460D03*
X232978700Y-99422460D03*
X232228700Y-100172460D03*
X232228700Y-98672460D03*
X115316500Y-100233220D03*
X92722880Y-113704680D03*
X87400880Y-114454680D03*
X91972880Y-114454680D03*
X91222880Y-113704680D03*
X88150880Y-113704680D03*
X86650880Y-113704680D03*
X80415880Y-92301560D03*
X127024260Y-139712440D03*
X126274260Y-138962440D03*
X126274260Y-140462440D03*
X184031380Y-58402600D03*
X114421160Y-69481320D03*
X122823540Y-59826460D03*
X123573540Y-60576460D03*
X122823540Y-61326460D03*
X122823540Y-65898460D03*
X123573540Y-65148460D03*
X122823540Y-64398460D03*
X64364300Y-65926400D03*
X63614300Y-65176400D03*
X64364300Y-64426400D03*
X75231940Y-64423860D03*
X75981940Y-65173860D03*
X75231940Y-65923860D03*
X113421160Y-68981320D03*
X131667900Y-72783700D03*
X131167900Y-73533700D03*
X131167900Y-72033700D03*
X66522400Y-48729000D03*
X67522400Y-48979000D03*
X65522400Y-48979000D03*
X110007400Y-78232000D03*
X110002320Y-68473320D03*
X109247940Y-69258180D03*
X110506700Y-69296280D03*
X116705380Y-71417180D03*
X116705380Y-74335640D03*
X98742500Y-72466200D03*
X95059500Y-72440800D03*
X207244700Y-140189700D03*
X204704700Y-129189700D03*
X207244700Y-129189700D03*
X205746100Y-140189700D03*
X203206100Y-129189700D03*
X205746100Y-129189700D03*
X90151200Y-140253200D03*
X88652600Y-140253200D03*
X91192600Y-140253200D03*
X93732600Y-140253200D03*
X96272600Y-140253200D03*
X92691200Y-140253200D03*
X95231200Y-140253200D03*
X97771200Y-140253200D03*
X88652600Y-129253200D03*
X90151200Y-129253200D03*
X97771200Y-129253200D03*
X95231200Y-129253200D03*
X93732600Y-129253200D03*
X92691200Y-129253200D03*
X91192600Y-129253200D03*
X96272600Y-129253200D03*
X129855200Y-113503200D03*
X129355200Y-114503200D03*
X129855200Y-115503200D03*
X168231200Y-114503200D03*
X167731200Y-115503200D03*
X167731200Y-113503200D03*
X112007400Y-78232000D03*
X114007400Y-78232000D03*
X110007400Y-80232000D03*
X112007400Y-80232000D03*
X114007400Y-80232000D03*
X110007400Y-82232000D03*
X112007400Y-82232000D03*
X114007400Y-82232000D03*
X110007400Y-84232000D03*
X112007400Y-84232000D03*
X114007400Y-84232000D03*
X108007400Y-78232000D03*
X106007400Y-78232000D03*
X106007400Y-80232000D03*
X106007400Y-82232000D03*
X106007400Y-84232000D03*
X108007400Y-80232000D03*
X108007400Y-82232000D03*
X108007400Y-84232000D03*
X151089599Y-120770400D03*
X147089599Y-120770400D03*
X145675399Y-120184600D03*
X152503799Y-120184600D03*
X153089599Y-118770400D03*
X145089599Y-118770400D03*
X149089599Y-120770400D03*
X151089599Y-108212000D03*
X147089599Y-108212000D03*
X153089599Y-110212000D03*
X145089599Y-110212000D03*
X149089599Y-108212000D03*
X145675399Y-108797800D03*
X152503799Y-108797800D03*
X161409380Y-95638620D03*
X148709380Y-86951820D03*
X158469940Y-80736060D03*
X159672680Y-80736060D03*
X173172120Y-76609940D03*
X174922120Y-76609940D03*
X171422120Y-76609940D03*
X208424260Y-100132560D03*
X148689060Y-92014040D03*
X216173620Y-137269780D03*
X216923620Y-136519780D03*
X221815400Y-137627420D03*
D14*
G36*
X208444641Y-90765207D02*
G01*
X208441340Y-90781801D01*
X208441340Y-90985679D01*
X208481114Y-91185638D01*
X208559135Y-91373996D01*
X208672403Y-91543514D01*
X208816566Y-91687677D01*
X208986084Y-91800945D01*
X209174442Y-91878966D01*
X209374401Y-91918740D01*
X209578279Y-91918740D01*
X209778238Y-91878966D01*
X209966596Y-91800945D01*
X210136114Y-91687677D01*
X210280277Y-91543514D01*
X210349442Y-91440000D01*
X228473000Y-91440000D01*
X228473000Y-96520000D01*
X228475440Y-96544776D01*
X228482667Y-96568601D01*
X228494403Y-96590557D01*
X228510197Y-96609803D01*
X228529443Y-96625597D01*
X228551399Y-96637333D01*
X228575224Y-96644560D01*
X228600000Y-96647000D01*
X233680000Y-96647000D01*
X233704776Y-96644560D01*
X233728601Y-96637333D01*
X233750557Y-96625597D01*
X233769803Y-96609803D01*
X233785597Y-96590557D01*
X233797333Y-96568601D01*
X233804560Y-96544776D01*
X233807000Y-96520000D01*
X233807000Y-91440000D01*
X233804560Y-91415224D01*
X233797333Y-91391399D01*
X233785597Y-91369443D01*
X233769803Y-91350197D01*
X233750557Y-91334403D01*
X233728601Y-91322667D01*
X233704776Y-91315440D01*
X233680000Y-91313000D01*
X228600000Y-91313000D01*
X228575224Y-91315440D01*
X228551399Y-91322667D01*
X228529443Y-91334403D01*
X228510197Y-91350197D01*
X228494403Y-91369443D01*
X228482667Y-91391399D01*
X228475440Y-91415224D01*
X228473000Y-91440000D01*
X210349442Y-91440000D01*
X210393545Y-91373996D01*
X210471566Y-91185638D01*
X210511340Y-90985679D01*
X210511340Y-90781801D01*
X210508062Y-90765322D01*
X238626830Y-90766897D01*
X239946180Y-91892296D01*
X239946180Y-137813514D01*
X228661694Y-149098000D01*
X218657943Y-149098000D01*
X218668846Y-149071678D01*
X218708620Y-148871719D01*
X218708620Y-148667841D01*
X218668846Y-148467882D01*
X218590825Y-148279524D01*
X218477557Y-148110006D01*
X218333394Y-147965843D01*
X218163876Y-147852575D01*
X217975518Y-147774554D01*
X217775559Y-147734780D01*
X217571681Y-147734780D01*
X217371722Y-147774554D01*
X217183364Y-147852575D01*
X217013846Y-147965843D01*
X216923620Y-148056069D01*
X216833394Y-147965843D01*
X216663876Y-147852575D01*
X216475518Y-147774554D01*
X216275559Y-147734780D01*
X216071681Y-147734780D01*
X215871722Y-147774554D01*
X215683364Y-147852575D01*
X215513846Y-147965843D01*
X215369683Y-148110006D01*
X215256415Y-148279524D01*
X215178394Y-148467882D01*
X215138620Y-148667841D01*
X215138620Y-148871719D01*
X215178394Y-149071678D01*
X215189297Y-149098000D01*
X202980826Y-149098000D01*
X200197720Y-146314894D01*
X200197720Y-140087761D01*
X204711100Y-140087761D01*
X204711100Y-140291639D01*
X204750874Y-140491598D01*
X204828895Y-140679956D01*
X204942163Y-140849474D01*
X205086326Y-140993637D01*
X205255844Y-141106905D01*
X205444202Y-141184926D01*
X205644161Y-141224700D01*
X205848039Y-141224700D01*
X206047998Y-141184926D01*
X206236356Y-141106905D01*
X206405874Y-140993637D01*
X206495400Y-140904111D01*
X206584926Y-140993637D01*
X206754444Y-141106905D01*
X206942802Y-141184926D01*
X207142761Y-141224700D01*
X207346639Y-141224700D01*
X207546598Y-141184926D01*
X207734956Y-141106905D01*
X207904474Y-140993637D01*
X208048637Y-140849474D01*
X208161905Y-140679956D01*
X208239926Y-140491598D01*
X208279700Y-140291639D01*
X208279700Y-140087761D01*
X208239926Y-139887802D01*
X208161905Y-139699444D01*
X208048637Y-139529926D01*
X207904474Y-139385763D01*
X207734956Y-139272495D01*
X207546598Y-139194474D01*
X207346639Y-139154700D01*
X207142761Y-139154700D01*
X206942802Y-139194474D01*
X206754444Y-139272495D01*
X206584926Y-139385763D01*
X206495400Y-139475289D01*
X206405874Y-139385763D01*
X206236356Y-139272495D01*
X206047998Y-139194474D01*
X205848039Y-139154700D01*
X205644161Y-139154700D01*
X205444202Y-139194474D01*
X205255844Y-139272495D01*
X205086326Y-139385763D01*
X204942163Y-139529926D01*
X204828895Y-139699444D01*
X204750874Y-139887802D01*
X204711100Y-140087761D01*
X200197720Y-140087761D01*
X200197720Y-129087761D01*
X204711100Y-129087761D01*
X204711100Y-129291639D01*
X204750874Y-129491598D01*
X204828895Y-129679956D01*
X204942163Y-129849474D01*
X205086326Y-129993637D01*
X205255844Y-130106905D01*
X205444202Y-130184926D01*
X205644161Y-130224700D01*
X205848039Y-130224700D01*
X206047998Y-130184926D01*
X206236356Y-130106905D01*
X206405874Y-129993637D01*
X206495400Y-129904111D01*
X206584926Y-129993637D01*
X206754444Y-130106905D01*
X206942802Y-130184926D01*
X207142761Y-130224700D01*
X207346639Y-130224700D01*
X207546598Y-130184926D01*
X207734956Y-130106905D01*
X207904474Y-129993637D01*
X208048637Y-129849474D01*
X208161905Y-129679956D01*
X208239926Y-129491598D01*
X208279700Y-129291639D01*
X208279700Y-129087761D01*
X208239926Y-128887802D01*
X208161905Y-128699444D01*
X208048637Y-128529926D01*
X207904474Y-128385763D01*
X207734956Y-128272495D01*
X207546598Y-128194474D01*
X207346639Y-128154700D01*
X207142761Y-128154700D01*
X206942802Y-128194474D01*
X206754444Y-128272495D01*
X206584926Y-128385763D01*
X206495400Y-128475289D01*
X206405874Y-128385763D01*
X206236356Y-128272495D01*
X206047998Y-128194474D01*
X205848039Y-128154700D01*
X205644161Y-128154700D01*
X205444202Y-128194474D01*
X205255844Y-128272495D01*
X205086326Y-128385763D01*
X204942163Y-128529926D01*
X204828895Y-128699444D01*
X204750874Y-128887802D01*
X204711100Y-129087761D01*
X200197720Y-129087761D01*
X200197720Y-126283001D01*
X202650140Y-126283001D01*
X202650140Y-126486879D01*
X202689914Y-126686838D01*
X202767935Y-126875196D01*
X202881203Y-127044714D01*
X203025366Y-127188877D01*
X203194884Y-127302145D01*
X203383242Y-127380166D01*
X203583201Y-127419940D01*
X203787079Y-127419940D01*
X203987038Y-127380166D01*
X204175396Y-127302145D01*
X204344914Y-127188877D01*
X204489077Y-127044714D01*
X204602345Y-126875196D01*
X204680366Y-126686838D01*
X204720140Y-126486879D01*
X204720140Y-126283001D01*
X204680366Y-126083042D01*
X204602345Y-125894684D01*
X204489077Y-125725166D01*
X204461781Y-125697870D01*
X204494157Y-125665494D01*
X204607425Y-125495976D01*
X204685446Y-125307618D01*
X204725220Y-125107659D01*
X204725220Y-124903781D01*
X204685446Y-124703822D01*
X204607425Y-124515464D01*
X204494157Y-124345946D01*
X204349994Y-124201783D01*
X204180476Y-124088515D01*
X203992118Y-124010494D01*
X203792159Y-123970720D01*
X203588281Y-123970720D01*
X203388322Y-124010494D01*
X203199964Y-124088515D01*
X203030446Y-124201783D01*
X202886283Y-124345946D01*
X202773015Y-124515464D01*
X202694994Y-124703822D01*
X202655220Y-124903781D01*
X202655220Y-125107659D01*
X202694994Y-125307618D01*
X202773015Y-125495976D01*
X202886283Y-125665494D01*
X202913579Y-125692790D01*
X202881203Y-125725166D01*
X202767935Y-125894684D01*
X202689914Y-126083042D01*
X202650140Y-126283001D01*
X200197720Y-126283001D01*
X200197720Y-120691321D01*
X203152360Y-120691321D01*
X203152360Y-120895199D01*
X203192134Y-121095158D01*
X203270155Y-121283516D01*
X203383423Y-121453034D01*
X203527586Y-121597197D01*
X203697104Y-121710465D01*
X203885462Y-121788486D01*
X204044631Y-121820146D01*
X204133423Y-121953034D01*
X204277586Y-122097197D01*
X204447104Y-122210465D01*
X204635462Y-122288486D01*
X204835421Y-122328260D01*
X205039299Y-122328260D01*
X205239258Y-122288486D01*
X205427616Y-122210465D01*
X205597134Y-122097197D01*
X205741297Y-121953034D01*
X205830089Y-121820146D01*
X205989258Y-121788486D01*
X206177616Y-121710465D01*
X206347134Y-121597197D01*
X206491297Y-121453034D01*
X206604565Y-121283516D01*
X206682586Y-121095158D01*
X206722360Y-120895199D01*
X206722360Y-120691321D01*
X206682586Y-120491362D01*
X206604565Y-120303004D01*
X206491297Y-120133486D01*
X206347134Y-119989323D01*
X206177616Y-119876055D01*
X205989258Y-119798034D01*
X205789299Y-119758260D01*
X205585421Y-119758260D01*
X205385462Y-119798034D01*
X205197104Y-119876055D01*
X205027586Y-119989323D01*
X204937360Y-120079549D01*
X204847134Y-119989323D01*
X204677616Y-119876055D01*
X204489258Y-119798034D01*
X204289299Y-119758260D01*
X204085421Y-119758260D01*
X203885462Y-119798034D01*
X203697104Y-119876055D01*
X203527586Y-119989323D01*
X203383423Y-120133486D01*
X203270155Y-120303004D01*
X203192134Y-120491362D01*
X203152360Y-120691321D01*
X200197720Y-120691321D01*
X200197720Y-116593620D01*
X200195280Y-116568844D01*
X200188053Y-116545019D01*
X200176317Y-116523063D01*
X200160523Y-116503817D01*
X189886007Y-106229301D01*
X202349900Y-106229301D01*
X202349900Y-106433179D01*
X202389674Y-106633138D01*
X202467695Y-106821496D01*
X202580963Y-106991014D01*
X202725126Y-107135177D01*
X202894644Y-107248445D01*
X203083002Y-107326466D01*
X203282961Y-107366240D01*
X203486839Y-107366240D01*
X203686798Y-107326466D01*
X203875156Y-107248445D01*
X204044674Y-107135177D01*
X204188837Y-106991014D01*
X204302105Y-106821496D01*
X204380126Y-106633138D01*
X204419900Y-106433179D01*
X204419900Y-106229301D01*
X205268360Y-106229301D01*
X205268360Y-106433179D01*
X205308134Y-106633138D01*
X205386155Y-106821496D01*
X205499423Y-106991014D01*
X205643586Y-107135177D01*
X205813104Y-107248445D01*
X206001462Y-107326466D01*
X206201421Y-107366240D01*
X206405299Y-107366240D01*
X206605258Y-107326466D01*
X206793616Y-107248445D01*
X206963134Y-107135177D01*
X207107297Y-106991014D01*
X207220565Y-106821496D01*
X207298586Y-106633138D01*
X207338360Y-106433179D01*
X207338360Y-106229301D01*
X207298586Y-106029342D01*
X207220565Y-105840984D01*
X207107297Y-105671466D01*
X206963134Y-105527303D01*
X206793616Y-105414035D01*
X206605258Y-105336014D01*
X206405299Y-105296240D01*
X206201421Y-105296240D01*
X206001462Y-105336014D01*
X205813104Y-105414035D01*
X205643586Y-105527303D01*
X205499423Y-105671466D01*
X205386155Y-105840984D01*
X205308134Y-106029342D01*
X205268360Y-106229301D01*
X204419900Y-106229301D01*
X204380126Y-106029342D01*
X204302105Y-105840984D01*
X204188837Y-105671466D01*
X204044674Y-105527303D01*
X203875156Y-105414035D01*
X203686798Y-105336014D01*
X203486839Y-105296240D01*
X203282961Y-105296240D01*
X203083002Y-105336014D01*
X202894644Y-105414035D01*
X202725126Y-105527303D01*
X202580963Y-105671466D01*
X202467695Y-105840984D01*
X202389674Y-106029342D01*
X202349900Y-106229301D01*
X189886007Y-106229301D01*
X179188027Y-95531321D01*
X192453540Y-95531321D01*
X192453540Y-95735199D01*
X192493314Y-95935158D01*
X192571335Y-96123516D01*
X192684603Y-96293034D01*
X192828766Y-96437197D01*
X192998284Y-96550465D01*
X193186642Y-96628486D01*
X193210643Y-96633260D01*
X193186642Y-96638034D01*
X192998284Y-96716055D01*
X192828766Y-96829323D01*
X192684603Y-96973486D01*
X192571335Y-97143004D01*
X192493314Y-97331362D01*
X192453540Y-97531321D01*
X192453540Y-97735199D01*
X192493314Y-97935158D01*
X192571335Y-98123516D01*
X192684603Y-98293034D01*
X192828766Y-98437197D01*
X192998284Y-98550465D01*
X193186642Y-98628486D01*
X193210643Y-98633260D01*
X193186642Y-98638034D01*
X192998284Y-98716055D01*
X192828766Y-98829323D01*
X192684603Y-98973486D01*
X192571335Y-99143004D01*
X192493314Y-99331362D01*
X192453540Y-99531321D01*
X192453540Y-99735199D01*
X192493314Y-99935158D01*
X192571335Y-100123516D01*
X192684603Y-100293034D01*
X192828766Y-100437197D01*
X192998284Y-100550465D01*
X193186642Y-100628486D01*
X193210643Y-100633260D01*
X193186642Y-100638034D01*
X192998284Y-100716055D01*
X192828766Y-100829323D01*
X192684603Y-100973486D01*
X192571335Y-101143004D01*
X192493314Y-101331362D01*
X192453540Y-101531321D01*
X192453540Y-101735199D01*
X192493314Y-101935158D01*
X192571335Y-102123516D01*
X192684603Y-102293034D01*
X192828766Y-102437197D01*
X192998284Y-102550465D01*
X193186642Y-102628486D01*
X193210643Y-102633260D01*
X193186642Y-102638034D01*
X192998284Y-102716055D01*
X192828766Y-102829323D01*
X192684603Y-102973486D01*
X192571335Y-103143004D01*
X192493314Y-103331362D01*
X192453540Y-103531321D01*
X192453540Y-103735199D01*
X192493314Y-103935158D01*
X192571335Y-104123516D01*
X192684603Y-104293034D01*
X192828766Y-104437197D01*
X192998284Y-104550465D01*
X193186642Y-104628486D01*
X193386601Y-104668260D01*
X193590479Y-104668260D01*
X193790438Y-104628486D01*
X193978796Y-104550465D01*
X194148314Y-104437197D01*
X194292477Y-104293034D01*
X194405745Y-104123516D01*
X194483766Y-103935158D01*
X194488540Y-103911157D01*
X194493314Y-103935158D01*
X194571335Y-104123516D01*
X194684603Y-104293034D01*
X194828766Y-104437197D01*
X194998284Y-104550465D01*
X195186642Y-104628486D01*
X195386601Y-104668260D01*
X195590479Y-104668260D01*
X195790438Y-104628486D01*
X195978796Y-104550465D01*
X196148314Y-104437197D01*
X196292477Y-104293034D01*
X196405745Y-104123516D01*
X196483766Y-103935158D01*
X196488540Y-103911157D01*
X196493314Y-103935158D01*
X196571335Y-104123516D01*
X196684603Y-104293034D01*
X196828766Y-104437197D01*
X196998284Y-104550465D01*
X197186642Y-104628486D01*
X197386601Y-104668260D01*
X197590479Y-104668260D01*
X197790438Y-104628486D01*
X197978796Y-104550465D01*
X198148314Y-104437197D01*
X198292477Y-104293034D01*
X198405745Y-104123516D01*
X198483766Y-103935158D01*
X198488540Y-103911157D01*
X198493314Y-103935158D01*
X198571335Y-104123516D01*
X198684603Y-104293034D01*
X198828766Y-104437197D01*
X198998284Y-104550465D01*
X199186642Y-104628486D01*
X199386601Y-104668260D01*
X199590479Y-104668260D01*
X199790438Y-104628486D01*
X199978796Y-104550465D01*
X200148314Y-104437197D01*
X200292477Y-104293034D01*
X200405745Y-104123516D01*
X200479655Y-103945081D01*
X207204220Y-103945081D01*
X207204220Y-104148959D01*
X207243994Y-104348918D01*
X207322015Y-104537276D01*
X207435283Y-104706794D01*
X207579446Y-104850957D01*
X207748964Y-104964225D01*
X207937322Y-105042246D01*
X208137281Y-105082020D01*
X208341159Y-105082020D01*
X208541118Y-105042246D01*
X208729476Y-104964225D01*
X208898994Y-104850957D01*
X209043157Y-104706794D01*
X209156425Y-104537276D01*
X209234446Y-104348918D01*
X209274220Y-104148959D01*
X209274220Y-103945081D01*
X209272332Y-103935590D01*
X209398994Y-103850957D01*
X209543157Y-103706794D01*
X209656425Y-103537276D01*
X209734446Y-103348918D01*
X209774220Y-103148959D01*
X209774220Y-103142521D01*
X231193700Y-103142521D01*
X231193700Y-103346399D01*
X231233474Y-103546358D01*
X231311495Y-103734716D01*
X231424763Y-103904234D01*
X231514989Y-103994460D01*
X231424763Y-104084686D01*
X231311495Y-104254204D01*
X231233474Y-104442562D01*
X231193700Y-104642521D01*
X231193700Y-104846399D01*
X231233474Y-105046358D01*
X231311495Y-105234716D01*
X231424763Y-105404234D01*
X231568926Y-105548397D01*
X231738444Y-105661665D01*
X231926802Y-105739686D01*
X232126761Y-105779460D01*
X232330639Y-105779460D01*
X232530598Y-105739686D01*
X232718956Y-105661665D01*
X232888474Y-105548397D01*
X233032637Y-105404234D01*
X233145905Y-105234716D01*
X233223926Y-105046358D01*
X233233328Y-104999088D01*
X233280598Y-104989686D01*
X233468956Y-104911665D01*
X233638474Y-104798397D01*
X233782637Y-104654234D01*
X233895905Y-104484716D01*
X233973926Y-104296358D01*
X234013700Y-104096399D01*
X234013700Y-103892521D01*
X233973926Y-103692562D01*
X233895905Y-103504204D01*
X233782637Y-103334686D01*
X233638474Y-103190523D01*
X233468956Y-103077255D01*
X233280598Y-102999234D01*
X233233328Y-102989832D01*
X233223926Y-102942562D01*
X233145905Y-102754204D01*
X233032637Y-102584686D01*
X232888474Y-102440523D01*
X232718956Y-102327255D01*
X232530598Y-102249234D01*
X232330639Y-102209460D01*
X232126761Y-102209460D01*
X231926802Y-102249234D01*
X231738444Y-102327255D01*
X231568926Y-102440523D01*
X231424763Y-102584686D01*
X231311495Y-102754204D01*
X231233474Y-102942562D01*
X231193700Y-103142521D01*
X209774220Y-103142521D01*
X209774220Y-102945081D01*
X209734446Y-102745122D01*
X209656425Y-102556764D01*
X209543157Y-102387246D01*
X209398994Y-102243083D01*
X209229476Y-102129815D01*
X209041118Y-102051794D01*
X208841159Y-102012020D01*
X208637281Y-102012020D01*
X208437322Y-102051794D01*
X208248964Y-102129815D01*
X208079446Y-102243083D01*
X207935283Y-102387246D01*
X207822015Y-102556764D01*
X207743994Y-102745122D01*
X207704220Y-102945081D01*
X207704220Y-103148959D01*
X207706108Y-103158450D01*
X207579446Y-103243083D01*
X207435283Y-103387246D01*
X207322015Y-103556764D01*
X207243994Y-103745122D01*
X207204220Y-103945081D01*
X200479655Y-103945081D01*
X200483766Y-103935158D01*
X200523540Y-103735199D01*
X200523540Y-103531321D01*
X200483766Y-103331362D01*
X200405745Y-103143004D01*
X200292477Y-102973486D01*
X200148314Y-102829323D01*
X199978796Y-102716055D01*
X199790438Y-102638034D01*
X199766437Y-102633260D01*
X199790438Y-102628486D01*
X199978796Y-102550465D01*
X200148314Y-102437197D01*
X200292477Y-102293034D01*
X200405745Y-102123516D01*
X200483766Y-101935158D01*
X200523540Y-101735199D01*
X200523540Y-101531321D01*
X200483766Y-101331362D01*
X200405745Y-101143004D01*
X200292477Y-100973486D01*
X200148314Y-100829323D01*
X199978796Y-100716055D01*
X199790438Y-100638034D01*
X199766437Y-100633260D01*
X199790438Y-100628486D01*
X199978796Y-100550465D01*
X200148314Y-100437197D01*
X200292477Y-100293034D01*
X200405745Y-100123516D01*
X200444223Y-100030621D01*
X207389260Y-100030621D01*
X207389260Y-100234499D01*
X207429034Y-100434458D01*
X207507055Y-100622816D01*
X207620323Y-100792334D01*
X207764486Y-100936497D01*
X207934004Y-101049765D01*
X208122362Y-101127786D01*
X208322321Y-101167560D01*
X208526199Y-101167560D01*
X208726158Y-101127786D01*
X208914516Y-101049765D01*
X209084034Y-100936497D01*
X209228197Y-100792334D01*
X209314495Y-100663180D01*
X209349159Y-100663180D01*
X209549118Y-100623406D01*
X209737476Y-100545385D01*
X209906994Y-100432117D01*
X210051157Y-100287954D01*
X210164425Y-100118436D01*
X210242446Y-99930078D01*
X210282220Y-99730119D01*
X210282220Y-99526241D01*
X210242446Y-99326282D01*
X210234062Y-99306041D01*
X212802520Y-99306041D01*
X212802520Y-99509919D01*
X212842294Y-99709878D01*
X212920315Y-99898236D01*
X213033583Y-100067754D01*
X213177746Y-100211917D01*
X213347264Y-100325185D01*
X213535622Y-100403206D01*
X213735581Y-100442980D01*
X213939459Y-100442980D01*
X214139418Y-100403206D01*
X214327776Y-100325185D01*
X214497294Y-100211917D01*
X214641457Y-100067754D01*
X214754725Y-99898236D01*
X214832746Y-99709878D01*
X214872520Y-99509919D01*
X214872520Y-99306041D01*
X214832746Y-99106082D01*
X214754725Y-98917724D01*
X214641457Y-98748206D01*
X214497294Y-98604043D01*
X214447125Y-98570521D01*
X231193700Y-98570521D01*
X231193700Y-98774399D01*
X231233474Y-98974358D01*
X231311495Y-99162716D01*
X231424763Y-99332234D01*
X231514989Y-99422460D01*
X231424763Y-99512686D01*
X231311495Y-99682204D01*
X231233474Y-99870562D01*
X231193700Y-100070521D01*
X231193700Y-100274399D01*
X231233474Y-100474358D01*
X231311495Y-100662716D01*
X231424763Y-100832234D01*
X231568926Y-100976397D01*
X231738444Y-101089665D01*
X231926802Y-101167686D01*
X232126761Y-101207460D01*
X232330639Y-101207460D01*
X232530598Y-101167686D01*
X232718956Y-101089665D01*
X232888474Y-100976397D01*
X233032637Y-100832234D01*
X233145905Y-100662716D01*
X233223926Y-100474358D01*
X233233328Y-100427088D01*
X233280598Y-100417686D01*
X233468956Y-100339665D01*
X233638474Y-100226397D01*
X233782637Y-100082234D01*
X233895905Y-99912716D01*
X233973926Y-99724358D01*
X234013700Y-99524399D01*
X234013700Y-99320521D01*
X233973926Y-99120562D01*
X233895905Y-98932204D01*
X233782637Y-98762686D01*
X233638474Y-98618523D01*
X233468956Y-98505255D01*
X233280598Y-98427234D01*
X233233328Y-98417832D01*
X233223926Y-98370562D01*
X233145905Y-98182204D01*
X233032637Y-98012686D01*
X232888474Y-97868523D01*
X232718956Y-97755255D01*
X232530598Y-97677234D01*
X232330639Y-97637460D01*
X232126761Y-97637460D01*
X231926802Y-97677234D01*
X231738444Y-97755255D01*
X231568926Y-97868523D01*
X231424763Y-98012686D01*
X231311495Y-98182204D01*
X231233474Y-98370562D01*
X231193700Y-98570521D01*
X214447125Y-98570521D01*
X214327776Y-98490775D01*
X214139418Y-98412754D01*
X213939459Y-98372980D01*
X213735581Y-98372980D01*
X213535622Y-98412754D01*
X213347264Y-98490775D01*
X213177746Y-98604043D01*
X213033583Y-98748206D01*
X212920315Y-98917724D01*
X212842294Y-99106082D01*
X212802520Y-99306041D01*
X210234062Y-99306041D01*
X210164425Y-99137924D01*
X210051157Y-98968406D01*
X209906994Y-98824243D01*
X209737476Y-98710975D01*
X209549118Y-98632954D01*
X209466459Y-98616512D01*
X209457586Y-98571902D01*
X209379565Y-98383544D01*
X209266297Y-98214026D01*
X209122134Y-98069863D01*
X208952616Y-97956595D01*
X208764258Y-97878574D01*
X208564299Y-97838800D01*
X208360421Y-97838800D01*
X208160462Y-97878574D01*
X207972104Y-97956595D01*
X207802586Y-98069863D01*
X207658423Y-98214026D01*
X207545155Y-98383544D01*
X207467134Y-98571902D01*
X207427360Y-98771861D01*
X207427360Y-98975739D01*
X207467134Y-99175698D01*
X207545155Y-99364056D01*
X207619064Y-99474670D01*
X207507055Y-99642304D01*
X207429034Y-99830662D01*
X207389260Y-100030621D01*
X200444223Y-100030621D01*
X200483766Y-99935158D01*
X200523540Y-99735199D01*
X200523540Y-99531321D01*
X200483766Y-99331362D01*
X200405745Y-99143004D01*
X200292477Y-98973486D01*
X200148314Y-98829323D01*
X199978796Y-98716055D01*
X199790438Y-98638034D01*
X199766437Y-98633260D01*
X199790438Y-98628486D01*
X199978796Y-98550465D01*
X200148314Y-98437197D01*
X200292477Y-98293034D01*
X200405745Y-98123516D01*
X200483766Y-97935158D01*
X200523540Y-97735199D01*
X200523540Y-97531321D01*
X200483766Y-97331362D01*
X200405745Y-97143004D01*
X200292477Y-96973486D01*
X200148314Y-96829323D01*
X199978796Y-96716055D01*
X199790438Y-96638034D01*
X199766437Y-96633260D01*
X199790438Y-96628486D01*
X199978796Y-96550465D01*
X200148314Y-96437197D01*
X200292477Y-96293034D01*
X200405745Y-96123516D01*
X200483766Y-95935158D01*
X200523540Y-95735199D01*
X200523540Y-95531321D01*
X200483766Y-95331362D01*
X200405745Y-95143004D01*
X200292477Y-94973486D01*
X200148314Y-94829323D01*
X199978796Y-94716055D01*
X199790438Y-94638034D01*
X199590479Y-94598260D01*
X199386601Y-94598260D01*
X199186642Y-94638034D01*
X198998284Y-94716055D01*
X198828766Y-94829323D01*
X198684603Y-94973486D01*
X198571335Y-95143004D01*
X198493314Y-95331362D01*
X198488540Y-95355363D01*
X198483766Y-95331362D01*
X198405745Y-95143004D01*
X198292477Y-94973486D01*
X198148314Y-94829323D01*
X197978796Y-94716055D01*
X197790438Y-94638034D01*
X197590479Y-94598260D01*
X197386601Y-94598260D01*
X197186642Y-94638034D01*
X196998284Y-94716055D01*
X196828766Y-94829323D01*
X196684603Y-94973486D01*
X196571335Y-95143004D01*
X196493314Y-95331362D01*
X196488540Y-95355363D01*
X196483766Y-95331362D01*
X196405745Y-95143004D01*
X196292477Y-94973486D01*
X196148314Y-94829323D01*
X195978796Y-94716055D01*
X195790438Y-94638034D01*
X195590479Y-94598260D01*
X195386601Y-94598260D01*
X195186642Y-94638034D01*
X194998284Y-94716055D01*
X194828766Y-94829323D01*
X194684603Y-94973486D01*
X194571335Y-95143004D01*
X194493314Y-95331362D01*
X194488540Y-95355363D01*
X194483766Y-95331362D01*
X194405745Y-95143004D01*
X194292477Y-94973486D01*
X194148314Y-94829323D01*
X193978796Y-94716055D01*
X193790438Y-94638034D01*
X193590479Y-94598260D01*
X193386601Y-94598260D01*
X193186642Y-94638034D01*
X192998284Y-94716055D01*
X192828766Y-94829323D01*
X192684603Y-94973486D01*
X192571335Y-95143004D01*
X192493314Y-95331362D01*
X192453540Y-95531321D01*
X179188027Y-95531321D01*
X177468163Y-93811457D01*
X177448917Y-93795663D01*
X177426961Y-93783927D01*
X177403136Y-93776700D01*
X177378360Y-93774260D01*
X148510526Y-93774260D01*
X148089620Y-93353354D01*
X148089620Y-90761827D01*
X208444641Y-90765207D01*
G37*
X208444641Y-90765207D02*
X208441340Y-90781801D01*
X208441340Y-90985679D01*
X208481114Y-91185638D01*
X208559135Y-91373996D01*
X208672403Y-91543514D01*
X208816566Y-91687677D01*
X208986084Y-91800945D01*
X209174442Y-91878966D01*
X209374401Y-91918740D01*
X209578279Y-91918740D01*
X209778238Y-91878966D01*
X209966596Y-91800945D01*
X210136114Y-91687677D01*
X210280277Y-91543514D01*
X210349442Y-91440000D01*
X228473000Y-91440000D01*
X228473000Y-96520000D01*
X228475440Y-96544776D01*
X228482667Y-96568601D01*
X228494403Y-96590557D01*
X228510197Y-96609803D01*
X228529443Y-96625597D01*
X228551399Y-96637333D01*
X228575224Y-96644560D01*
X228600000Y-96647000D01*
X233680000Y-96647000D01*
X233704776Y-96644560D01*
X233728601Y-96637333D01*
X233750557Y-96625597D01*
X233769803Y-96609803D01*
X233785597Y-96590557D01*
X233797333Y-96568601D01*
X233804560Y-96544776D01*
X233807000Y-96520000D01*
X233807000Y-91440000D01*
X233804560Y-91415224D01*
X233797333Y-91391399D01*
X233785597Y-91369443D01*
X233769803Y-91350197D01*
X233750557Y-91334403D01*
X233728601Y-91322667D01*
X233704776Y-91315440D01*
X233680000Y-91313000D01*
X228600000Y-91313000D01*
X228575224Y-91315440D01*
X228551399Y-91322667D01*
X228529443Y-91334403D01*
X228510197Y-91350197D01*
X228494403Y-91369443D01*
X228482667Y-91391399D01*
X228475440Y-91415224D01*
X228473000Y-91440000D01*
X210349442Y-91440000D01*
X210393545Y-91373996D01*
X210471566Y-91185638D01*
X210511340Y-90985679D01*
X210511340Y-90781801D01*
X210508062Y-90765322D01*
X238626830Y-90766897D01*
X239946180Y-91892296D01*
X239946180Y-137813514D01*
X228661694Y-149098000D01*
X218657943Y-149098000D01*
X218668846Y-149071678D01*
X218708620Y-148871719D01*
X218708620Y-148667841D01*
X218668846Y-148467882D01*
X218590825Y-148279524D01*
X218477557Y-148110006D01*
X218333394Y-147965843D01*
X218163876Y-147852575D01*
X217975518Y-147774554D01*
X217775559Y-147734780D01*
X217571681Y-147734780D01*
X217371722Y-147774554D01*
X217183364Y-147852575D01*
X217013846Y-147965843D01*
X216923620Y-148056069D01*
X216833394Y-147965843D01*
X216663876Y-147852575D01*
X216475518Y-147774554D01*
X216275559Y-147734780D01*
X216071681Y-147734780D01*
X215871722Y-147774554D01*
X215683364Y-147852575D01*
X215513846Y-147965843D01*
X215369683Y-148110006D01*
X215256415Y-148279524D01*
X215178394Y-148467882D01*
X215138620Y-148667841D01*
X215138620Y-148871719D01*
X215178394Y-149071678D01*
X215189297Y-149098000D01*
X202980826Y-149098000D01*
X200197720Y-146314894D01*
X200197720Y-140087761D01*
X204711100Y-140087761D01*
X204711100Y-140291639D01*
X204750874Y-140491598D01*
X204828895Y-140679956D01*
X204942163Y-140849474D01*
X205086326Y-140993637D01*
X205255844Y-141106905D01*
X205444202Y-141184926D01*
X205644161Y-141224700D01*
X205848039Y-141224700D01*
X206047998Y-141184926D01*
X206236356Y-141106905D01*
X206405874Y-140993637D01*
X206495400Y-140904111D01*
X206584926Y-140993637D01*
X206754444Y-141106905D01*
X206942802Y-141184926D01*
X207142761Y-141224700D01*
X207346639Y-141224700D01*
X207546598Y-141184926D01*
X207734956Y-141106905D01*
X207904474Y-140993637D01*
X208048637Y-140849474D01*
X208161905Y-140679956D01*
X208239926Y-140491598D01*
X208279700Y-140291639D01*
X208279700Y-140087761D01*
X208239926Y-139887802D01*
X208161905Y-139699444D01*
X208048637Y-139529926D01*
X207904474Y-139385763D01*
X207734956Y-139272495D01*
X207546598Y-139194474D01*
X207346639Y-139154700D01*
X207142761Y-139154700D01*
X206942802Y-139194474D01*
X206754444Y-139272495D01*
X206584926Y-139385763D01*
X206495400Y-139475289D01*
X206405874Y-139385763D01*
X206236356Y-139272495D01*
X206047998Y-139194474D01*
X205848039Y-139154700D01*
X205644161Y-139154700D01*
X205444202Y-139194474D01*
X205255844Y-139272495D01*
X205086326Y-139385763D01*
X204942163Y-139529926D01*
X204828895Y-139699444D01*
X204750874Y-139887802D01*
X204711100Y-140087761D01*
X200197720Y-140087761D01*
X200197720Y-129087761D01*
X204711100Y-129087761D01*
X204711100Y-129291639D01*
X204750874Y-129491598D01*
X204828895Y-129679956D01*
X204942163Y-129849474D01*
X205086326Y-129993637D01*
X205255844Y-130106905D01*
X205444202Y-130184926D01*
X205644161Y-130224700D01*
X205848039Y-130224700D01*
X206047998Y-130184926D01*
X206236356Y-130106905D01*
X206405874Y-129993637D01*
X206495400Y-129904111D01*
X206584926Y-129993637D01*
X206754444Y-130106905D01*
X206942802Y-130184926D01*
X207142761Y-130224700D01*
X207346639Y-130224700D01*
X207546598Y-130184926D01*
X207734956Y-130106905D01*
X207904474Y-129993637D01*
X208048637Y-129849474D01*
X208161905Y-129679956D01*
X208239926Y-129491598D01*
X208279700Y-129291639D01*
X208279700Y-129087761D01*
X208239926Y-128887802D01*
X208161905Y-128699444D01*
X208048637Y-128529926D01*
X207904474Y-128385763D01*
X207734956Y-128272495D01*
X207546598Y-128194474D01*
X207346639Y-128154700D01*
X207142761Y-128154700D01*
X206942802Y-128194474D01*
X206754444Y-128272495D01*
X206584926Y-128385763D01*
X206495400Y-128475289D01*
X206405874Y-128385763D01*
X206236356Y-128272495D01*
X206047998Y-128194474D01*
X205848039Y-128154700D01*
X205644161Y-128154700D01*
X205444202Y-128194474D01*
X205255844Y-128272495D01*
X205086326Y-128385763D01*
X204942163Y-128529926D01*
X204828895Y-128699444D01*
X204750874Y-128887802D01*
X204711100Y-129087761D01*
X200197720Y-129087761D01*
X200197720Y-126283001D01*
X202650140Y-126283001D01*
X202650140Y-126486879D01*
X202689914Y-126686838D01*
X202767935Y-126875196D01*
X202881203Y-127044714D01*
X203025366Y-127188877D01*
X203194884Y-127302145D01*
X203383242Y-127380166D01*
X203583201Y-127419940D01*
X203787079Y-127419940D01*
X203987038Y-127380166D01*
X204175396Y-127302145D01*
X204344914Y-127188877D01*
X204489077Y-127044714D01*
X204602345Y-126875196D01*
X204680366Y-126686838D01*
X204720140Y-126486879D01*
X204720140Y-126283001D01*
X204680366Y-126083042D01*
X204602345Y-125894684D01*
X204489077Y-125725166D01*
X204461781Y-125697870D01*
X204494157Y-125665494D01*
X204607425Y-125495976D01*
X204685446Y-125307618D01*
X204725220Y-125107659D01*
X204725220Y-124903781D01*
X204685446Y-124703822D01*
X204607425Y-124515464D01*
X204494157Y-124345946D01*
X204349994Y-124201783D01*
X204180476Y-124088515D01*
X203992118Y-124010494D01*
X203792159Y-123970720D01*
X203588281Y-123970720D01*
X203388322Y-124010494D01*
X203199964Y-124088515D01*
X203030446Y-124201783D01*
X202886283Y-124345946D01*
X202773015Y-124515464D01*
X202694994Y-124703822D01*
X202655220Y-124903781D01*
X202655220Y-125107659D01*
X202694994Y-125307618D01*
X202773015Y-125495976D01*
X202886283Y-125665494D01*
X202913579Y-125692790D01*
X202881203Y-125725166D01*
X202767935Y-125894684D01*
X202689914Y-126083042D01*
X202650140Y-126283001D01*
X200197720Y-126283001D01*
X200197720Y-120691321D01*
X203152360Y-120691321D01*
X203152360Y-120895199D01*
X203192134Y-121095158D01*
X203270155Y-121283516D01*
X203383423Y-121453034D01*
X203527586Y-121597197D01*
X203697104Y-121710465D01*
X203885462Y-121788486D01*
X204044631Y-121820146D01*
X204133423Y-121953034D01*
X204277586Y-122097197D01*
X204447104Y-122210465D01*
X204635462Y-122288486D01*
X204835421Y-122328260D01*
X205039299Y-122328260D01*
X205239258Y-122288486D01*
X205427616Y-122210465D01*
X205597134Y-122097197D01*
X205741297Y-121953034D01*
X205830089Y-121820146D01*
X205989258Y-121788486D01*
X206177616Y-121710465D01*
X206347134Y-121597197D01*
X206491297Y-121453034D01*
X206604565Y-121283516D01*
X206682586Y-121095158D01*
X206722360Y-120895199D01*
X206722360Y-120691321D01*
X206682586Y-120491362D01*
X206604565Y-120303004D01*
X206491297Y-120133486D01*
X206347134Y-119989323D01*
X206177616Y-119876055D01*
X205989258Y-119798034D01*
X205789299Y-119758260D01*
X205585421Y-119758260D01*
X205385462Y-119798034D01*
X205197104Y-119876055D01*
X205027586Y-119989323D01*
X204937360Y-120079549D01*
X204847134Y-119989323D01*
X204677616Y-119876055D01*
X204489258Y-119798034D01*
X204289299Y-119758260D01*
X204085421Y-119758260D01*
X203885462Y-119798034D01*
X203697104Y-119876055D01*
X203527586Y-119989323D01*
X203383423Y-120133486D01*
X203270155Y-120303004D01*
X203192134Y-120491362D01*
X203152360Y-120691321D01*
X200197720Y-120691321D01*
X200197720Y-116593620D01*
X200195280Y-116568844D01*
X200188053Y-116545019D01*
X200176317Y-116523063D01*
X200160523Y-116503817D01*
X189886007Y-106229301D01*
X202349900Y-106229301D01*
X202349900Y-106433179D01*
X202389674Y-106633138D01*
X202467695Y-106821496D01*
X202580963Y-106991014D01*
X202725126Y-107135177D01*
X202894644Y-107248445D01*
X203083002Y-107326466D01*
X203282961Y-107366240D01*
X203486839Y-107366240D01*
X203686798Y-107326466D01*
X203875156Y-107248445D01*
X204044674Y-107135177D01*
X204188837Y-106991014D01*
X204302105Y-106821496D01*
X204380126Y-106633138D01*
X204419900Y-106433179D01*
X204419900Y-106229301D01*
X205268360Y-106229301D01*
X205268360Y-106433179D01*
X205308134Y-106633138D01*
X205386155Y-106821496D01*
X205499423Y-106991014D01*
X205643586Y-107135177D01*
X205813104Y-107248445D01*
X206001462Y-107326466D01*
X206201421Y-107366240D01*
X206405299Y-107366240D01*
X206605258Y-107326466D01*
X206793616Y-107248445D01*
X206963134Y-107135177D01*
X207107297Y-106991014D01*
X207220565Y-106821496D01*
X207298586Y-106633138D01*
X207338360Y-106433179D01*
X207338360Y-106229301D01*
X207298586Y-106029342D01*
X207220565Y-105840984D01*
X207107297Y-105671466D01*
X206963134Y-105527303D01*
X206793616Y-105414035D01*
X206605258Y-105336014D01*
X206405299Y-105296240D01*
X206201421Y-105296240D01*
X206001462Y-105336014D01*
X205813104Y-105414035D01*
X205643586Y-105527303D01*
X205499423Y-105671466D01*
X205386155Y-105840984D01*
X205308134Y-106029342D01*
X205268360Y-106229301D01*
X204419900Y-106229301D01*
X204380126Y-106029342D01*
X204302105Y-105840984D01*
X204188837Y-105671466D01*
X204044674Y-105527303D01*
X203875156Y-105414035D01*
X203686798Y-105336014D01*
X203486839Y-105296240D01*
X203282961Y-105296240D01*
X203083002Y-105336014D01*
X202894644Y-105414035D01*
X202725126Y-105527303D01*
X202580963Y-105671466D01*
X202467695Y-105840984D01*
X202389674Y-106029342D01*
X202349900Y-106229301D01*
X189886007Y-106229301D01*
X179188027Y-95531321D01*
X192453540Y-95531321D01*
X192453540Y-95735199D01*
X192493314Y-95935158D01*
X192571335Y-96123516D01*
X192684603Y-96293034D01*
X192828766Y-96437197D01*
X192998284Y-96550465D01*
X193186642Y-96628486D01*
X193210643Y-96633260D01*
X193186642Y-96638034D01*
X192998284Y-96716055D01*
X192828766Y-96829323D01*
X192684603Y-96973486D01*
X192571335Y-97143004D01*
X192493314Y-97331362D01*
X192453540Y-97531321D01*
X192453540Y-97735199D01*
X192493314Y-97935158D01*
X192571335Y-98123516D01*
X192684603Y-98293034D01*
X192828766Y-98437197D01*
X192998284Y-98550465D01*
X193186642Y-98628486D01*
X193210643Y-98633260D01*
X193186642Y-98638034D01*
X192998284Y-98716055D01*
X192828766Y-98829323D01*
X192684603Y-98973486D01*
X192571335Y-99143004D01*
X192493314Y-99331362D01*
X192453540Y-99531321D01*
X192453540Y-99735199D01*
X192493314Y-99935158D01*
X192571335Y-100123516D01*
X192684603Y-100293034D01*
X192828766Y-100437197D01*
X192998284Y-100550465D01*
X193186642Y-100628486D01*
X193210643Y-100633260D01*
X193186642Y-100638034D01*
X192998284Y-100716055D01*
X192828766Y-100829323D01*
X192684603Y-100973486D01*
X192571335Y-101143004D01*
X192493314Y-101331362D01*
X192453540Y-101531321D01*
X192453540Y-101735199D01*
X192493314Y-101935158D01*
X192571335Y-102123516D01*
X192684603Y-102293034D01*
X192828766Y-102437197D01*
X192998284Y-102550465D01*
X193186642Y-102628486D01*
X193210643Y-102633260D01*
X193186642Y-102638034D01*
X192998284Y-102716055D01*
X192828766Y-102829323D01*
X192684603Y-102973486D01*
X192571335Y-103143004D01*
X192493314Y-103331362D01*
X192453540Y-103531321D01*
X192453540Y-103735199D01*
X192493314Y-103935158D01*
X192571335Y-104123516D01*
X192684603Y-104293034D01*
X192828766Y-104437197D01*
X192998284Y-104550465D01*
X193186642Y-104628486D01*
X193386601Y-104668260D01*
X193590479Y-104668260D01*
X193790438Y-104628486D01*
X193978796Y-104550465D01*
X194148314Y-104437197D01*
X194292477Y-104293034D01*
X194405745Y-104123516D01*
X194483766Y-103935158D01*
X194488540Y-103911157D01*
X194493314Y-103935158D01*
X194571335Y-104123516D01*
X194684603Y-104293034D01*
X194828766Y-104437197D01*
X194998284Y-104550465D01*
X195186642Y-104628486D01*
X195386601Y-104668260D01*
X195590479Y-104668260D01*
X195790438Y-104628486D01*
X195978796Y-104550465D01*
X196148314Y-104437197D01*
X196292477Y-104293034D01*
X196405745Y-104123516D01*
X196483766Y-103935158D01*
X196488540Y-103911157D01*
X196493314Y-103935158D01*
X196571335Y-104123516D01*
X196684603Y-104293034D01*
X196828766Y-104437197D01*
X196998284Y-104550465D01*
X197186642Y-104628486D01*
X197386601Y-104668260D01*
X197590479Y-104668260D01*
X197790438Y-104628486D01*
X197978796Y-104550465D01*
X198148314Y-104437197D01*
X198292477Y-104293034D01*
X198405745Y-104123516D01*
X198483766Y-103935158D01*
X198488540Y-103911157D01*
X198493314Y-103935158D01*
X198571335Y-104123516D01*
X198684603Y-104293034D01*
X198828766Y-104437197D01*
X198998284Y-104550465D01*
X199186642Y-104628486D01*
X199386601Y-104668260D01*
X199590479Y-104668260D01*
X199790438Y-104628486D01*
X199978796Y-104550465D01*
X200148314Y-104437197D01*
X200292477Y-104293034D01*
X200405745Y-104123516D01*
X200479655Y-103945081D01*
X207204220Y-103945081D01*
X207204220Y-104148959D01*
X207243994Y-104348918D01*
X207322015Y-104537276D01*
X207435283Y-104706794D01*
X207579446Y-104850957D01*
X207748964Y-104964225D01*
X207937322Y-105042246D01*
X208137281Y-105082020D01*
X208341159Y-105082020D01*
X208541118Y-105042246D01*
X208729476Y-104964225D01*
X208898994Y-104850957D01*
X209043157Y-104706794D01*
X209156425Y-104537276D01*
X209234446Y-104348918D01*
X209274220Y-104148959D01*
X209274220Y-103945081D01*
X209272332Y-103935590D01*
X209398994Y-103850957D01*
X209543157Y-103706794D01*
X209656425Y-103537276D01*
X209734446Y-103348918D01*
X209774220Y-103148959D01*
X209774220Y-103142521D01*
X231193700Y-103142521D01*
X231193700Y-103346399D01*
X231233474Y-103546358D01*
X231311495Y-103734716D01*
X231424763Y-103904234D01*
X231514989Y-103994460D01*
X231424763Y-104084686D01*
X231311495Y-104254204D01*
X231233474Y-104442562D01*
X231193700Y-104642521D01*
X231193700Y-104846399D01*
X231233474Y-105046358D01*
X231311495Y-105234716D01*
X231424763Y-105404234D01*
X231568926Y-105548397D01*
X231738444Y-105661665D01*
X231926802Y-105739686D01*
X232126761Y-105779460D01*
X232330639Y-105779460D01*
X232530598Y-105739686D01*
X232718956Y-105661665D01*
X232888474Y-105548397D01*
X233032637Y-105404234D01*
X233145905Y-105234716D01*
X233223926Y-105046358D01*
X233233328Y-104999088D01*
X233280598Y-104989686D01*
X233468956Y-104911665D01*
X233638474Y-104798397D01*
X233782637Y-104654234D01*
X233895905Y-104484716D01*
X233973926Y-104296358D01*
X234013700Y-104096399D01*
X234013700Y-103892521D01*
X233973926Y-103692562D01*
X233895905Y-103504204D01*
X233782637Y-103334686D01*
X233638474Y-103190523D01*
X233468956Y-103077255D01*
X233280598Y-102999234D01*
X233233328Y-102989832D01*
X233223926Y-102942562D01*
X233145905Y-102754204D01*
X233032637Y-102584686D01*
X232888474Y-102440523D01*
X232718956Y-102327255D01*
X232530598Y-102249234D01*
X232330639Y-102209460D01*
X232126761Y-102209460D01*
X231926802Y-102249234D01*
X231738444Y-102327255D01*
X231568926Y-102440523D01*
X231424763Y-102584686D01*
X231311495Y-102754204D01*
X231233474Y-102942562D01*
X231193700Y-103142521D01*
X209774220Y-103142521D01*
X209774220Y-102945081D01*
X209734446Y-102745122D01*
X209656425Y-102556764D01*
X209543157Y-102387246D01*
X209398994Y-102243083D01*
X209229476Y-102129815D01*
X209041118Y-102051794D01*
X208841159Y-102012020D01*
X208637281Y-102012020D01*
X208437322Y-102051794D01*
X208248964Y-102129815D01*
X208079446Y-102243083D01*
X207935283Y-102387246D01*
X207822015Y-102556764D01*
X207743994Y-102745122D01*
X207704220Y-102945081D01*
X207704220Y-103148959D01*
X207706108Y-103158450D01*
X207579446Y-103243083D01*
X207435283Y-103387246D01*
X207322015Y-103556764D01*
X207243994Y-103745122D01*
X207204220Y-103945081D01*
X200479655Y-103945081D01*
X200483766Y-103935158D01*
X200523540Y-103735199D01*
X200523540Y-103531321D01*
X200483766Y-103331362D01*
X200405745Y-103143004D01*
X200292477Y-102973486D01*
X200148314Y-102829323D01*
X199978796Y-102716055D01*
X199790438Y-102638034D01*
X199766437Y-102633260D01*
X199790438Y-102628486D01*
X199978796Y-102550465D01*
X200148314Y-102437197D01*
X200292477Y-102293034D01*
X200405745Y-102123516D01*
X200483766Y-101935158D01*
X200523540Y-101735199D01*
X200523540Y-101531321D01*
X200483766Y-101331362D01*
X200405745Y-101143004D01*
X200292477Y-100973486D01*
X200148314Y-100829323D01*
X199978796Y-100716055D01*
X199790438Y-100638034D01*
X199766437Y-100633260D01*
X199790438Y-100628486D01*
X199978796Y-100550465D01*
X200148314Y-100437197D01*
X200292477Y-100293034D01*
X200405745Y-100123516D01*
X200444223Y-100030621D01*
X207389260Y-100030621D01*
X207389260Y-100234499D01*
X207429034Y-100434458D01*
X207507055Y-100622816D01*
X207620323Y-100792334D01*
X207764486Y-100936497D01*
X207934004Y-101049765D01*
X208122362Y-101127786D01*
X208322321Y-101167560D01*
X208526199Y-101167560D01*
X208726158Y-101127786D01*
X208914516Y-101049765D01*
X209084034Y-100936497D01*
X209228197Y-100792334D01*
X209314495Y-100663180D01*
X209349159Y-100663180D01*
X209549118Y-100623406D01*
X209737476Y-100545385D01*
X209906994Y-100432117D01*
X210051157Y-100287954D01*
X210164425Y-100118436D01*
X210242446Y-99930078D01*
X210282220Y-99730119D01*
X210282220Y-99526241D01*
X210242446Y-99326282D01*
X210234062Y-99306041D01*
X212802520Y-99306041D01*
X212802520Y-99509919D01*
X212842294Y-99709878D01*
X212920315Y-99898236D01*
X213033583Y-100067754D01*
X213177746Y-100211917D01*
X213347264Y-100325185D01*
X213535622Y-100403206D01*
X213735581Y-100442980D01*
X213939459Y-100442980D01*
X214139418Y-100403206D01*
X214327776Y-100325185D01*
X214497294Y-100211917D01*
X214641457Y-100067754D01*
X214754725Y-99898236D01*
X214832746Y-99709878D01*
X214872520Y-99509919D01*
X214872520Y-99306041D01*
X214832746Y-99106082D01*
X214754725Y-98917724D01*
X214641457Y-98748206D01*
X214497294Y-98604043D01*
X214447125Y-98570521D01*
X231193700Y-98570521D01*
X231193700Y-98774399D01*
X231233474Y-98974358D01*
X231311495Y-99162716D01*
X231424763Y-99332234D01*
X231514989Y-99422460D01*
X231424763Y-99512686D01*
X231311495Y-99682204D01*
X231233474Y-99870562D01*
X231193700Y-100070521D01*
X231193700Y-100274399D01*
X231233474Y-100474358D01*
X231311495Y-100662716D01*
X231424763Y-100832234D01*
X231568926Y-100976397D01*
X231738444Y-101089665D01*
X231926802Y-101167686D01*
X232126761Y-101207460D01*
X232330639Y-101207460D01*
X232530598Y-101167686D01*
X232718956Y-101089665D01*
X232888474Y-100976397D01*
X233032637Y-100832234D01*
X233145905Y-100662716D01*
X233223926Y-100474358D01*
X233233328Y-100427088D01*
X233280598Y-100417686D01*
X233468956Y-100339665D01*
X233638474Y-100226397D01*
X233782637Y-100082234D01*
X233895905Y-99912716D01*
X233973926Y-99724358D01*
X234013700Y-99524399D01*
X234013700Y-99320521D01*
X233973926Y-99120562D01*
X233895905Y-98932204D01*
X233782637Y-98762686D01*
X233638474Y-98618523D01*
X233468956Y-98505255D01*
X233280598Y-98427234D01*
X233233328Y-98417832D01*
X233223926Y-98370562D01*
X233145905Y-98182204D01*
X233032637Y-98012686D01*
X232888474Y-97868523D01*
X232718956Y-97755255D01*
X232530598Y-97677234D01*
X232330639Y-97637460D01*
X232126761Y-97637460D01*
X231926802Y-97677234D01*
X231738444Y-97755255D01*
X231568926Y-97868523D01*
X231424763Y-98012686D01*
X231311495Y-98182204D01*
X231233474Y-98370562D01*
X231193700Y-98570521D01*
X214447125Y-98570521D01*
X214327776Y-98490775D01*
X214139418Y-98412754D01*
X213939459Y-98372980D01*
X213735581Y-98372980D01*
X213535622Y-98412754D01*
X213347264Y-98490775D01*
X213177746Y-98604043D01*
X213033583Y-98748206D01*
X212920315Y-98917724D01*
X212842294Y-99106082D01*
X212802520Y-99306041D01*
X210234062Y-99306041D01*
X210164425Y-99137924D01*
X210051157Y-98968406D01*
X209906994Y-98824243D01*
X209737476Y-98710975D01*
X209549118Y-98632954D01*
X209466459Y-98616512D01*
X209457586Y-98571902D01*
X209379565Y-98383544D01*
X209266297Y-98214026D01*
X209122134Y-98069863D01*
X208952616Y-97956595D01*
X208764258Y-97878574D01*
X208564299Y-97838800D01*
X208360421Y-97838800D01*
X208160462Y-97878574D01*
X207972104Y-97956595D01*
X207802586Y-98069863D01*
X207658423Y-98214026D01*
X207545155Y-98383544D01*
X207467134Y-98571902D01*
X207427360Y-98771861D01*
X207427360Y-98975739D01*
X207467134Y-99175698D01*
X207545155Y-99364056D01*
X207619064Y-99474670D01*
X207507055Y-99642304D01*
X207429034Y-99830662D01*
X207389260Y-100030621D01*
X200444223Y-100030621D01*
X200483766Y-99935158D01*
X200523540Y-99735199D01*
X200523540Y-99531321D01*
X200483766Y-99331362D01*
X200405745Y-99143004D01*
X200292477Y-98973486D01*
X200148314Y-98829323D01*
X199978796Y-98716055D01*
X199790438Y-98638034D01*
X199766437Y-98633260D01*
X199790438Y-98628486D01*
X199978796Y-98550465D01*
X200148314Y-98437197D01*
X200292477Y-98293034D01*
X200405745Y-98123516D01*
X200483766Y-97935158D01*
X200523540Y-97735199D01*
X200523540Y-97531321D01*
X200483766Y-97331362D01*
X200405745Y-97143004D01*
X200292477Y-96973486D01*
X200148314Y-96829323D01*
X199978796Y-96716055D01*
X199790438Y-96638034D01*
X199766437Y-96633260D01*
X199790438Y-96628486D01*
X199978796Y-96550465D01*
X200148314Y-96437197D01*
X200292477Y-96293034D01*
X200405745Y-96123516D01*
X200483766Y-95935158D01*
X200523540Y-95735199D01*
X200523540Y-95531321D01*
X200483766Y-95331362D01*
X200405745Y-95143004D01*
X200292477Y-94973486D01*
X200148314Y-94829323D01*
X199978796Y-94716055D01*
X199790438Y-94638034D01*
X199590479Y-94598260D01*
X199386601Y-94598260D01*
X199186642Y-94638034D01*
X198998284Y-94716055D01*
X198828766Y-94829323D01*
X198684603Y-94973486D01*
X198571335Y-95143004D01*
X198493314Y-95331362D01*
X198488540Y-95355363D01*
X198483766Y-95331362D01*
X198405745Y-95143004D01*
X198292477Y-94973486D01*
X198148314Y-94829323D01*
X197978796Y-94716055D01*
X197790438Y-94638034D01*
X197590479Y-94598260D01*
X197386601Y-94598260D01*
X197186642Y-94638034D01*
X196998284Y-94716055D01*
X196828766Y-94829323D01*
X196684603Y-94973486D01*
X196571335Y-95143004D01*
X196493314Y-95331362D01*
X196488540Y-95355363D01*
X196483766Y-95331362D01*
X196405745Y-95143004D01*
X196292477Y-94973486D01*
X196148314Y-94829323D01*
X195978796Y-94716055D01*
X195790438Y-94638034D01*
X195590479Y-94598260D01*
X195386601Y-94598260D01*
X195186642Y-94638034D01*
X194998284Y-94716055D01*
X194828766Y-94829323D01*
X194684603Y-94973486D01*
X194571335Y-95143004D01*
X194493314Y-95331362D01*
X194488540Y-95355363D01*
X194483766Y-95331362D01*
X194405745Y-95143004D01*
X194292477Y-94973486D01*
X194148314Y-94829323D01*
X193978796Y-94716055D01*
X193790438Y-94638034D01*
X193590479Y-94598260D01*
X193386601Y-94598260D01*
X193186642Y-94638034D01*
X192998284Y-94716055D01*
X192828766Y-94829323D01*
X192684603Y-94973486D01*
X192571335Y-95143004D01*
X192493314Y-95331362D01*
X192453540Y-95531321D01*
X179188027Y-95531321D01*
X177468163Y-93811457D01*
X177448917Y-93795663D01*
X177426961Y-93783927D01*
X177403136Y-93776700D01*
X177378360Y-93774260D01*
X148510526Y-93774260D01*
X148089620Y-93353354D01*
X148089620Y-90761827D01*
X208444641Y-90765207D01*
M02*
