G04 #@! TF.GenerationSoftware,KiCad,Pcbnew,(5.1.5)-3*
G04 #@! TF.CreationDate,2020-05-22T15:31:26-05:00*
G04 #@! TF.ProjectId,Power_Board,506f7765-725f-4426-9f61-72642e6b6963,rev?*
G04 #@! TF.SameCoordinates,Original*
G04 #@! TF.FileFunction,Legend,Top*
G04 #@! TF.FilePolarity,Positive*
%FSLAX46Y46*%
G04 Gerber Fmt 4.6, Leading zero omitted, Abs format (unit mm)*
G04 Created by KiCad (PCBNEW (5.1.5)-3) date 2020-05-22 15:31:26*
%MOMM*%
%LPD*%
G04 APERTURE LIST*
%ADD10C,0.150000*%
%ADD11C,0.152400*%
%ADD12C,0.120000*%
%ADD13C,0.100000*%
G04 APERTURE END LIST*
D10*
X114727941Y-43497760D02*
X114727941Y-42497760D01*
X115108894Y-42497760D01*
X115204132Y-42545380D01*
X115251751Y-42592999D01*
X115299370Y-42688237D01*
X115299370Y-42831094D01*
X115251751Y-42926332D01*
X115204132Y-42973951D01*
X115108894Y-43021570D01*
X114727941Y-43021570D01*
X116156513Y-43497760D02*
X116156513Y-42973951D01*
X116108894Y-42878713D01*
X116013656Y-42831094D01*
X115823180Y-42831094D01*
X115727941Y-42878713D01*
X116156513Y-43450141D02*
X116061275Y-43497760D01*
X115823180Y-43497760D01*
X115727941Y-43450141D01*
X115680322Y-43354903D01*
X115680322Y-43259665D01*
X115727941Y-43164427D01*
X115823180Y-43116808D01*
X116061275Y-43116808D01*
X116156513Y-43069189D01*
X116632703Y-43497760D02*
X116632703Y-42831094D01*
X116632703Y-43021570D02*
X116680322Y-42926332D01*
X116727941Y-42878713D01*
X116823180Y-42831094D01*
X116918418Y-42831094D01*
X117108894Y-42831094D02*
X117489846Y-42831094D01*
X117251751Y-42497760D02*
X117251751Y-43354903D01*
X117299370Y-43450141D01*
X117394608Y-43497760D01*
X117489846Y-43497760D01*
X117823180Y-43497760D02*
X117823180Y-42497760D01*
X118251751Y-43497760D02*
X118251751Y-42973951D01*
X118204132Y-42878713D01*
X118108894Y-42831094D01*
X117966037Y-42831094D01*
X117870799Y-42878713D01*
X117823180Y-42926332D01*
X118727941Y-43497760D02*
X118727941Y-42831094D01*
X118727941Y-42497760D02*
X118680322Y-42545380D01*
X118727941Y-42592999D01*
X118775560Y-42545380D01*
X118727941Y-42497760D01*
X118727941Y-42592999D01*
X119108894Y-42831094D02*
X119346989Y-43497760D01*
X119585084Y-42831094D01*
X120727941Y-43497760D02*
X120727941Y-42497760D01*
X121299370Y-43497760D02*
X120870799Y-42926332D01*
X121299370Y-42497760D02*
X120727941Y-43069189D01*
X121727941Y-43497760D02*
X121727941Y-42831094D01*
X121727941Y-43021570D02*
X121775560Y-42926332D01*
X121823180Y-42878713D01*
X121918418Y-42831094D01*
X122013656Y-42831094D01*
X122346989Y-43497760D02*
X122346989Y-42831094D01*
X122346989Y-42497760D02*
X122299370Y-42545380D01*
X122346989Y-42592999D01*
X122394608Y-42545380D01*
X122346989Y-42497760D01*
X122346989Y-42592999D01*
X122775560Y-43450141D02*
X122870799Y-43497760D01*
X123061275Y-43497760D01*
X123156513Y-43450141D01*
X123204132Y-43354903D01*
X123204132Y-43307284D01*
X123156513Y-43212046D01*
X123061275Y-43164427D01*
X122918418Y-43164427D01*
X122823180Y-43116808D01*
X122775560Y-43021570D01*
X122775560Y-42973951D01*
X122823180Y-42878713D01*
X122918418Y-42831094D01*
X123061275Y-42831094D01*
X123156513Y-42878713D01*
X123632703Y-43497760D02*
X123632703Y-42497760D01*
X124061275Y-43497760D02*
X124061275Y-42973951D01*
X124013656Y-42878713D01*
X123918418Y-42831094D01*
X123775560Y-42831094D01*
X123680322Y-42878713D01*
X123632703Y-42926332D01*
X124537465Y-42831094D02*
X124537465Y-43497760D01*
X124537465Y-42926332D02*
X124585084Y-42878713D01*
X124680322Y-42831094D01*
X124823180Y-42831094D01*
X124918418Y-42878713D01*
X124966037Y-42973951D01*
X124966037Y-43497760D01*
X125870799Y-43497760D02*
X125870799Y-42973951D01*
X125823180Y-42878713D01*
X125727941Y-42831094D01*
X125537465Y-42831094D01*
X125442227Y-42878713D01*
X125870799Y-43450141D02*
X125775560Y-43497760D01*
X125537465Y-43497760D01*
X125442227Y-43450141D01*
X125394608Y-43354903D01*
X125394608Y-43259665D01*
X125442227Y-43164427D01*
X125537465Y-43116808D01*
X125775560Y-43116808D01*
X125870799Y-43069189D01*
X127108894Y-43497760D02*
X127108894Y-42497760D01*
X127489846Y-42497760D01*
X127585084Y-42545380D01*
X127632703Y-42592999D01*
X127680322Y-42688237D01*
X127680322Y-42831094D01*
X127632703Y-42926332D01*
X127585084Y-42973951D01*
X127489846Y-43021570D01*
X127108894Y-43021570D01*
X128251751Y-43497760D02*
X128156513Y-43450141D01*
X128108894Y-43402522D01*
X128061275Y-43307284D01*
X128061275Y-43021570D01*
X128108894Y-42926332D01*
X128156513Y-42878713D01*
X128251751Y-42831094D01*
X128394608Y-42831094D01*
X128489846Y-42878713D01*
X128537465Y-42926332D01*
X128585084Y-43021570D01*
X128585084Y-43307284D01*
X128537465Y-43402522D01*
X128489846Y-43450141D01*
X128394608Y-43497760D01*
X128251751Y-43497760D01*
X128918418Y-42831094D02*
X129108894Y-43497760D01*
X129299370Y-43021570D01*
X129489846Y-43497760D01*
X129680322Y-42831094D01*
X130442227Y-43450141D02*
X130346989Y-43497760D01*
X130156513Y-43497760D01*
X130061275Y-43450141D01*
X130013656Y-43354903D01*
X130013656Y-42973951D01*
X130061275Y-42878713D01*
X130156513Y-42831094D01*
X130346989Y-42831094D01*
X130442227Y-42878713D01*
X130489846Y-42973951D01*
X130489846Y-43069189D01*
X130013656Y-43164427D01*
X130918418Y-43497760D02*
X130918418Y-42831094D01*
X130918418Y-43021570D02*
X130966037Y-42926332D01*
X131013656Y-42878713D01*
X131108894Y-42831094D01*
X131204132Y-42831094D01*
X131537465Y-43497760D02*
X131537465Y-42497760D01*
X131537465Y-42878713D02*
X131632703Y-42831094D01*
X131823180Y-42831094D01*
X131918418Y-42878713D01*
X131966037Y-42926332D01*
X132013656Y-43021570D01*
X132013656Y-43307284D01*
X131966037Y-43402522D01*
X131918418Y-43450141D01*
X131823180Y-43497760D01*
X131632703Y-43497760D01*
X131537465Y-43450141D01*
X132585084Y-43497760D02*
X132489846Y-43450141D01*
X132442227Y-43402522D01*
X132394608Y-43307284D01*
X132394608Y-43021570D01*
X132442227Y-42926332D01*
X132489846Y-42878713D01*
X132585084Y-42831094D01*
X132727941Y-42831094D01*
X132823180Y-42878713D01*
X132870799Y-42926332D01*
X132918418Y-43021570D01*
X132918418Y-43307284D01*
X132870799Y-43402522D01*
X132823180Y-43450141D01*
X132727941Y-43497760D01*
X132585084Y-43497760D01*
X133775560Y-43497760D02*
X133775560Y-42973951D01*
X133727941Y-42878713D01*
X133632703Y-42831094D01*
X133442227Y-42831094D01*
X133346989Y-42878713D01*
X133775560Y-43450141D02*
X133680322Y-43497760D01*
X133442227Y-43497760D01*
X133346989Y-43450141D01*
X133299370Y-43354903D01*
X133299370Y-43259665D01*
X133346989Y-43164427D01*
X133442227Y-43116808D01*
X133680322Y-43116808D01*
X133775560Y-43069189D01*
X134251751Y-43497760D02*
X134251751Y-42831094D01*
X134251751Y-43021570D02*
X134299370Y-42926332D01*
X134346989Y-42878713D01*
X134442227Y-42831094D01*
X134537465Y-42831094D01*
X135299370Y-43497760D02*
X135299370Y-42497760D01*
X135299370Y-43450141D02*
X135204132Y-43497760D01*
X135013656Y-43497760D01*
X134918418Y-43450141D01*
X134870799Y-43402522D01*
X134823180Y-43307284D01*
X134823180Y-43021570D01*
X134870799Y-42926332D01*
X134918418Y-42878713D01*
X135013656Y-42831094D01*
X135204132Y-42831094D01*
X135299370Y-42878713D01*
X137251751Y-42450141D02*
X136394608Y-43735856D01*
X138299370Y-43450141D02*
X138442227Y-43497760D01*
X138680322Y-43497760D01*
X138775560Y-43450141D01*
X138823180Y-43402522D01*
X138870799Y-43307284D01*
X138870799Y-43212046D01*
X138823180Y-43116808D01*
X138775560Y-43069189D01*
X138680322Y-43021570D01*
X138489846Y-42973951D01*
X138394608Y-42926332D01*
X138346989Y-42878713D01*
X138299370Y-42783475D01*
X138299370Y-42688237D01*
X138346989Y-42592999D01*
X138394608Y-42545380D01*
X138489846Y-42497760D01*
X138727941Y-42497760D01*
X138870799Y-42545380D01*
X139299370Y-42831094D02*
X139299370Y-43831094D01*
X139299370Y-42878713D02*
X139394608Y-42831094D01*
X139585084Y-42831094D01*
X139680322Y-42878713D01*
X139727941Y-42926332D01*
X139775560Y-43021570D01*
X139775560Y-43307284D01*
X139727941Y-43402522D01*
X139680322Y-43450141D01*
X139585084Y-43497760D01*
X139394608Y-43497760D01*
X139299370Y-43450141D01*
X140204132Y-43497760D02*
X140204132Y-42831094D01*
X140204132Y-43021570D02*
X140251751Y-42926332D01*
X140299370Y-42878713D01*
X140394608Y-42831094D01*
X140489846Y-42831094D01*
X140823180Y-43497760D02*
X140823180Y-42831094D01*
X140823180Y-42497760D02*
X140775560Y-42545380D01*
X140823180Y-42592999D01*
X140870799Y-42545380D01*
X140823180Y-42497760D01*
X140823180Y-42592999D01*
X141299370Y-42831094D02*
X141299370Y-43497760D01*
X141299370Y-42926332D02*
X141346989Y-42878713D01*
X141442227Y-42831094D01*
X141585084Y-42831094D01*
X141680322Y-42878713D01*
X141727941Y-42973951D01*
X141727941Y-43497760D01*
X142632703Y-42831094D02*
X142632703Y-43640618D01*
X142585084Y-43735856D01*
X142537465Y-43783475D01*
X142442227Y-43831094D01*
X142299370Y-43831094D01*
X142204132Y-43783475D01*
X142632703Y-43450141D02*
X142537465Y-43497760D01*
X142346989Y-43497760D01*
X142251751Y-43450141D01*
X142204132Y-43402522D01*
X142156513Y-43307284D01*
X142156513Y-43021570D01*
X142204132Y-42926332D01*
X142251751Y-42878713D01*
X142346989Y-42831094D01*
X142537465Y-42831094D01*
X142632703Y-42878713D01*
X143823180Y-42592999D02*
X143870799Y-42545380D01*
X143966037Y-42497760D01*
X144204132Y-42497760D01*
X144299370Y-42545380D01*
X144346989Y-42592999D01*
X144394608Y-42688237D01*
X144394608Y-42783475D01*
X144346989Y-42926332D01*
X143775560Y-43497760D01*
X144394608Y-43497760D01*
X145013656Y-42497760D02*
X145108894Y-42497760D01*
X145204132Y-42545380D01*
X145251751Y-42592999D01*
X145299370Y-42688237D01*
X145346989Y-42878713D01*
X145346989Y-43116808D01*
X145299370Y-43307284D01*
X145251751Y-43402522D01*
X145204132Y-43450141D01*
X145108894Y-43497760D01*
X145013656Y-43497760D01*
X144918418Y-43450141D01*
X144870799Y-43402522D01*
X144823180Y-43307284D01*
X144775560Y-43116808D01*
X144775560Y-42878713D01*
X144823180Y-42688237D01*
X144870799Y-42592999D01*
X144918418Y-42545380D01*
X145013656Y-42497760D01*
X145727941Y-42592999D02*
X145775560Y-42545380D01*
X145870799Y-42497760D01*
X146108894Y-42497760D01*
X146204132Y-42545380D01*
X146251751Y-42592999D01*
X146299370Y-42688237D01*
X146299370Y-42783475D01*
X146251751Y-42926332D01*
X145680322Y-43497760D01*
X146299370Y-43497760D01*
X146918418Y-42497760D02*
X147013656Y-42497760D01*
X147108894Y-42545380D01*
X147156513Y-42592999D01*
X147204132Y-42688237D01*
X147251751Y-42878713D01*
X147251751Y-43116808D01*
X147204132Y-43307284D01*
X147156513Y-43402522D01*
X147108894Y-43450141D01*
X147013656Y-43497760D01*
X146918418Y-43497760D01*
X146823180Y-43450141D01*
X146775560Y-43402522D01*
X146727941Y-43307284D01*
X146680322Y-43116808D01*
X146680322Y-42878713D01*
X146727941Y-42688237D01*
X146775560Y-42592999D01*
X146823180Y-42545380D01*
X146918418Y-42497760D01*
X149156513Y-42450141D02*
X148299370Y-43735856D01*
X150394608Y-43497760D02*
X150299370Y-43450141D01*
X150251751Y-43354903D01*
X150251751Y-42497760D01*
X151204132Y-43497760D02*
X151204132Y-42973951D01*
X151156513Y-42878713D01*
X151061275Y-42831094D01*
X150870799Y-42831094D01*
X150775560Y-42878713D01*
X151204132Y-43450141D02*
X151108894Y-43497760D01*
X150870799Y-43497760D01*
X150775560Y-43450141D01*
X150727941Y-43354903D01*
X150727941Y-43259665D01*
X150775560Y-43164427D01*
X150870799Y-43116808D01*
X151108894Y-43116808D01*
X151204132Y-43069189D01*
X151680322Y-43497760D02*
X151680322Y-42497760D01*
X151680322Y-42878713D02*
X151775560Y-42831094D01*
X151966037Y-42831094D01*
X152061275Y-42878713D01*
X152108894Y-42926332D01*
X152156513Y-43021570D01*
X152156513Y-43307284D01*
X152108894Y-43402522D01*
X152061275Y-43450141D01*
X151966037Y-43497760D01*
X151775560Y-43497760D01*
X151680322Y-43450141D01*
X153013656Y-42497760D02*
X152823179Y-42497760D01*
X152727941Y-42545380D01*
X152680322Y-42592999D01*
X152585084Y-42735856D01*
X152537465Y-42926332D01*
X152537465Y-43307284D01*
X152585084Y-43402522D01*
X152632703Y-43450141D01*
X152727941Y-43497760D01*
X152918418Y-43497760D01*
X153013656Y-43450141D01*
X153061275Y-43402522D01*
X153108894Y-43307284D01*
X153108894Y-43069189D01*
X153061275Y-42973951D01*
X153013656Y-42926332D01*
X152918418Y-42878713D01*
X152727941Y-42878713D01*
X152632703Y-42926332D01*
X152585084Y-42973951D01*
X152537465Y-43069189D01*
X153966037Y-42831094D02*
X153966037Y-43497760D01*
X153727941Y-42450141D02*
X153489846Y-43164427D01*
X154108894Y-43164427D01*
X155251751Y-43497760D02*
X155251751Y-42831094D01*
X155251751Y-42497760D02*
X155204132Y-42545380D01*
X155251751Y-42592999D01*
X155299370Y-42545380D01*
X155251751Y-42497760D01*
X155251751Y-42592999D01*
X155727941Y-42831094D02*
X155727941Y-43497760D01*
X155727941Y-42926332D02*
X155775560Y-42878713D01*
X155870799Y-42831094D01*
X156013656Y-42831094D01*
X156108894Y-42878713D01*
X156156513Y-42973951D01*
X156156513Y-43497760D01*
X156489846Y-42831094D02*
X156870799Y-42831094D01*
X156632703Y-42497760D02*
X156632703Y-43354903D01*
X156680322Y-43450141D01*
X156775560Y-43497760D01*
X156870799Y-43497760D01*
X157204132Y-43497760D02*
X157204132Y-42831094D01*
X157204132Y-43021570D02*
X157251751Y-42926332D01*
X157299370Y-42878713D01*
X157394608Y-42831094D01*
X157489846Y-42831094D01*
X157966037Y-43497760D02*
X157870799Y-43450141D01*
X157823180Y-43402522D01*
X157775560Y-43307284D01*
X157775560Y-43021570D01*
X157823180Y-42926332D01*
X157870799Y-42878713D01*
X157966037Y-42831094D01*
X158108894Y-42831094D01*
X158204132Y-42878713D01*
X158251751Y-42926332D01*
X158299370Y-43021570D01*
X158299370Y-43307284D01*
X158251751Y-43402522D01*
X158204132Y-43450141D01*
X158108894Y-43497760D01*
X157966037Y-43497760D01*
X158680322Y-42592999D02*
X158727941Y-42545380D01*
X158823180Y-42497760D01*
X159061275Y-42497760D01*
X159156513Y-42545380D01*
X159204132Y-42592999D01*
X159251751Y-42688237D01*
X159251751Y-42783475D01*
X159204132Y-42926332D01*
X158632703Y-43497760D01*
X159251751Y-43497760D01*
X159680322Y-43497760D02*
X159680322Y-42497760D01*
X160061275Y-42497760D01*
X160156513Y-42545380D01*
X160204132Y-42592999D01*
X160251751Y-42688237D01*
X160251751Y-42831094D01*
X160204132Y-42926332D01*
X160156513Y-42973951D01*
X160061275Y-43021570D01*
X159680322Y-43021570D01*
X161251751Y-43402522D02*
X161204132Y-43450141D01*
X161061275Y-43497760D01*
X160966037Y-43497760D01*
X160823180Y-43450141D01*
X160727941Y-43354903D01*
X160680322Y-43259665D01*
X160632703Y-43069189D01*
X160632703Y-42926332D01*
X160680322Y-42735856D01*
X160727941Y-42640618D01*
X160823180Y-42545380D01*
X160966037Y-42497760D01*
X161061275Y-42497760D01*
X161204132Y-42545380D01*
X161251751Y-42592999D01*
X162013656Y-42973951D02*
X162156513Y-43021570D01*
X162204132Y-43069189D01*
X162251751Y-43164427D01*
X162251751Y-43307284D01*
X162204132Y-43402522D01*
X162156513Y-43450141D01*
X162061275Y-43497760D01*
X161680322Y-43497760D01*
X161680322Y-42497760D01*
X162013656Y-42497760D01*
X162108894Y-42545380D01*
X162156513Y-42592999D01*
X162204132Y-42688237D01*
X162204132Y-42783475D01*
X162156513Y-42878713D01*
X162108894Y-42926332D01*
X162013656Y-42973951D01*
X161680322Y-42973951D01*
X162680322Y-43497760D02*
X162680322Y-42497760D01*
X162918418Y-42497760D01*
X163061275Y-42545380D01*
X163156513Y-42640618D01*
X163204132Y-42735856D01*
X163251751Y-42926332D01*
X163251751Y-43069189D01*
X163204132Y-43259665D01*
X163156513Y-43354903D01*
X163061275Y-43450141D01*
X162918418Y-43497760D01*
X162680322Y-43497760D01*
X164061275Y-43450141D02*
X163966037Y-43497760D01*
X163775560Y-43497760D01*
X163680322Y-43450141D01*
X163632703Y-43354903D01*
X163632703Y-42973951D01*
X163680322Y-42878713D01*
X163775560Y-42831094D01*
X163966037Y-42831094D01*
X164061275Y-42878713D01*
X164108894Y-42973951D01*
X164108894Y-43069189D01*
X163632703Y-43164427D01*
X164489846Y-43450141D02*
X164585084Y-43497760D01*
X164775560Y-43497760D01*
X164870799Y-43450141D01*
X164918418Y-43354903D01*
X164918418Y-43307284D01*
X164870799Y-43212046D01*
X164775560Y-43164427D01*
X164632703Y-43164427D01*
X164537465Y-43116808D01*
X164489846Y-43021570D01*
X164489846Y-42973951D01*
X164537465Y-42878713D01*
X164632703Y-42831094D01*
X164775560Y-42831094D01*
X164870799Y-42878713D01*
X165346989Y-43497760D02*
X165346989Y-42831094D01*
X165346989Y-42497760D02*
X165299370Y-42545380D01*
X165346989Y-42592999D01*
X165394608Y-42545380D01*
X165346989Y-42497760D01*
X165346989Y-42592999D01*
X166251751Y-42831094D02*
X166251751Y-43640618D01*
X166204132Y-43735856D01*
X166156513Y-43783475D01*
X166061275Y-43831094D01*
X165918418Y-43831094D01*
X165823180Y-43783475D01*
X166251751Y-43450141D02*
X166156513Y-43497760D01*
X165966037Y-43497760D01*
X165870799Y-43450141D01*
X165823180Y-43402522D01*
X165775560Y-43307284D01*
X165775560Y-43021570D01*
X165823180Y-42926332D01*
X165870799Y-42878713D01*
X165966037Y-42831094D01*
X166156513Y-42831094D01*
X166251751Y-42878713D01*
X166727941Y-42831094D02*
X166727941Y-43497760D01*
X166727941Y-42926332D02*
X166775560Y-42878713D01*
X166870799Y-42831094D01*
X167013656Y-42831094D01*
X167108894Y-42878713D01*
X167156513Y-42973951D01*
X167156513Y-43497760D01*
X168299370Y-42497760D02*
X168537465Y-43497760D01*
X168727941Y-42783475D01*
X168918418Y-43497760D01*
X169156513Y-42497760D01*
X169680322Y-43497760D02*
X169585084Y-43450141D01*
X169537465Y-43402522D01*
X169489846Y-43307284D01*
X169489846Y-43021570D01*
X169537465Y-42926332D01*
X169585084Y-42878713D01*
X169680322Y-42831094D01*
X169823179Y-42831094D01*
X169918418Y-42878713D01*
X169966037Y-42926332D01*
X170013656Y-43021570D01*
X170013656Y-43307284D01*
X169966037Y-43402522D01*
X169918418Y-43450141D01*
X169823179Y-43497760D01*
X169680322Y-43497760D01*
X170442227Y-43497760D02*
X170442227Y-42831094D01*
X170442227Y-43021570D02*
X170489846Y-42926332D01*
X170537465Y-42878713D01*
X170632703Y-42831094D01*
X170727941Y-42831094D01*
X171061275Y-43497760D02*
X171061275Y-42497760D01*
X171156513Y-43116808D02*
X171442227Y-43497760D01*
X171442227Y-42831094D02*
X171061275Y-43212046D01*
X171823179Y-43450141D02*
X171918418Y-43497760D01*
X172108894Y-43497760D01*
X172204132Y-43450141D01*
X172251751Y-43354903D01*
X172251751Y-43307284D01*
X172204132Y-43212046D01*
X172108894Y-43164427D01*
X171966037Y-43164427D01*
X171870799Y-43116808D01*
X171823179Y-43021570D01*
X171823179Y-42973951D01*
X171870799Y-42878713D01*
X171966037Y-42831094D01*
X172108894Y-42831094D01*
X172204132Y-42878713D01*
X172680322Y-43497760D02*
X172680322Y-42497760D01*
X173108894Y-43497760D02*
X173108894Y-42973951D01*
X173061275Y-42878713D01*
X172966037Y-42831094D01*
X172823179Y-42831094D01*
X172727941Y-42878713D01*
X172680322Y-42926332D01*
X173727941Y-43497760D02*
X173632703Y-43450141D01*
X173585084Y-43402522D01*
X173537465Y-43307284D01*
X173537465Y-43021570D01*
X173585084Y-42926332D01*
X173632703Y-42878713D01*
X173727941Y-42831094D01*
X173870799Y-42831094D01*
X173966037Y-42878713D01*
X174013656Y-42926332D01*
X174061275Y-43021570D01*
X174061275Y-43307284D01*
X174013656Y-43402522D01*
X173966037Y-43450141D01*
X173870799Y-43497760D01*
X173727941Y-43497760D01*
X174489846Y-42831094D02*
X174489846Y-43831094D01*
X174489846Y-42878713D02*
X174585084Y-42831094D01*
X174775560Y-42831094D01*
X174870799Y-42878713D01*
X174918418Y-42926332D01*
X174966037Y-43021570D01*
X174966037Y-43307284D01*
X174918418Y-43402522D01*
X174870799Y-43450141D01*
X174775560Y-43497760D01*
X174585084Y-43497760D01*
X174489846Y-43450141D01*
X74448500Y-44316428D02*
X75210404Y-44316428D01*
X74829452Y-44697380D02*
X74829452Y-43935476D01*
X76162785Y-43697380D02*
X75686595Y-43697380D01*
X75638976Y-44173571D01*
X75686595Y-44125952D01*
X75781833Y-44078333D01*
X76019928Y-44078333D01*
X76115166Y-44125952D01*
X76162785Y-44173571D01*
X76210404Y-44268809D01*
X76210404Y-44506904D01*
X76162785Y-44602142D01*
X76115166Y-44649761D01*
X76019928Y-44697380D01*
X75781833Y-44697380D01*
X75686595Y-44649761D01*
X75638976Y-44602142D01*
X76496119Y-43697380D02*
X76829452Y-44697380D01*
X77162785Y-43697380D01*
X78115166Y-44030714D02*
X78496119Y-44030714D01*
X78258023Y-44697380D02*
X78258023Y-43840238D01*
X78305642Y-43745000D01*
X78400880Y-43697380D01*
X78496119Y-43697380D01*
X78972309Y-44697380D02*
X78877071Y-44649761D01*
X78829452Y-44602142D01*
X78781833Y-44506904D01*
X78781833Y-44221190D01*
X78829452Y-44125952D01*
X78877071Y-44078333D01*
X78972309Y-44030714D01*
X79115166Y-44030714D01*
X79210404Y-44078333D01*
X79258023Y-44125952D01*
X79305642Y-44221190D01*
X79305642Y-44506904D01*
X79258023Y-44602142D01*
X79210404Y-44649761D01*
X79115166Y-44697380D01*
X78972309Y-44697380D01*
X79734214Y-44697380D02*
X79734214Y-44030714D01*
X79734214Y-44221190D02*
X79781833Y-44125952D01*
X79829452Y-44078333D01*
X79924690Y-44030714D01*
X80019928Y-44030714D01*
X81591357Y-44697380D02*
X81115166Y-44697380D01*
X81115166Y-43697380D01*
X82305642Y-44649761D02*
X82210404Y-44697380D01*
X82019928Y-44697380D01*
X81924690Y-44649761D01*
X81877071Y-44554523D01*
X81877071Y-44173571D01*
X81924690Y-44078333D01*
X82019928Y-44030714D01*
X82210404Y-44030714D01*
X82305642Y-44078333D01*
X82353261Y-44173571D01*
X82353261Y-44268809D01*
X81877071Y-44364047D01*
X82638976Y-44030714D02*
X83019928Y-44030714D01*
X82781833Y-44697380D02*
X82781833Y-43840238D01*
X82829452Y-43745000D01*
X82924690Y-43697380D01*
X83019928Y-43697380D01*
X83210404Y-44030714D02*
X83591357Y-44030714D01*
X83353261Y-43697380D02*
X83353261Y-44554523D01*
X83400880Y-44649761D01*
X83496119Y-44697380D01*
X83591357Y-44697380D01*
X75758023Y-46347380D02*
X75281833Y-46347380D01*
X75281833Y-45347380D01*
X76091357Y-45823571D02*
X76424690Y-45823571D01*
X76567547Y-46347380D02*
X76091357Y-46347380D01*
X76091357Y-45347380D01*
X76567547Y-45347380D01*
X76996119Y-46347380D02*
X76996119Y-45347380D01*
X77234214Y-45347380D01*
X77377071Y-45395000D01*
X77472309Y-45490238D01*
X77519928Y-45585476D01*
X77567547Y-45775952D01*
X77567547Y-45918809D01*
X77519928Y-46109285D01*
X77472309Y-46204523D01*
X77377071Y-46299761D01*
X77234214Y-46347380D01*
X76996119Y-46347380D01*
X79091357Y-45823571D02*
X79234214Y-45871190D01*
X79281833Y-45918809D01*
X79329452Y-46014047D01*
X79329452Y-46156904D01*
X79281833Y-46252142D01*
X79234214Y-46299761D01*
X79138976Y-46347380D01*
X78758023Y-46347380D01*
X78758023Y-45347380D01*
X79091357Y-45347380D01*
X79186595Y-45395000D01*
X79234214Y-45442619D01*
X79281833Y-45537857D01*
X79281833Y-45633095D01*
X79234214Y-45728333D01*
X79186595Y-45775952D01*
X79091357Y-45823571D01*
X78758023Y-45823571D01*
X79900880Y-46347380D02*
X79805642Y-46299761D01*
X79758023Y-46252142D01*
X79710404Y-46156904D01*
X79710404Y-45871190D01*
X79758023Y-45775952D01*
X79805642Y-45728333D01*
X79900880Y-45680714D01*
X80043738Y-45680714D01*
X80138976Y-45728333D01*
X80186595Y-45775952D01*
X80234214Y-45871190D01*
X80234214Y-46156904D01*
X80186595Y-46252142D01*
X80138976Y-46299761D01*
X80043738Y-46347380D01*
X79900880Y-46347380D01*
X81091357Y-46347380D02*
X81091357Y-45823571D01*
X81043738Y-45728333D01*
X80948500Y-45680714D01*
X80758023Y-45680714D01*
X80662785Y-45728333D01*
X81091357Y-46299761D02*
X80996119Y-46347380D01*
X80758023Y-46347380D01*
X80662785Y-46299761D01*
X80615166Y-46204523D01*
X80615166Y-46109285D01*
X80662785Y-46014047D01*
X80758023Y-45966428D01*
X80996119Y-45966428D01*
X81091357Y-45918809D01*
X81567547Y-46347380D02*
X81567547Y-45680714D01*
X81567547Y-45871190D02*
X81615166Y-45775952D01*
X81662785Y-45728333D01*
X81758023Y-45680714D01*
X81853261Y-45680714D01*
X82615166Y-46347380D02*
X82615166Y-45347380D01*
X82615166Y-46299761D02*
X82519928Y-46347380D01*
X82329452Y-46347380D01*
X82234214Y-46299761D01*
X82186595Y-46252142D01*
X82138976Y-46156904D01*
X82138976Y-45871190D01*
X82186595Y-45775952D01*
X82234214Y-45728333D01*
X82329452Y-45680714D01*
X82519928Y-45680714D01*
X82615166Y-45728333D01*
X87307183Y-120155508D02*
X88069088Y-120155508D01*
X87688136Y-120536460D02*
X87688136Y-119774556D01*
X89069088Y-120536460D02*
X88497660Y-120536460D01*
X88783374Y-120536460D02*
X88783374Y-119536460D01*
X88688136Y-119679318D01*
X88592898Y-119774556D01*
X88497660Y-119822175D01*
X89973850Y-119536460D02*
X89497660Y-119536460D01*
X89450040Y-120012651D01*
X89497660Y-119965032D01*
X89592898Y-119917413D01*
X89830993Y-119917413D01*
X89926231Y-119965032D01*
X89973850Y-120012651D01*
X90021469Y-120107889D01*
X90021469Y-120345984D01*
X89973850Y-120441222D01*
X89926231Y-120488841D01*
X89830993Y-120536460D01*
X89592898Y-120536460D01*
X89497660Y-120488841D01*
X89450040Y-120441222D01*
X90307183Y-119536460D02*
X90640517Y-120536460D01*
X90973850Y-119536460D01*
X91926231Y-119869794D02*
X92307183Y-119869794D01*
X92069088Y-120536460D02*
X92069088Y-119679318D01*
X92116707Y-119584080D01*
X92211945Y-119536460D01*
X92307183Y-119536460D01*
X92783374Y-120536460D02*
X92688136Y-120488841D01*
X92640517Y-120441222D01*
X92592898Y-120345984D01*
X92592898Y-120060270D01*
X92640517Y-119965032D01*
X92688136Y-119917413D01*
X92783374Y-119869794D01*
X92926231Y-119869794D01*
X93021469Y-119917413D01*
X93069088Y-119965032D01*
X93116707Y-120060270D01*
X93116707Y-120345984D01*
X93069088Y-120441222D01*
X93021469Y-120488841D01*
X92926231Y-120536460D01*
X92783374Y-120536460D01*
X93545279Y-120536460D02*
X93545279Y-119869794D01*
X93545279Y-120060270D02*
X93592898Y-119965032D01*
X93640517Y-119917413D01*
X93735755Y-119869794D01*
X93830993Y-119869794D01*
X86116707Y-121900746D02*
X86592898Y-121900746D01*
X86021469Y-122186460D02*
X86354802Y-121186460D01*
X86688136Y-122186460D01*
X87450040Y-121519794D02*
X87450040Y-122186460D01*
X87021469Y-121519794D02*
X87021469Y-122043603D01*
X87069088Y-122138841D01*
X87164326Y-122186460D01*
X87307183Y-122186460D01*
X87402421Y-122138841D01*
X87450040Y-122091222D01*
X88354802Y-122186460D02*
X88354802Y-121186460D01*
X88354802Y-122138841D02*
X88259564Y-122186460D01*
X88069088Y-122186460D01*
X87973850Y-122138841D01*
X87926231Y-122091222D01*
X87878612Y-121995984D01*
X87878612Y-121710270D01*
X87926231Y-121615032D01*
X87973850Y-121567413D01*
X88069088Y-121519794D01*
X88259564Y-121519794D01*
X88354802Y-121567413D01*
X88830993Y-122186460D02*
X88830993Y-121519794D01*
X88830993Y-121186460D02*
X88783374Y-121234080D01*
X88830993Y-121281699D01*
X88878612Y-121234080D01*
X88830993Y-121186460D01*
X88830993Y-121281699D01*
X89450040Y-122186460D02*
X89354802Y-122138841D01*
X89307183Y-122091222D01*
X89259564Y-121995984D01*
X89259564Y-121710270D01*
X89307183Y-121615032D01*
X89354802Y-121567413D01*
X89450040Y-121519794D01*
X89592898Y-121519794D01*
X89688136Y-121567413D01*
X89735755Y-121615032D01*
X89783374Y-121710270D01*
X89783374Y-121995984D01*
X89735755Y-122091222D01*
X89688136Y-122138841D01*
X89592898Y-122186460D01*
X89450040Y-122186460D01*
X91307183Y-121662651D02*
X91450040Y-121710270D01*
X91497660Y-121757889D01*
X91545279Y-121853127D01*
X91545279Y-121995984D01*
X91497660Y-122091222D01*
X91450040Y-122138841D01*
X91354802Y-122186460D01*
X90973850Y-122186460D01*
X90973850Y-121186460D01*
X91307183Y-121186460D01*
X91402421Y-121234080D01*
X91450040Y-121281699D01*
X91497660Y-121376937D01*
X91497660Y-121472175D01*
X91450040Y-121567413D01*
X91402421Y-121615032D01*
X91307183Y-121662651D01*
X90973850Y-121662651D01*
X92116707Y-122186460D02*
X92021469Y-122138841D01*
X91973850Y-122091222D01*
X91926231Y-121995984D01*
X91926231Y-121710270D01*
X91973850Y-121615032D01*
X92021469Y-121567413D01*
X92116707Y-121519794D01*
X92259564Y-121519794D01*
X92354802Y-121567413D01*
X92402421Y-121615032D01*
X92450040Y-121710270D01*
X92450040Y-121995984D01*
X92402421Y-122091222D01*
X92354802Y-122138841D01*
X92259564Y-122186460D01*
X92116707Y-122186460D01*
X93307183Y-122186460D02*
X93307183Y-121662651D01*
X93259564Y-121567413D01*
X93164326Y-121519794D01*
X92973850Y-121519794D01*
X92878612Y-121567413D01*
X93307183Y-122138841D02*
X93211945Y-122186460D01*
X92973850Y-122186460D01*
X92878612Y-122138841D01*
X92830993Y-122043603D01*
X92830993Y-121948365D01*
X92878612Y-121853127D01*
X92973850Y-121805508D01*
X93211945Y-121805508D01*
X93307183Y-121757889D01*
X93783374Y-122186460D02*
X93783374Y-121519794D01*
X93783374Y-121710270D02*
X93830993Y-121615032D01*
X93878612Y-121567413D01*
X93973850Y-121519794D01*
X94069088Y-121519794D01*
X94830993Y-122186460D02*
X94830993Y-121186460D01*
X94830993Y-122138841D02*
X94735755Y-122186460D01*
X94545279Y-122186460D01*
X94450040Y-122138841D01*
X94402421Y-122091222D01*
X94354802Y-121995984D01*
X94354802Y-121710270D01*
X94402421Y-121615032D01*
X94450040Y-121567413D01*
X94545279Y-121519794D01*
X94735755Y-121519794D01*
X94830993Y-121567413D01*
X160122621Y-101113128D02*
X160884526Y-101113128D01*
X161836907Y-100494080D02*
X161360717Y-100494080D01*
X161313098Y-100970271D01*
X161360717Y-100922652D01*
X161455955Y-100875033D01*
X161694050Y-100875033D01*
X161789288Y-100922652D01*
X161836907Y-100970271D01*
X161884526Y-101065509D01*
X161884526Y-101303604D01*
X161836907Y-101398842D01*
X161789288Y-101446461D01*
X161694050Y-101494080D01*
X161455955Y-101494080D01*
X161360717Y-101446461D01*
X161313098Y-101398842D01*
X162170240Y-100494080D02*
X162503574Y-101494080D01*
X162836907Y-100494080D01*
X163789288Y-100827414D02*
X164170240Y-100827414D01*
X163932145Y-101494080D02*
X163932145Y-100636938D01*
X163979764Y-100541700D01*
X164075002Y-100494080D01*
X164170240Y-100494080D01*
X164646431Y-101494080D02*
X164551193Y-101446461D01*
X164503574Y-101398842D01*
X164455955Y-101303604D01*
X164455955Y-101017890D01*
X164503574Y-100922652D01*
X164551193Y-100875033D01*
X164646431Y-100827414D01*
X164789288Y-100827414D01*
X164884526Y-100875033D01*
X164932145Y-100922652D01*
X164979764Y-101017890D01*
X164979764Y-101303604D01*
X164932145Y-101398842D01*
X164884526Y-101446461D01*
X164789288Y-101494080D01*
X164646431Y-101494080D01*
X165408336Y-101494080D02*
X165408336Y-100827414D01*
X165408336Y-101017890D02*
X165455955Y-100922652D01*
X165503574Y-100875033D01*
X165598812Y-100827414D01*
X165694050Y-100827414D01*
X158836907Y-102858366D02*
X159313098Y-102858366D01*
X158741669Y-103144080D02*
X159075002Y-102144080D01*
X159408336Y-103144080D01*
X160170240Y-102477414D02*
X160170240Y-103144080D01*
X159741669Y-102477414D02*
X159741669Y-103001223D01*
X159789288Y-103096461D01*
X159884526Y-103144080D01*
X160027383Y-103144080D01*
X160122621Y-103096461D01*
X160170240Y-103048842D01*
X161075002Y-103144080D02*
X161075002Y-102144080D01*
X161075002Y-103096461D02*
X160979764Y-103144080D01*
X160789288Y-103144080D01*
X160694050Y-103096461D01*
X160646431Y-103048842D01*
X160598812Y-102953604D01*
X160598812Y-102667890D01*
X160646431Y-102572652D01*
X160694050Y-102525033D01*
X160789288Y-102477414D01*
X160979764Y-102477414D01*
X161075002Y-102525033D01*
X161551193Y-103144080D02*
X161551193Y-102477414D01*
X161551193Y-102144080D02*
X161503574Y-102191700D01*
X161551193Y-102239319D01*
X161598812Y-102191700D01*
X161551193Y-102144080D01*
X161551193Y-102239319D01*
X162170240Y-103144080D02*
X162075002Y-103096461D01*
X162027383Y-103048842D01*
X161979764Y-102953604D01*
X161979764Y-102667890D01*
X162027383Y-102572652D01*
X162075002Y-102525033D01*
X162170240Y-102477414D01*
X162313098Y-102477414D01*
X162408336Y-102525033D01*
X162455955Y-102572652D01*
X162503574Y-102667890D01*
X162503574Y-102953604D01*
X162455955Y-103048842D01*
X162408336Y-103096461D01*
X162313098Y-103144080D01*
X162170240Y-103144080D01*
X164027383Y-102620271D02*
X164170240Y-102667890D01*
X164217860Y-102715509D01*
X164265479Y-102810747D01*
X164265479Y-102953604D01*
X164217860Y-103048842D01*
X164170240Y-103096461D01*
X164075002Y-103144080D01*
X163694050Y-103144080D01*
X163694050Y-102144080D01*
X164027383Y-102144080D01*
X164122621Y-102191700D01*
X164170240Y-102239319D01*
X164217860Y-102334557D01*
X164217860Y-102429795D01*
X164170240Y-102525033D01*
X164122621Y-102572652D01*
X164027383Y-102620271D01*
X163694050Y-102620271D01*
X164836907Y-103144080D02*
X164741669Y-103096461D01*
X164694050Y-103048842D01*
X164646431Y-102953604D01*
X164646431Y-102667890D01*
X164694050Y-102572652D01*
X164741669Y-102525033D01*
X164836907Y-102477414D01*
X164979764Y-102477414D01*
X165075002Y-102525033D01*
X165122621Y-102572652D01*
X165170240Y-102667890D01*
X165170240Y-102953604D01*
X165122621Y-103048842D01*
X165075002Y-103096461D01*
X164979764Y-103144080D01*
X164836907Y-103144080D01*
X166027383Y-103144080D02*
X166027383Y-102620271D01*
X165979764Y-102525033D01*
X165884526Y-102477414D01*
X165694050Y-102477414D01*
X165598812Y-102525033D01*
X166027383Y-103096461D02*
X165932145Y-103144080D01*
X165694050Y-103144080D01*
X165598812Y-103096461D01*
X165551193Y-103001223D01*
X165551193Y-102905985D01*
X165598812Y-102810747D01*
X165694050Y-102763128D01*
X165932145Y-102763128D01*
X166027383Y-102715509D01*
X166503574Y-103144080D02*
X166503574Y-102477414D01*
X166503574Y-102667890D02*
X166551193Y-102572652D01*
X166598812Y-102525033D01*
X166694050Y-102477414D01*
X166789288Y-102477414D01*
X167551193Y-103144080D02*
X167551193Y-102144080D01*
X167551193Y-103096461D02*
X167455955Y-103144080D01*
X167265479Y-103144080D01*
X167170240Y-103096461D01*
X167122621Y-103048842D01*
X167075002Y-102953604D01*
X167075002Y-102667890D01*
X167122621Y-102572652D01*
X167170240Y-102525033D01*
X167265479Y-102477414D01*
X167455955Y-102477414D01*
X167551193Y-102525033D01*
X212967321Y-108339428D02*
X213729226Y-108339428D01*
X213348274Y-108720380D02*
X213348274Y-107958476D01*
X214681607Y-107720380D02*
X214205417Y-107720380D01*
X214157798Y-108196571D01*
X214205417Y-108148952D01*
X214300655Y-108101333D01*
X214538750Y-108101333D01*
X214633988Y-108148952D01*
X214681607Y-108196571D01*
X214729226Y-108291809D01*
X214729226Y-108529904D01*
X214681607Y-108625142D01*
X214633988Y-108672761D01*
X214538750Y-108720380D01*
X214300655Y-108720380D01*
X214205417Y-108672761D01*
X214157798Y-108625142D01*
X215014940Y-107720380D02*
X215348274Y-108720380D01*
X215681607Y-107720380D01*
X216633988Y-108053714D02*
X217014940Y-108053714D01*
X216776845Y-108720380D02*
X216776845Y-107863238D01*
X216824464Y-107768000D01*
X216919702Y-107720380D01*
X217014940Y-107720380D01*
X217491131Y-108720380D02*
X217395893Y-108672761D01*
X217348274Y-108625142D01*
X217300655Y-108529904D01*
X217300655Y-108244190D01*
X217348274Y-108148952D01*
X217395893Y-108101333D01*
X217491131Y-108053714D01*
X217633988Y-108053714D01*
X217729226Y-108101333D01*
X217776845Y-108148952D01*
X217824464Y-108244190D01*
X217824464Y-108529904D01*
X217776845Y-108625142D01*
X217729226Y-108672761D01*
X217633988Y-108720380D01*
X217491131Y-108720380D01*
X218253036Y-108720380D02*
X218253036Y-108053714D01*
X218253036Y-108244190D02*
X218300655Y-108148952D01*
X218348274Y-108101333D01*
X218443512Y-108053714D01*
X218538750Y-108053714D01*
X211681607Y-110084666D02*
X212157798Y-110084666D01*
X211586369Y-110370380D02*
X211919702Y-109370380D01*
X212253036Y-110370380D01*
X213014940Y-109703714D02*
X213014940Y-110370380D01*
X212586369Y-109703714D02*
X212586369Y-110227523D01*
X212633988Y-110322761D01*
X212729226Y-110370380D01*
X212872083Y-110370380D01*
X212967321Y-110322761D01*
X213014940Y-110275142D01*
X213919702Y-110370380D02*
X213919702Y-109370380D01*
X213919702Y-110322761D02*
X213824464Y-110370380D01*
X213633988Y-110370380D01*
X213538750Y-110322761D01*
X213491131Y-110275142D01*
X213443512Y-110179904D01*
X213443512Y-109894190D01*
X213491131Y-109798952D01*
X213538750Y-109751333D01*
X213633988Y-109703714D01*
X213824464Y-109703714D01*
X213919702Y-109751333D01*
X214395893Y-110370380D02*
X214395893Y-109703714D01*
X214395893Y-109370380D02*
X214348274Y-109418000D01*
X214395893Y-109465619D01*
X214443512Y-109418000D01*
X214395893Y-109370380D01*
X214395893Y-109465619D01*
X215014940Y-110370380D02*
X214919702Y-110322761D01*
X214872083Y-110275142D01*
X214824464Y-110179904D01*
X214824464Y-109894190D01*
X214872083Y-109798952D01*
X214919702Y-109751333D01*
X215014940Y-109703714D01*
X215157798Y-109703714D01*
X215253036Y-109751333D01*
X215300655Y-109798952D01*
X215348274Y-109894190D01*
X215348274Y-110179904D01*
X215300655Y-110275142D01*
X215253036Y-110322761D01*
X215157798Y-110370380D01*
X215014940Y-110370380D01*
X216872083Y-109846571D02*
X217014940Y-109894190D01*
X217062560Y-109941809D01*
X217110179Y-110037047D01*
X217110179Y-110179904D01*
X217062560Y-110275142D01*
X217014940Y-110322761D01*
X216919702Y-110370380D01*
X216538750Y-110370380D01*
X216538750Y-109370380D01*
X216872083Y-109370380D01*
X216967321Y-109418000D01*
X217014940Y-109465619D01*
X217062560Y-109560857D01*
X217062560Y-109656095D01*
X217014940Y-109751333D01*
X216967321Y-109798952D01*
X216872083Y-109846571D01*
X216538750Y-109846571D01*
X217681607Y-110370380D02*
X217586369Y-110322761D01*
X217538750Y-110275142D01*
X217491131Y-110179904D01*
X217491131Y-109894190D01*
X217538750Y-109798952D01*
X217586369Y-109751333D01*
X217681607Y-109703714D01*
X217824464Y-109703714D01*
X217919702Y-109751333D01*
X217967321Y-109798952D01*
X218014940Y-109894190D01*
X218014940Y-110179904D01*
X217967321Y-110275142D01*
X217919702Y-110322761D01*
X217824464Y-110370380D01*
X217681607Y-110370380D01*
X218872083Y-110370380D02*
X218872083Y-109846571D01*
X218824464Y-109751333D01*
X218729226Y-109703714D01*
X218538750Y-109703714D01*
X218443512Y-109751333D01*
X218872083Y-110322761D02*
X218776845Y-110370380D01*
X218538750Y-110370380D01*
X218443512Y-110322761D01*
X218395893Y-110227523D01*
X218395893Y-110132285D01*
X218443512Y-110037047D01*
X218538750Y-109989428D01*
X218776845Y-109989428D01*
X218872083Y-109941809D01*
X219348274Y-110370380D02*
X219348274Y-109703714D01*
X219348274Y-109894190D02*
X219395893Y-109798952D01*
X219443512Y-109751333D01*
X219538750Y-109703714D01*
X219633988Y-109703714D01*
X220395893Y-110370380D02*
X220395893Y-109370380D01*
X220395893Y-110322761D02*
X220300655Y-110370380D01*
X220110179Y-110370380D01*
X220014940Y-110322761D01*
X219967321Y-110275142D01*
X219919702Y-110179904D01*
X219919702Y-109894190D01*
X219967321Y-109798952D01*
X220014940Y-109751333D01*
X220110179Y-109703714D01*
X220300655Y-109703714D01*
X220395893Y-109751333D01*
X214480230Y-82060348D02*
X215242135Y-82060348D01*
X214861182Y-82441300D02*
X214861182Y-81679396D01*
X216194516Y-81441300D02*
X215718325Y-81441300D01*
X215670706Y-81917491D01*
X215718325Y-81869872D01*
X215813563Y-81822253D01*
X216051659Y-81822253D01*
X216146897Y-81869872D01*
X216194516Y-81917491D01*
X216242135Y-82012729D01*
X216242135Y-82250824D01*
X216194516Y-82346062D01*
X216146897Y-82393681D01*
X216051659Y-82441300D01*
X215813563Y-82441300D01*
X215718325Y-82393681D01*
X215670706Y-82346062D01*
X216527849Y-81441300D02*
X216861182Y-82441300D01*
X217194516Y-81441300D01*
X218146897Y-81774634D02*
X218527849Y-81774634D01*
X218289754Y-82441300D02*
X218289754Y-81584158D01*
X218337373Y-81488920D01*
X218432611Y-81441300D01*
X218527849Y-81441300D01*
X219004040Y-82441300D02*
X218908801Y-82393681D01*
X218861182Y-82346062D01*
X218813563Y-82250824D01*
X218813563Y-81965110D01*
X218861182Y-81869872D01*
X218908801Y-81822253D01*
X219004040Y-81774634D01*
X219146897Y-81774634D01*
X219242135Y-81822253D01*
X219289754Y-81869872D01*
X219337373Y-81965110D01*
X219337373Y-82250824D01*
X219289754Y-82346062D01*
X219242135Y-82393681D01*
X219146897Y-82441300D01*
X219004040Y-82441300D01*
X219765944Y-82441300D02*
X219765944Y-81774634D01*
X219765944Y-81965110D02*
X219813563Y-81869872D01*
X219861182Y-81822253D01*
X219956420Y-81774634D01*
X220051659Y-81774634D01*
X221718325Y-82441300D02*
X221384992Y-81965110D01*
X221146897Y-82441300D02*
X221146897Y-81441300D01*
X221527849Y-81441300D01*
X221623087Y-81488920D01*
X221670706Y-81536539D01*
X221718325Y-81631777D01*
X221718325Y-81774634D01*
X221670706Y-81869872D01*
X221623087Y-81917491D01*
X221527849Y-81965110D01*
X221146897Y-81965110D01*
X222146897Y-82441300D02*
X222146897Y-81774634D01*
X222146897Y-81441300D02*
X222099278Y-81488920D01*
X222146897Y-81536539D01*
X222194516Y-81488920D01*
X222146897Y-81441300D01*
X222146897Y-81536539D01*
X223051659Y-81774634D02*
X223051659Y-82584158D01*
X223004040Y-82679396D01*
X222956420Y-82727015D01*
X222861182Y-82774634D01*
X222718325Y-82774634D01*
X222623087Y-82727015D01*
X223051659Y-82393681D02*
X222956420Y-82441300D01*
X222765944Y-82441300D01*
X222670706Y-82393681D01*
X222623087Y-82346062D01*
X222575468Y-82250824D01*
X222575468Y-81965110D01*
X222623087Y-81869872D01*
X222670706Y-81822253D01*
X222765944Y-81774634D01*
X222956420Y-81774634D01*
X223051659Y-81822253D01*
X223527849Y-82441300D02*
X223527849Y-81441300D01*
X223956420Y-82441300D02*
X223956420Y-81917491D01*
X223908801Y-81822253D01*
X223813563Y-81774634D01*
X223670706Y-81774634D01*
X223575468Y-81822253D01*
X223527849Y-81869872D01*
X224289754Y-81774634D02*
X224670706Y-81774634D01*
X224432611Y-81441300D02*
X224432611Y-82298443D01*
X224480230Y-82393681D01*
X224575468Y-82441300D01*
X224670706Y-82441300D01*
X216313563Y-84091300D02*
X215837373Y-84091300D01*
X215837373Y-83091300D01*
X216646897Y-83567491D02*
X216980230Y-83567491D01*
X217123087Y-84091300D02*
X216646897Y-84091300D01*
X216646897Y-83091300D01*
X217123087Y-83091300D01*
X217551659Y-84091300D02*
X217551659Y-83091300D01*
X217789754Y-83091300D01*
X217932611Y-83138920D01*
X218027849Y-83234158D01*
X218075468Y-83329396D01*
X218123087Y-83519872D01*
X218123087Y-83662729D01*
X218075468Y-83853205D01*
X218027849Y-83948443D01*
X217932611Y-84043681D01*
X217789754Y-84091300D01*
X217551659Y-84091300D01*
X219646897Y-83567491D02*
X219789754Y-83615110D01*
X219837373Y-83662729D01*
X219884992Y-83757967D01*
X219884992Y-83900824D01*
X219837373Y-83996062D01*
X219789754Y-84043681D01*
X219694516Y-84091300D01*
X219313563Y-84091300D01*
X219313563Y-83091300D01*
X219646897Y-83091300D01*
X219742135Y-83138920D01*
X219789754Y-83186539D01*
X219837373Y-83281777D01*
X219837373Y-83377015D01*
X219789754Y-83472253D01*
X219742135Y-83519872D01*
X219646897Y-83567491D01*
X219313563Y-83567491D01*
X220456420Y-84091300D02*
X220361182Y-84043681D01*
X220313563Y-83996062D01*
X220265944Y-83900824D01*
X220265944Y-83615110D01*
X220313563Y-83519872D01*
X220361182Y-83472253D01*
X220456420Y-83424634D01*
X220599278Y-83424634D01*
X220694516Y-83472253D01*
X220742135Y-83519872D01*
X220789754Y-83615110D01*
X220789754Y-83900824D01*
X220742135Y-83996062D01*
X220694516Y-84043681D01*
X220599278Y-84091300D01*
X220456420Y-84091300D01*
X221646897Y-84091300D02*
X221646897Y-83567491D01*
X221599278Y-83472253D01*
X221504040Y-83424634D01*
X221313563Y-83424634D01*
X221218325Y-83472253D01*
X221646897Y-84043681D02*
X221551659Y-84091300D01*
X221313563Y-84091300D01*
X221218325Y-84043681D01*
X221170706Y-83948443D01*
X221170706Y-83853205D01*
X221218325Y-83757967D01*
X221313563Y-83710348D01*
X221551659Y-83710348D01*
X221646897Y-83662729D01*
X222123087Y-84091300D02*
X222123087Y-83424634D01*
X222123087Y-83615110D02*
X222170706Y-83519872D01*
X222218325Y-83472253D01*
X222313563Y-83424634D01*
X222408801Y-83424634D01*
X223170706Y-84091300D02*
X223170706Y-83091300D01*
X223170706Y-84043681D02*
X223075468Y-84091300D01*
X222884992Y-84091300D01*
X222789754Y-84043681D01*
X222742135Y-83996062D01*
X222694516Y-83900824D01*
X222694516Y-83615110D01*
X222742135Y-83519872D01*
X222789754Y-83472253D01*
X222884992Y-83424634D01*
X223075468Y-83424634D01*
X223170706Y-83472253D01*
X157522730Y-124594928D02*
X158284635Y-124594928D01*
X157903682Y-124975880D02*
X157903682Y-124213976D01*
X158665587Y-123975880D02*
X159284635Y-123975880D01*
X158951301Y-124356833D01*
X159094159Y-124356833D01*
X159189397Y-124404452D01*
X159237016Y-124452071D01*
X159284635Y-124547309D01*
X159284635Y-124785404D01*
X159237016Y-124880642D01*
X159189397Y-124928261D01*
X159094159Y-124975880D01*
X158808444Y-124975880D01*
X158713206Y-124928261D01*
X158665587Y-124880642D01*
X160141778Y-123975880D02*
X159951301Y-123975880D01*
X159856063Y-124023500D01*
X159808444Y-124071119D01*
X159713206Y-124213976D01*
X159665587Y-124404452D01*
X159665587Y-124785404D01*
X159713206Y-124880642D01*
X159760825Y-124928261D01*
X159856063Y-124975880D01*
X160046540Y-124975880D01*
X160141778Y-124928261D01*
X160189397Y-124880642D01*
X160237016Y-124785404D01*
X160237016Y-124547309D01*
X160189397Y-124452071D01*
X160141778Y-124404452D01*
X160046540Y-124356833D01*
X159856063Y-124356833D01*
X159760825Y-124404452D01*
X159713206Y-124452071D01*
X159665587Y-124547309D01*
X160522730Y-123975880D02*
X160856063Y-124975880D01*
X161189397Y-123975880D01*
X162284635Y-124975880D02*
X162284635Y-123975880D01*
X162760825Y-124309214D02*
X162760825Y-124975880D01*
X162760825Y-124404452D02*
X162808444Y-124356833D01*
X162903682Y-124309214D01*
X163046540Y-124309214D01*
X163141778Y-124356833D01*
X163189397Y-124452071D01*
X163189397Y-124975880D01*
X163665587Y-124309214D02*
X163665587Y-125309214D01*
X163665587Y-124356833D02*
X163760825Y-124309214D01*
X163951301Y-124309214D01*
X164046540Y-124356833D01*
X164094159Y-124404452D01*
X164141778Y-124499690D01*
X164141778Y-124785404D01*
X164094159Y-124880642D01*
X164046540Y-124928261D01*
X163951301Y-124975880D01*
X163760825Y-124975880D01*
X163665587Y-124928261D01*
X164998920Y-124309214D02*
X164998920Y-124975880D01*
X164570349Y-124309214D02*
X164570349Y-124833023D01*
X164617968Y-124928261D01*
X164713206Y-124975880D01*
X164856063Y-124975880D01*
X164951301Y-124928261D01*
X164998920Y-124880642D01*
X165332254Y-124309214D02*
X165713206Y-124309214D01*
X165475111Y-123975880D02*
X165475111Y-124833023D01*
X165522730Y-124928261D01*
X165617968Y-124975880D01*
X165713206Y-124975880D01*
X192285148Y-136581304D02*
X192285148Y-135819400D01*
X192666100Y-136200352D02*
X191904196Y-136200352D01*
X192666100Y-134819400D02*
X192666100Y-135390828D01*
X192666100Y-135105114D02*
X191666100Y-135105114D01*
X191808958Y-135200352D01*
X191904196Y-135295590D01*
X191951815Y-135390828D01*
X191666100Y-133914638D02*
X191666100Y-134390828D01*
X192142291Y-134438447D01*
X192094672Y-134390828D01*
X192047053Y-134295590D01*
X192047053Y-134057495D01*
X192094672Y-133962257D01*
X192142291Y-133914638D01*
X192237529Y-133867019D01*
X192475624Y-133867019D01*
X192570862Y-133914638D01*
X192618481Y-133962257D01*
X192666100Y-134057495D01*
X192666100Y-134295590D01*
X192618481Y-134390828D01*
X192570862Y-134438447D01*
X191666100Y-133581304D02*
X192666100Y-133247971D01*
X191666100Y-132914638D01*
X193935148Y-136105114D02*
X193935148Y-135343209D01*
X194316100Y-135724161D02*
X193554196Y-135724161D01*
X193316100Y-134390828D02*
X193316100Y-134867019D01*
X193792291Y-134914638D01*
X193744672Y-134867019D01*
X193697053Y-134771780D01*
X193697053Y-134533685D01*
X193744672Y-134438447D01*
X193792291Y-134390828D01*
X193887529Y-134343209D01*
X194125624Y-134343209D01*
X194220862Y-134390828D01*
X194268481Y-134438447D01*
X194316100Y-134533685D01*
X194316100Y-134771780D01*
X194268481Y-134867019D01*
X194220862Y-134914638D01*
X193316100Y-134057495D02*
X194316100Y-133724161D01*
X193316100Y-133390828D01*
X195013720Y-135581304D02*
X194966100Y-135676542D01*
X194966100Y-135819400D01*
X195013720Y-135962257D01*
X195108958Y-136057495D01*
X195204196Y-136105114D01*
X195394672Y-136152733D01*
X195537529Y-136152733D01*
X195728005Y-136105114D01*
X195823243Y-136057495D01*
X195918481Y-135962257D01*
X195966100Y-135819400D01*
X195966100Y-135724161D01*
X195918481Y-135581304D01*
X195870862Y-135533685D01*
X195537529Y-135533685D01*
X195537529Y-135724161D01*
X195966100Y-135105114D02*
X194966100Y-135105114D01*
X195966100Y-134533685D01*
X194966100Y-134533685D01*
X195966100Y-134057495D02*
X194966100Y-134057495D01*
X194966100Y-133819400D01*
X195013720Y-133676542D01*
X195108958Y-133581304D01*
X195204196Y-133533685D01*
X195394672Y-133486066D01*
X195537529Y-133486066D01*
X195728005Y-133533685D01*
X195823243Y-133581304D01*
X195918481Y-133676542D01*
X195966100Y-133819400D01*
X195966100Y-134057495D01*
X197235148Y-136105114D02*
X197235148Y-135343209D01*
X196616100Y-134390828D02*
X196616100Y-134867019D01*
X197092291Y-134914638D01*
X197044672Y-134867019D01*
X196997053Y-134771780D01*
X196997053Y-134533685D01*
X197044672Y-134438447D01*
X197092291Y-134390828D01*
X197187529Y-134343209D01*
X197425624Y-134343209D01*
X197520862Y-134390828D01*
X197568481Y-134438447D01*
X197616100Y-134533685D01*
X197616100Y-134771780D01*
X197568481Y-134867019D01*
X197520862Y-134914638D01*
X196616100Y-134057495D02*
X197616100Y-133724161D01*
X196616100Y-133390828D01*
X80013020Y-135581304D02*
X79965400Y-135676542D01*
X79965400Y-135819400D01*
X80013020Y-135962257D01*
X80108258Y-136057495D01*
X80203496Y-136105114D01*
X80393972Y-136152733D01*
X80536829Y-136152733D01*
X80727305Y-136105114D01*
X80822543Y-136057495D01*
X80917781Y-135962257D01*
X80965400Y-135819400D01*
X80965400Y-135724161D01*
X80917781Y-135581304D01*
X80870162Y-135533685D01*
X80536829Y-135533685D01*
X80536829Y-135724161D01*
X80965400Y-135105114D02*
X79965400Y-135105114D01*
X80965400Y-134533685D01*
X79965400Y-134533685D01*
X80965400Y-134057495D02*
X79965400Y-134057495D01*
X79965400Y-133819400D01*
X80013020Y-133676542D01*
X80108258Y-133581304D01*
X80203496Y-133533685D01*
X80393972Y-133486066D01*
X80536829Y-133486066D01*
X80727305Y-133533685D01*
X80822543Y-133581304D01*
X80917781Y-133676542D01*
X80965400Y-133819400D01*
X80965400Y-134057495D01*
X81663020Y-135581304D02*
X81615400Y-135676542D01*
X81615400Y-135819400D01*
X81663020Y-135962257D01*
X81758258Y-136057495D01*
X81853496Y-136105114D01*
X82043972Y-136152733D01*
X82186829Y-136152733D01*
X82377305Y-136105114D01*
X82472543Y-136057495D01*
X82567781Y-135962257D01*
X82615400Y-135819400D01*
X82615400Y-135724161D01*
X82567781Y-135581304D01*
X82520162Y-135533685D01*
X82186829Y-135533685D01*
X82186829Y-135724161D01*
X82615400Y-135105114D02*
X81615400Y-135105114D01*
X82615400Y-134533685D01*
X81615400Y-134533685D01*
X82615400Y-134057495D02*
X81615400Y-134057495D01*
X81615400Y-133819400D01*
X81663020Y-133676542D01*
X81758258Y-133581304D01*
X81853496Y-133533685D01*
X82043972Y-133486066D01*
X82186829Y-133486066D01*
X82377305Y-133533685D01*
X82472543Y-133581304D01*
X82567781Y-133676542D01*
X82615400Y-133819400D01*
X82615400Y-134057495D01*
X83884448Y-136581304D02*
X83884448Y-135819400D01*
X84265400Y-136200352D02*
X83503496Y-136200352D01*
X83265400Y-135438447D02*
X83265400Y-134819400D01*
X83646353Y-135152733D01*
X83646353Y-135009876D01*
X83693972Y-134914638D01*
X83741591Y-134867019D01*
X83836829Y-134819400D01*
X84074924Y-134819400D01*
X84170162Y-134867019D01*
X84217781Y-134914638D01*
X84265400Y-135009876D01*
X84265400Y-135295590D01*
X84217781Y-135390828D01*
X84170162Y-135438447D01*
X83265400Y-133962257D02*
X83265400Y-134152733D01*
X83313020Y-134247971D01*
X83360639Y-134295590D01*
X83503496Y-134390828D01*
X83693972Y-134438447D01*
X84074924Y-134438447D01*
X84170162Y-134390828D01*
X84217781Y-134343209D01*
X84265400Y-134247971D01*
X84265400Y-134057495D01*
X84217781Y-133962257D01*
X84170162Y-133914638D01*
X84074924Y-133867019D01*
X83836829Y-133867019D01*
X83741591Y-133914638D01*
X83693972Y-133962257D01*
X83646353Y-134057495D01*
X83646353Y-134247971D01*
X83693972Y-134343209D01*
X83741591Y-134390828D01*
X83836829Y-134438447D01*
X83265400Y-133581304D02*
X84265400Y-133247971D01*
X83265400Y-132914638D01*
X85534448Y-136581304D02*
X85534448Y-135819400D01*
X85915400Y-136200352D02*
X85153496Y-136200352D01*
X84915400Y-135438447D02*
X84915400Y-134819400D01*
X85296353Y-135152733D01*
X85296353Y-135009876D01*
X85343972Y-134914638D01*
X85391591Y-134867019D01*
X85486829Y-134819400D01*
X85724924Y-134819400D01*
X85820162Y-134867019D01*
X85867781Y-134914638D01*
X85915400Y-135009876D01*
X85915400Y-135295590D01*
X85867781Y-135390828D01*
X85820162Y-135438447D01*
X84915400Y-133962257D02*
X84915400Y-134152733D01*
X84963020Y-134247971D01*
X85010639Y-134295590D01*
X85153496Y-134390828D01*
X85343972Y-134438447D01*
X85724924Y-134438447D01*
X85820162Y-134390828D01*
X85867781Y-134343209D01*
X85915400Y-134247971D01*
X85915400Y-134057495D01*
X85867781Y-133962257D01*
X85820162Y-133914638D01*
X85724924Y-133867019D01*
X85486829Y-133867019D01*
X85391591Y-133914638D01*
X85343972Y-133962257D01*
X85296353Y-134057495D01*
X85296353Y-134247971D01*
X85343972Y-134343209D01*
X85391591Y-134390828D01*
X85486829Y-134438447D01*
X84915400Y-133581304D02*
X85915400Y-133247971D01*
X84915400Y-132914638D01*
X227883235Y-56833380D02*
X227787997Y-56785760D01*
X227645140Y-56785760D01*
X227502282Y-56833380D01*
X227407044Y-56928618D01*
X227359425Y-57023856D01*
X227311806Y-57214332D01*
X227311806Y-57357189D01*
X227359425Y-57547665D01*
X227407044Y-57642903D01*
X227502282Y-57738141D01*
X227645140Y-57785760D01*
X227740378Y-57785760D01*
X227883235Y-57738141D01*
X227930854Y-57690522D01*
X227930854Y-57357189D01*
X227740378Y-57357189D01*
X228359425Y-57785760D02*
X228359425Y-56785760D01*
X228930854Y-57785760D01*
X228930854Y-56785760D01*
X229407044Y-57785760D02*
X229407044Y-56785760D01*
X229645140Y-56785760D01*
X229787997Y-56833380D01*
X229883235Y-56928618D01*
X229930854Y-57023856D01*
X229978473Y-57214332D01*
X229978473Y-57357189D01*
X229930854Y-57547665D01*
X229883235Y-57642903D01*
X229787997Y-57738141D01*
X229645140Y-57785760D01*
X229407044Y-57785760D01*
X227359425Y-59054808D02*
X228121330Y-59054808D01*
X227740378Y-59435760D02*
X227740378Y-58673856D01*
X229073711Y-58435760D02*
X228597520Y-58435760D01*
X228549901Y-58911951D01*
X228597520Y-58864332D01*
X228692759Y-58816713D01*
X228930854Y-58816713D01*
X229026092Y-58864332D01*
X229073711Y-58911951D01*
X229121330Y-59007189D01*
X229121330Y-59245284D01*
X229073711Y-59340522D01*
X229026092Y-59388141D01*
X228930854Y-59435760D01*
X228692759Y-59435760D01*
X228597520Y-59388141D01*
X228549901Y-59340522D01*
X229407044Y-58435760D02*
X229740378Y-59435760D01*
X230073711Y-58435760D01*
X68521685Y-69177328D02*
X69283590Y-69177328D01*
X68902638Y-69558280D02*
X68902638Y-68796376D01*
X70235971Y-68558280D02*
X69759780Y-68558280D01*
X69712161Y-69034471D01*
X69759780Y-68986852D01*
X69855019Y-68939233D01*
X70093114Y-68939233D01*
X70188352Y-68986852D01*
X70235971Y-69034471D01*
X70283590Y-69129709D01*
X70283590Y-69367804D01*
X70235971Y-69463042D01*
X70188352Y-69510661D01*
X70093114Y-69558280D01*
X69855019Y-69558280D01*
X69759780Y-69510661D01*
X69712161Y-69463042D01*
X70569304Y-68558280D02*
X70902638Y-69558280D01*
X71235971Y-68558280D01*
X69045495Y-70255900D02*
X68950257Y-70208280D01*
X68807400Y-70208280D01*
X68664542Y-70255900D01*
X68569304Y-70351138D01*
X68521685Y-70446376D01*
X68474066Y-70636852D01*
X68474066Y-70779709D01*
X68521685Y-70970185D01*
X68569304Y-71065423D01*
X68664542Y-71160661D01*
X68807400Y-71208280D01*
X68902638Y-71208280D01*
X69045495Y-71160661D01*
X69093114Y-71113042D01*
X69093114Y-70779709D01*
X68902638Y-70779709D01*
X69521685Y-71208280D02*
X69521685Y-70208280D01*
X70093114Y-71208280D01*
X70093114Y-70208280D01*
X70569304Y-71208280D02*
X70569304Y-70208280D01*
X70807400Y-70208280D01*
X70950257Y-70255900D01*
X71045495Y-70351138D01*
X71093114Y-70446376D01*
X71140733Y-70636852D01*
X71140733Y-70779709D01*
X71093114Y-70970185D01*
X71045495Y-71065423D01*
X70950257Y-71160661D01*
X70807400Y-71208280D01*
X70569304Y-71208280D01*
D11*
X199654160Y-108510060D02*
X199654160Y-119076460D01*
X199654160Y-119076460D02*
X203652120Y-119076460D01*
X210220560Y-119076460D02*
X210220560Y-108510060D01*
X210220560Y-108510060D02*
X206222600Y-108510060D01*
X203652120Y-108510060D02*
X199654160Y-108510060D01*
X206222600Y-119076460D02*
X210220560Y-119076460D01*
D12*
X202438540Y-95383260D02*
X203538540Y-95383260D01*
X202438540Y-94433260D02*
X202438540Y-95383260D01*
X200938540Y-94433260D02*
X202438540Y-94433260D01*
X202438540Y-103883260D02*
X207563540Y-103883260D01*
X202438540Y-104833260D02*
X202438540Y-103883260D01*
X200938540Y-104833260D02*
X202438540Y-104833260D01*
X226465860Y-105148300D02*
X227965860Y-105148300D01*
X227965860Y-105148300D02*
X227965860Y-104878300D01*
X227965860Y-104878300D02*
X230795860Y-104878300D01*
X226465860Y-98248300D02*
X227965860Y-98248300D01*
X227965860Y-98248300D02*
X227965860Y-98518300D01*
X227965860Y-98518300D02*
X229065860Y-98518300D01*
X92877040Y-109441840D02*
X92877040Y-110541840D01*
X93147040Y-109441840D02*
X92877040Y-109441840D01*
X93147040Y-107941840D02*
X93147040Y-109441840D01*
X86517040Y-109441840D02*
X86517040Y-112271840D01*
X86247040Y-109441840D02*
X86517040Y-109441840D01*
X86247040Y-107941840D02*
X86247040Y-109441840D01*
D11*
X73250540Y-112288820D02*
X73250540Y-122855220D01*
X73250540Y-122855220D02*
X77248500Y-122855220D01*
X83816940Y-122855220D02*
X83816940Y-112288820D01*
X83816940Y-112288820D02*
X79818980Y-112288820D01*
X77248500Y-112288820D02*
X73250540Y-112288820D01*
X79818980Y-122855220D02*
X83816940Y-122855220D01*
D12*
X74535440Y-108611520D02*
X76035440Y-108611520D01*
X76035440Y-108611520D02*
X76035440Y-107661520D01*
X76035440Y-107661520D02*
X81160440Y-107661520D01*
X74535440Y-98211520D02*
X76035440Y-98211520D01*
X76035440Y-98211520D02*
X76035440Y-99161520D01*
X76035440Y-99161520D02*
X77135440Y-99161520D01*
X224195140Y-61457520D02*
X224095140Y-61457520D01*
X224095140Y-61457520D02*
X224195140Y-61457520D01*
X224145140Y-66457520D02*
X224095140Y-66457520D01*
X224195140Y-66457520D02*
X224145140Y-66457520D01*
X233195140Y-61457520D02*
X233195140Y-66457520D01*
X224195140Y-61457520D02*
X233195140Y-61457520D01*
X224095140Y-66457520D02*
X224095140Y-61457520D01*
X233195140Y-66457520D02*
X224195140Y-66457520D01*
X213554240Y-61266972D02*
X213554240Y-60744468D01*
X214974240Y-61266972D02*
X214974240Y-60744468D01*
D11*
X179567840Y-49817020D02*
X169001440Y-49817020D01*
X169001440Y-49817020D02*
X169001440Y-53814980D01*
X169001440Y-60383420D02*
X179567840Y-60383420D01*
X179567840Y-60383420D02*
X179567840Y-56385460D01*
X179567840Y-53814980D02*
X179567840Y-49817020D01*
X169001440Y-56385460D02*
X169001440Y-60383420D01*
D12*
X235090140Y-77304920D02*
X235090140Y-69119920D01*
X235090140Y-69119920D02*
X228770140Y-69119920D01*
X228770140Y-69119920D02*
X228770140Y-77304920D01*
D10*
X211504040Y-78813920D02*
X211504040Y-87813920D01*
X211504040Y-87813920D02*
X193504040Y-87813920D01*
X193504040Y-87813920D02*
X193504040Y-78813920D01*
X193504040Y-72813920D02*
X193504040Y-63813920D01*
X193504040Y-63813920D02*
X211504040Y-63813920D01*
X211504040Y-63813920D02*
X211504040Y-72813920D01*
X193504040Y-72813920D02*
X190504040Y-72813920D01*
X211504040Y-72813920D02*
X214504040Y-72813920D01*
X211504040Y-78813920D02*
X214504040Y-78813920D01*
X193504040Y-78813920D02*
X190504040Y-78813920D01*
D12*
X179891840Y-68211620D02*
X178791840Y-68211620D01*
X179891840Y-68481620D02*
X179891840Y-68211620D01*
X181391840Y-68481620D02*
X179891840Y-68481620D01*
X179891840Y-61851620D02*
X177061840Y-61851620D01*
X179891840Y-61581620D02*
X179891840Y-61851620D01*
X181391840Y-61581620D02*
X179891840Y-61581620D01*
X183245140Y-51101920D02*
X183245140Y-52601920D01*
X183245140Y-52601920D02*
X184195140Y-52601920D01*
X184195140Y-52601920D02*
X184195140Y-57726920D01*
X193645140Y-51101920D02*
X193645140Y-52601920D01*
X193645140Y-52601920D02*
X192695140Y-52601920D01*
X192695140Y-52601920D02*
X192695140Y-53701920D01*
X197393192Y-56102320D02*
X196870688Y-56102320D01*
X197393192Y-54682320D02*
X196870688Y-54682320D01*
X205811488Y-54733120D02*
X206333992Y-54733120D01*
X205811488Y-56153120D02*
X206333992Y-56153120D01*
X92641052Y-71730800D02*
X92118548Y-71730800D01*
X92641052Y-73150800D02*
X92118548Y-73150800D01*
X74257400Y-66426400D02*
X74357400Y-66426400D01*
X74357400Y-66426400D02*
X74257400Y-66426400D01*
X74307400Y-61426400D02*
X74357400Y-61426400D01*
X74257400Y-61426400D02*
X74307400Y-61426400D01*
X65257400Y-66426400D02*
X65257400Y-61426400D01*
X74257400Y-66426400D02*
X65257400Y-66426400D01*
X74357400Y-61426400D02*
X74357400Y-66426400D01*
X65257400Y-61426400D02*
X74257400Y-61426400D01*
X98159800Y-130344400D02*
X98159800Y-130244400D01*
X98159800Y-130244400D02*
X98159800Y-130344400D01*
X88159800Y-130344400D02*
X88159800Y-130244400D01*
X88159800Y-130244400D02*
X88159800Y-130344400D01*
X98159800Y-139394400D02*
X88159800Y-139394400D01*
X98159800Y-130294400D02*
X98159800Y-139294400D01*
X88159800Y-130244400D02*
X98159800Y-130244400D01*
X88159800Y-139294400D02*
X88159800Y-130294400D01*
X200170200Y-139294400D02*
X200170200Y-130294400D01*
X200170200Y-130244400D02*
X210170200Y-130244400D01*
X210170200Y-130294400D02*
X210170200Y-139294400D01*
X210170200Y-139394400D02*
X200170200Y-139394400D01*
X200170200Y-130244400D02*
X200170200Y-130344400D01*
X200170200Y-130344400D02*
X200170200Y-130244400D01*
X210170200Y-130244400D02*
X210170200Y-130344400D01*
X210170200Y-130344400D02*
X210170200Y-130244400D01*
X156264520Y-92488000D02*
X152814520Y-92488000D01*
X156264520Y-92488000D02*
X158214520Y-92488000D01*
X156264520Y-97608000D02*
X154314520Y-97608000D01*
X156264520Y-97608000D02*
X158214520Y-97608000D01*
X105757400Y-75282000D02*
X105757400Y-74182000D01*
X104807400Y-75282000D02*
X105757400Y-75282000D01*
X104807400Y-76782000D02*
X104807400Y-75282000D01*
X114257400Y-75282000D02*
X114257400Y-70157000D01*
X115207400Y-75282000D02*
X114257400Y-75282000D01*
X115207400Y-76782000D02*
X115207400Y-75282000D01*
X79660160Y-94811448D02*
X79660160Y-95333952D01*
X81080160Y-94811448D02*
X81080160Y-95333952D01*
X148332120Y-101632008D02*
X148332120Y-102154512D01*
X149752120Y-101632008D02*
X149752120Y-102154512D01*
X208781580Y-93269168D02*
X208781580Y-93791672D01*
X210201580Y-93269168D02*
X210201580Y-93791672D01*
X148332120Y-97157908D02*
X148332120Y-97680412D01*
X149752120Y-97157908D02*
X149752120Y-97680412D01*
X117981328Y-99576560D02*
X118503832Y-99576560D01*
X117981328Y-100996560D02*
X118503832Y-100996560D01*
X214519580Y-97357832D02*
X214519580Y-96835328D01*
X213099580Y-97357832D02*
X213099580Y-96835328D01*
X123118180Y-104403532D02*
X123118180Y-103881028D01*
X121698180Y-104403532D02*
X121698180Y-103881028D01*
X218753212Y-92424180D02*
X218230708Y-92424180D01*
X218753212Y-93844180D02*
X218230708Y-93844180D01*
X101059348Y-73201600D02*
X101581852Y-73201600D01*
X101059348Y-71781600D02*
X101581852Y-71781600D01*
X83478300Y-66616948D02*
X83478300Y-67139452D01*
X84898300Y-66616948D02*
X84898300Y-67139452D01*
X112222273Y-118301240D02*
G75*
G03X112222273Y-118301240I-3513333J0D01*
G01*
X106648940Y-129126987D02*
G75*
G02X106648940Y-107475493I2060000J10825747D01*
G01*
X110768940Y-129126987D02*
G75*
G03X110768940Y-107475493I-2060000J10825747D01*
G01*
X228328733Y-122273300D02*
G75*
G03X228328733Y-122273300I-3513333J0D01*
G01*
X222755400Y-133099047D02*
G75*
G02X222755400Y-111447553I2060000J10825747D01*
G01*
X226875400Y-133099047D02*
G75*
G03X226875400Y-111447553I-2060000J10825747D01*
G01*
X175448460Y-125980120D02*
X183448460Y-125980120D01*
X175448460Y-119780120D02*
X183448460Y-119780120D01*
X178472120Y-89759940D02*
X178472120Y-79459940D01*
X167872120Y-89759940D02*
X167872120Y-79459940D01*
D10*
X104948500Y-49070000D02*
X107948500Y-49070000D01*
X86948500Y-49070000D02*
X83948500Y-49070000D01*
X86948500Y-55070000D02*
X83948500Y-55070000D01*
X104948500Y-55070000D02*
X107948500Y-55070000D01*
X86948500Y-64070000D02*
X86948500Y-55070000D01*
X104948500Y-64070000D02*
X86948500Y-64070000D01*
X104948500Y-55070000D02*
X104948500Y-64070000D01*
X104948500Y-40070000D02*
X104948500Y-49070000D01*
X86948500Y-40070000D02*
X104948500Y-40070000D01*
X86948500Y-49070000D02*
X86948500Y-40070000D01*
D12*
X168457120Y-93568820D02*
X168457120Y-97418820D01*
X166457120Y-93568820D02*
X166457120Y-97418820D01*
X168457120Y-93568820D02*
X166457120Y-93568820D01*
X117060700Y-66302300D02*
X118560700Y-66302300D01*
X118560700Y-66302300D02*
X118560700Y-66032300D01*
X118560700Y-66032300D02*
X121390700Y-66032300D01*
X117060700Y-59402300D02*
X118560700Y-59402300D01*
X118560700Y-59402300D02*
X118560700Y-59672300D01*
X118560700Y-59672300D02*
X119660700Y-59672300D01*
X113399260Y-136327440D02*
X113399260Y-137577440D01*
X112774260Y-136952440D02*
X114024260Y-136952440D01*
X114264260Y-143908003D02*
X115328697Y-144972440D01*
X114264260Y-135516877D02*
X115328697Y-134452440D01*
X114264260Y-135516877D02*
X114264260Y-138202440D01*
X114264260Y-143908003D02*
X114264260Y-141222440D01*
X115328697Y-144972440D02*
X124784260Y-144972440D01*
X115328697Y-134452440D02*
X124784260Y-134452440D01*
X124784260Y-134452440D02*
X124784260Y-138202440D01*
X124784260Y-144972440D02*
X124784260Y-141222440D01*
X212663620Y-147279780D02*
X215413620Y-147279780D01*
X221183620Y-147279780D02*
X218433620Y-147279780D01*
X221183620Y-139824217D02*
X221183620Y-147279780D01*
X212663620Y-139824217D02*
X212663620Y-147279780D01*
X213728057Y-138759780D02*
X215413620Y-138759780D01*
X220119183Y-138759780D02*
X218433620Y-138759780D01*
X220119183Y-138759780D02*
X221183620Y-139824217D01*
X213728057Y-138759780D02*
X212663620Y-139824217D01*
X219433620Y-137519780D02*
X219433620Y-138519780D01*
X219933620Y-138019780D02*
X218933620Y-138019780D01*
X205783548Y-126398980D02*
X206306052Y-126398980D01*
X205783548Y-124978980D02*
X206306052Y-124978980D01*
X174609676Y-106932560D02*
X175813804Y-106932560D01*
X174609676Y-104212560D02*
X175813804Y-104212560D01*
X153008260Y-101632008D02*
X153008260Y-102154512D01*
X154428260Y-101632008D02*
X154428260Y-102154512D01*
X145724512Y-93790700D02*
X145202008Y-93790700D01*
X145724512Y-95210700D02*
X145202008Y-95210700D01*
X156836410Y-89954170D02*
X157623910Y-89954170D01*
X157230160Y-90347920D02*
X157230160Y-89560420D01*
X161423223Y-89320420D02*
X162487660Y-88255983D01*
X156732097Y-89320420D02*
X155667660Y-88255983D01*
X156732097Y-89320420D02*
X158017660Y-89320420D01*
X161423223Y-89320420D02*
X160137660Y-89320420D01*
X162487660Y-88255983D02*
X162487660Y-82500420D01*
X155667660Y-88255983D02*
X155667660Y-82500420D01*
X155667660Y-82500420D02*
X158017660Y-82500420D01*
X162487660Y-82500420D02*
X160137660Y-82500420D01*
X149416840Y-89946112D02*
X149416840Y-89423608D01*
X147996840Y-89946112D02*
X147996840Y-89423608D01*
X69682400Y-58764000D02*
X69682400Y-50579000D01*
X63362400Y-58764000D02*
X69682400Y-58764000D01*
X63362400Y-50579000D02*
X63362400Y-58764000D01*
D11*
X166014400Y-113217960D02*
X166014400Y-109220000D01*
X155448000Y-115788440D02*
X155448000Y-119786400D01*
X155448000Y-109220000D02*
X155448000Y-113217960D01*
X166014400Y-109220000D02*
X155448000Y-109220000D01*
X166014400Y-119786400D02*
X166014400Y-115788440D01*
X155448000Y-119786400D02*
X166014400Y-119786400D01*
X131572000Y-115788440D02*
X131572000Y-119786400D01*
X142138400Y-113217960D02*
X142138400Y-109220000D01*
X142138400Y-119786400D02*
X142138400Y-115788440D01*
X131572000Y-119786400D02*
X142138400Y-119786400D01*
X131572000Y-109220000D02*
X131572000Y-113217960D01*
X142138400Y-109220000D02*
X131572000Y-109220000D01*
X129451100Y-71498460D02*
X129451100Y-67500500D01*
X118884700Y-74068940D02*
X118884700Y-78066900D01*
X118884700Y-67500500D02*
X118884700Y-71498460D01*
X129451100Y-67500500D02*
X118884700Y-67500500D01*
X129451100Y-78066900D02*
X129451100Y-74068940D01*
X118884700Y-78066900D02*
X129451100Y-78066900D01*
D10*
X198982602Y-113965006D02*
X199030221Y-114012625D01*
X199077840Y-114155482D01*
X199077840Y-114250720D01*
X199030221Y-114393578D01*
X198934983Y-114488816D01*
X198839745Y-114536435D01*
X198649269Y-114584054D01*
X198506412Y-114584054D01*
X198315936Y-114536435D01*
X198220698Y-114488816D01*
X198125460Y-114393578D01*
X198077840Y-114250720D01*
X198077840Y-114155482D01*
X198125460Y-114012625D01*
X198173079Y-113965006D01*
X199077840Y-113488816D02*
X199077840Y-113298340D01*
X199030221Y-113203101D01*
X198982602Y-113155482D01*
X198839745Y-113060244D01*
X198649269Y-113012625D01*
X198268317Y-113012625D01*
X198173079Y-113060244D01*
X198125460Y-113107863D01*
X198077840Y-113203101D01*
X198077840Y-113393578D01*
X198125460Y-113488816D01*
X198173079Y-113536435D01*
X198268317Y-113584054D01*
X198506412Y-113584054D01*
X198601650Y-113536435D01*
X198649269Y-113488816D01*
X198696888Y-113393578D01*
X198696888Y-113203101D01*
X198649269Y-113107863D01*
X198601650Y-113060244D01*
X198506412Y-113012625D01*
X204389740Y-113793260D02*
X204627836Y-113793260D01*
X204532598Y-114031355D02*
X204627836Y-113793260D01*
X204532598Y-113555164D01*
X204818312Y-113936117D02*
X204627836Y-113793260D01*
X204818312Y-113650402D01*
X189332100Y-100425644D02*
X190141624Y-100425644D01*
X190236862Y-100378025D01*
X190284481Y-100330406D01*
X190332100Y-100235168D01*
X190332100Y-100044692D01*
X190284481Y-99949454D01*
X190236862Y-99901835D01*
X190141624Y-99854216D01*
X189332100Y-99854216D01*
X189332100Y-99473263D02*
X189332100Y-98854216D01*
X189713053Y-99187549D01*
X189713053Y-99044692D01*
X189760672Y-98949454D01*
X189808291Y-98901835D01*
X189903529Y-98854216D01*
X190141624Y-98854216D01*
X190236862Y-98901835D01*
X190284481Y-98949454D01*
X190332100Y-99044692D01*
X190332100Y-99330406D01*
X190284481Y-99425644D01*
X190236862Y-99473263D01*
X223289904Y-97734380D02*
X223289904Y-96734380D01*
X223528000Y-96734380D01*
X223670857Y-96782000D01*
X223766095Y-96877238D01*
X223813714Y-96972476D01*
X223861333Y-97162952D01*
X223861333Y-97305809D01*
X223813714Y-97496285D01*
X223766095Y-97591523D01*
X223670857Y-97686761D01*
X223528000Y-97734380D01*
X223289904Y-97734380D01*
X224718476Y-97067714D02*
X224718476Y-97734380D01*
X224480380Y-96686761D02*
X224242285Y-97401047D01*
X224861333Y-97401047D01*
X85649420Y-107709935D02*
X84649420Y-107709935D01*
X84649420Y-107471840D01*
X84697040Y-107328982D01*
X84792278Y-107233744D01*
X84887516Y-107186125D01*
X85077992Y-107138506D01*
X85220849Y-107138506D01*
X85411325Y-107186125D01*
X85506563Y-107233744D01*
X85601801Y-107328982D01*
X85649420Y-107471840D01*
X85649420Y-107709935D01*
X84649420Y-106233744D02*
X84649420Y-106709935D01*
X85125611Y-106757554D01*
X85077992Y-106709935D01*
X85030373Y-106614697D01*
X85030373Y-106376601D01*
X85077992Y-106281363D01*
X85125611Y-106233744D01*
X85220849Y-106186125D01*
X85458944Y-106186125D01*
X85554182Y-106233744D01*
X85601801Y-106281363D01*
X85649420Y-106376601D01*
X85649420Y-106614697D01*
X85601801Y-106709935D01*
X85554182Y-106757554D01*
X72578982Y-118219957D02*
X72626601Y-118267576D01*
X72674220Y-118410433D01*
X72674220Y-118505671D01*
X72626601Y-118648528D01*
X72531363Y-118743766D01*
X72436125Y-118791385D01*
X72245649Y-118839004D01*
X72102792Y-118839004D01*
X71912316Y-118791385D01*
X71817078Y-118743766D01*
X71721840Y-118648528D01*
X71674220Y-118505671D01*
X71674220Y-118410433D01*
X71721840Y-118267576D01*
X71769459Y-118219957D01*
X72674220Y-117267576D02*
X72674220Y-117839004D01*
X72674220Y-117553290D02*
X71674220Y-117553290D01*
X71817078Y-117648528D01*
X71912316Y-117743766D01*
X71959935Y-117839004D01*
X72674220Y-116315195D02*
X72674220Y-116886623D01*
X72674220Y-116600909D02*
X71674220Y-116600909D01*
X71817078Y-116696147D01*
X71912316Y-116791385D01*
X71959935Y-116886623D01*
X77986120Y-117572020D02*
X78224216Y-117572020D01*
X78128978Y-117810115D02*
X78224216Y-117572020D01*
X78128978Y-117333924D01*
X78414692Y-117714877D02*
X78224216Y-117572020D01*
X78414692Y-117429162D01*
X62929000Y-104203904D02*
X63738524Y-104203904D01*
X63833762Y-104156285D01*
X63881381Y-104108666D01*
X63929000Y-104013428D01*
X63929000Y-103822952D01*
X63881381Y-103727714D01*
X63833762Y-103680095D01*
X63738524Y-103632476D01*
X62929000Y-103632476D01*
X62929000Y-102680095D02*
X62929000Y-103156285D01*
X63405191Y-103203904D01*
X63357572Y-103156285D01*
X63309953Y-103061047D01*
X63309953Y-102822952D01*
X63357572Y-102727714D01*
X63405191Y-102680095D01*
X63500429Y-102632476D01*
X63738524Y-102632476D01*
X63833762Y-102680095D01*
X63881381Y-102727714D01*
X63929000Y-102822952D01*
X63929000Y-103061047D01*
X63881381Y-103156285D01*
X63833762Y-103203904D01*
X231447520Y-59040853D02*
X232161806Y-59040853D01*
X232304663Y-59088472D01*
X232399901Y-59183710D01*
X232447520Y-59326567D01*
X232447520Y-59421805D01*
X231542759Y-58612281D02*
X231495140Y-58564662D01*
X231447520Y-58469424D01*
X231447520Y-58231329D01*
X231495140Y-58136091D01*
X231542759Y-58088472D01*
X231637997Y-58040853D01*
X231733235Y-58040853D01*
X231876092Y-58088472D01*
X232447520Y-58659900D01*
X232447520Y-58040853D01*
D13*
X232909425Y-61143234D02*
X232909425Y-61309900D01*
X233171330Y-61309900D02*
X232671330Y-61309900D01*
X232671330Y-61071805D01*
X233171330Y-60595615D02*
X232933235Y-60762281D01*
X233171330Y-60881329D02*
X232671330Y-60881329D01*
X232671330Y-60690853D01*
X232695140Y-60643234D01*
X232718949Y-60619424D01*
X232766568Y-60595615D01*
X232837997Y-60595615D01*
X232885616Y-60619424D01*
X232909425Y-60643234D01*
X232933235Y-60690853D01*
X232933235Y-60881329D01*
X232671330Y-60286091D02*
X232671330Y-60190853D01*
X232695140Y-60143234D01*
X232742759Y-60095615D01*
X232837997Y-60071805D01*
X233004663Y-60071805D01*
X233099901Y-60095615D01*
X233147520Y-60143234D01*
X233171330Y-60190853D01*
X233171330Y-60286091D01*
X233147520Y-60333710D01*
X233099901Y-60381329D01*
X233004663Y-60405139D01*
X232837997Y-60405139D01*
X232742759Y-60381329D01*
X232695140Y-60333710D01*
X232671330Y-60286091D01*
X233171330Y-59857520D02*
X232671330Y-59857520D01*
X233171330Y-59571805D01*
X232671330Y-59571805D01*
X232671330Y-59405139D02*
X232671330Y-59119424D01*
X233171330Y-59262281D02*
X232671330Y-59262281D01*
X232909425Y-58571805D02*
X232909425Y-58405139D01*
X233171330Y-58333710D02*
X233171330Y-58571805D01*
X232671330Y-58571805D01*
X232671330Y-58333710D01*
X233171330Y-58119424D02*
X232671330Y-58119424D01*
X232671330Y-58000377D01*
X232695140Y-57928948D01*
X232742759Y-57881329D01*
X232790378Y-57857520D01*
X232885616Y-57833710D01*
X232957044Y-57833710D01*
X233052282Y-57857520D01*
X233099901Y-57881329D01*
X233147520Y-57928948D01*
X233171330Y-58000377D01*
X233171330Y-58119424D01*
X232695140Y-57357520D02*
X232671330Y-57405139D01*
X232671330Y-57476567D01*
X232695140Y-57547996D01*
X232742759Y-57595615D01*
X232790378Y-57619424D01*
X232885616Y-57643234D01*
X232957044Y-57643234D01*
X233052282Y-57619424D01*
X233099901Y-57595615D01*
X233147520Y-57547996D01*
X233171330Y-57476567D01*
X233171330Y-57428948D01*
X233147520Y-57357520D01*
X233123711Y-57333710D01*
X232957044Y-57333710D01*
X232957044Y-57428948D01*
X232909425Y-57119424D02*
X232909425Y-56952758D01*
X233171330Y-56881329D02*
X233171330Y-57119424D01*
X232671330Y-57119424D01*
X232671330Y-56881329D01*
D10*
X213066620Y-61172386D02*
X212590430Y-61505720D01*
X213066620Y-61743815D02*
X212066620Y-61743815D01*
X212066620Y-61362862D01*
X212114240Y-61267624D01*
X212161859Y-61220005D01*
X212257097Y-61172386D01*
X212399954Y-61172386D01*
X212495192Y-61220005D01*
X212542811Y-61267624D01*
X212590430Y-61362862D01*
X212590430Y-61743815D01*
X212161859Y-60791434D02*
X212114240Y-60743815D01*
X212066620Y-60648577D01*
X212066620Y-60410481D01*
X212114240Y-60315243D01*
X212161859Y-60267624D01*
X212257097Y-60220005D01*
X212352335Y-60220005D01*
X212495192Y-60267624D01*
X213066620Y-60839053D01*
X213066620Y-60220005D01*
X174112893Y-49145462D02*
X174065274Y-49193081D01*
X173922417Y-49240700D01*
X173827179Y-49240700D01*
X173684321Y-49193081D01*
X173589083Y-49097843D01*
X173541464Y-49002605D01*
X173493845Y-48812129D01*
X173493845Y-48669272D01*
X173541464Y-48478796D01*
X173589083Y-48383558D01*
X173684321Y-48288320D01*
X173827179Y-48240700D01*
X173922417Y-48240700D01*
X174065274Y-48288320D01*
X174112893Y-48335939D01*
X174493845Y-48335939D02*
X174541464Y-48288320D01*
X174636702Y-48240700D01*
X174874798Y-48240700D01*
X174970036Y-48288320D01*
X175017655Y-48335939D01*
X175065274Y-48431177D01*
X175065274Y-48526415D01*
X175017655Y-48669272D01*
X174446226Y-49240700D01*
X175065274Y-49240700D01*
X174284640Y-54552600D02*
X174284640Y-54790696D01*
X174046544Y-54695458D02*
X174284640Y-54790696D01*
X174522735Y-54695458D01*
X174141782Y-54981172D02*
X174284640Y-54790696D01*
X174427497Y-54981172D01*
X236287282Y-73821586D02*
X236334901Y-73869205D01*
X236382520Y-74012062D01*
X236382520Y-74107300D01*
X236334901Y-74250158D01*
X236239663Y-74345396D01*
X236144425Y-74393015D01*
X235953949Y-74440634D01*
X235811092Y-74440634D01*
X235620616Y-74393015D01*
X235525378Y-74345396D01*
X235430140Y-74250158D01*
X235382520Y-74107300D01*
X235382520Y-74012062D01*
X235430140Y-73869205D01*
X235477759Y-73821586D01*
X235382520Y-72964443D02*
X235382520Y-73154920D01*
X235430140Y-73250158D01*
X235477759Y-73297777D01*
X235620616Y-73393015D01*
X235811092Y-73440634D01*
X236192044Y-73440634D01*
X236287282Y-73393015D01*
X236334901Y-73345396D01*
X236382520Y-73250158D01*
X236382520Y-73059681D01*
X236334901Y-72964443D01*
X236287282Y-72916824D01*
X236192044Y-72869205D01*
X235953949Y-72869205D01*
X235858711Y-72916824D01*
X235811092Y-72964443D01*
X235763473Y-73059681D01*
X235763473Y-73250158D01*
X235811092Y-73345396D01*
X235858711Y-73393015D01*
X235953949Y-73440634D01*
X202337373Y-62677300D02*
X201861182Y-62677300D01*
X201861182Y-61677300D01*
X202623087Y-61772539D02*
X202670706Y-61724920D01*
X202765944Y-61677300D01*
X203004040Y-61677300D01*
X203099278Y-61724920D01*
X203146897Y-61772539D01*
X203194516Y-61867777D01*
X203194516Y-61963015D01*
X203146897Y-62105872D01*
X202575468Y-62677300D01*
X203194516Y-62677300D01*
X181623744Y-60984000D02*
X181623744Y-59984000D01*
X181861840Y-59984000D01*
X182004697Y-60031620D01*
X182099935Y-60126858D01*
X182147554Y-60222096D01*
X182195173Y-60412572D01*
X182195173Y-60555429D01*
X182147554Y-60745905D01*
X182099935Y-60841143D01*
X182004697Y-60936381D01*
X181861840Y-60984000D01*
X181623744Y-60984000D01*
X182576125Y-60079239D02*
X182623744Y-60031620D01*
X182718982Y-59984000D01*
X182957078Y-59984000D01*
X183052316Y-60031620D01*
X183099935Y-60079239D01*
X183147554Y-60174477D01*
X183147554Y-60269715D01*
X183099935Y-60412572D01*
X182528506Y-60984000D01*
X183147554Y-60984000D01*
X187652755Y-39495480D02*
X187652755Y-40305004D01*
X187700374Y-40400242D01*
X187747993Y-40447861D01*
X187843231Y-40495480D01*
X188033707Y-40495480D01*
X188128945Y-40447861D01*
X188176564Y-40400242D01*
X188224183Y-40305004D01*
X188224183Y-39495480D01*
X188652755Y-39590719D02*
X188700374Y-39543100D01*
X188795612Y-39495480D01*
X189033707Y-39495480D01*
X189128945Y-39543100D01*
X189176564Y-39590719D01*
X189224183Y-39685957D01*
X189224183Y-39781195D01*
X189176564Y-39924052D01*
X188605136Y-40495480D01*
X189224183Y-40495480D01*
X197031313Y-54094640D02*
X196697980Y-53618450D01*
X196459884Y-54094640D02*
X196459884Y-53094640D01*
X196840837Y-53094640D01*
X196936075Y-53142260D01*
X196983694Y-53189879D01*
X197031313Y-53285117D01*
X197031313Y-53427974D01*
X196983694Y-53523212D01*
X196936075Y-53570831D01*
X196840837Y-53618450D01*
X196459884Y-53618450D01*
X197888456Y-53094640D02*
X197697980Y-53094640D01*
X197602741Y-53142260D01*
X197555122Y-53189879D01*
X197459884Y-53332736D01*
X197412265Y-53523212D01*
X197412265Y-53904164D01*
X197459884Y-53999402D01*
X197507503Y-54047021D01*
X197602741Y-54094640D01*
X197793218Y-54094640D01*
X197888456Y-54047021D01*
X197936075Y-53999402D01*
X197983694Y-53904164D01*
X197983694Y-53666069D01*
X197936075Y-53570831D01*
X197888456Y-53523212D01*
X197793218Y-53475593D01*
X197602741Y-53475593D01*
X197507503Y-53523212D01*
X197459884Y-53570831D01*
X197412265Y-53666069D01*
X205906073Y-54245500D02*
X205572740Y-53769310D01*
X205334644Y-54245500D02*
X205334644Y-53245500D01*
X205715597Y-53245500D01*
X205810835Y-53293120D01*
X205858454Y-53340739D01*
X205906073Y-53435977D01*
X205906073Y-53578834D01*
X205858454Y-53674072D01*
X205810835Y-53721691D01*
X205715597Y-53769310D01*
X205334644Y-53769310D01*
X206763216Y-53578834D02*
X206763216Y-54245500D01*
X206525120Y-53197881D02*
X206287025Y-53912167D01*
X206906073Y-53912167D01*
X92213133Y-74543180D02*
X91879800Y-74066990D01*
X91641704Y-74543180D02*
X91641704Y-73543180D01*
X92022657Y-73543180D01*
X92117895Y-73590800D01*
X92165514Y-73638419D01*
X92213133Y-73733657D01*
X92213133Y-73876514D01*
X92165514Y-73971752D01*
X92117895Y-74019371D01*
X92022657Y-74066990D01*
X91641704Y-74066990D01*
X92546466Y-73543180D02*
X93165514Y-73543180D01*
X92832180Y-73924133D01*
X92975038Y-73924133D01*
X93070276Y-73971752D01*
X93117895Y-74019371D01*
X93165514Y-74114609D01*
X93165514Y-74352704D01*
X93117895Y-74447942D01*
X93070276Y-74495561D01*
X92975038Y-74543180D01*
X92689323Y-74543180D01*
X92594085Y-74495561D01*
X92546466Y-74447942D01*
X65909780Y-69509733D02*
X66624066Y-69509733D01*
X66766923Y-69557352D01*
X66862161Y-69652590D01*
X66909780Y-69795447D01*
X66909780Y-69890685D01*
X66909780Y-68509733D02*
X66909780Y-69081161D01*
X66909780Y-68795447D02*
X65909780Y-68795447D01*
X66052638Y-68890685D01*
X66147876Y-68985923D01*
X66195495Y-69081161D01*
D13*
X63471685Y-68740685D02*
X63305019Y-68740685D01*
X63305019Y-69002590D02*
X63305019Y-68502590D01*
X63543114Y-68502590D01*
X64019304Y-69002590D02*
X63852638Y-68764495D01*
X63733590Y-69002590D02*
X63733590Y-68502590D01*
X63924066Y-68502590D01*
X63971685Y-68526400D01*
X63995495Y-68550209D01*
X64019304Y-68597828D01*
X64019304Y-68669257D01*
X63995495Y-68716876D01*
X63971685Y-68740685D01*
X63924066Y-68764495D01*
X63733590Y-68764495D01*
X64328828Y-68502590D02*
X64424066Y-68502590D01*
X64471685Y-68526400D01*
X64519304Y-68574019D01*
X64543114Y-68669257D01*
X64543114Y-68835923D01*
X64519304Y-68931161D01*
X64471685Y-68978780D01*
X64424066Y-69002590D01*
X64328828Y-69002590D01*
X64281209Y-68978780D01*
X64233590Y-68931161D01*
X64209780Y-68835923D01*
X64209780Y-68669257D01*
X64233590Y-68574019D01*
X64281209Y-68526400D01*
X64328828Y-68502590D01*
X64757400Y-69002590D02*
X64757400Y-68502590D01*
X65043114Y-69002590D01*
X65043114Y-68502590D01*
X65209780Y-68502590D02*
X65495495Y-68502590D01*
X65352638Y-69002590D02*
X65352638Y-68502590D01*
X66043114Y-68740685D02*
X66209780Y-68740685D01*
X66281209Y-69002590D02*
X66043114Y-69002590D01*
X66043114Y-68502590D01*
X66281209Y-68502590D01*
X66495495Y-69002590D02*
X66495495Y-68502590D01*
X66614542Y-68502590D01*
X66685971Y-68526400D01*
X66733590Y-68574019D01*
X66757400Y-68621638D01*
X66781209Y-68716876D01*
X66781209Y-68788304D01*
X66757400Y-68883542D01*
X66733590Y-68931161D01*
X66685971Y-68978780D01*
X66614542Y-69002590D01*
X66495495Y-69002590D01*
X67257400Y-68526400D02*
X67209780Y-68502590D01*
X67138352Y-68502590D01*
X67066923Y-68526400D01*
X67019304Y-68574019D01*
X66995495Y-68621638D01*
X66971685Y-68716876D01*
X66971685Y-68788304D01*
X66995495Y-68883542D01*
X67019304Y-68931161D01*
X67066923Y-68978780D01*
X67138352Y-69002590D01*
X67185971Y-69002590D01*
X67257400Y-68978780D01*
X67281209Y-68954971D01*
X67281209Y-68788304D01*
X67185971Y-68788304D01*
X67495495Y-68740685D02*
X67662161Y-68740685D01*
X67733590Y-69002590D02*
X67495495Y-69002590D01*
X67495495Y-68502590D01*
X67733590Y-68502590D01*
D10*
X100976466Y-137596780D02*
X100976466Y-138311066D01*
X100928847Y-138453923D01*
X100833609Y-138549161D01*
X100690752Y-138596780D01*
X100595514Y-138596780D01*
X101881228Y-137930114D02*
X101881228Y-138596780D01*
X101643133Y-137549161D02*
X101405038Y-138263447D01*
X102024085Y-138263447D01*
D13*
X98574085Y-139058685D02*
X98407419Y-139058685D01*
X98407419Y-139320590D02*
X98407419Y-138820590D01*
X98645514Y-138820590D01*
X99121704Y-139320590D02*
X98955038Y-139082495D01*
X98835990Y-139320590D02*
X98835990Y-138820590D01*
X99026466Y-138820590D01*
X99074085Y-138844400D01*
X99097895Y-138868209D01*
X99121704Y-138915828D01*
X99121704Y-138987257D01*
X99097895Y-139034876D01*
X99074085Y-139058685D01*
X99026466Y-139082495D01*
X98835990Y-139082495D01*
X99431228Y-138820590D02*
X99526466Y-138820590D01*
X99574085Y-138844400D01*
X99621704Y-138892019D01*
X99645514Y-138987257D01*
X99645514Y-139153923D01*
X99621704Y-139249161D01*
X99574085Y-139296780D01*
X99526466Y-139320590D01*
X99431228Y-139320590D01*
X99383609Y-139296780D01*
X99335990Y-139249161D01*
X99312180Y-139153923D01*
X99312180Y-138987257D01*
X99335990Y-138892019D01*
X99383609Y-138844400D01*
X99431228Y-138820590D01*
X99859800Y-139320590D02*
X99859800Y-138820590D01*
X100145514Y-139320590D01*
X100145514Y-138820590D01*
X100312180Y-138820590D02*
X100597895Y-138820590D01*
X100455038Y-139320590D02*
X100455038Y-138820590D01*
X101145514Y-139058685D02*
X101312180Y-139058685D01*
X101383609Y-139320590D02*
X101145514Y-139320590D01*
X101145514Y-138820590D01*
X101383609Y-138820590D01*
X101597895Y-139320590D02*
X101597895Y-138820590D01*
X101716942Y-138820590D01*
X101788371Y-138844400D01*
X101835990Y-138892019D01*
X101859800Y-138939638D01*
X101883609Y-139034876D01*
X101883609Y-139106304D01*
X101859800Y-139201542D01*
X101835990Y-139249161D01*
X101788371Y-139296780D01*
X101716942Y-139320590D01*
X101597895Y-139320590D01*
X102359800Y-138844400D02*
X102312180Y-138820590D01*
X102240752Y-138820590D01*
X102169323Y-138844400D01*
X102121704Y-138892019D01*
X102097895Y-138939638D01*
X102074085Y-139034876D01*
X102074085Y-139106304D01*
X102097895Y-139201542D01*
X102121704Y-139249161D01*
X102169323Y-139296780D01*
X102240752Y-139320590D01*
X102288371Y-139320590D01*
X102359800Y-139296780D01*
X102383609Y-139272971D01*
X102383609Y-139106304D01*
X102288371Y-139106304D01*
X102597895Y-139058685D02*
X102764561Y-139058685D01*
X102835990Y-139320590D02*
X102597895Y-139320590D01*
X102597895Y-138820590D01*
X102835990Y-138820590D01*
D10*
X197986866Y-137596780D02*
X197986866Y-138311066D01*
X197939247Y-138453923D01*
X197844009Y-138549161D01*
X197701152Y-138596780D01*
X197605914Y-138596780D01*
X198939247Y-137596780D02*
X198463057Y-137596780D01*
X198415438Y-138072971D01*
X198463057Y-138025352D01*
X198558295Y-137977733D01*
X198796390Y-137977733D01*
X198891628Y-138025352D01*
X198939247Y-138072971D01*
X198986866Y-138168209D01*
X198986866Y-138406304D01*
X198939247Y-138501542D01*
X198891628Y-138549161D01*
X198796390Y-138596780D01*
X198558295Y-138596780D01*
X198463057Y-138549161D01*
X198415438Y-138501542D01*
D13*
X195584485Y-139058685D02*
X195417819Y-139058685D01*
X195417819Y-139320590D02*
X195417819Y-138820590D01*
X195655914Y-138820590D01*
X196132104Y-139320590D02*
X195965438Y-139082495D01*
X195846390Y-139320590D02*
X195846390Y-138820590D01*
X196036866Y-138820590D01*
X196084485Y-138844400D01*
X196108295Y-138868209D01*
X196132104Y-138915828D01*
X196132104Y-138987257D01*
X196108295Y-139034876D01*
X196084485Y-139058685D01*
X196036866Y-139082495D01*
X195846390Y-139082495D01*
X196441628Y-138820590D02*
X196536866Y-138820590D01*
X196584485Y-138844400D01*
X196632104Y-138892019D01*
X196655914Y-138987257D01*
X196655914Y-139153923D01*
X196632104Y-139249161D01*
X196584485Y-139296780D01*
X196536866Y-139320590D01*
X196441628Y-139320590D01*
X196394009Y-139296780D01*
X196346390Y-139249161D01*
X196322580Y-139153923D01*
X196322580Y-138987257D01*
X196346390Y-138892019D01*
X196394009Y-138844400D01*
X196441628Y-138820590D01*
X196870200Y-139320590D02*
X196870200Y-138820590D01*
X197155914Y-139320590D01*
X197155914Y-138820590D01*
X197322580Y-138820590D02*
X197608295Y-138820590D01*
X197465438Y-139320590D02*
X197465438Y-138820590D01*
X198155914Y-139058685D02*
X198322580Y-139058685D01*
X198394009Y-139320590D02*
X198155914Y-139320590D01*
X198155914Y-138820590D01*
X198394009Y-138820590D01*
X198608295Y-139320590D02*
X198608295Y-138820590D01*
X198727342Y-138820590D01*
X198798771Y-138844400D01*
X198846390Y-138892019D01*
X198870200Y-138939638D01*
X198894009Y-139034876D01*
X198894009Y-139106304D01*
X198870200Y-139201542D01*
X198846390Y-139249161D01*
X198798771Y-139296780D01*
X198727342Y-139320590D01*
X198608295Y-139320590D01*
X199370200Y-138844400D02*
X199322580Y-138820590D01*
X199251152Y-138820590D01*
X199179723Y-138844400D01*
X199132104Y-138892019D01*
X199108295Y-138939638D01*
X199084485Y-139034876D01*
X199084485Y-139106304D01*
X199108295Y-139201542D01*
X199132104Y-139249161D01*
X199179723Y-139296780D01*
X199251152Y-139320590D01*
X199298771Y-139320590D01*
X199370200Y-139296780D01*
X199394009Y-139272971D01*
X199394009Y-139106304D01*
X199298771Y-139106304D01*
X199608295Y-139058685D02*
X199774961Y-139058685D01*
X199846390Y-139320590D02*
X199608295Y-139320590D01*
X199608295Y-138820590D01*
X199846390Y-138820590D01*
D10*
X155502615Y-91100380D02*
X155502615Y-91909904D01*
X155550234Y-92005142D01*
X155597853Y-92052761D01*
X155693091Y-92100380D01*
X155883567Y-92100380D01*
X155978805Y-92052761D01*
X156026424Y-92005142D01*
X156074043Y-91909904D01*
X156074043Y-91100380D01*
X156978805Y-91433714D02*
X156978805Y-92100380D01*
X156740710Y-91052761D02*
X156502615Y-91767047D01*
X157121662Y-91767047D01*
X109275975Y-87293200D02*
X109275975Y-88102724D01*
X109323594Y-88197962D01*
X109371213Y-88245581D01*
X109466451Y-88293200D01*
X109656927Y-88293200D01*
X109752165Y-88245581D01*
X109799784Y-88197962D01*
X109847403Y-88102724D01*
X109847403Y-87293200D01*
X110847403Y-88293200D02*
X110275975Y-88293200D01*
X110561689Y-88293200D02*
X110561689Y-87293200D01*
X110466451Y-87436058D01*
X110371213Y-87531296D01*
X110275975Y-87578915D01*
X82472540Y-95715557D02*
X81996350Y-96048890D01*
X82472540Y-96286985D02*
X81472540Y-96286985D01*
X81472540Y-95906033D01*
X81520160Y-95810795D01*
X81567779Y-95763176D01*
X81663017Y-95715557D01*
X81805874Y-95715557D01*
X81901112Y-95763176D01*
X81948731Y-95810795D01*
X81996350Y-95906033D01*
X81996350Y-96286985D01*
X82472540Y-94763176D02*
X82472540Y-95334604D01*
X82472540Y-95048890D02*
X81472540Y-95048890D01*
X81615398Y-95144128D01*
X81710636Y-95239366D01*
X81758255Y-95334604D01*
X81805874Y-93906033D02*
X82472540Y-93906033D01*
X81424921Y-94144128D02*
X82139207Y-94382223D01*
X82139207Y-93763176D01*
X151144500Y-102536117D02*
X150668310Y-102869450D01*
X151144500Y-103107545D02*
X150144500Y-103107545D01*
X150144500Y-102726593D01*
X150192120Y-102631355D01*
X150239739Y-102583736D01*
X150334977Y-102536117D01*
X150477834Y-102536117D01*
X150573072Y-102583736D01*
X150620691Y-102631355D01*
X150668310Y-102726593D01*
X150668310Y-103107545D01*
X151144500Y-101583736D02*
X151144500Y-102155164D01*
X151144500Y-101869450D02*
X150144500Y-101869450D01*
X150287358Y-101964688D01*
X150382596Y-102059926D01*
X150430215Y-102155164D01*
X150144500Y-101250402D02*
X150144500Y-100631355D01*
X150525453Y-100964688D01*
X150525453Y-100821831D01*
X150573072Y-100726593D01*
X150620691Y-100678974D01*
X150715929Y-100631355D01*
X150954024Y-100631355D01*
X151049262Y-100678974D01*
X151096881Y-100726593D01*
X151144500Y-100821831D01*
X151144500Y-101107545D01*
X151096881Y-101202783D01*
X151049262Y-101250402D01*
X211593960Y-94173277D02*
X211117770Y-94506610D01*
X211593960Y-94744705D02*
X210593960Y-94744705D01*
X210593960Y-94363753D01*
X210641580Y-94268515D01*
X210689199Y-94220896D01*
X210784437Y-94173277D01*
X210927294Y-94173277D01*
X211022532Y-94220896D01*
X211070151Y-94268515D01*
X211117770Y-94363753D01*
X211117770Y-94744705D01*
X211593960Y-93220896D02*
X211593960Y-93792324D01*
X211593960Y-93506610D02*
X210593960Y-93506610D01*
X210736818Y-93601848D01*
X210832056Y-93697086D01*
X210879675Y-93792324D01*
X210689199Y-92839943D02*
X210641580Y-92792324D01*
X210593960Y-92697086D01*
X210593960Y-92458991D01*
X210641580Y-92363753D01*
X210689199Y-92316134D01*
X210784437Y-92268515D01*
X210879675Y-92268515D01*
X211022532Y-92316134D01*
X211593960Y-92887562D01*
X211593960Y-92268515D01*
X151144500Y-98062017D02*
X150668310Y-98395350D01*
X151144500Y-98633445D02*
X150144500Y-98633445D01*
X150144500Y-98252493D01*
X150192120Y-98157255D01*
X150239739Y-98109636D01*
X150334977Y-98062017D01*
X150477834Y-98062017D01*
X150573072Y-98109636D01*
X150620691Y-98157255D01*
X150668310Y-98252493D01*
X150668310Y-98633445D01*
X151144500Y-97109636D02*
X151144500Y-97681064D01*
X151144500Y-97395350D02*
X150144500Y-97395350D01*
X150287358Y-97490588D01*
X150382596Y-97585826D01*
X150430215Y-97681064D01*
X151144500Y-96157255D02*
X151144500Y-96728683D01*
X151144500Y-96442969D02*
X150144500Y-96442969D01*
X150287358Y-96538207D01*
X150382596Y-96633445D01*
X150430215Y-96728683D01*
X117599722Y-99088940D02*
X117266389Y-98612750D01*
X117028294Y-99088940D02*
X117028294Y-98088940D01*
X117409246Y-98088940D01*
X117504484Y-98136560D01*
X117552103Y-98184179D01*
X117599722Y-98279417D01*
X117599722Y-98422274D01*
X117552103Y-98517512D01*
X117504484Y-98565131D01*
X117409246Y-98612750D01*
X117028294Y-98612750D01*
X118552103Y-99088940D02*
X117980675Y-99088940D01*
X118266389Y-99088940D02*
X118266389Y-98088940D01*
X118171151Y-98231798D01*
X118075913Y-98327036D01*
X117980675Y-98374655D01*
X119171151Y-98088940D02*
X119266389Y-98088940D01*
X119361627Y-98136560D01*
X119409246Y-98184179D01*
X119456865Y-98279417D01*
X119504484Y-98469893D01*
X119504484Y-98707988D01*
X119456865Y-98898464D01*
X119409246Y-98993702D01*
X119361627Y-99041321D01*
X119266389Y-99088940D01*
X119171151Y-99088940D01*
X119075913Y-99041321D01*
X119028294Y-98993702D01*
X118980675Y-98898464D01*
X118933056Y-98707988D01*
X118933056Y-98469893D01*
X118980675Y-98279417D01*
X119028294Y-98184179D01*
X119075913Y-98136560D01*
X119171151Y-98088940D01*
X212611960Y-97263246D02*
X212135770Y-97596580D01*
X212611960Y-97834675D02*
X211611960Y-97834675D01*
X211611960Y-97453722D01*
X211659580Y-97358484D01*
X211707199Y-97310865D01*
X211802437Y-97263246D01*
X211945294Y-97263246D01*
X212040532Y-97310865D01*
X212088151Y-97358484D01*
X212135770Y-97453722D01*
X212135770Y-97834675D01*
X212611960Y-96787056D02*
X212611960Y-96596580D01*
X212564341Y-96501341D01*
X212516722Y-96453722D01*
X212373865Y-96358484D01*
X212183389Y-96310865D01*
X211802437Y-96310865D01*
X211707199Y-96358484D01*
X211659580Y-96406103D01*
X211611960Y-96501341D01*
X211611960Y-96691818D01*
X211659580Y-96787056D01*
X211707199Y-96834675D01*
X211802437Y-96882294D01*
X212040532Y-96882294D01*
X212135770Y-96834675D01*
X212183389Y-96787056D01*
X212231008Y-96691818D01*
X212231008Y-96501341D01*
X212183389Y-96406103D01*
X212135770Y-96358484D01*
X212040532Y-96310865D01*
X121210560Y-104308946D02*
X120734370Y-104642280D01*
X121210560Y-104880375D02*
X120210560Y-104880375D01*
X120210560Y-104499422D01*
X120258180Y-104404184D01*
X120305799Y-104356565D01*
X120401037Y-104308946D01*
X120543894Y-104308946D01*
X120639132Y-104356565D01*
X120686751Y-104404184D01*
X120734370Y-104499422D01*
X120734370Y-104880375D01*
X120639132Y-103737518D02*
X120591513Y-103832756D01*
X120543894Y-103880375D01*
X120448656Y-103927994D01*
X120401037Y-103927994D01*
X120305799Y-103880375D01*
X120258180Y-103832756D01*
X120210560Y-103737518D01*
X120210560Y-103547041D01*
X120258180Y-103451803D01*
X120305799Y-103404184D01*
X120401037Y-103356565D01*
X120448656Y-103356565D01*
X120543894Y-103404184D01*
X120591513Y-103451803D01*
X120639132Y-103547041D01*
X120639132Y-103737518D01*
X120686751Y-103832756D01*
X120734370Y-103880375D01*
X120829608Y-103927994D01*
X121020084Y-103927994D01*
X121115322Y-103880375D01*
X121162941Y-103832756D01*
X121210560Y-103737518D01*
X121210560Y-103547041D01*
X121162941Y-103451803D01*
X121115322Y-103404184D01*
X121020084Y-103356565D01*
X120829608Y-103356565D01*
X120734370Y-103404184D01*
X120686751Y-103451803D01*
X120639132Y-103547041D01*
X218325293Y-95236560D02*
X217991960Y-94760370D01*
X217753864Y-95236560D02*
X217753864Y-94236560D01*
X218134817Y-94236560D01*
X218230055Y-94284180D01*
X218277674Y-94331799D01*
X218325293Y-94427037D01*
X218325293Y-94569894D01*
X218277674Y-94665132D01*
X218230055Y-94712751D01*
X218134817Y-94760370D01*
X217753864Y-94760370D01*
X218658626Y-94236560D02*
X219325293Y-94236560D01*
X218896721Y-95236560D01*
X101087893Y-74694040D02*
X100754560Y-74217850D01*
X100516464Y-74694040D02*
X100516464Y-73694040D01*
X100897417Y-73694040D01*
X100992655Y-73741660D01*
X101040274Y-73789279D01*
X101087893Y-73884517D01*
X101087893Y-74027374D01*
X101040274Y-74122612D01*
X100992655Y-74170231D01*
X100897417Y-74217850D01*
X100516464Y-74217850D01*
X101992655Y-73694040D02*
X101516464Y-73694040D01*
X101468845Y-74170231D01*
X101516464Y-74122612D01*
X101611702Y-74074993D01*
X101849798Y-74074993D01*
X101945036Y-74122612D01*
X101992655Y-74170231D01*
X102040274Y-74265469D01*
X102040274Y-74503564D01*
X101992655Y-74598802D01*
X101945036Y-74646421D01*
X101849798Y-74694040D01*
X101611702Y-74694040D01*
X101516464Y-74646421D01*
X101468845Y-74598802D01*
X86290680Y-67044866D02*
X85814490Y-67378200D01*
X86290680Y-67616295D02*
X85290680Y-67616295D01*
X85290680Y-67235342D01*
X85338300Y-67140104D01*
X85385919Y-67092485D01*
X85481157Y-67044866D01*
X85624014Y-67044866D01*
X85719252Y-67092485D01*
X85766871Y-67140104D01*
X85814490Y-67235342D01*
X85814490Y-67616295D01*
X86290680Y-66092485D02*
X86290680Y-66663914D01*
X86290680Y-66378200D02*
X85290680Y-66378200D01*
X85433538Y-66473438D01*
X85528776Y-66568676D01*
X85576395Y-66663914D01*
X121311320Y-118467906D02*
X121311320Y-118944097D01*
X120311320Y-118944097D01*
X120311320Y-117706001D02*
X120311320Y-117896478D01*
X120358940Y-117991716D01*
X120406559Y-118039335D01*
X120549416Y-118134573D01*
X120739892Y-118182192D01*
X121120844Y-118182192D01*
X121216082Y-118134573D01*
X121263701Y-118086954D01*
X121311320Y-117991716D01*
X121311320Y-117801240D01*
X121263701Y-117706001D01*
X121216082Y-117658382D01*
X121120844Y-117610763D01*
X120882749Y-117610763D01*
X120787511Y-117658382D01*
X120739892Y-117706001D01*
X120692273Y-117801240D01*
X120692273Y-117991716D01*
X120739892Y-118086954D01*
X120787511Y-118134573D01*
X120882749Y-118182192D01*
X237417780Y-122439966D02*
X237417780Y-122916157D01*
X236417780Y-122916157D01*
X236417780Y-121630442D02*
X236417780Y-122106633D01*
X236893971Y-122154252D01*
X236846352Y-122106633D01*
X236798733Y-122011395D01*
X236798733Y-121773300D01*
X236846352Y-121678061D01*
X236893971Y-121630442D01*
X236989209Y-121582823D01*
X237227304Y-121582823D01*
X237322542Y-121630442D01*
X237370161Y-121678061D01*
X237417780Y-121773300D01*
X237417780Y-122011395D01*
X237370161Y-122106633D01*
X237322542Y-122154252D01*
X179281793Y-119332500D02*
X178805602Y-119332500D01*
X178805602Y-118332500D01*
X180043698Y-118665834D02*
X180043698Y-119332500D01*
X179805602Y-118284881D02*
X179567507Y-118999167D01*
X180186555Y-118999167D01*
X167374500Y-84776606D02*
X167374500Y-85252797D01*
X166374500Y-85252797D01*
X166374500Y-84538511D02*
X166374500Y-83919463D01*
X166755453Y-84252797D01*
X166755453Y-84109940D01*
X166803072Y-84014701D01*
X166850691Y-83967082D01*
X166945929Y-83919463D01*
X167184024Y-83919463D01*
X167279262Y-83967082D01*
X167326881Y-84014701D01*
X167374500Y-84109940D01*
X167374500Y-84395654D01*
X167326881Y-84490892D01*
X167279262Y-84538511D01*
X95781833Y-66111380D02*
X95305642Y-66111380D01*
X95305642Y-65111380D01*
X96638976Y-66111380D02*
X96067547Y-66111380D01*
X96353261Y-66111380D02*
X96353261Y-65111380D01*
X96258023Y-65254238D01*
X96162785Y-65349476D01*
X96067547Y-65397095D01*
X157514966Y-143815820D02*
X157514966Y-144530106D01*
X157467347Y-144672963D01*
X157372109Y-144768201D01*
X157229252Y-144815820D01*
X157134014Y-144815820D01*
X157895919Y-143815820D02*
X158514966Y-143815820D01*
X158181633Y-144196773D01*
X158324490Y-144196773D01*
X158419728Y-144244392D01*
X158467347Y-144292011D01*
X158514966Y-144387249D01*
X158514966Y-144625344D01*
X158467347Y-144720582D01*
X158419728Y-144768201D01*
X158324490Y-144815820D01*
X158038776Y-144815820D01*
X157943538Y-144768201D01*
X157895919Y-144720582D01*
X239477695Y-140735181D02*
X239477695Y-139735181D01*
X239477695Y-140211372D02*
X240049123Y-140211372D01*
X240049123Y-140735181D02*
X240049123Y-139735181D01*
X240953885Y-140068515D02*
X240953885Y-140735181D01*
X240715790Y-139687562D02*
X240477695Y-140401848D01*
X241096742Y-140401848D01*
X239477695Y-48885179D02*
X239477695Y-47885179D01*
X239477695Y-48361370D02*
X240049123Y-48361370D01*
X240049123Y-48885179D02*
X240049123Y-47885179D01*
X240430076Y-47885179D02*
X241049123Y-47885179D01*
X240715790Y-48266132D01*
X240858647Y-48266132D01*
X240953885Y-48313751D01*
X241001504Y-48361370D01*
X241049123Y-48456608D01*
X241049123Y-48694703D01*
X241001504Y-48789941D01*
X240953885Y-48837560D01*
X240858647Y-48885179D01*
X240572933Y-48885179D01*
X240477695Y-48837560D01*
X240430076Y-48789941D01*
X57277693Y-140735181D02*
X57277693Y-139735181D01*
X57277693Y-140211372D02*
X57849121Y-140211372D01*
X57849121Y-140735181D02*
X57849121Y-139735181D01*
X58277693Y-139830420D02*
X58325312Y-139782801D01*
X58420550Y-139735181D01*
X58658645Y-139735181D01*
X58753883Y-139782801D01*
X58801502Y-139830420D01*
X58849121Y-139925658D01*
X58849121Y-140020896D01*
X58801502Y-140163753D01*
X58230074Y-140735181D01*
X58849121Y-140735181D01*
X57277693Y-48885179D02*
X57277693Y-47885179D01*
X57277693Y-48361370D02*
X57849121Y-48361370D01*
X57849121Y-48885179D02*
X57849121Y-47885179D01*
X58849121Y-48885179D02*
X58277693Y-48885179D01*
X58563407Y-48885179D02*
X58563407Y-47885179D01*
X58468169Y-48028037D01*
X58372931Y-48123275D01*
X58277693Y-48170894D01*
X169814500Y-96379915D02*
X168814500Y-96379915D01*
X168814500Y-96141820D01*
X168862120Y-95998962D01*
X168957358Y-95903724D01*
X169052596Y-95856105D01*
X169243072Y-95808486D01*
X169385929Y-95808486D01*
X169576405Y-95856105D01*
X169671643Y-95903724D01*
X169766881Y-95998962D01*
X169814500Y-96141820D01*
X169814500Y-96379915D01*
X168814500Y-95475153D02*
X168814500Y-94856105D01*
X169195453Y-95189439D01*
X169195453Y-95046581D01*
X169243072Y-94951343D01*
X169290691Y-94903724D01*
X169385929Y-94856105D01*
X169624024Y-94856105D01*
X169719262Y-94903724D01*
X169766881Y-94951343D01*
X169814500Y-95046581D01*
X169814500Y-95332296D01*
X169766881Y-95427534D01*
X169719262Y-95475153D01*
X115352604Y-67804680D02*
X115352604Y-66804680D01*
X115590700Y-66804680D01*
X115733557Y-66852300D01*
X115828795Y-66947538D01*
X115876414Y-67042776D01*
X115924033Y-67233252D01*
X115924033Y-67376109D01*
X115876414Y-67566585D01*
X115828795Y-67661823D01*
X115733557Y-67757061D01*
X115590700Y-67804680D01*
X115352604Y-67804680D01*
X116876414Y-67804680D02*
X116304985Y-67804680D01*
X116590700Y-67804680D02*
X116590700Y-66804680D01*
X116495461Y-66947538D01*
X116400223Y-67042776D01*
X116304985Y-67090395D01*
X118881402Y-133869582D02*
X118833783Y-133917201D01*
X118690926Y-133964820D01*
X118595688Y-133964820D01*
X118452831Y-133917201D01*
X118357593Y-133821963D01*
X118309974Y-133726725D01*
X118262355Y-133536249D01*
X118262355Y-133393392D01*
X118309974Y-133202916D01*
X118357593Y-133107678D01*
X118452831Y-133012440D01*
X118595688Y-132964820D01*
X118690926Y-132964820D01*
X118833783Y-133012440D01*
X118881402Y-133060059D01*
X119833783Y-133964820D02*
X119262355Y-133964820D01*
X119548069Y-133964820D02*
X119548069Y-132964820D01*
X119452831Y-133107678D01*
X119357593Y-133202916D01*
X119262355Y-133250535D01*
X120690926Y-132964820D02*
X120500450Y-132964820D01*
X120405212Y-133012440D01*
X120357593Y-133060059D01*
X120262355Y-133202916D01*
X120214736Y-133393392D01*
X120214736Y-133774344D01*
X120262355Y-133869582D01*
X120309974Y-133917201D01*
X120405212Y-133964820D01*
X120595688Y-133964820D01*
X120690926Y-133917201D01*
X120738545Y-133869582D01*
X120786164Y-133774344D01*
X120786164Y-133536249D01*
X120738545Y-133441011D01*
X120690926Y-133393392D01*
X120595688Y-133345773D01*
X120405212Y-133345773D01*
X120309974Y-133393392D01*
X120262355Y-133441011D01*
X120214736Y-133536249D01*
X222480762Y-143662637D02*
X222528381Y-143710256D01*
X222576000Y-143853113D01*
X222576000Y-143948351D01*
X222528381Y-144091208D01*
X222433143Y-144186446D01*
X222337905Y-144234065D01*
X222147429Y-144281684D01*
X222004572Y-144281684D01*
X221814096Y-144234065D01*
X221718858Y-144186446D01*
X221623620Y-144091208D01*
X221576000Y-143948351D01*
X221576000Y-143853113D01*
X221623620Y-143710256D01*
X221671239Y-143662637D01*
X222576000Y-142710256D02*
X222576000Y-143281684D01*
X222576000Y-142995970D02*
X221576000Y-142995970D01*
X221718858Y-143091208D01*
X221814096Y-143186446D01*
X221861715Y-143281684D01*
X221576000Y-141805494D02*
X221576000Y-142281684D01*
X222052191Y-142329303D01*
X222004572Y-142281684D01*
X221956953Y-142186446D01*
X221956953Y-141948351D01*
X222004572Y-141853113D01*
X222052191Y-141805494D01*
X222147429Y-141757875D01*
X222385524Y-141757875D01*
X222480762Y-141805494D01*
X222528381Y-141853113D01*
X222576000Y-141948351D01*
X222576000Y-142186446D01*
X222528381Y-142281684D01*
X222480762Y-142329303D01*
X205401942Y-124396122D02*
X205354323Y-124443741D01*
X205211466Y-124491360D01*
X205116228Y-124491360D01*
X204973371Y-124443741D01*
X204878133Y-124348503D01*
X204830514Y-124253265D01*
X204782895Y-124062789D01*
X204782895Y-123919932D01*
X204830514Y-123729456D01*
X204878133Y-123634218D01*
X204973371Y-123538980D01*
X205116228Y-123491360D01*
X205211466Y-123491360D01*
X205354323Y-123538980D01*
X205401942Y-123586599D01*
X206354323Y-124491360D02*
X205782895Y-124491360D01*
X206068609Y-124491360D02*
X206068609Y-123491360D01*
X205973371Y-123634218D01*
X205878133Y-123729456D01*
X205782895Y-123777075D01*
X207211466Y-123824694D02*
X207211466Y-124491360D01*
X206973371Y-123443741D02*
X206735276Y-124158027D01*
X207354323Y-124158027D01*
X174568882Y-103649702D02*
X174521263Y-103697321D01*
X174378406Y-103744940D01*
X174283168Y-103744940D01*
X174140311Y-103697321D01*
X174045073Y-103602083D01*
X173997454Y-103506845D01*
X173949835Y-103316369D01*
X173949835Y-103173512D01*
X173997454Y-102983036D01*
X174045073Y-102887798D01*
X174140311Y-102792560D01*
X174283168Y-102744940D01*
X174378406Y-102744940D01*
X174521263Y-102792560D01*
X174568882Y-102840179D01*
X175521263Y-103744940D02*
X174949835Y-103744940D01*
X175235549Y-103744940D02*
X175235549Y-102744940D01*
X175140311Y-102887798D01*
X175045073Y-102983036D01*
X174949835Y-103030655D01*
X175854597Y-102744940D02*
X176473644Y-102744940D01*
X176140311Y-103125893D01*
X176283168Y-103125893D01*
X176378406Y-103173512D01*
X176426025Y-103221131D01*
X176473644Y-103316369D01*
X176473644Y-103554464D01*
X176426025Y-103649702D01*
X176378406Y-103697321D01*
X176283168Y-103744940D01*
X175997454Y-103744940D01*
X175902216Y-103697321D01*
X175854597Y-103649702D01*
X155725402Y-102536117D02*
X155773021Y-102583736D01*
X155820640Y-102726593D01*
X155820640Y-102821831D01*
X155773021Y-102964688D01*
X155677783Y-103059926D01*
X155582545Y-103107545D01*
X155392069Y-103155164D01*
X155249212Y-103155164D01*
X155058736Y-103107545D01*
X154963498Y-103059926D01*
X154868260Y-102964688D01*
X154820640Y-102821831D01*
X154820640Y-102726593D01*
X154868260Y-102583736D01*
X154915879Y-102536117D01*
X155820640Y-101583736D02*
X155820640Y-102155164D01*
X155820640Y-101869450D02*
X154820640Y-101869450D01*
X154963498Y-101964688D01*
X155058736Y-102059926D01*
X155106355Y-102155164D01*
X154915879Y-101202783D02*
X154868260Y-101155164D01*
X154820640Y-101059926D01*
X154820640Y-100821831D01*
X154868260Y-100726593D01*
X154915879Y-100678974D01*
X155011117Y-100631355D01*
X155106355Y-100631355D01*
X155249212Y-100678974D01*
X155820640Y-101250402D01*
X155820640Y-100631355D01*
X144820402Y-96507842D02*
X144772783Y-96555461D01*
X144629926Y-96603080D01*
X144534688Y-96603080D01*
X144391831Y-96555461D01*
X144296593Y-96460223D01*
X144248974Y-96364985D01*
X144201355Y-96174509D01*
X144201355Y-96031652D01*
X144248974Y-95841176D01*
X144296593Y-95745938D01*
X144391831Y-95650700D01*
X144534688Y-95603080D01*
X144629926Y-95603080D01*
X144772783Y-95650700D01*
X144820402Y-95698319D01*
X145772783Y-96603080D02*
X145201355Y-96603080D01*
X145487069Y-96603080D02*
X145487069Y-95603080D01*
X145391831Y-95745938D01*
X145296593Y-95841176D01*
X145201355Y-95888795D01*
X146391831Y-95603080D02*
X146487069Y-95603080D01*
X146582307Y-95650700D01*
X146629926Y-95698319D01*
X146677545Y-95793557D01*
X146725164Y-95984033D01*
X146725164Y-96222128D01*
X146677545Y-96412604D01*
X146629926Y-96507842D01*
X146582307Y-96555461D01*
X146487069Y-96603080D01*
X146391831Y-96603080D01*
X146296593Y-96555461D01*
X146248974Y-96507842D01*
X146201355Y-96412604D01*
X146153736Y-96222128D01*
X146153736Y-95984033D01*
X146201355Y-95793557D01*
X146248974Y-95698319D01*
X146296593Y-95650700D01*
X146391831Y-95603080D01*
X155084802Y-86077086D02*
X155132421Y-86124705D01*
X155180040Y-86267562D01*
X155180040Y-86362800D01*
X155132421Y-86505658D01*
X155037183Y-86600896D01*
X154941945Y-86648515D01*
X154751469Y-86696134D01*
X154608612Y-86696134D01*
X154418136Y-86648515D01*
X154322898Y-86600896D01*
X154227660Y-86505658D01*
X154180040Y-86362800D01*
X154180040Y-86267562D01*
X154227660Y-86124705D01*
X154275279Y-86077086D01*
X154608612Y-85505658D02*
X154560993Y-85600896D01*
X154513374Y-85648515D01*
X154418136Y-85696134D01*
X154370517Y-85696134D01*
X154275279Y-85648515D01*
X154227660Y-85600896D01*
X154180040Y-85505658D01*
X154180040Y-85315181D01*
X154227660Y-85219943D01*
X154275279Y-85172324D01*
X154370517Y-85124705D01*
X154418136Y-85124705D01*
X154513374Y-85172324D01*
X154560993Y-85219943D01*
X154608612Y-85315181D01*
X154608612Y-85505658D01*
X154656231Y-85600896D01*
X154703850Y-85648515D01*
X154799088Y-85696134D01*
X154989564Y-85696134D01*
X155084802Y-85648515D01*
X155132421Y-85600896D01*
X155180040Y-85505658D01*
X155180040Y-85315181D01*
X155132421Y-85219943D01*
X155084802Y-85172324D01*
X154989564Y-85124705D01*
X154799088Y-85124705D01*
X154703850Y-85172324D01*
X154656231Y-85219943D01*
X154608612Y-85315181D01*
X147413982Y-89851526D02*
X147461601Y-89899145D01*
X147509220Y-90042002D01*
X147509220Y-90137240D01*
X147461601Y-90280098D01*
X147366363Y-90375336D01*
X147271125Y-90422955D01*
X147080649Y-90470574D01*
X146937792Y-90470574D01*
X146747316Y-90422955D01*
X146652078Y-90375336D01*
X146556840Y-90280098D01*
X146509220Y-90137240D01*
X146509220Y-90042002D01*
X146556840Y-89899145D01*
X146604459Y-89851526D01*
X146509220Y-89518193D02*
X146509220Y-88851526D01*
X147509220Y-89280098D01*
X62879542Y-54395666D02*
X62927161Y-54443285D01*
X62974780Y-54586142D01*
X62974780Y-54681380D01*
X62927161Y-54824238D01*
X62831923Y-54919476D01*
X62736685Y-54967095D01*
X62546209Y-55014714D01*
X62403352Y-55014714D01*
X62212876Y-54967095D01*
X62117638Y-54919476D01*
X62022400Y-54824238D01*
X61974780Y-54681380D01*
X61974780Y-54586142D01*
X62022400Y-54443285D01*
X62070019Y-54395666D01*
X61974780Y-53490904D02*
X61974780Y-53967095D01*
X62450971Y-54014714D01*
X62403352Y-53967095D01*
X62355733Y-53871857D01*
X62355733Y-53633761D01*
X62403352Y-53538523D01*
X62450971Y-53490904D01*
X62546209Y-53443285D01*
X62784304Y-53443285D01*
X62879542Y-53490904D01*
X62927161Y-53538523D01*
X62974780Y-53633761D01*
X62974780Y-53871857D01*
X62927161Y-53967095D01*
X62879542Y-54014714D01*
X160564533Y-121642142D02*
X160516914Y-121689761D01*
X160374057Y-121737380D01*
X160278819Y-121737380D01*
X160135961Y-121689761D01*
X160040723Y-121594523D01*
X159993104Y-121499285D01*
X159945485Y-121308809D01*
X159945485Y-121165952D01*
X159993104Y-120975476D01*
X160040723Y-120880238D01*
X160135961Y-120785000D01*
X160278819Y-120737380D01*
X160374057Y-120737380D01*
X160516914Y-120785000D01*
X160564533Y-120832619D01*
X161421676Y-121070714D02*
X161421676Y-121737380D01*
X161183580Y-120689761D02*
X160945485Y-121404047D01*
X161564533Y-121404047D01*
X160731200Y-113955580D02*
X160731200Y-114193676D01*
X160493104Y-114098438D02*
X160731200Y-114193676D01*
X160969295Y-114098438D01*
X160588342Y-114384152D02*
X160731200Y-114193676D01*
X160874057Y-114384152D01*
X136688533Y-121642142D02*
X136640914Y-121689761D01*
X136498057Y-121737380D01*
X136402819Y-121737380D01*
X136259961Y-121689761D01*
X136164723Y-121594523D01*
X136117104Y-121499285D01*
X136069485Y-121308809D01*
X136069485Y-121165952D01*
X136117104Y-120975476D01*
X136164723Y-120880238D01*
X136259961Y-120785000D01*
X136402819Y-120737380D01*
X136498057Y-120737380D01*
X136640914Y-120785000D01*
X136688533Y-120832619D01*
X137021866Y-120737380D02*
X137640914Y-120737380D01*
X137307580Y-121118333D01*
X137450438Y-121118333D01*
X137545676Y-121165952D01*
X137593295Y-121213571D01*
X137640914Y-121308809D01*
X137640914Y-121546904D01*
X137593295Y-121642142D01*
X137545676Y-121689761D01*
X137450438Y-121737380D01*
X137164723Y-121737380D01*
X137069485Y-121689761D01*
X137021866Y-121642142D01*
X136855200Y-113955580D02*
X136855200Y-114193676D01*
X136617104Y-114098438D02*
X136855200Y-114193676D01*
X137093295Y-114098438D01*
X136712342Y-114384152D02*
X136855200Y-114193676D01*
X136998057Y-114384152D01*
X124006313Y-79452742D02*
X123958694Y-79500361D01*
X123815837Y-79547980D01*
X123720599Y-79547980D01*
X123577741Y-79500361D01*
X123482503Y-79405123D01*
X123434884Y-79309885D01*
X123387265Y-79119409D01*
X123387265Y-78976552D01*
X123434884Y-78786076D01*
X123482503Y-78690838D01*
X123577741Y-78595600D01*
X123720599Y-78547980D01*
X123815837Y-78547980D01*
X123958694Y-78595600D01*
X124006313Y-78643219D01*
X124958694Y-79547980D02*
X124387265Y-79547980D01*
X124672980Y-79547980D02*
X124672980Y-78547980D01*
X124577741Y-78690838D01*
X124482503Y-78786076D01*
X124387265Y-78833695D01*
X124167900Y-72236080D02*
X124167900Y-72474176D01*
X123929804Y-72378938D02*
X124167900Y-72474176D01*
X124405995Y-72378938D01*
X124025042Y-72664652D02*
X124167900Y-72474176D01*
X124310757Y-72664652D01*
M02*
